<svg width="200" height="200" viewBox="0 0 200 200" fill="none" xmlns="http://www.w3.org/2000/svg">
<rect width="200" height="200" fill="black"/>
<path d="M168.172 84.7632H168.17C179.834 55.2363 181.126 37.1262 181.133 30.6705C181.136 28.6153 180.22 26.7066 178.619 25.4341C177.114 24.2399 175.177 23.7577 173.303 24.1162C156.526 27.3226 131.04 40.8932 125.629 43.8446C122.764 42.918 114.642 40.8099 100.068 40.8099C85.4937 40.8099 77.3723 42.918 74.5071 43.8446C69.0929 40.8932 43.6074 27.3201 26.8303 24.1162C24.9562 23.7577 23.0193 24.2374 21.5139 25.4341C19.9132 26.7041 19 28.6128 19 30.6705C19.01 37.1262 20.2996 55.2337 31.9635 84.7657C31.2761 86.6492 29.9087 91.0044 29.3969 96.9905C28.7722 104.292 29.3493 115.558 35.6491 127.762C41.3594 138.828 51.1517 150.717 61.8396 159.566C78.0999 173.031 91.505 175.95 99.955 176H100.181C108.631 175.95 122.036 173.028 138.296 159.564C148.984 150.715 158.776 138.826 164.487 127.76C170.787 115.555 171.364 104.29 170.739 96.988C170.227 91.0018 168.86 86.6467 168.172 84.7632ZM43.2913 95.1399C53.3445 97.6697 85.6868 113.669 85.5238 132.125C61.3655 138.828 41.3418 116.971 43.2913 95.1399ZM114.612 132.125C114.449 113.672 146.791 97.6697 156.845 95.1399C158.796 116.971 138.77 138.828 114.612 132.125Z" fill="#87A5F3"/>
</svg>
