<svg width="32" height="33" viewBox="0 0 32 33" fill="none" xmlns="http://www.w3.org/2000/svg">
<path d="M9 5.91504C6.79086 5.91504 5 7.7059 5 9.91504C5 12.1242 6.79086 13.915 9 13.915C11.2091 13.915 13 12.1242 13 9.91504C13 7.7059 11.2091 5.91504 9 5.91504Z" fill="currentColor"/>
<path d="M22.3333 5.91504C20.1241 5.91504 18.3333 7.7059 18.3333 9.91504C18.3333 12.1242 20.1241 13.915 22.3333 13.915C24.5424 13.915 26.3333 12.1242 26.3333 9.91504C26.3333 7.7059 24.5424 5.91504 22.3333 5.91504Z" fill="currentColor"/>
<path d="M9 19.2485C6.79086 19.2485 5 21.0394 5 23.2485C5 25.4577 6.79086 27.2485 9 27.2485C11.2091 27.2485 13 25.4577 13 23.2485C13 21.0394 11.2091 19.2485 9 19.2485Z" fill="currentColor"/>
<path d="M22.3333 19.2485C20.1241 19.2485 18.3333 21.0394 18.3333 23.2485C18.3333 25.4577 20.1241 27.2485 22.3333 27.2485C24.5424 27.2485 26.3333 25.4577 26.3333 23.2485C26.3333 21.0394 24.5424 19.2485 22.3333 19.2485Z" fill="currentColor"/>
</svg>
