<svg width="32" height="33" viewBox="0 0 32 33" fill="none" xmlns="http://www.w3.org/2000/svg">
<path d="M26.4648 12.6791L25.7248 10.6691L26.2394 9.51529C26.2718 9.4425 26.2814 9.36165 26.267 9.28331C26.2526 9.20497 26.2148 9.13281 26.1587 9.07629L24.7593 7.66174C24.4589 7.35691 24.0781 7.14369 23.6612 7.04691C23.2443 6.95013 22.8085 6.97378 22.4045 7.11509L22.0126 7.25133L19.8748 4.93522L16.2484 4.91504H16.2248L12.5749 4.94363L10.4388 7.27824L10.0587 7.14368C9.65206 7.0007 9.21312 6.97665 8.79334 7.07437C8.37356 7.17209 7.99036 7.38752 7.68872 7.69538L6.26407 9.13685C6.21936 9.1819 6.18933 9.23943 6.17792 9.30187C6.16651 9.36431 6.17427 9.42875 6.20016 9.4867L6.73671 10.6843L6 12.6926L6.476 14.5041L8.64746 22.7593C8.89762 23.7103 9.47314 24.5435 10.274 25.1141C10.274 25.1141 12.9096 26.9727 15.51 28.6614C15.7156 28.8256 15.971 28.915 16.2341 28.915C16.4972 28.915 16.7526 28.8256 16.9582 28.6614C19.8798 26.7473 22.1909 25.1074 22.1909 25.1074C22.9911 24.5365 23.566 23.7033 23.8157 22.7526L25.9754 14.494L26.4648 12.6791Z" fill="currentColor"/>
<path d="M16.8303 19.7923C16.6919 19.7303 16.5491 19.6786 16.4031 19.6376H16.1458C15.9998 19.6786 15.857 19.7303 15.7185 19.7923L15.071 20.0614C14.8658 20.1472 14.5361 20.3003 14.3393 20.3978L13.1485 21.0185C13.1053 21.0325 13.0674 21.0591 13.0395 21.0948C13.0116 21.1306 12.9951 21.1738 12.992 21.2191C12.9889 21.2643 12.9994 21.3094 13.0222 21.3486C13.045 21.3878 13.079 21.4193 13.1199 21.439L14.1543 22.169C14.3359 22.2968 14.6219 22.5222 14.7901 22.6736L15.0811 22.9242C15.2493 23.0688 15.5234 23.3094 15.6899 23.4574L15.9658 23.7013C16.051 23.7723 16.1585 23.8112 16.2694 23.8112C16.3803 23.8112 16.4878 23.7723 16.573 23.7013L16.8623 23.449L17.4712 22.9175L17.7638 22.6618C17.932 22.5155 18.2163 22.2901 18.398 22.1572L19.4324 21.4171C19.4733 21.3975 19.5073 21.3659 19.53 21.3266C19.5527 21.2873 19.563 21.2421 19.5596 21.1968C19.5561 21.1515 19.5391 21.1084 19.5107 21.0729C19.4823 21.0375 19.4439 21.0115 19.4004 20.9983L18.2113 20.3945C18.0128 20.2936 17.6831 20.1422 17.4762 20.0581L16.8303 19.7923Z" fill="black"/>
<path d="M24.1639 13.1283L24.1976 13.0206C24.1996 12.8766 24.1906 12.7327 24.1707 12.59C24.0705 12.3353 23.9419 12.0926 23.7872 11.8668L23.1144 10.8794C22.9899 10.6944 22.778 10.4018 22.635 10.2285L21.7335 9.09989C21.6512 8.98989 21.5619 8.88539 21.466 8.78704H21.4475C21.4475 8.78704 21.2659 8.819 21.0472 8.86105L19.6697 9.12681L19.0658 9.24286C18.8653 9.25228 18.6649 9.22316 18.4754 9.15708L17.3872 8.80554C17.1753 8.73658 16.8254 8.63734 16.6084 8.59025C16.3798 8.56595 16.1492 8.56595 15.9205 8.59025C15.7035 8.64071 15.3537 8.73827 15.1417 8.80723L14.0535 9.16044C13.864 9.22653 13.6636 9.25565 13.4631 9.24623L12.8593 9.13185L11.48 8.86778C11.2614 8.82573 11.0814 8.79209 11.0797 8.79377H11.0612C10.9653 8.89212 10.876 8.99662 10.7938 9.10662L9.8939 10.2352C9.75598 10.4034 9.539 10.7028 9.41453 10.8862L8.74173 11.8735C8.62554 12.0438 8.51939 12.2207 8.42384 12.4033C8.3662 12.607 8.33566 12.8174 8.33301 13.029L8.36665 13.1367C8.38284 13.2058 8.40363 13.2738 8.42888 13.3402C8.56849 13.5084 8.80733 13.7876 8.96039 13.9508L11.3152 16.4536C11.3934 16.5448 11.4457 16.6554 11.4667 16.7737C11.4877 16.892 11.4766 17.0138 11.4346 17.1264L11.0494 18.0397C10.9618 18.2817 10.9554 18.5456 11.0309 18.7916L11.1083 19.0035C11.2347 19.3477 11.4514 19.6515 11.7357 19.8832L12.1057 20.1842C12.2019 20.2536 12.314 20.2974 12.4317 20.3115C12.5494 20.3256 12.6687 20.3096 12.7785 20.265L14.0938 19.6376C14.3353 19.5167 14.5612 19.3671 14.7666 19.1919L15.8196 18.2415C15.8615 18.2037 15.8954 18.1578 15.9193 18.1066C15.9432 18.0554 15.9565 17.9999 15.9586 17.9434C15.9606 17.8869 15.9513 17.8306 15.9312 17.7778C15.911 17.725 15.8805 17.6768 15.8414 17.636L13.4648 16.0348C13.3748 15.9709 13.3107 15.8769 13.2841 15.7698C13.2576 15.6627 13.2704 15.5496 13.3201 15.4511L14.2419 13.7187C14.2943 13.6126 14.3253 13.4973 14.3331 13.3792C14.3409 13.2612 14.3253 13.1427 14.2873 13.0307C14.1728 12.817 13.988 12.6495 13.7642 12.5564L10.8745 11.4648C10.6659 11.3857 10.6777 11.2966 10.8981 11.2831L12.5952 11.1149C12.8613 11.098 13.1285 11.1218 13.3874 11.1856L14.8642 11.5977C14.969 11.6293 15.0589 11.6978 15.117 11.7906C15.1752 11.8834 15.1977 11.9941 15.1804 12.1023L14.6001 15.2711C14.5613 15.4466 14.5516 15.6274 14.5715 15.806C14.5951 15.8817 14.7936 15.9742 15.0105 16.028L15.9104 16.2198C16.1717 16.2678 16.4396 16.2678 16.7009 16.2198L17.51 16.0364C17.7269 15.9877 17.9237 15.8851 17.949 15.8094C17.9683 15.6306 17.9581 15.4499 17.9187 15.2745L17.335 12.1056C17.3178 11.9975 17.3403 11.8868 17.3984 11.794C17.4566 11.7012 17.5464 11.6326 17.6513 11.601L19.1281 11.1872C19.387 11.1235 19.6541 11.0997 19.9203 11.1166L21.6174 11.2747C21.8394 11.2949 21.8495 11.3773 21.6426 11.4564L18.7547 12.5513C18.5308 12.6444 18.346 12.812 18.2316 13.0257C18.1549 13.2519 18.1713 13.4994 18.277 13.7136L19.2004 15.4461C19.2501 15.5446 19.2629 15.6576 19.2364 15.7647C19.2098 15.8718 19.1457 15.9659 19.0557 16.0297L16.6807 17.6343C16.6416 17.6751 16.6111 17.7234 16.591 17.7762C16.5709 17.829 16.5616 17.8853 16.5636 17.9417C16.5657 17.9982 16.579 18.0537 16.6029 18.1049C16.6268 18.1561 16.6607 18.202 16.7026 18.2399L17.7572 19.1902C17.9628 19.3648 18.1887 19.5139 18.43 19.6342L19.7453 20.2599C19.8553 20.3043 19.9747 20.32 20.0924 20.3056C20.2101 20.2912 20.3222 20.2471 20.4181 20.1775L20.7882 19.8748C21.0727 19.6427 21.2895 19.3382 21.4156 18.9934L21.4929 18.7815C21.5685 18.5355 21.562 18.2716 21.4744 18.0296L21.0876 17.1163C21.0456 17.0037 21.0345 16.8819 21.0555 16.7636C21.0765 16.6453 21.1288 16.5347 21.207 16.4435L23.5618 13.9373C23.7149 13.7691 23.952 13.5 24.0916 13.3267C24.1201 13.2623 24.1442 13.196 24.1639 13.1283Z" fill="black"/>
</svg>
