<svg width="32" height="33" viewBox="0 0 32 33" fill="none" xmlns="http://www.w3.org/2000/svg">
<g clip-path="url(#clip0_2236_507)">
<path d="M16 32.915C24.8366 32.915 32 25.7516 32 16.915C32 8.07848 24.8366 0.915039 16 0.915039C7.16344 0.915039 0 8.07848 0 16.915C0 25.7516 7.16344 32.915 16 32.915Z" fill="currentColor"/>
<path d="M27.2594 16.9151C27.2621 18.3945 26.9727 19.8598 26.4078 21.2271C25.8429 22.5944 25.0137 23.8367 23.9676 24.8827C22.9215 25.9288 21.6792 26.7581 20.3119 27.323C18.9446 27.8878 17.4793 28.1772 15.9999 28.1745C14.5206 28.1772 13.0552 27.8878 11.6879 27.323C10.3206 26.7581 9.07834 25.9288 8.03226 24.8827C6.98619 23.8367 6.15693 22.5944 5.59205 21.2271C5.02717 19.8598 4.73779 18.3945 4.7405 16.9151C4.73779 15.4357 5.02717 13.9704 5.59205 12.6031C6.15693 11.2358 6.98619 9.9935 8.03226 8.94742C9.07834 7.90135 10.3206 7.07209 11.6879 6.50721C13.0552 5.94233 14.5206 5.65295 15.9999 5.65566C17.4793 5.65295 18.9446 5.94233 20.3119 6.50721C21.6792 7.07209 22.9215 7.90135 23.9676 8.94742C25.0137 9.9935 25.8429 11.2358 26.4078 12.6031C26.9727 13.9704 27.2621 15.4357 27.2594 16.9151Z" fill="black"/>
<path d="M12.783 15.2053C12.783 14.6842 12.783 14.3939 12.895 14.2202C13.007 14.0464 13.119 13.8727 13.287 13.8144C13.511 13.6979 13.735 13.6979 14.2938 13.6979H17.7064C18.2664 13.6979 18.4904 13.6979 18.7144 13.8144C18.8812 13.9299 19.0492 14.0464 19.1052 14.2202C19.2172 14.4522 19.2172 14.6842 19.2172 15.2053V18.6247C19.2172 19.147 19.2172 19.4362 19.1052 19.611C18.9932 19.7847 18.8824 19.9584 18.7144 20.0167C18.4904 20.1322 18.2664 20.1322 17.7064 20.1322H14.2938C13.7338 20.1322 13.511 20.1322 13.2881 20.0167C13.119 19.9002 12.951 19.7847 12.895 19.611C12.783 19.379 12.783 19.147 12.783 18.6247V15.2053Z" fill="currentColor"/>
</g>
<defs>
<clipPath id="clip0_2236_507">
<rect width="32" height="32" fill="white" transform="translate(0 0.915039)"/>
</clipPath>
</defs>
</svg>
