<svg width="32" height="32" viewBox="0 0 32 32" fill="none" xmlns="http://www.w3.org/2000/svg">
<path d="M27.6635 3.99982L17.5273 11.4998L19.4122 7.07982L27.6635 3.99982Z" fill="#B826E1" stroke="#B826E1" stroke-width="0.192935" stroke-linecap="round" stroke-linejoin="round"/>
<path d="M4.2832 3.99982L14.3291 11.5698L12.5345 7.07981L4.2832 3.99982Z" fill="#B925E2" stroke="#B925E2" stroke-width="0.192935" stroke-linecap="round" stroke-linejoin="round"/>
<path d="M24.0133 21.3898L21.3164 25.5098L27.0913 27.0998L28.7456 21.4798L24.0133 21.3898Z" fill="#B925E2" stroke="#B925E2" stroke-width="0.192935" stroke-linecap="round" stroke-linejoin="round"/>
<path d="M3.21094 21.4798L4.85516 27.0998L10.62 25.5098L7.93308 21.3898L3.21094 21.4798Z" fill="#B925E2" stroke="#B925E2" stroke-width="0.192935" stroke-linecap="round" stroke-linejoin="round"/>
<path d="M10.3092 14.4298L8.70508 16.8498L14.4198 17.1098L14.2293 10.9598L10.3092 14.4298Z" fill="#B925E2" stroke="#B925E2" stroke-width="0.192935" stroke-linecap="round" stroke-linejoin="round"/>
<path d="M21.6379 14.4299L17.6577 10.8899L17.5273 17.1099L23.242 16.8499L21.6379 14.4299Z" fill="#B925E2" stroke="#B925E2" stroke-width="0.192935" stroke-linecap="round" stroke-linejoin="round"/>
<path d="M10.6201 25.5097L14.079 23.8398L11.1014 21.5198L10.6201 25.5097Z" fill="#B925E2" stroke="#B925E2" stroke-width="0.192935" stroke-linecap="round" stroke-linejoin="round"/>
<path d="M17.8682 23.8398L21.317 25.5097L20.8458 21.5198L17.8682 23.8398Z" fill="#B925E2" stroke="#B925E2" stroke-width="0.192935" stroke-linecap="round" stroke-linejoin="round"/>
<path d="M21.317 25.5098L17.8682 23.8398L18.1488 26.0798L18.1187 27.0298L21.317 25.5098Z" fill="#CDB2D5" stroke="#CDB2D5" stroke-width="0.192935" stroke-linecap="round" stroke-linejoin="round"/>
<path d="M10.6201 25.5098L13.8284 27.0298L13.8083 26.0798L14.079 23.8398L10.6201 25.5098Z" fill="#CDB2D5" stroke="#CDB2D5" stroke-width="0.192935" stroke-linecap="round" stroke-linejoin="round"/>
<path d="M13.8879 20.0398L11.0205 19.1999L13.0457 18.2698L13.8879 20.0398Z" fill="#3F2347" stroke="#3F2347" stroke-width="0.192935" stroke-linecap="round" stroke-linejoin="round"/>
<path d="M18.0586 20.0398L18.9008 18.2698L20.936 19.1999L18.0586 20.0398Z" fill="#3F2347" stroke="#3F2347" stroke-width="0.192935" stroke-linecap="round" stroke-linejoin="round"/>
<path d="M10.6195 25.5098L11.1208 21.3898L7.93262 21.4798L10.6195 25.5098Z" fill="#A828CC" stroke="#A828CC" stroke-width="0.192935" stroke-linecap="round" stroke-linejoin="round"/>
<path d="M20.8262 21.3898L21.3175 25.5098L24.0144 21.4798L20.8262 21.3898Z" fill="#A828CC" stroke="#A828CC" stroke-width="0.192935" stroke-linecap="round" stroke-linejoin="round"/>
<path d="M23.242 16.8497L17.5273 17.1097L18.0587 20.0398L18.9009 18.2697L20.9361 19.1998L23.242 16.8497Z" fill="#A828CC" stroke="#A828CC" stroke-width="0.192935" stroke-linecap="round" stroke-linejoin="round"/>
<path d="M11.021 19.1998L13.0462 18.2697L13.8884 20.0398L14.4198 17.1097L8.70508 16.8497L11.021 19.1998Z" fill="#A828CC" stroke="#A828CC" stroke-width="0.192935" stroke-linecap="round" stroke-linejoin="round"/>
<path d="M8.70508 16.8497L11.1013 21.5198L11.021 19.1998L8.70508 16.8497Z" fill="#B925E2" stroke="#B925E2" stroke-width="0.192935" stroke-linecap="round" stroke-linejoin="round"/>
<path d="M20.9359 19.1998L20.8457 21.5198L23.2419 16.8497L20.9359 19.1998Z" fill="#B925E2" stroke="#B925E2" stroke-width="0.192935" stroke-linecap="round" stroke-linejoin="round"/>
<path d="M14.4191 17.1097L13.8877 20.0398L14.5594 23.4997L14.7098 18.9398L14.4191 17.1097Z" fill="#B925E2" stroke="#B925E2" stroke-width="0.192935" stroke-linecap="round" stroke-linejoin="round"/>
<path d="M17.5278 17.1097L17.2471 18.9298L17.3874 23.4997L18.0592 20.0398L17.5278 17.1097Z" fill="#B925E2" stroke="#B925E2" stroke-width="0.192935" stroke-linecap="round" stroke-linejoin="round"/>
<path d="M18.0584 20.0399L17.3867 23.4998L17.868 23.8398L20.8457 21.5198L20.9359 19.1998L18.0584 20.0399Z" fill="#DA5AFD" stroke="#DA5AFD" stroke-width="0.192935" stroke-linecap="round" stroke-linejoin="round"/>
<path d="M11.0205 19.1998L11.1008 21.5198L14.0784 23.8398L14.5596 23.4998L13.8879 20.0399L11.0205 19.1998Z" fill="#DA5AFD" stroke="#DA5AFD" stroke-width="0.192935" stroke-linecap="round" stroke-linejoin="round"/>
<path d="M18.1194 27.0298L18.1494 26.0798L17.8888 25.8597H14.059L13.8083 26.0798L13.8284 27.0298L10.6201 25.5098L11.743 26.4298L14.0189 27.9998H17.9188L20.2047 26.4298L21.3176 25.5098L18.1194 27.0298Z" fill="#B89DC0" stroke="#B89DC0" stroke-width="0.192935" stroke-linecap="round" stroke-linejoin="round"/>
<path d="M17.868 23.8397L17.3868 23.4998H14.5595L14.0783 23.8397L13.8076 26.0798L14.0583 25.8597H17.8881L18.1488 26.0798L17.868 23.8397Z" fill="black" stroke="black" stroke-width="0.192935" stroke-linecap="round" stroke-linejoin="round"/>
<path d="M28.0944 11.9898L28.9466 7.84982L27.6633 3.99982L17.8682 11.2498L21.6378 14.4298L26.9615 15.9798L28.1345 14.6098L27.6233 14.2398L28.4353 13.4999L27.8137 13.0198L28.6258 12.3998L28.0944 11.9898Z" fill="#621A76" stroke="#621A76" stroke-width="0.192935" stroke-linecap="round" stroke-linejoin="round"/>
<path d="M3 7.84988L3.86222 11.9899L3.3108 12.3999L4.13291 13.0199L3.51132 13.4999L4.3234 14.2399L3.81209 14.6099L4.98511 15.9799L10.3088 14.4299L14.0785 11.2499L4.2833 3.99988L3 7.84988Z" fill="#621A76" stroke="#621A76" stroke-width="0.192935" stroke-linecap="round" stroke-linejoin="round"/>
<path d="M26.9614 15.9797L21.6377 14.4297L23.2419 16.8498L20.8457 21.5197L24.0138 21.4797H28.746L26.9614 15.9797Z" fill="#DA5AFD" stroke="#DA5AFD" stroke-width="0.192935" stroke-linecap="round" stroke-linejoin="round"/>
<path d="M10.3092 14.4297L4.9855 15.9797L3.21094 21.4797H7.93308L11.1012 21.5197L8.70507 16.8498L10.3092 14.4297Z" fill="#DA5AFD" stroke="#DA5AFD" stroke-width="0.192935" stroke-linecap="round" stroke-linejoin="round"/>
<path d="M17.527 17.1098L17.8679 11.2497L19.4118 7.07977H12.5342L14.0781 11.2497L14.419 17.1098L14.5493 18.9498L14.5594 23.4998H17.3866L17.3967 18.9498L17.527 17.1098Z" fill="#DA5AFD" stroke="#DA5AFD" stroke-width="0.192935" stroke-linecap="round" stroke-linejoin="round"/>
</svg>
