<svg width="32" height="33" viewBox="0 0 32 33" fill="none" xmlns="http://www.w3.org/2000/svg">
<g clip-path="url(#clip0_2236_465)">
<g clip-path="url(#clip1_2236_465)">
<mask id="mask0_2236_465" style="mask-type:luminance" maskUnits="userSpaceOnUse" x="0" y="0" width="32" height="33">
<path d="M0 0.915039H32V32.915H0V0.915039Z" fill="white"/>
</mask>
<g mask="url(#mask0_2236_465)">
<path d="M16 32.8751C24.8145 32.8751 31.96 25.7295 31.96 16.9151C31.96 8.10061 24.8145 0.955078 16 0.955078C7.18557 0.955078 0.0400391 8.10061 0.0400391 16.9151C0.0400391 25.7295 7.18557 32.8751 16 32.8751Z" fill="currentColor" stroke="currentColor" stroke-width="0.08"/>
<path d="M9.80144 12.8322C13.2247 9.49391 18.7751 9.49391 22.1984 12.8322L22.6104 13.234C22.7816 13.4009 22.7816 13.6715 22.6104 13.8384L21.201 15.2128C21.1154 15.2962 20.9767 15.2962 20.8911 15.2128L20.3242 14.6599C17.9359 12.331 14.0639 12.331 11.6757 14.6599L11.0685 15.252C10.9829 15.3354 10.8442 15.3354 10.7586 15.252L9.3492 13.8776C9.178 13.7107 9.178 13.4401 9.3492 13.2732L9.80144 12.8322ZM25.1132 15.6746L26.3675 16.8978C26.5387 17.0646 26.5387 17.3353 26.3675 17.5022L20.7115 23.0177C20.5404 23.1846 20.2629 23.1846 20.0917 23.0177L16.0774 19.1032C16.0346 19.0614 15.9653 19.0614 15.9225 19.1032L11.9082 23.0177C11.7371 23.1846 11.4596 23.1846 11.2884 23.0177L5.63228 17.5021C5.46111 17.3352 5.46111 17.0646 5.63228 16.8977L6.88664 15.6745C7.05781 15.5076 7.33532 15.5076 7.50649 15.6745L11.5208 19.589C11.5636 19.6308 11.633 19.6308 11.6758 19.589L15.6899 15.6745C15.861 15.5075 16.1386 15.5075 16.3098 15.6745L20.3241 19.589C20.3669 19.6308 20.4362 19.6308 20.479 19.589L24.4934 15.6746C24.6645 15.5076 24.942 15.5076 25.1132 15.6746Z" fill="black"/>
</g>
</g>
</g>
<defs>
<clipPath id="clip0_2236_465">
<rect width="32" height="32" fill="white" transform="translate(0 0.915039)"/>
</clipPath>
<clipPath id="clip1_2236_465">
<rect width="32" height="32" fill="white" transform="translate(0 0.915039)"/>
</clipPath>
</defs>
</svg>
