<svg width="264" height="247" viewBox="0 0 264 247" fill="none" xmlns="http://www.w3.org/2000/svg">
<path fill-rule="evenodd" clip-rule="evenodd" d="M195.376 219.679C169.646 240.819 147.431 246.375 131.758 246.426L131.706 246.426L131.655 246.426C115.981 246.375 93.7665 240.819 68.037 219.679C51.1072 205.767 35.4985 187.097 26.1582 169.144C15.7061 149.045 14.6537 130.39 15.6734 118.155C16.1665 112.253 17.2763 106.461 18.9829 100.881L18.1865 98.7994C2.1855 56.9708 0.0138836 30.5877 1.23978e-05 19.5656L0 19.5555V19.5454C0 13.5952 2.69793 7.93524 7.44104 4.19771C7.44428 4.19515 7.44104 4.19771 7.45077 4.19004C11.8192 0.751235 17.5301 -0.726135 23.1544 0.341539C23.1521 0.3411 23.1567 0.341979 23.1544 0.341539C38.6974 3.29086 58.0351 11.4291 72.5216 18.1872C81.4407 22.348 89.1441 26.285 93.9803 28.8245C105.604 25.202 118.973 23.62 131.721 23.6353C144.493 23.6507 157.836 25.2711 169.414 28.839C174.248 26.3001 181.962 22.3561 190.897 18.1874C205.384 11.4287 224.716 3.29116 240.266 0.34222L240.271 0.341301C245.901 -0.727167 251.613 0.75542 255.979 4.19479L255.992 4.20477L256.004 4.21478C260.681 7.91389 263.433 13.5505 263.42 19.5748C263.405 30.5977 261.234 56.9861 245.225 98.8169L244.407 100.954C246.114 106.445 247.245 112.196 247.742 118.156C248.762 130.393 247.709 149.042 237.254 169.144C227.916 187.1 212.304 205.768 195.376 219.679Z" fill="black"/>
</svg>
