<svg width="270" height="253" viewBox="0 0 270 253" fill="none" xmlns="http://www.w3.org/2000/svg">
<g filter="url(#filter0_dd_1921_1314)">
<path d="M236.39 103.706C254.042 59.4957 255.989 32.4566 256 22.8384C256.004 20.113 254.783 17.5838 252.643 15.9003C250.633 14.3148 248.047 13.6807 245.549 14.1525C233.918 16.357 218.088 22.1174 198.5 31.2638C186.541 36.8505 176.766 42.0636 173.625 43.7622C150.819 36.0933 119.178 36.1007 96.3714 43.7622C93.2303 42.0636 83.4555 36.8505 71.4959 31.2638C51.9123 22.1174 36.0821 16.3608 24.4514 14.1563C21.9529 13.6807 19.3674 14.3186 17.3565 15.904C15.2209 17.5876 14 20.113 14 22.8384C14.0151 32.4566 15.9618 59.4957 33.6101 103.706C32.6689 106.179 30.4614 112.781 29.6563 122.097C28.7265 132.863 29.5845 149.48 38.9511 167.486C47.4898 183.903 62.1331 201.546 78.1259 214.686C102.366 234.602 122.286 238.924 134.832 239C134.889 239 134.945 239 135.002 239C135.059 239 135.115 239 135.172 239C147.717 238.921 167.637 234.602 191.878 214.686C207.867 201.546 222.514 183.903 231.049 167.486C240.415 149.48 241.274 132.863 240.344 122.097C239.539 112.781 237.331 106.179 236.39 103.706ZM226.351 165.047C218.125 180.864 203.977 197.892 188.51 210.602C165.373 229.612 146.667 233.674 134.998 233.711C123.33 233.674 104.623 229.612 81.4862 210.602C66.0189 197.892 51.8745 180.864 43.6457 165.047C34.9141 148.257 34.075 132.788 34.9104 122.769C36.4553 104.267 45.4288 87.4478 60.761 76.3843C49.8468 77.8205 41.0439 86.8744 36.4223 96.3682C21.0608 56.2116 19.3032 31.7545 19.2918 22.8308C19.2918 21.7361 19.7795 20.7245 20.6375 20.0488C21.4426 19.4146 22.4745 19.1579 23.4648 19.3467C50.2529 24.4276 94.4323 48.7261 94.8746 48.9715L95.9934 49.583L97.169 49.1036C117.975 40.7925 152.007 40.9283 172.835 49.0998L174.014 49.5906L175.133 48.9715C175.575 48.7261 219.743 24.4276 246.543 19.3467C247.533 19.1579 248.565 19.4146 249.37 20.0488C250.224 20.7245 250.716 21.7361 250.712 22.8308C250.701 31.7507 248.947 56.2154 233.574 96.3833C228.878 86.9085 220.209 77.8058 209.239 76.3881C224.098 87.6961 233.519 103.959 235.09 122.773C235.925 132.792 235.09 148.257 226.354 165.051L226.351 165.047Z" fill="#F2C2FF"/>
<path d="M94.0505 145.864C87.8402 141.326 81.4257 137.11 74.947 132.973C65.123 126.767 55.3634 119.87 43.5285 118.243C48.6881 122.758 54.3201 126.046 60.0088 129.621C69.9651 136.276 80.2993 144.244 90.0439 151.33C93.1018 153.572 96.1862 155.799 99.1572 158.049C100.318 158.951 102.249 160.404 103.239 161.412C105.727 163.809 107.817 166.735 109.82 169.679C110.882 171.238 111.929 172.85 113.09 174.53C113.766 168.388 111.744 161.963 107.726 157.211C103.663 152.866 98.7489 149.401 94.0543 145.864H94.0505Z" fill="#F2C2FF"/>
<path d="M175.949 145.864C171.255 149.405 166.341 152.866 162.278 157.211C158.26 161.956 156.234 168.392 156.914 174.53C158.074 172.846 159.121 171.238 160.184 169.679C162.191 166.735 164.277 163.809 166.764 161.412C167.762 160.397 169.694 158.943 170.847 158.049C173.818 155.799 176.906 153.572 179.96 151.33C189.693 144.252 200.05 136.264 209.995 129.621C215.684 126.046 221.316 122.758 226.475 118.243C214.64 119.87 204.877 126.767 195.057 132.973C188.578 137.11 182.164 141.323 175.953 145.864H175.949Z" fill="#F2C2FF"/>
<path d="M71.598 156.482C67.0092 152.341 62.8967 147.638 59.4419 142.478C56.3726 137.74 53.6057 132.912 50.0564 128.458C49.7994 135.272 52.7741 141.64 56.108 147.404C62.9231 159.027 73.5409 168.72 86.109 173.771C92.3912 176.289 99.3008 177.274 105.991 176.096C100.019 173.416 94.1753 171.363 88.4714 168.471C82.2648 165.421 76.6706 161.235 71.598 156.486V156.482Z" fill="#F2C2FF"/>
<path d="M210.558 142.474C207.107 147.634 202.991 152.338 198.402 156.482C193.329 161.231 187.735 165.417 181.529 168.467C175.825 171.359 169.977 173.412 164.009 176.093C170.695 177.274 177.605 176.285 183.887 173.767C196.459 168.713 207.077 159.023 213.888 147.4C217.222 141.64 220.197 135.268 219.94 128.454C216.391 132.909 213.624 137.737 210.554 142.474H210.558Z" fill="#F2C2FF"/>
</g>
<defs>
<filter id="filter0_dd_1921_1314" x="0.804124" y="0.804124" width="268.392" height="251.392" filterUnits="userSpaceOnUse" color-interpolation-filters="sRGB">
<feFlood flood-opacity="0" result="BackgroundImageFix"/>
<feColorMatrix in="SourceAlpha" type="matrix" values="0 0 0 0 0 0 0 0 0 0 0 0 0 0 0 0 0 0 127 0" result="hardAlpha"/>
<feOffset/>
<feGaussianBlur stdDeviation="6.59794"/>
<feComposite in2="hardAlpha" operator="out"/>
<feColorMatrix type="matrix" values="0 0 0 0 0.8 0 0 0 0 0 0 0 0 0 1 0 0 0 1 0"/>
<feBlend mode="normal" in2="BackgroundImageFix" result="effect1_dropShadow_1921_1314"/>
<feColorMatrix in="SourceAlpha" type="matrix" values="0 0 0 0 0 0 0 0 0 0 0 0 0 0 0 0 0 0 127 0" result="hardAlpha"/>
<feOffset/>
<feGaussianBlur stdDeviation="2.63918"/>
<feComposite in2="hardAlpha" operator="out"/>
<feColorMatrix type="matrix" values="0 0 0 0 0.854902 0 0 0 0 0.278431 0 0 0 0 1 0 0 0 1 0"/>
<feBlend mode="normal" in2="effect1_dropShadow_1921_1314" result="effect2_dropShadow_1921_1314"/>
<feBlend mode="normal" in="SourceGraphic" in2="effect2_dropShadow_1921_1314" result="shape"/>
</filter>
</defs>
</svg>
