<svg width="280" height="264" viewBox="0 0 280 264" fill="none" xmlns="http://www.w3.org/2000/svg">
<g filter="url(#filter0_dd_2020_1405)">
<path d="M241.39 108.827C259.042 64.5568 260.989 37.4814 261 27.8502C261.004 25.1212 259.783 22.5886 257.643 20.9028C255.633 19.3153 253.047 18.6802 250.549 19.1527C238.918 21.3602 223.088 27.1283 203.5 36.287C191.541 41.8812 181.766 47.1012 178.625 48.8022C155.819 41.1229 124.178 41.1304 101.371 48.8022C98.2303 47.1012 88.4555 41.8812 76.4959 36.287C56.9123 27.1283 41.0821 21.364 29.4514 19.1565C26.9529 18.6802 24.3674 19.319 22.3565 20.9066C20.2209 22.5924 19 25.1212 19 27.8502C19.0151 37.4814 20.9618 64.5568 38.6101 108.827C37.6689 111.303 35.4614 117.914 34.6563 127.243C33.7265 138.023 34.5845 154.662 43.9511 172.692C52.4898 189.131 67.1331 206.798 83.1259 219.956C107.366 239.898 127.286 244.226 139.832 244.302C139.889 244.302 139.945 244.302 140.002 244.302C140.059 244.302 140.115 244.302 140.172 244.302C152.717 244.223 172.637 239.898 196.878 219.956C212.867 206.798 227.514 189.131 236.049 172.692C245.415 154.662 246.274 138.023 245.344 127.243C244.539 117.914 242.331 111.303 241.39 108.827ZM231.351 170.25C223.125 186.088 208.977 203.139 193.51 215.866C170.373 234.901 151.667 238.969 139.998 239.006C128.33 238.969 109.623 234.901 86.4862 215.866C71.0189 203.139 56.8745 186.088 48.6457 170.25C39.9141 153.437 39.075 137.947 39.9104 127.915C41.4553 109.389 50.4288 92.5464 65.761 81.468C54.8468 82.9061 46.0439 91.9722 41.4223 101.479C26.0608 61.2683 24.3032 36.7784 24.2918 27.8427C24.2918 26.7465 24.7795 25.7335 25.6375 25.0569C26.4426 24.4219 27.4745 24.1649 28.4648 24.3538C55.2529 29.4416 99.4323 53.7727 99.8746 54.0184L100.993 54.6308L102.169 54.1507C122.975 45.8285 157.007 45.9644 177.835 54.147L179.014 54.6383L180.133 54.0184C180.575 53.7727 224.743 29.4416 251.543 24.3538C252.533 24.1649 253.565 24.4219 254.37 25.0569C255.224 25.7335 255.716 26.7465 255.712 27.8427C255.701 36.7746 253.947 61.2721 238.574 101.494C233.878 92.0063 225.209 82.8914 214.239 81.4718C229.098 92.795 238.519 109.08 240.09 127.919C240.925 137.951 240.09 153.437 231.354 170.254L231.351 170.25Z" fill="#87F1FF"/>
<path d="M99.0505 151.041C92.8402 146.497 86.4257 142.275 79.947 138.132C70.123 131.918 60.3634 125.012 48.5285 123.383C53.6881 127.904 59.3201 131.196 65.0088 134.776C74.9651 141.44 85.2993 149.419 95.0439 156.514C98.1018 158.759 101.186 160.989 104.157 163.242C105.318 164.146 107.249 165.601 108.239 166.61C110.727 169.01 112.817 171.94 114.82 174.888C115.882 176.449 116.929 178.063 118.09 179.745C118.766 173.595 116.744 167.162 112.726 162.403C108.663 158.052 103.749 154.582 99.0543 151.041H99.0505Z" fill="#87F1FF"/>
<path d="M180.949 151.041C176.255 154.586 171.341 158.052 167.278 162.403C163.26 167.154 161.234 173.599 161.914 179.745C163.074 178.059 164.121 176.449 165.184 174.888C167.191 171.94 169.277 169.01 171.764 166.61C172.762 165.593 174.694 164.138 175.847 163.242C178.818 160.989 181.906 158.759 184.96 156.514C194.693 149.427 205.05 141.428 214.995 134.776C220.684 131.196 226.316 127.904 231.475 123.383C219.64 125.012 209.877 131.918 200.057 138.132C193.578 142.275 187.164 146.493 180.953 151.041H180.949Z" fill="#87F1FF"/>
<path d="M76.598 161.674C72.0092 157.527 67.8967 152.817 64.4419 147.65C61.3726 142.906 58.6057 138.072 55.0564 133.612C54.7994 140.434 57.7741 146.811 61.108 152.583C67.9231 164.221 78.5409 173.928 91.109 178.985C97.3912 181.507 104.301 182.493 110.991 181.314C105.019 178.63 99.1753 176.574 93.4714 173.678C87.2648 170.624 81.6706 166.432 76.598 161.677V161.674Z" fill="#87F1FF"/>
<path d="M215.558 147.646C212.107 152.813 207.991 157.523 203.402 161.674C198.329 166.429 192.735 170.621 186.529 173.675C180.825 176.57 174.977 178.626 169.009 181.31C175.695 182.493 182.605 181.503 188.887 178.982C201.459 173.92 212.077 164.217 218.888 152.579C222.222 146.811 225.197 140.431 224.94 133.608C221.391 138.068 218.624 142.903 215.554 147.646H215.558Z" fill="#87F1FF"/>
</g>
<defs>
<filter id="filter0_dd_2020_1405" x="0.10054" y="0.10054" width="279.799" height="263.101" filterUnits="userSpaceOnUse" color-interpolation-filters="sRGB">
<feFlood flood-opacity="0" result="BackgroundImageFix"/>
<feColorMatrix in="SourceAlpha" type="matrix" values="0 0 0 0 0 0 0 0 0 0 0 0 0 0 0 0 0 0 127 0" result="hardAlpha"/>
<feOffset/>
<feGaussianBlur stdDeviation="9.44973"/>
<feComposite in2="hardAlpha" operator="out"/>
<feColorMatrix type="matrix" values="0 0 0 0 0.152941 0 0 0 0 0.588235 0 0 0 0 0.647059 0 0 0 1 0"/>
<feBlend mode="normal" in2="BackgroundImageFix" result="effect1_dropShadow_2020_1405"/>
<feColorMatrix in="SourceAlpha" type="matrix" values="0 0 0 0 0 0 0 0 0 0 0 0 0 0 0 0 0 0 127 0" result="hardAlpha"/>
<feOffset/>
<feGaussianBlur stdDeviation="3.77989"/>
<feComposite in2="hardAlpha" operator="out"/>
<feColorMatrix type="matrix" values="0 0 0 0 0.00392157 0 0 0 0 0.701961 0 0 0 0 0.796078 0 0 0 1 0"/>
<feBlend mode="normal" in2="effect1_dropShadow_2020_1405" result="effect2_dropShadow_2020_1405"/>
<feBlend mode="normal" in="SourceGraphic" in2="effect2_dropShadow_2020_1405" result="shape"/>
</filter>
</defs>
</svg>
