<svg width="12" height="12" viewBox="0 0 12 12" fill="none" xmlns="http://www.w3.org/2000/svg">
<g clip-path="url(#clip0_2060_980)">
<path fill-rule="evenodd" clip-rule="evenodd" d="M9.93729 0.9375L4.53841 3.54386C4.51299 3.55613 4.48512 3.5625 4.45689 3.5625H3.13257L1.00135 2.49689L0.498233 2.24533L-0.00488281 3.25156L0.498233 3.50312L10.9982 8.7531L11.5013 9.00465L12.0044 7.99845L11.5013 7.7469L9.93729 6.96486V0.9375ZM2.24979 8.4375H4.45689C4.48512 8.4375 4.51299 8.44388 4.53841 8.45618L9.93729 11.0625V9.9375L2.06979 6H2.06229V8.25C2.06229 8.35358 2.14623 8.4375 2.24979 8.4375Z" fill="#161616"/>
<path d="M9.93708 0.937429H10.4996V0.0412598L9.6925 0.430868L9.93708 0.937429ZM3.13237 3.56243L2.88081 4.06554L2.99958 4.12493H3.13237V3.56243ZM0.498026 2.24526L0.749579 1.74214L0.246468 1.49058L-0.00508982 1.9937L0.498026 2.24526ZM-0.00508982 3.25149L-0.508205 2.99994L-0.759766 3.50305L-0.256648 3.75461L-0.00508982 3.25149ZM11.5011 9.00458L11.2496 9.50775L11.7527 9.7593L12.0042 9.25613L11.5011 9.00458ZM12.0042 7.99838L12.5074 8.24993L12.759 7.74683L12.2558 7.49526L12.0042 7.99838ZM9.93708 6.96479H9.37458V7.31243L9.68553 7.4679L9.93708 6.96479ZM9.93708 11.0624L9.6925 11.569L10.4996 11.9586V11.0624H9.93708ZM9.93708 9.93743H10.4996V9.58995L10.1889 9.4344L9.93708 9.93743ZM2.06958 5.99993L2.32133 5.49691L2.20248 5.43743H2.06958V5.99993ZM2.06208 5.99993V5.43743H1.49958V5.99993H2.06208ZM4.78275 4.05034L10.1817 1.44399L9.6925 0.430868L4.29366 3.03722L4.78275 4.05034ZM4.45669 4.12493C4.56961 4.12493 4.68106 4.09944 4.78275 4.05034L4.29366 3.03722C4.3445 3.01268 4.40023 2.99993 4.45669 2.99993V4.12493ZM3.13237 4.12493H4.45669V2.99993H3.13237V4.12493ZM3.38392 3.05931L1.2527 1.9937L0.749587 2.99993L2.88081 4.06554L3.38392 3.05931ZM1.2527 1.9937L0.749579 1.74214L0.246468 2.74837L0.749587 2.99993L1.2527 1.9937ZM-0.00508982 1.9937L-0.508205 2.99994L0.498026 3.50305L1.00114 2.49681L-0.00508982 1.9937ZM-0.256648 3.75461L0.246468 4.00617L0.749587 2.99993L0.246468 2.74837L-0.256648 3.75461ZM0.246468 4.00617L10.7465 9.25613L11.2496 8.24993L0.749587 2.99993L0.246468 4.00617ZM10.7465 9.25613L11.2496 9.50775L11.7527 8.50148L11.2496 8.24993L10.7465 9.25613ZM12.0042 9.25613L12.5074 8.24993L11.5011 7.74683L10.998 8.75303L12.0042 9.25613ZM12.2558 7.49526L11.7527 7.2437L11.2496 8.24993L11.7527 8.50148L12.2558 7.49526ZM11.7527 7.2437L10.1886 6.46167L9.68553 7.4679L11.2496 8.24993L11.7527 7.2437ZM9.37458 0.937429V6.96479H10.4996V0.937429H9.37458ZM4.45669 7.87493H2.24958V8.99993H4.45669V7.87493ZM4.78275 7.94948C4.68106 7.90043 4.56961 7.87493 4.45669 7.87493V8.99993C4.40023 8.99993 4.3445 8.98718 4.29367 8.96265L4.78275 7.94948ZM10.1817 10.5559L4.78275 7.94948L4.29367 8.96265L9.6925 11.569L10.1817 10.5559ZM9.37458 9.93743V11.0624H10.4996V9.93743H9.37458ZM1.81783 6.50295L9.6853 10.4405L10.1889 9.4344L2.32133 5.49691L1.81783 6.50295ZM2.06208 6.56243H2.06958V5.43743H2.06208V6.56243ZM2.62458 8.24993V5.99993H1.49958V8.24993H2.62458ZM2.24958 7.87493C2.45668 7.87493 2.62458 8.04285 2.62458 8.24993H1.49958C1.49958 8.66415 1.83537 8.99993 2.24958 8.99993V7.87493Z" fill="#161616"/>
</g>
<defs>
<clipPath id="clip0_2060_980">
<rect width="12" height="12" fill="white"/>
</clipPath>
</defs>
</svg>
