<svg width="12" height="12" viewBox="0 0 12 12" fill="none" xmlns="http://www.w3.org/2000/svg">
<g clip-path="url(#clip0_908_34010)">
<path fill-rule="evenodd" clip-rule="evenodd" d="M0 3.75V8.25C0 8.66421 0.335786 9 0.75 9H2.25L7.5 12V0L2.25 3H0.75C0.335786 3 0 3.33579 0 3.75ZM10.6938 2.22038L11.0046 2.68926C11.6336 3.63841 12 4.77727 12 6C12 7.22273 11.6336 8.3616 11.0046 9.31074L10.6938 9.77962L9.75609 9.15813L10.0668 8.68926C10.5775 7.91868 10.875 6.99493 10.875 6C10.875 5.00507 10.5775 4.08132 10.0668 3.31074L9.75609 2.84187L10.6938 2.22038ZM9.04427 3.73879L9.30935 4.23492C9.59073 4.76154 9.75002 5.363 9.75002 6C9.75002 6.637 9.59073 7.23847 9.30935 7.76509L9.04427 8.26121L8.05203 7.73104L8.31711 7.23492C8.51347 6.86742 8.62502 6.44757 8.62502 6C8.62502 5.55243 8.51347 5.13258 8.31711 4.76508L8.05203 4.26896L9.04427 3.73879Z" fill="currentColor"/>
</g>
<defs>
<clipPath id="clip0_908_34010">
<rect width="12" height="12" fill="white"/>
</clipPath>
</defs>
</svg>
