<svg width="17" height="17" viewBox="0 0 17 17" fill="none" xmlns="http://www.w3.org/2000/svg">
<path d="M14.009 9.69326C13.8842 9.77923 13.7386 9.82996 13.5874 9.84011C13.4362 9.85026 13.2851 9.81945 13.15 9.75094C12.8327 9.57172 12.6617 9.15148 12.6617 8.5788V6.82368C12.6617 5.98115 12.328 5.38169 11.7698 5.21895C10.8263 4.94291 10.1218 6.09857 9.84985 6.53322L8.18125 9.23388V5.93789C8.16271 5.17775 7.91551 4.72249 7.44789 4.58653C7.13889 4.49589 6.67539 4.53297 6.22425 5.22101L2.4936 11.2094C1.99722 10.2597 1.73984 9.20336 1.74376 8.13178C1.74376 4.52267 4.62775 1.58717 8.18125 1.58717C11.7347 1.58717 14.629 4.52267 14.629 8.13178V8.15032C14.629 8.15032 14.629 8.16268 14.629 8.16886C14.6641 8.8672 14.4375 9.4234 14.011 9.69326H14.009ZM16.069 8.13384V8.09882C16.0401 3.70073 12.5134 0.132812 8.18125 0.132812C3.84907 0.132812 0.301758 3.72133 0.301758 8.13178C0.301758 12.5422 3.83671 16.1328 8.18125 16.1328C10.1738 16.1327 12.0906 15.369 13.5372 13.9987C13.6777 13.8664 13.7603 13.6841 13.7672 13.4913C13.7742 13.2985 13.7049 13.1107 13.5743 12.9687C13.5119 12.8996 13.4363 12.8435 13.3521 12.8037C13.2679 12.7639 13.1766 12.7411 13.0836 12.7367C12.9906 12.7323 12.8976 12.7464 12.81 12.778C12.7224 12.8097 12.6419 12.8584 12.5732 12.9213C11.9503 13.5121 11.2146 13.9709 10.41 14.2703C9.60544 14.5696 8.74868 14.7033 7.89117 14.6633C7.03365 14.6232 6.19306 14.4104 5.41988 14.0374C4.64669 13.6644 3.95684 13.139 3.39175 12.4928L6.74955 7.0956V9.58614C6.74955 10.783 7.21305 11.1703 7.60239 11.2836C7.99173 11.3969 8.58707 11.3186 9.21125 10.3051L11.0652 7.30366C11.1229 7.20684 11.1785 7.12444 11.228 7.05234V8.5788C11.228 9.69738 11.6771 10.5914 12.464 11.0323C12.8218 11.2254 13.225 11.3187 13.6313 11.3024C14.0376 11.2861 14.4321 11.1608 14.7732 10.9396C15.6384 10.3772 16.1102 9.35954 16.0607 8.13384H16.069Z" fill="currentColor"/>
</svg>
