<svg width="17" height="14" viewBox="0 0 17 14" fill="none" xmlns="http://www.w3.org/2000/svg">
<path d="M15.2247 0.600186L0.944979 6.12599C0.936484 6.12926 0.928248 6.13317 0.920342 6.13769C0.804548 6.20329 -0.00355041 6.69757 1.13592 7.14073L1.14762 7.14504L4.54785 8.24355C4.57379 8.25198 4.60126 8.25463 4.62834 8.25134C4.65542 8.24804 4.68145 8.23886 4.70461 8.22445L13.1382 2.96258C13.1589 2.94967 13.1819 2.94099 13.206 2.93702C13.3233 2.91762 13.6611 2.88128 13.4474 3.15259C13.2057 3.46056 7.44518 8.62265 6.80585 9.19516C6.76898 9.22826 6.74617 9.2742 6.7421 9.32358L6.46308 12.6496C6.46305 12.6835 6.4709 12.7169 6.48603 12.7472C6.50116 12.7775 6.52314 12.8039 6.55024 12.8242C6.58868 12.8484 6.63389 12.8596 6.67919 12.8562C6.7245 12.8528 6.76749 12.8349 6.80184 12.8051L8.82209 10.9995C8.85401 10.971 8.89472 10.9543 8.93746 10.9521C8.9802 10.9499 9.02241 10.9624 9.05707 10.9875L12.5817 13.5467L12.5931 13.5544C12.6784 13.6071 13.5998 14.1432 13.8659 12.9459L16.2988 1.37718C16.3022 1.34053 16.3352 0.937715 16.0472 0.699658C15.7448 0.450823 15.3167 0.576473 15.2524 0.590023C15.2429 0.592666 15.2336 0.596065 15.2247 0.600186Z" fill="currentColor"/>
</svg>
