<svg width="16" height="16" viewBox="0 0 16 16" fill="none" xmlns="http://www.w3.org/2000/svg">
<path d="M3.34601 7.74393C3.34602 7.65591 3.36343 7.56878 3.39721 7.48752C3.43099 7.40624 3.48049 7.33246 3.54287 7.27038C3.60527 7.20829 3.67928 7.15914 3.76072 7.12575C3.84215 7.09237 3.92937 7.07539 4.01738 7.07579L5.1305 7.07942C5.30797 7.07942 5.47817 7.14993 5.60366 7.27542C5.72916 7.40092 5.79967 7.57111 5.79967 7.74859V11.9575C5.92498 11.9203 6.08592 11.8806 6.26202 11.8391C6.38435 11.8104 6.49337 11.7412 6.5714 11.6427C6.64943 11.5442 6.69188 11.4222 6.69185 11.2966V6.07567C6.69185 5.89818 6.76234 5.72797 6.88783 5.60246C7.01332 5.47694 7.18353 5.40641 7.36102 5.40637H8.47634C8.65382 5.40641 8.82403 5.47694 8.94952 5.60246C9.075 5.72797 9.14551 5.89818 9.14551 6.07567V10.9212C9.14551 10.9212 9.42476 10.8082 9.69676 10.6934C9.7978 10.6506 9.88402 10.5791 9.94468 10.4877C10.0053 10.3963 10.0377 10.289 10.0378 10.1793V4.40275C10.0378 4.2253 10.1083 4.05512 10.2338 3.92963C10.3592 3.80413 10.5294 3.73362 10.7068 3.73358H11.8222C11.9997 3.73358 12.1699 3.80409 12.2954 3.92958C12.4208 4.05506 12.4914 4.22527 12.4914 4.40275V9.15962C13.4583 8.45884 14.4382 7.61603 15.2158 6.60256C15.3287 6.45545 15.4033 6.28272 15.4332 6.09975C15.463 5.91679 15.447 5.72928 15.3868 5.55397C15.0268 4.51831 14.4547 3.56919 13.7068 2.76737C12.959 1.96553 12.0521 1.32864 11.044 0.897449C10.0359 0.466258 8.94889 0.250261 7.85254 0.263281C6.75619 0.276302 5.67463 0.518053 4.67709 0.973064C3.67953 1.42807 2.78795 2.08632 2.05939 2.90569C1.33083 3.72506 0.781351 4.68748 0.446105 5.73141C0.11086 6.77532 -0.00276639 7.87772 0.112498 8.96807C0.227762 10.0584 0.56938 11.1127 1.11549 12.0635C1.21062 12.2275 1.35058 12.3609 1.51892 12.4481C1.68727 12.5354 1.877 12.5727 2.06586 12.5559C2.27682 12.5373 2.53948 12.511 2.85178 12.4744C2.98772 12.4589 3.11324 12.394 3.2044 12.292C3.29558 12.19 3.34602 12.058 3.34614 11.9212L3.34601 7.74393Z" fill="currentColor"/>
<path d="M3.3208 14.495C4.49642 15.3503 5.88575 15.8637 7.33504 15.9784C8.78436 16.0929 10.2371 15.8045 11.5326 15.1446C12.8281 14.4848 13.9158 13.4795 14.6754 12.2399C15.4349 11.0002 15.8367 9.57462 15.8363 8.12079C15.8363 7.93937 15.8279 7.75989 15.8159 7.58145C12.9366 11.8756 7.6205 13.8831 3.32105 14.4944" fill="currentColor"/>
</svg>
