<svg width="28" height="48" viewBox="0 0 28 48" fill="none" xmlns="http://www.w3.org/2000/svg">
<path d="M8.67516 0.528C8.63116 0.579333 8.57616 0.663667 8.51016 0.781C8.44416 0.898333 8.39282 1.00467 8.35616 1.1C8.20216 1.452 8.01149 1.84433 7.78416 2.277C7.56416 2.70967 7.31116 3.14233 7.02516 3.575C6.74649 4.00033 6.45316 4.389 6.14516 4.741C5.74182 5.203 5.29449 5.654 4.80316 6.094C4.31916 6.534 3.80582 6.941 3.26316 7.315C2.72049 7.68167 2.15949 8.00067 1.58016 8.272L0.689156 7.337C1.28316 7.10233 1.85516 6.81267 2.40516 6.468C2.96249 6.12333 3.47949 5.74567 3.95616 5.335C4.43282 4.92433 4.85082 4.51733 5.21016 4.114C5.45949 3.83533 5.70149 3.52733 5.93616 3.19C6.17082 2.84533 6.37982 2.50067 6.56316 2.156C6.74649 1.81133 6.87849 1.496 6.95916 1.21C6.89316 1.21 6.75749 1.21 6.55216 1.21C6.34682 1.21 6.10116 1.21 5.81516 1.21C5.53649 1.21 5.24316 1.21 4.93516 1.21C4.63449 1.21 4.34116 1.21 4.05516 1.21C3.77649 1.21 3.53449 1.21 3.32916 1.21C3.12382 1.21 2.98816 1.21 2.92216 1.21C2.78282 1.21 2.62882 1.21733 2.46016 1.232C2.29882 1.23933 2.14849 1.25033 2.00916 1.265C1.87716 1.27233 1.78182 1.276 1.72316 1.276V0.0329996C1.79649 0.0403333 1.90649 0.0513333 2.05316 0.0659998C2.19982 0.073333 2.35382 0.0843331 2.51516 0.099C2.67649 0.106333 2.81216 0.11 2.92216 0.11C3.00282 0.11 3.14582 0.11 3.35116 0.11C3.56382 0.11 3.80949 0.11 4.08816 0.11C4.37416 0.11 4.67116 0.11 4.97916 0.11C5.28716 0.11 5.58049 0.11 5.85916 0.11C6.13782 0.11 6.37982 0.11 6.58516 0.11C6.79049 0.11 6.92982 0.11 7.00316 0.11C7.20849 0.11 7.39549 0.0989998 7.56416 0.0769997C7.73282 0.0549999 7.86482 0.0293334 7.96016 0L8.67516 0.528ZM6.28816 4.015C6.58149 4.257 6.88949 4.52833 7.21216 4.829C7.53482 5.12967 7.85016 5.44133 8.15816 5.764C8.46616 6.07933 8.75216 6.38367 9.01616 6.677C9.28749 6.97033 9.51482 7.23067 9.69816 7.458L8.73016 8.316C8.45882 7.94933 8.14716 7.56433 7.79516 7.161C7.44316 6.75767 7.06916 6.35433 6.67316 5.951C6.27716 5.54033 5.88116 5.159 5.48516 4.807L6.28816 4.015Z" fill="#808080"/>
<path d="M4.34116 15.838C4.68582 16.0433 5.05616 16.2743 5.45216 16.531C5.84816 16.7803 6.24416 17.0443 6.64016 17.323C7.03616 17.5943 7.41016 17.8583 7.76216 18.115C8.12149 18.3717 8.42949 18.61 8.68616 18.83L7.87216 19.798C7.62282 19.5707 7.32216 19.3177 6.97016 19.039C6.62549 18.7603 6.25149 18.4743 5.84816 18.181C5.45216 17.8877 5.05616 17.609 4.66016 17.345C4.27149 17.0737 3.91216 16.8317 3.58216 16.619L4.34116 15.838ZM9.43416 13.891C9.38282 13.979 9.32782 14.089 9.26916 14.221C9.21782 14.3457 9.17382 14.463 9.13716 14.573C9.02716 14.925 8.87682 15.3137 8.68616 15.739C8.50282 16.1643 8.27916 16.597 8.01516 17.037C7.75849 17.4697 7.46882 17.8877 7.14616 18.291C6.64016 18.9143 6.01682 19.512 5.27616 20.084C4.54282 20.6487 3.65549 21.129 2.61416 21.525L1.61316 20.645C2.33182 20.425 2.96982 20.1573 3.52716 19.842C4.09182 19.5267 4.59049 19.1857 5.02316 18.819C5.45582 18.445 5.83349 18.0673 6.15616 17.686C6.42749 17.3633 6.67682 17.0113 6.90416 16.63C7.13882 16.2487 7.34049 15.8673 7.50916 15.486C7.68516 15.1047 7.80982 14.76 7.88316 14.452H3.95616L4.37416 13.462H7.71816C7.87216 13.462 8.02249 13.451 8.16916 13.429C8.31582 13.407 8.44049 13.3777 8.54316 13.341L9.43416 13.891ZM5.76016 12.263C5.65016 12.4243 5.54016 12.6003 5.43016 12.791C5.32749 12.9817 5.24682 13.132 5.18816 13.242C4.95349 13.6527 4.65282 14.1037 4.28616 14.595C3.92682 15.0863 3.51249 15.5703 3.04316 16.047C2.57382 16.5163 2.06049 16.9453 1.50316 17.334L0.568156 16.608C1.20616 16.212 1.75249 15.7867 2.20716 15.332C2.66916 14.8773 3.05416 14.4337 3.36216 14.001C3.67016 13.5683 3.91216 13.187 4.08816 12.857C4.15416 12.747 4.22749 12.5967 4.30816 12.406C4.39616 12.208 4.46216 12.0283 4.50616 11.867L5.76016 12.263Z" fill="#808080"/>
<path d="M7.65216 25.615C7.74749 25.7543 7.85749 25.9267 7.98216 26.132C8.11416 26.3373 8.23882 26.5463 8.35616 26.759C8.48082 26.9643 8.58349 27.155 8.66416 27.331L7.89416 27.661C7.79882 27.4483 7.69616 27.2467 7.58616 27.056C7.48349 26.858 7.37716 26.6637 7.26716 26.473C7.15716 26.2823 7.03616 26.1027 6.90416 25.934L7.65216 25.615ZM9.12616 25.087C9.22882 25.219 9.34249 25.384 9.46716 25.582C9.59916 25.78 9.72749 25.9853 9.85216 26.198C9.97682 26.4033 10.0832 26.5903 10.1712 26.759L9.40116 27.1C9.30582 26.8873 9.19949 26.6857 9.08216 26.495C8.97216 26.3043 8.85849 26.1173 8.74116 25.934C8.62382 25.7507 8.49916 25.5747 8.36716 25.406L9.12616 25.087ZM2.92216 25.428C3.09082 25.5233 3.28516 25.6443 3.50516 25.791C3.73249 25.9303 3.96349 26.077 4.19816 26.231C4.43282 26.3777 4.65282 26.5207 4.85816 26.66C5.06349 26.792 5.23216 26.9057 5.36416 27.001L4.70416 27.947C4.57216 27.8443 4.40349 27.7233 4.19816 27.584C3.99282 27.4447 3.77282 27.3017 3.53816 27.155C3.31082 27.0083 3.08716 26.869 2.86716 26.737C2.65449 26.5977 2.46382 26.4803 2.29516 26.385L2.92216 25.428ZM1.09616 33.271C1.50682 33.1977 1.92482 33.106 2.35016 32.996C2.77549 32.8787 3.19716 32.7393 3.61516 32.578C4.03316 32.4093 4.43282 32.2223 4.81416 32.017C5.43016 31.665 5.99849 31.2727 6.51916 30.84C7.04716 30.4073 7.52382 29.9453 7.94916 29.454C8.37449 28.9627 8.73382 28.4567 9.02716 27.936L9.69816 29.102C9.20682 29.85 8.59082 30.565 7.85016 31.247C7.10949 31.929 6.29182 32.5303 5.39716 33.051C5.03049 33.2563 4.62716 33.4507 4.18716 33.634C3.74716 33.8173 3.31449 33.975 2.88916 34.107C2.46382 34.2463 2.08249 34.3453 1.74516 34.404L1.09616 33.271ZM1.23916 27.925C1.41516 28.013 1.61682 28.1267 1.84416 28.266C2.07149 28.398 2.30249 28.5373 2.53716 28.684C2.77182 28.8307 2.99182 28.97 3.19716 29.102C3.40249 29.234 3.57116 29.344 3.70316 29.432L3.06516 30.411C2.91849 30.3083 2.74249 30.1873 2.53716 30.048C2.33182 29.9087 2.11549 29.7657 1.88816 29.619C1.66082 29.4723 1.43716 29.3367 1.21716 29.212C0.997156 29.08 0.799156 28.9663 0.623156 28.871L1.23916 27.925Z" fill="#808080"/>
<path d="M7.08016 38.23C7.05816 38.3913 7.03982 38.56 7.02516 38.736C7.01782 38.9047 7.01782 39.0697 7.02516 39.231C7.02516 39.4803 7.02882 39.7773 7.03616 40.122C7.04349 40.4667 7.05082 40.848 7.05816 41.266C7.06549 41.6767 7.07282 42.1057 7.08016 42.553C7.09482 42.993 7.10582 43.4367 7.11316 43.884C7.12049 44.324 7.12416 44.753 7.12416 45.171C7.13149 45.589 7.13882 45.974 7.14616 46.326C7.14616 46.6413 7.05449 46.8833 6.87116 47.052C6.68782 47.228 6.40916 47.316 6.03516 47.316C5.73449 47.316 5.42649 47.3087 5.11116 47.294C4.80316 47.2793 4.50249 47.2647 4.20916 47.25L4.12116 46.117C4.37782 46.1537 4.64182 46.183 4.91316 46.205C5.19182 46.227 5.43016 46.238 5.62816 46.238C5.78216 46.238 5.88849 46.2013 5.94716 46.128C6.00582 46.0547 6.03516 45.9447 6.03516 45.798C6.03516 45.534 6.03149 45.226 6.02416 44.874C6.02416 44.522 6.02049 44.1443 6.01316 43.741C6.01316 43.3303 6.00949 42.916 6.00216 42.498C6.00216 42.0727 5.99849 41.6583 5.99116 41.255C5.98382 40.8517 5.97282 40.4777 5.95816 40.133C5.95082 39.781 5.93982 39.4803 5.92516 39.231C5.91782 39.011 5.90316 38.8203 5.88116 38.659C5.86649 38.4977 5.84816 38.3547 5.82616 38.23H7.08016ZM1.01916 40.111C1.17316 40.133 1.34916 40.1513 1.54716 40.166C1.75249 40.1807 1.94316 40.188 2.11916 40.188C2.21449 40.188 2.39049 40.188 2.64716 40.188C2.91116 40.188 3.22649 40.188 3.59316 40.188C3.95982 40.188 4.35216 40.188 4.77016 40.188C5.19549 40.188 5.61716 40.188 6.03516 40.188C6.45316 40.188 6.84182 40.188 7.20116 40.188C7.56049 40.188 7.86482 40.188 8.11416 40.188C8.37082 40.188 8.53582 40.188 8.60916 40.188C8.77049 40.188 8.95382 40.1807 9.15916 40.166C9.36449 40.144 9.52216 40.1257 9.63216 40.111V41.266C9.48549 41.2587 9.32049 41.255 9.13716 41.255C8.96116 41.2477 8.80349 41.244 8.66416 41.244C8.59082 41.244 8.42949 41.244 8.18016 41.244C7.93082 41.244 7.62282 41.244 7.25616 41.244C6.88949 41.244 6.49349 41.244 6.06816 41.244C5.64282 41.244 5.21382 41.244 4.78116 41.244C4.35582 41.244 3.95616 41.244 3.58216 41.244C3.21549 41.244 2.90382 41.244 2.64716 41.244C2.39049 41.244 2.22182 41.244 2.14116 41.244C1.95049 41.244 1.75982 41.2477 1.56916 41.255C1.37849 41.255 1.19516 41.2623 1.01916 41.277V40.111ZM0.535156 45.292C1.11449 45.0133 1.66816 44.698 2.19616 44.346C2.72416 43.994 3.20816 43.6273 3.64816 43.246C4.09549 42.8573 4.48782 42.4723 4.82516 42.091C5.16249 41.7097 5.43382 41.354 5.63916 41.024H6.20016L6.21116 41.959C5.99849 42.289 5.71616 42.6447 5.36416 43.026C5.01949 43.4073 4.63082 43.7923 4.19816 44.181C3.76549 44.5623 3.30349 44.929 2.81216 45.281C2.32816 45.6257 1.83316 45.93 1.32716 46.194L0.535156 45.292Z" fill="#808080"/>
<path d="M26.9499 2.112C26.8912 2.2 26.8362 2.30633 26.7849 2.431C26.7335 2.55567 26.6859 2.673 26.6419 2.783C26.5465 3.135 26.4109 3.52367 26.2349 3.949C26.0589 4.37433 25.8425 4.81067 25.5859 5.258C25.3292 5.698 25.0359 6.11967 24.7059 6.523C24.1999 7.14633 23.5949 7.711 22.8909 8.217C22.1942 8.723 21.3325 9.174 20.3059 9.57L19.2829 8.657C19.9942 8.44433 20.6175 8.19867 21.1529 7.92C21.6955 7.634 22.1722 7.32233 22.5829 6.985C23.0009 6.64767 23.3712 6.28833 23.6939 5.907C23.9725 5.59167 24.2219 5.24333 24.4419 4.862C24.6692 4.47333 24.8635 4.08833 25.0249 3.707C25.1935 3.31833 25.3072 2.97 25.3659 2.662H21.4499L21.8679 1.672C21.9632 1.672 22.1245 1.672 22.3519 1.672C22.5865 1.672 22.8505 1.672 23.1439 1.672C23.4445 1.672 23.7379 1.672 24.0239 1.672C24.3172 1.672 24.5702 1.672 24.7829 1.672C25.0029 1.672 25.1495 1.672 25.2229 1.672C25.3769 1.672 25.5272 1.66467 25.6739 1.65C25.8205 1.628 25.9452 1.59867 26.0479 1.562L26.9499 2.112ZM23.3089 0.418C23.1989 0.579333 23.0889 0.755333 22.9789 0.946C22.8762 1.13667 22.7955 1.287 22.7369 1.397C22.5095 1.815 22.2199 2.25867 21.8679 2.728C21.5232 3.19733 21.1235 3.65933 20.6689 4.114C20.2142 4.56133 19.7045 4.97567 19.1399 5.357L18.1719 4.631C18.6485 4.345 19.0739 4.04067 19.4479 3.718C19.8219 3.39533 20.1445 3.07267 20.4159 2.75C20.6945 2.42 20.9329 2.10467 21.1309 1.804C21.3289 1.50333 21.4939 1.232 21.6259 0.99C21.6919 0.88 21.7652 0.729667 21.8459 0.539C21.9265 0.341 21.9889 0.161333 22.0329 0L23.3089 0.418Z" fill="#808080"/>
<path d="M19.7889 13.781C19.9869 13.913 20.2142 14.078 20.4709 14.276C20.7275 14.4667 20.9879 14.672 21.2519 14.892C21.5232 15.112 21.7799 15.3247 22.0219 15.53C22.2639 15.7353 22.4582 15.9187 22.6049 16.08L21.7359 16.971C21.5965 16.8243 21.4132 16.6483 21.1859 16.443C20.9585 16.2303 20.7129 16.014 20.4489 15.794C20.1922 15.5667 19.9355 15.354 19.6789 15.156C19.4222 14.9507 19.1912 14.7783 18.9859 14.639L19.7889 13.781ZM18.6559 21.14C19.2719 21.0447 19.8402 20.92 20.3609 20.766C20.8815 20.6047 21.3582 20.425 21.7909 20.227C22.2309 20.0217 22.6269 19.8127 22.9789 19.6C23.5655 19.2407 24.1045 18.8263 24.5959 18.357C25.0945 17.8877 25.5309 17.4037 25.9049 16.905C26.2789 16.4063 26.5759 15.9223 26.7959 15.453L27.4669 16.652C27.2029 17.1287 26.8765 17.6053 26.4879 18.082C26.1065 18.5587 25.6739 19.017 25.1899 19.457C24.7059 19.8897 24.1779 20.282 23.6059 20.634C23.2392 20.8613 22.8359 21.0813 22.3959 21.294C21.9632 21.5067 21.4939 21.6973 20.9879 21.866C20.4892 22.0347 19.9575 22.1703 19.3929 22.273L18.6559 21.14Z" fill="#808080"/>
<path d="M24.5629 26.946C24.6655 27.0853 24.7792 27.254 24.9039 27.452C25.0285 27.6427 25.1495 27.8407 25.2669 28.046C25.3842 28.244 25.4832 28.431 25.5639 28.607L24.7939 28.948C24.6985 28.7353 24.5995 28.5373 24.4969 28.354C24.3942 28.1633 24.2879 27.9763 24.1779 27.793C24.0679 27.6097 23.9505 27.4337 23.8259 27.265L24.5629 26.946ZM25.9489 26.374C26.0515 26.506 26.1652 26.6673 26.2899 26.858C26.4145 27.0487 26.5392 27.2467 26.6639 27.452C26.7885 27.65 26.8949 27.8297 26.9829 27.991L26.2239 28.365C26.1212 28.1523 26.0149 27.9543 25.9049 27.771C25.8022 27.5877 25.6922 27.408 25.5749 27.232C25.4575 27.056 25.3365 26.8837 25.2119 26.715L25.9489 26.374ZM20.4819 34.118C20.4819 34.0007 20.4819 33.7843 20.4819 33.469C20.4819 33.1537 20.4819 32.7833 20.4819 32.358C20.4819 31.9327 20.4819 31.4853 20.4819 31.016C20.4819 30.5467 20.4819 30.0957 20.4819 29.663C20.4819 29.223 20.4819 28.8343 20.4819 28.497C20.4819 28.1597 20.4819 27.914 20.4819 27.76C20.4819 27.584 20.4709 27.3823 20.4489 27.155C20.4342 26.9203 20.4122 26.7113 20.3829 26.528H21.7359C21.7212 26.704 21.7029 26.9057 21.6809 27.133C21.6589 27.353 21.6479 27.562 21.6479 27.76C21.6479 28.002 21.6479 28.3137 21.6479 28.695C21.6479 29.0763 21.6479 29.487 21.6479 29.927C21.6479 30.367 21.6479 30.8107 21.6479 31.258C21.6552 31.698 21.6589 32.116 21.6589 32.512C21.6589 32.908 21.6589 33.249 21.6589 33.535C21.6589 33.821 21.6589 34.0153 21.6589 34.118C21.6589 34.228 21.6589 34.3673 21.6589 34.536C21.6662 34.7047 21.6772 34.877 21.6919 35.053C21.7139 35.229 21.7285 35.3867 21.7359 35.526H20.3939C20.4159 35.328 20.4342 35.097 20.4489 34.833C20.4709 34.569 20.4819 34.3307 20.4819 34.118ZM21.4059 29.399C21.7652 29.5017 22.1649 29.63 22.6049 29.784C23.0522 29.9307 23.5032 30.0883 23.9579 30.257C24.4199 30.4257 24.8525 30.598 25.2559 30.774C25.6665 30.9427 26.0149 31.0967 26.3009 31.236L25.8169 32.424C25.5089 32.2627 25.1605 32.0977 24.7719 31.929C24.3905 31.753 23.9982 31.5843 23.5949 31.423C23.1915 31.2617 22.7992 31.115 22.4179 30.983C22.0439 30.851 21.7065 30.7373 21.4059 30.642V29.399Z" fill="#808080"/>
</svg>
