<svg width="154" height="138" viewBox="0 0 154 138" fill="none" xmlns="http://www.w3.org/2000/svg">
<path fill-rule="evenodd" clip-rule="evenodd" d="M0.0617815 76.7167C-0.174683 78.2075 0.274945 79.7253 1.28524 80.8467L51.2852 136.347C52.2334 137.399 53.5835 138 55 138H99C100.417 138 101.767 137.399 102.715 136.347L152.715 80.8467C153.717 79.7341 154.168 78.2307 153.943 76.75L142.943 4.25002C142.677 2.49315 141.498 1.00976 139.847 0.353512C138.195 -0.302733 136.32 -0.0332165 134.92 1.06146L97.2771 30.5001H56.7406L19.6049 1.08086C18.2123 -0.0223227 16.339 -0.30374 14.6838 0.341603C13.0286 0.986945 11.8401 2.46212 11.5618 4.21674L0.0617815 76.7167Z" fill="black"/>
</svg>
