<svg width="32" height="32" viewBox="0 0 32 32" fill="none" xmlns="http://www.w3.org/2000/svg">
<path d="M28 10V13.75H19.3566C19.2919 13.75 19.2721 13.8406 19.3302 13.8689C20.4312 14.4056 21.3669 15.1413 22.2404 15.8279C23.95 17.1721 25.4267 18.3333 28 18.3333V22C24.1575 22 21.8379 20.1758 19.9742 18.7104C18.3817 17.4583 17.4121 16.75 16 16.75C14.5879 16.75 13.6183 17.4583 12.0258 18.7104C10.1621 20.1758 7.84208 22 4 22V18.3333C6.57333 18.3333 8.05002 17.1725 9.7596 15.8279C10.633 15.1411 11.5687 14.4055 12.6694 13.8689C12.7276 13.8406 12.7077 13.75 12.643 13.75H4V10H28Z" fill="white"/>
</svg>
