<svg width="120" height="60" viewBox="0 0 120 60" fill="none" xmlns="http://www.w3.org/2000/svg">
<path d="M120 0V18.75H76.7832C76.4597 18.75 76.3604 19.2028 76.6512 19.3446C82.1558 22.028 86.8346 25.7063 91.2022 29.1396C99.7501 35.8604 107.133 41.6667 120 41.6667V60C100.788 60 89.1896 50.8791 79.8708 43.552C71.9083 37.2916 67.0604 33.75 60 33.75C52.9396 33.75 48.0917 37.2916 40.1292 43.552C30.8104 50.8791 19.2104 60 0 60V41.6667C12.8667 41.6667 20.2501 35.8625 28.798 29.1396C33.1651 25.7055 37.8433 22.0276 43.3472 19.3446C43.6379 19.2028 43.5386 18.75 43.2151 18.75H0V0H120Z" fill="white"/>
</svg>
