<svg width="32" height="32" viewBox="0 0 32 32" fill="none" xmlns="http://www.w3.org/2000/svg">
<rect width="32" height="32" fill="#F60100"/>
<path d="M25 12V14.8558H18.444C18.3781 14.8558 18.3589 14.9503 18.4188 14.9777C19.3605 15.4082 20.1653 16.0182 20.86 16.5433C22.1422 17.5126 23.07 18.2308 25 18.2308V21C22.1181 21 20.3678 19.5472 18.97 18.4904C17.7756 17.5874 17.0591 17.1923 16 17.1923C14.9409 17.1923 14.2244 17.5874 13.03 18.4904C11.6322 19.5472 9.88157 21 7 21V18.2308C8.93 18.2308 9.85781 17.5129 11.14 16.5433C11.8347 16.018 12.6394 15.4082 13.581 14.9777C13.6409 14.9503 13.6217 14.8558 13.5558 14.8558H7V12H25Z" fill="black"/>
</svg>
