<svg width="32" height="32" viewBox="0 0 32 32" fill="none" xmlns="http://www.w3.org/2000/svg">
<rect width="32" height="32" fill="#F60100"/>
<path d="M28.0769 10.76V14.72H19.222C19.1565 14.72 19.1373 14.8124 19.1967 14.8398C20.4977 15.4389 21.6049 16.3116 22.5569 17.06C24.2665 18.4042 25.5036 19.4 28.0769 19.4V23.24C24.2344 23.24 21.9007 21.2254 20.0369 19.76C18.4444 18.5079 17.489 17.96 16.0769 17.96C14.6648 17.96 13.7094 18.5079 12.1169 19.76C10.2532 21.2254 7.91899 23.24 4.0769 23.24V19.4C6.65024 19.4 7.88732 18.4046 9.5969 17.06C10.5489 16.3114 11.6559 15.4388 12.9568 14.8398C13.0163 14.8124 12.997 14.72 12.9316 14.72H4.0769V10.76H28.0769Z" fill="black"/>
</svg>
