<svg width="536" height="138" viewBox="0 0 536 138" fill="none" xmlns="http://www.w3.org/2000/svg">
<path d="M87.3741 135.153L40.458 69.4745L22.9832 86.7483V135.153H0V0H22.9832V59.0344L81.1059 0H110.927L56.7931 54.2889L116.056 135.153H87.3741Z" fill="currentColor"/>
<path d="M187.543 37.2049H209.766V135.153H188.492L188.112 121.486C181.464 131.926 171.017 137.62 157.721 137.62C137.208 137.62 125.051 124.902 125.051 104.022V37.2049H147.275V99.2765C147.275 111.045 152.783 117.879 164.18 117.879C176.526 117.879 187.543 109.527 187.543 90.5447V37.2049Z" fill="currentColor"/>
<path d="M282.692 34.7373C303.206 34.7373 315.363 47.4553 315.363 68.3356V135.153H293.139V73.0812C293.139 61.3122 287.631 54.4787 276.234 54.4787C263.888 54.4787 252.871 62.8308 252.871 81.8129V135.153H230.648V37.2049H251.922L252.301 50.8721C258.949 40.4319 269.396 34.7373 282.692 34.7373Z" fill="currentColor"/>
<path d="M401.015 0H423.239V135.153H403.675L403.295 121.296C396.837 131.736 386.39 137.81 373.284 137.81C347.641 137.81 330.736 116.171 330.736 85.2297C330.736 54.2889 348.401 34.9271 371.954 34.9271C384.49 34.9271 394.557 39.6726 401.015 48.0248V0ZM377.083 118.448C391.518 118.448 402.155 105.73 402.155 85.4195C402.155 65.1087 391.708 53.5296 377.083 53.5296C362.267 53.5296 352.58 65.1087 352.58 85.2297C352.58 105.541 362.077 118.448 377.083 118.448Z" fill="currentColor"/>
<path d="M487.185 138C458.503 138 438.559 116.55 438.559 86.3686C438.559 55.8074 458.693 34.7373 487.564 34.7373C516.056 34.7373 536 55.6176 536 85.989C536 116.171 515.866 138 487.185 138ZM487.185 120.157C504.279 120.157 514.346 106.49 514.346 85.989C514.346 65.4883 504.279 52.5805 487.185 52.5805C470.469 52.5805 460.402 65.868 460.402 86.3686C460.402 106.869 470.659 120.157 487.185 120.157Z" fill="currentColor"/>
</svg>
