<svg width="27" height="24" viewBox="0 0 27 24" fill="none" xmlns="http://www.w3.org/2000/svg">
  <path d="M24.5633 0L17.3702 5.72216H9.29144L2.09839 0L0 13.5779L8.82972 23.4821C8.9751 23.6452 9.15234 23.7755 9.35013 23.8647C9.54783 23.954 9.76171 24 9.97793 24H16.6838C16.9 24 17.1139 23.954 17.3116 23.8647C17.5093 23.7755 17.6865 23.6452 17.832 23.4821L26.6617 13.5779L24.5633 0ZM4.77899 14.3829C4.15898 13.3326 3.69919 11.9871 3.51473 10.2654H5.77838C5.77838 10.2654 12.5184 10.2654 12.5184 18.041C12.5186 18.041 7.31294 18.675 4.77899 14.3829ZM21.8827 14.3829C19.3488 18.6751 14.1431 18.041 14.1431 18.041C14.1431 10.2654 20.8832 10.2654 20.8832 10.2654H23.147C22.9625 11.9871 22.5026 13.3326 21.8827 14.3829Z" fill="currentColor"/>
</svg>
