<svg width="117" height="19" viewBox="0 0 117 19" fill="none" xmlns="http://www.w3.org/2000/svg">
<path d="M11.1052 0.744706H18.7012V12.2128L22.4029 3.95748C23.3872 1.76599 24.9706 0.744706 27.3884 0.744706H34.8775V17.766H26.3614V7.55324H25.8692L21.333 17.766H10.2065V7.55324H9.62875L5.09254 17.766H0L6.11961 3.97876C7.10388 1.76599 8.68727 0.744706 11.1052 0.744706ZM70.6322 2.28882e-05C76.3667 2.28882e-05 80.4108 3.95748 80.4108 9.29792C80.4108 14.6384 76.3667 18.5958 70.6322 18.5958C64.6624 18.5958 60.8537 14.6384 60.8537 9.29792C60.8537 3.95748 64.6624 2.28882e-05 70.6322 2.28882e-05ZM59.1419 17.766H45.1053C40.398 17.766 36.5892 13.9575 36.5892 9.25537C36.5892 4.55323 40.398 0.744706 45.1053 0.744706H59.1419V6.70217H44.4634V7.55324H59.1419V10.9575H44.4634V11.8086H59.1419V17.766ZM105.895 17.766H98.2988V6.29791L94.5971 14.5533C93.6128 16.7448 92.0294 17.766 89.6116 17.766H82.1225V0.744706H90.6386V10.9575H91.1308L95.667 0.744706H106.794V10.9575H107.371L111.907 0.744706H117L110.88 14.532C109.896 16.7448 108.313 17.766 105.895 17.766Z" fill="currentColor"/>

 <filter id='inset-shadow'>
    <!-- Shadow offset -->
    <feOffset
            dx='0'
            dy='0'
          />
    <!-- Shadow blur -->
  <feGaussianBlur
            stdDeviation='1'
            result='offset-blur'
          />
    <!-- Invert drop shadow to make an inset shadow-->
    <feComposite
            operator='out'
            in='SourceGraphic'
            in2='offset-blur'
            result='inverse'
          />
    <!-- Cut colour inside shadow -->
    <feFlood
            flood-color='black'
            flood-opacity='3'
            result='color'
          />
    <feComposite
            operator='in'
            in='color'
            in2='inverse'
            result='shadow'
          />
    <!-- Placing shadow over element -->
    <feComposite
            operator='over'
            in='shadow'
            in2='SourceGraphic'
          /> 
  </filter>
</svg>
