<svg width="270" height="253" viewBox="0 0 270 253" fill="none" xmlns="http://www.w3.org/2000/svg">
<mask id="path-1-outside-1_1845_230" maskUnits="userSpaceOnUse" x="4" y="3" width="262" height="246" fill="black">
<rect fill="white" x="4" y="3" width="262" height="246"/>
<path fill-rule="evenodd" clip-rule="evenodd" d="M226.351 165.047C218.125 180.864 203.978 197.892 188.51 210.602C165.374 229.612 146.667 233.674 134.998 233.711C123.33 233.674 104.623 229.612 81.4863 210.602C66.019 197.892 51.8745 180.864 43.6455 165.047C34.9141 148.257 34.0752 132.788 34.9102 122.769C36.4556 104.267 45.4287 87.4477 60.7612 76.3842C49.8467 77.8205 41.0439 86.8742 36.4224 96.3681C21.061 56.2116 19.3032 31.7546 19.292 22.8308C19.292 21.736 19.7793 20.7243 20.6377 20.0488C21.4424 19.4145 22.4746 19.1579 23.4648 19.3466C50.2529 24.4274 94.4321 48.726 94.8745 48.9714L95.9937 49.583L97.1689 49.1035C117.975 40.7924 152.006 40.9282 172.835 49.0998L174.014 49.5905L175.133 48.9714C175.575 48.726 219.743 24.4274 246.543 19.3466C247.533 19.1579 248.565 19.4145 249.37 20.0488C250.224 20.7243 250.716 21.736 250.712 22.8308C250.701 31.7507 248.947 56.2153 233.574 96.3833C228.878 86.9084 220.208 77.8056 209.239 76.3881C224.098 87.696 233.519 103.959 235.09 122.773C235.925 132.791 235.09 148.257 226.354 165.051L226.351 165.047ZM94.0508 145.864C87.8403 141.326 81.4258 137.11 74.9468 132.973C73.9658 132.353 72.9858 131.727 72.0044 131.099C63.1533 125.442 54.1816 119.708 43.5283 118.243C47.9546 122.116 52.729 125.087 57.5884 128.11L58.9883 128.982L60.0088 129.621C66.9609 134.268 74.0972 139.555 81.0889 144.735L81.1416 144.774C82.7095 145.936 84.2695 147.092 85.8188 148.233C87.2373 149.279 88.6465 150.313 90.0439 151.33C90.8057 151.888 91.5693 152.446 92.3325 153.004C94.6318 154.683 96.9263 156.36 99.1572 158.049L99.6772 158.451C100.307 158.938 101.056 159.516 101.744 160.082C102.318 160.554 102.851 161.017 103.239 161.412C105.727 163.809 107.817 166.735 109.82 169.679L110.137 170.147C110.35 170.461 110.562 170.778 110.776 171.097L111.775 172.593C111.988 172.911 112.203 173.23 112.421 173.553C112.641 173.876 112.863 174.202 113.09 174.53C113.767 168.388 111.744 161.963 107.726 157.211C104.208 153.449 100.053 150.347 95.9546 147.287L94.0508 145.864ZM173.997 147.327L174.045 147.291C174.683 146.815 175.318 146.34 175.95 145.864C182.164 141.322 188.578 137.11 195.057 132.973C196.032 132.356 197.006 131.733 197.982 131.109C206.836 125.449 215.816 119.709 226.475 118.243C222.049 122.117 217.274 125.087 212.415 128.11L212.336 128.158L212.311 128.174C211.541 128.654 210.769 129.134 209.995 129.621C203.047 134.262 195.898 139.56 188.901 144.745C185.883 146.981 182.893 149.197 179.96 151.33C176.906 153.572 173.817 155.799 170.847 158.049C169.694 158.944 167.762 160.397 166.764 161.412C164.277 163.809 162.19 166.735 160.184 169.679C159.122 171.238 158.074 172.846 156.914 174.53C156.233 168.392 158.26 161.956 162.278 157.211C165.778 153.467 169.912 150.379 173.991 147.331L173.997 147.327ZM71.5981 156.482C67.0093 152.341 62.8965 147.638 59.4419 142.478C58.6411 141.242 57.8608 139.999 57.0815 138.759C54.875 135.246 52.6792 131.75 50.0562 128.458C49.7993 135.271 52.7739 141.64 56.1079 147.404C62.9233 159.027 73.541 168.72 86.1089 173.771C92.3911 176.289 99.3008 177.274 105.991 176.096C103.659 175.05 101.347 174.099 99.0552 173.156C95.4771 171.685 91.9482 170.234 88.4712 168.471C82.2646 165.421 76.6704 161.235 71.5981 156.482ZM198.402 156.482C202.991 152.338 207.107 147.634 210.558 142.474H210.554C210.747 142.176 210.938 141.879 211.128 141.581C211.329 141.269 211.528 140.956 211.726 140.643C212.125 140.013 212.52 139.383 212.916 138.754C215.121 135.241 217.317 131.746 219.94 128.454C220.197 135.268 217.222 141.64 213.888 147.4C207.077 159.023 196.459 168.713 183.887 173.767C177.605 176.285 170.695 177.274 164.009 176.092C164.867 175.707 165.722 175.335 166.575 174.971C168.044 174.345 169.507 173.743 170.961 173.145C174.533 171.676 178.058 170.227 181.529 168.467C187.735 165.417 193.33 161.231 198.402 156.482Z"/>
<path fill-rule="evenodd" clip-rule="evenodd" d="M236.39 103.706C254.042 59.4956 255.989 32.4565 256 22.8383C256.004 20.113 254.783 17.5837 252.644 15.9001C250.632 14.3149 248.047 13.6806 245.549 14.1525C233.918 16.3569 218.088 22.1174 198.5 31.2639C186.541 36.8505 176.766 42.0634 173.625 43.7622C150.819 36.0932 119.178 36.1008 96.3716 43.7622C93.2305 42.0634 83.4556 36.8505 71.4961 31.2639C51.9121 22.1174 36.082 16.3608 24.4512 14.1562C21.9531 13.6806 19.3677 14.3186 17.3564 15.904C15.2207 17.5876 14 20.113 14 22.8383C14.0151 32.4565 15.9619 59.4956 33.6099 103.706C32.6689 106.179 30.4614 112.781 29.6562 122.097C28.7266 132.863 29.5845 149.48 38.9512 167.486C47.4897 183.903 62.1333 201.546 78.126 214.686C102.366 234.602 122.286 238.925 134.832 239H135.172C147.717 238.921 167.638 234.602 191.878 214.686C207.867 201.546 222.514 183.903 231.049 167.486C240.416 149.48 241.273 132.863 240.344 122.097C239.539 112.781 237.331 106.179 236.39 103.706Z"/>
</mask>
<path fill-rule="evenodd" clip-rule="evenodd" d="M226.351 165.047C218.125 180.864 203.978 197.892 188.51 210.602C165.374 229.612 146.667 233.674 134.998 233.711C123.33 233.674 104.623 229.612 81.4863 210.602C66.019 197.892 51.8745 180.864 43.6455 165.047C34.9141 148.257 34.0752 132.788 34.9102 122.769C36.4556 104.267 45.4287 87.4477 60.7612 76.3842C49.8467 77.8205 41.0439 86.8742 36.4224 96.3681C21.061 56.2116 19.3032 31.7546 19.292 22.8308C19.292 21.736 19.7793 20.7243 20.6377 20.0488C21.4424 19.4145 22.4746 19.1579 23.4648 19.3466C50.2529 24.4274 94.4321 48.726 94.8745 48.9714L95.9937 49.583L97.1689 49.1035C117.975 40.7924 152.006 40.9282 172.835 49.0998L174.014 49.5905L175.133 48.9714C175.575 48.726 219.743 24.4274 246.543 19.3466C247.533 19.1579 248.565 19.4145 249.37 20.0488C250.224 20.7243 250.716 21.736 250.712 22.8308C250.701 31.7507 248.947 56.2153 233.574 96.3833C228.878 86.9084 220.208 77.8056 209.239 76.3881C224.098 87.696 233.519 103.959 235.09 122.773C235.925 132.791 235.09 148.257 226.354 165.051L226.351 165.047ZM94.0508 145.864C87.8403 141.326 81.4258 137.11 74.9468 132.973C73.9658 132.353 72.9858 131.727 72.0044 131.099C63.1533 125.442 54.1816 119.708 43.5283 118.243C47.9546 122.116 52.729 125.087 57.5884 128.11L58.9883 128.982L60.0088 129.621C66.9609 134.268 74.0972 139.555 81.0889 144.735L81.1416 144.774C82.7095 145.936 84.2695 147.092 85.8188 148.233C87.2373 149.279 88.6465 150.313 90.0439 151.33C90.8057 151.888 91.5693 152.446 92.3325 153.004C94.6318 154.683 96.9263 156.36 99.1572 158.049L99.6772 158.451C100.307 158.938 101.056 159.516 101.744 160.082C102.318 160.554 102.851 161.017 103.239 161.412C105.727 163.809 107.817 166.735 109.82 169.679L110.137 170.147C110.35 170.461 110.562 170.778 110.776 171.097L111.775 172.593C111.988 172.911 112.203 173.23 112.421 173.553C112.641 173.876 112.863 174.202 113.09 174.53C113.767 168.388 111.744 161.963 107.726 157.211C104.208 153.449 100.053 150.347 95.9546 147.287L94.0508 145.864ZM173.997 147.327L174.045 147.291C174.683 146.815 175.318 146.34 175.95 145.864C182.164 141.322 188.578 137.11 195.057 132.973C196.032 132.356 197.006 131.733 197.982 131.109C206.836 125.449 215.816 119.709 226.475 118.243C222.049 122.117 217.274 125.087 212.415 128.11L212.336 128.158L212.311 128.174C211.541 128.654 210.769 129.134 209.995 129.621C203.047 134.262 195.898 139.56 188.901 144.745C185.883 146.981 182.893 149.197 179.96 151.33C176.906 153.572 173.817 155.799 170.847 158.049C169.694 158.944 167.762 160.397 166.764 161.412C164.277 163.809 162.19 166.735 160.184 169.679C159.122 171.238 158.074 172.846 156.914 174.53C156.233 168.392 158.26 161.956 162.278 157.211C165.778 153.467 169.912 150.379 173.991 147.331L173.997 147.327ZM71.5981 156.482C67.0093 152.341 62.8965 147.638 59.4419 142.478C58.6411 141.242 57.8608 139.999 57.0815 138.759C54.875 135.246 52.6792 131.75 50.0562 128.458C49.7993 135.271 52.7739 141.64 56.1079 147.404C62.9233 159.027 73.541 168.72 86.1089 173.771C92.3911 176.289 99.3008 177.274 105.991 176.096C103.659 175.05 101.347 174.099 99.0552 173.156C95.4771 171.685 91.9482 170.234 88.4712 168.471C82.2646 165.421 76.6704 161.235 71.5981 156.482ZM198.402 156.482C202.991 152.338 207.107 147.634 210.558 142.474H210.554C210.747 142.176 210.938 141.879 211.128 141.581C211.329 141.269 211.528 140.956 211.726 140.643C212.125 140.013 212.52 139.383 212.916 138.754C215.121 135.241 217.317 131.746 219.94 128.454C220.197 135.268 217.222 141.64 213.888 147.4C207.077 159.023 196.459 168.713 183.887 173.767C177.605 176.285 170.695 177.274 164.009 176.092C164.867 175.707 165.722 175.335 166.575 174.971C168.044 174.345 169.507 173.743 170.961 173.145C174.533 171.676 178.058 170.227 181.529 168.467C187.735 165.417 193.33 161.231 198.402 156.482Z" fill="black"/>
<path fill-rule="evenodd" clip-rule="evenodd" d="M236.39 103.706C254.042 59.4956 255.989 32.4565 256 22.8383C256.004 20.113 254.783 17.5837 252.644 15.9001C250.632 14.3149 248.047 13.6806 245.549 14.1525C233.918 16.3569 218.088 22.1174 198.5 31.2639C186.541 36.8505 176.766 42.0634 173.625 43.7622C150.819 36.0932 119.178 36.1008 96.3716 43.7622C93.2305 42.0634 83.4556 36.8505 71.4961 31.2639C51.9121 22.1174 36.082 16.3608 24.4512 14.1562C21.9531 13.6806 19.3677 14.3186 17.3564 15.904C15.2207 17.5876 14 20.113 14 22.8383C14.0151 32.4565 15.9619 59.4956 33.6099 103.706C32.6689 106.179 30.4614 112.781 29.6562 122.097C28.7266 132.863 29.5845 149.48 38.9512 167.486C47.4897 183.903 62.1333 201.546 78.126 214.686C102.366 234.602 122.286 238.925 134.832 239H135.172C147.717 238.921 167.638 234.602 191.878 214.686C207.867 201.546 222.514 183.903 231.049 167.486C240.416 149.48 241.273 132.863 240.344 122.097C239.539 112.781 237.331 106.179 236.39 103.706Z" fill="black"/>
<path fill-rule="evenodd" clip-rule="evenodd" d="M226.351 165.047C218.125 180.864 203.978 197.892 188.51 210.602C165.374 229.612 146.667 233.674 134.998 233.711C123.33 233.674 104.623 229.612 81.4863 210.602C66.019 197.892 51.8745 180.864 43.6455 165.047C34.9141 148.257 34.0752 132.788 34.9102 122.769C36.4556 104.267 45.4287 87.4477 60.7612 76.3842C49.8467 77.8205 41.0439 86.8742 36.4224 96.3681C21.061 56.2116 19.3032 31.7546 19.292 22.8308C19.292 21.736 19.7793 20.7243 20.6377 20.0488C21.4424 19.4145 22.4746 19.1579 23.4648 19.3466C50.2529 24.4274 94.4321 48.726 94.8745 48.9714L95.9937 49.583L97.1689 49.1035C117.975 40.7924 152.006 40.9282 172.835 49.0998L174.014 49.5905L175.133 48.9714C175.575 48.726 219.743 24.4274 246.543 19.3466C247.533 19.1579 248.565 19.4145 249.37 20.0488C250.224 20.7243 250.716 21.736 250.712 22.8308C250.701 31.7507 248.947 56.2153 233.574 96.3833C228.878 86.9084 220.208 77.8056 209.239 76.3881C224.098 87.696 233.519 103.959 235.09 122.773C235.925 132.791 235.09 148.257 226.354 165.051L226.351 165.047ZM94.0508 145.864C87.8403 141.326 81.4258 137.11 74.9468 132.973C73.9658 132.353 72.9858 131.727 72.0044 131.099C63.1533 125.442 54.1816 119.708 43.5283 118.243C47.9546 122.116 52.729 125.087 57.5884 128.11L58.9883 128.982L60.0088 129.621C66.9609 134.268 74.0972 139.555 81.0889 144.735L81.1416 144.774C82.7095 145.936 84.2695 147.092 85.8188 148.233C87.2373 149.279 88.6465 150.313 90.0439 151.33C90.8057 151.888 91.5693 152.446 92.3325 153.004C94.6318 154.683 96.9263 156.36 99.1572 158.049L99.6772 158.451C100.307 158.938 101.056 159.516 101.744 160.082C102.318 160.554 102.851 161.017 103.239 161.412C105.727 163.809 107.817 166.735 109.82 169.679L110.137 170.147C110.35 170.461 110.562 170.778 110.776 171.097L111.775 172.593C111.988 172.911 112.203 173.23 112.421 173.553C112.641 173.876 112.863 174.202 113.09 174.53C113.767 168.388 111.744 161.963 107.726 157.211C104.208 153.449 100.053 150.347 95.9546 147.287L94.0508 145.864ZM173.997 147.327L174.045 147.291C174.683 146.815 175.318 146.34 175.95 145.864C182.164 141.322 188.578 137.11 195.057 132.973C196.032 132.356 197.006 131.733 197.982 131.109C206.836 125.449 215.816 119.709 226.475 118.243C222.049 122.117 217.274 125.087 212.415 128.11L212.336 128.158L212.311 128.174C211.541 128.654 210.769 129.134 209.995 129.621C203.047 134.262 195.898 139.56 188.901 144.745C185.883 146.981 182.893 149.197 179.96 151.33C176.906 153.572 173.817 155.799 170.847 158.049C169.694 158.944 167.762 160.397 166.764 161.412C164.277 163.809 162.19 166.735 160.184 169.679C159.122 171.238 158.074 172.846 156.914 174.53C156.233 168.392 158.26 161.956 162.278 157.211C165.778 153.467 169.912 150.379 173.991 147.331L173.997 147.327ZM71.5981 156.482C67.0093 152.341 62.8965 147.638 59.4419 142.478C58.6411 141.242 57.8608 139.999 57.0815 138.759C54.875 135.246 52.6792 131.75 50.0562 128.458C49.7993 135.271 52.7739 141.64 56.1079 147.404C62.9233 159.027 73.541 168.72 86.1089 173.771C92.3911 176.289 99.3008 177.274 105.991 176.096C103.659 175.05 101.347 174.099 99.0552 173.156C95.4771 171.685 91.9482 170.234 88.4712 168.471C82.2646 165.421 76.6704 161.235 71.5981 156.482ZM198.402 156.482C202.991 152.338 207.107 147.634 210.558 142.474H210.554C210.747 142.176 210.938 141.879 211.128 141.581C211.329 141.269 211.528 140.956 211.726 140.643C212.125 140.013 212.52 139.383 212.916 138.754C215.121 135.241 217.317 131.746 219.94 128.454C220.197 135.268 217.222 141.64 213.888 147.4C207.077 159.023 196.459 168.713 183.887 173.767C177.605 176.285 170.695 177.274 164.009 176.092C164.867 175.707 165.722 175.335 166.575 174.971C168.044 174.345 169.507 173.743 170.961 173.145C174.533 171.676 178.058 170.227 181.529 168.467C187.735 165.417 193.33 161.231 198.402 156.482Z" stroke="black" stroke-width="20" mask="url(#path-1-outside-1_1845_230)"/>
<path fill-rule="evenodd" clip-rule="evenodd" d="M236.39 103.706C254.042 59.4956 255.989 32.4565 256 22.8383C256.004 20.113 254.783 17.5837 252.644 15.9001C250.632 14.3149 248.047 13.6806 245.549 14.1525C233.918 16.3569 218.088 22.1174 198.5 31.2639C186.541 36.8505 176.766 42.0634 173.625 43.7622C150.819 36.0932 119.178 36.1008 96.3716 43.7622C93.2305 42.0634 83.4556 36.8505 71.4961 31.2639C51.9121 22.1174 36.082 16.3608 24.4512 14.1562C21.9531 13.6806 19.3677 14.3186 17.3564 15.904C15.2207 17.5876 14 20.113 14 22.8383C14.0151 32.4565 15.9619 59.4956 33.6099 103.706C32.6689 106.179 30.4614 112.781 29.6562 122.097C28.7266 132.863 29.5845 149.48 38.9512 167.486C47.4897 183.903 62.1333 201.546 78.126 214.686C102.366 234.602 122.286 238.925 134.832 239H135.172C147.717 238.921 167.638 234.602 191.878 214.686C207.867 201.546 222.514 183.903 231.049 167.486C240.416 149.48 241.273 132.863 240.344 122.097C239.539 112.781 237.331 106.179 236.39 103.706Z" stroke="black" stroke-width="20" mask="url(#path-1-outside-1_1845_230)"/>
<g filter="url(#filter0_dd_1845_230)">
<path d="M236.39 103.706C254.042 59.4957 255.989 32.4566 256 22.8384C256.004 20.113 254.783 17.5838 252.643 15.9003C250.633 14.3148 248.047 13.6807 245.549 14.1525C233.918 16.357 218.088 22.1174 198.5 31.2638C186.541 36.8505 176.766 42.0636 173.625 43.7622C150.819 36.0933 119.178 36.1007 96.3714 43.7622C93.2303 42.0636 83.4555 36.8505 71.4959 31.2638C51.9123 22.1174 36.0821 16.3608 24.4514 14.1563C21.9529 13.6807 19.3674 14.3186 17.3565 15.904C15.2209 17.5876 14 20.113 14 22.8384C14.0151 32.4566 15.9618 59.4957 33.6101 103.706C32.6689 106.179 30.4614 112.781 29.6563 122.097C28.7265 132.863 29.5845 149.48 38.9511 167.486C47.4898 183.903 62.1331 201.546 78.1259 214.686C102.366 234.602 122.286 238.924 134.832 239C134.889 239 134.945 239 135.002 239C135.059 239 135.115 239 135.172 239C147.717 238.921 167.637 234.602 191.878 214.686C207.867 201.546 222.514 183.903 231.049 167.486C240.415 149.48 241.274 132.863 240.344 122.097C239.539 112.781 237.331 106.179 236.39 103.706ZM226.351 165.047C218.125 180.864 203.977 197.892 188.51 210.602C165.373 229.612 146.667 233.674 134.998 233.711C123.33 233.674 104.623 229.612 81.4862 210.602C66.0189 197.892 51.8745 180.864 43.6457 165.047C34.9141 148.257 34.075 132.788 34.9104 122.769C36.4553 104.267 45.4288 87.4478 60.761 76.3843C49.8468 77.8205 41.0439 86.8744 36.4223 96.3682C21.0608 56.2116 19.3032 31.7545 19.2918 22.8308C19.2918 21.7361 19.7795 20.7245 20.6375 20.0488C21.4426 19.4146 22.4745 19.1579 23.4648 19.3467C50.2529 24.4276 94.4323 48.7261 94.8746 48.9715L95.9934 49.583L97.169 49.1036C117.975 40.7925 152.007 40.9283 172.835 49.0998L174.014 49.5906L175.133 48.9715C175.575 48.7261 219.743 24.4276 246.543 19.3467C247.533 19.1579 248.565 19.4146 249.37 20.0488C250.224 20.7245 250.716 21.7361 250.712 22.8308C250.701 31.7507 248.947 56.2154 233.574 96.3833C228.878 86.9085 220.209 77.8058 209.239 76.3881C224.098 87.6961 233.519 103.959 235.09 122.773C235.925 132.792 235.09 148.257 226.354 165.051L226.351 165.047Z" fill="var(--primary-color)"/>
<path d="M94.0505 145.864C87.8402 141.326 81.4257 137.11 74.947 132.973C65.123 126.767 55.3634 119.87 43.5285 118.243C48.6881 122.758 54.3201 126.046 60.0088 129.621C69.9651 136.276 80.2993 144.244 90.0439 151.33C93.1018 153.572 96.1862 155.799 99.1572 158.049C100.318 158.951 102.249 160.404 103.239 161.412C105.727 163.809 107.817 166.735 109.82 169.679C110.882 171.238 111.929 172.85 113.09 174.53C113.766 168.388 111.744 161.963 107.726 157.211C103.663 152.866 98.7489 149.401 94.0543 145.864H94.0505Z" fill="var(--primary-color)"/>
<path d="M175.949 145.864C171.255 149.405 166.341 152.866 162.278 157.211C158.26 161.956 156.234 168.392 156.914 174.53C158.074 172.846 159.121 171.238 160.184 169.679C162.191 166.735 164.277 163.809 166.764 161.412C167.762 160.397 169.694 158.943 170.847 158.049C173.818 155.799 176.906 153.572 179.96 151.33C189.693 144.252 200.05 136.264 209.995 129.621C215.684 126.046 221.316 122.758 226.475 118.243C214.64 119.87 204.877 126.767 195.057 132.973C188.578 137.11 182.164 141.323 175.953 145.864H175.949Z" fill="var(--primary-color)"/>
<path d="M71.598 156.482C67.0092 152.341 62.8967 147.638 59.4419 142.478C56.3726 137.74 53.6057 132.912 50.0564 128.458C49.7994 135.272 52.7741 141.64 56.108 147.404C62.9231 159.027 73.5409 168.72 86.109 173.771C92.3912 176.289 99.3008 177.274 105.991 176.096C100.019 173.416 94.1753 171.363 88.4714 168.471C82.2648 165.421 76.6706 161.235 71.598 156.486V156.482Z" fill="var(--primary-color)"/>
<path d="M210.558 142.474C207.107 147.634 202.991 152.338 198.402 156.482C193.329 161.231 187.735 165.417 181.529 168.467C175.825 171.359 169.977 173.412 164.009 176.093C170.695 177.274 177.605 176.285 183.887 173.767C196.459 168.713 207.077 159.023 213.888 147.4C217.222 141.64 220.197 135.268 219.94 128.454C216.391 132.909 213.624 137.737 210.554 142.474H210.558Z" fill="var(--primary-color)"/>
</g>
<defs>
<filter id="filter0_dd_1845_230" x="0.804124" y="0.804124" width="268.392" height="251.392" filterUnits="userSpaceOnUse" color-interpolation-filters="sRGB">
<feFlood flood-opacity="0" result="BackgroundImageFix"/>
<feColorMatrix in="SourceAlpha" type="matrix" values="0 0 0 0 0 0 0 0 0 0 0 0 0 0 0 0 0 0 127 0" result="hardAlpha"/>
<feOffset/>
<feGaussianBlur stdDeviation="6.59794"/>
<feComposite in2="hardAlpha" operator="out"/>
<feColorMatrix type="matrix" values="0 0 0 0 0.262745 0 0 0 0 0.458824 0 0 0 0 0.109804 0 0 0 1 0"/>
<feBlend mode="normal" in2="BackgroundImageFix" result="effect1_dropShadow_1845_230"/>
<feColorMatrix in="SourceAlpha" type="matrix" values="0 0 0 0 0 0 0 0 0 0 0 0 0 0 0 0 0 0 127 0" result="hardAlpha"/>
<feOffset/>
<feGaussianBlur stdDeviation="2.63918"/>
<feComposite in2="hardAlpha" operator="out"/>
<feColorMatrix type="matrix" values="0 0 0 0 0.333333 0 0 0 0 0.541176 0 0 0 0 0.00392157 0 0 0 1 0"/>
<feBlend mode="normal" in2="effect1_dropShadow_1845_230" result="effect2_dropShadow_1845_230"/>
<feBlend mode="normal" in="SourceGraphic" in2="effect2_dropShadow_1845_230" result="shape"/>
</filter>
</defs>
</svg>
