<svg width="161" height="144" viewBox="0 0 161 144" fill="none" xmlns="http://www.w3.org/2000/svg">
<path d="M142.544 5.67386C143.37 5.99881 143.961 6.73661 144.098 7.61278L155.452 80.0284C155.568 80.7741 155.342 81.5328 154.836 82.0926L107.063 134.915L107.062 134.915C106.042 136.043 104.798 136.945 103.409 137.562L142.544 5.67386ZM142.544 5.67386C141.719 5.34891 140.784 5.48546 140.086 6.03272M142.544 5.67386L140.086 6.03272M140.086 6.03272L101.847 36.0182H59.863L21.6243 6.03273C20.9264 5.48547 19.9908 5.34891 19.1657 5.67385C18.3405 5.9988 17.7492 6.73661 17.6118 7.61278L6.25844 80.0284C6.14153 80.7741 6.3678 81.5328 6.87412 82.0926L54.6471 134.914L140.086 6.03272Z" fill="#0D0D0C" stroke="#0D0D0C" stroke-width="5" stroke-linejoin="round"/>
<g filter="url(#filter0_d_1033_761)">
<path d="M141.628 8L102.71 38.5182H58.9997L20.0817 8L8.72827 80.4157L56.5016 133.238C57.2881 134.108 58.2471 134.803 59.3172 135.278C60.3869 135.754 61.5441 136 62.714 136H98.996C100.166 136 101.323 135.754 102.393 135.278C103.462 134.803 104.421 134.108 105.208 133.238L152.982 80.4157L141.628 8ZM34.585 84.7089C31.2304 79.1074 28.7428 71.9312 27.7448 62.7489H39.9923C39.9923 62.7489 76.4593 62.7489 76.4593 104.219C76.4602 104.219 48.295 107.6 34.585 84.7089ZM127.125 84.7089C113.415 107.6 85.2497 104.219 85.2497 104.219C85.2497 62.7489 121.717 62.7489 121.717 62.7489H133.965C132.967 71.9312 130.479 79.1074 127.125 84.7089Z" fill="currentColor"/>
</g>
<defs>
<filter id="filter0_d_1033_761" x="0.728271" y="0" width="160.253" height="144" filterUnits="userSpaceOnUse" color-interpolation-filters="sRGB">
<feFlood flood-opacity="0" result="BackgroundImageFix"/>
<feColorMatrix in="SourceAlpha" type="matrix" values="0 0 0 0 0 0 0 0 0 0 0 0 0 0 0 0 0 0 127 0" result="hardAlpha"/>
<feOffset/>
<feGaussianBlur stdDeviation="4"/>
<feComposite in2="hardAlpha" operator="out"/>
<feColorMatrix type="matrix" values="0 0 0 0 0.788235 0 0 0 0 0.901961 0 0 0 0 0.215686 0 0 0 0.6 0"/>
<feBlend mode="normal" in2="BackgroundImageFix" result="effect1_dropShadow_1033_761"/>
<feBlend mode="normal" in="SourceGraphic" in2="effect1_dropShadow_1033_761" result="shape"/>
</filter>
</defs>
</svg>
