<svg width="100" height="100" viewBox="0 0 100 100" fill="none" xmlns="http://www.w3.org/2000/svg">
<g clip-path="url(#clip0_1885_547)">
<path d="M92.4942 40.6021H92.4927C99.6867 22.3906 100.484 11.2208 100.488 7.23903C100.49 5.97147 99.925 4.79422 98.9378 4.00939C98.0093 3.27283 96.8147 2.97541 95.6587 3.19653C85.311 5.17418 69.5922 13.5442 66.2543 15.3645C64.4872 14.793 59.4781 13.4928 50.4891 13.4928C41.5 13.4928 36.4909 14.793 34.7238 15.3645C31.3844 13.5442 15.6655 5.17262 5.31783 3.19653C4.1619 2.97541 2.96727 3.27127 2.03881 4.00939C1.05155 4.79266 0.488281 5.96991 0.488281 7.23903C0.494471 11.2208 1.28985 22.3891 8.48389 40.6037C8.05989 41.7654 7.21654 44.4516 6.90086 48.1437C6.51555 52.6471 6.87146 59.5954 10.7571 67.1229C14.279 73.9481 20.3187 81.281 26.9108 86.739C36.9397 95.0436 45.2077 96.8437 50.4194 96.8748H50.5587C55.7705 96.8437 64.0384 95.042 74.0673 86.7374C80.6594 81.2794 86.6991 73.9466 90.221 67.1213C94.1067 59.5938 94.4626 52.6456 94.0773 48.1421C93.7616 44.45 92.9182 41.7638 92.4942 40.6021ZM15.4706 47.0023C21.6711 48.5626 41.6191 58.4306 41.5186 69.8137C26.6183 73.9481 14.2682 60.4674 15.4706 47.0023ZM59.4595 69.8137C59.359 58.4321 79.307 48.5626 85.5075 47.0023C86.7114 60.4674 74.3598 73.9481 59.4595 69.8137Z" fill="currentColor"/>
</g>
<defs>
<clipPath id="clip0_1885_547">
<rect width="100" height="100" fill="white" transform="translate(-0.00292969 -9.15527e-05)"/>
</clipPath>
</defs>
</svg>
