<svg width="242" height="225" viewBox="0 0 242 225" fill="none" xmlns="http://www.w3.org/2000/svg">
<path d="M222.39 89.7065C240.042 45.4957 241.989 18.4566 242 8.83839C242.004 6.11296 240.783 3.58383 238.643 1.90026C236.633 0.314831 234.047 -0.319339 231.549 0.152514C219.918 2.35701 204.088 8.1174 184.5 17.2638C172.541 22.8505 162.766 28.0636 159.625 29.7622C136.819 22.0933 105.178 22.1007 82.3714 29.7622C79.2303 28.0636 69.4555 22.8505 57.4959 17.2638C37.9123 8.1174 22.0821 2.36079 10.4514 0.156289C7.95289 -0.319339 5.36745 0.318606 3.35654 1.90403C1.22091 3.58761 0 6.11296 0 8.83839C0.0151196 18.4566 1.96176 45.4957 19.6101 89.7065C18.6689 92.179 16.4614 98.7812 15.6563 108.097C14.7265 118.863 15.5845 135.48 24.9511 153.486C33.4898 169.903 48.1331 187.546 64.1259 200.686C88.3663 220.602 108.286 224.924 120.832 225C120.889 225 120.945 225 121.002 225C121.059 225 121.115 225 121.172 225C133.717 224.921 153.637 220.602 177.878 200.686C193.867 187.546 208.514 169.903 217.049 153.486C226.415 135.48 227.274 118.863 226.344 108.097C225.539 98.7812 223.331 92.179 222.39 89.7065ZM212.351 151.047C204.125 166.864 189.977 183.892 174.51 196.602C151.373 215.612 132.667 219.674 120.998 219.711C109.33 219.674 90.6229 215.612 67.4862 196.602C52.0189 183.892 37.8745 166.864 29.6457 151.047C20.9141 134.257 20.075 118.788 20.9104 108.769C22.4553 90.2674 31.4288 73.4478 46.761 62.3843C35.8468 63.8205 27.0439 72.8744 22.4223 82.3682C7.06084 42.2116 5.30319 17.7545 5.29185 8.83084C5.29185 7.73614 5.77945 6.72449 6.63749 6.04879C7.44261 5.41462 8.47452 5.15793 9.46485 5.34667C36.2529 10.4276 80.4323 34.7261 80.8746 34.9715L81.9934 35.583L83.169 35.1036C103.975 26.7925 138.007 26.9283 158.835 35.0998L160.014 35.5906L161.133 34.9715C161.575 34.7261 205.743 10.4276 232.543 5.34667C233.533 5.15793 234.565 5.41462 235.37 6.04879C236.224 6.72449 236.716 7.73614 236.712 8.83084C236.701 17.7507 234.947 42.2154 219.574 82.3833C214.878 72.9085 206.209 63.8058 195.239 62.3881C210.098 73.6961 219.519 89.9595 221.09 108.773C221.925 118.792 221.09 134.257 212.354 151.051L212.351 151.047Z" fill="var(--primary-color)"/>
<path d="M80.0505 131.864C73.8402 127.326 67.4257 123.11 60.947 118.973C51.123 112.767 41.3634 105.87 29.5285 104.243C34.6881 108.758 40.3201 112.046 46.0088 115.621C55.9651 122.276 66.2993 130.244 76.0439 137.33C79.1018 139.572 82.1862 141.799 85.1572 144.049C86.3176 144.951 88.2491 146.404 89.2395 147.412C91.7266 149.809 93.8169 152.735 95.8203 155.679C96.8824 157.238 97.9294 158.85 99.0899 160.53C99.7665 154.388 97.7442 147.963 93.7262 143.211C89.6628 138.866 84.7489 135.401 80.0543 131.864H80.0505Z" fill="var(--primary-color)"/>
<path d="M161.949 131.864C157.255 135.405 152.341 138.866 148.278 143.211C144.26 147.956 142.234 154.392 142.914 160.53C144.074 158.846 145.121 157.238 146.184 155.679C148.191 152.735 150.277 149.809 152.764 147.412C153.762 146.397 155.694 144.943 156.847 144.049C159.818 141.799 162.906 139.572 165.96 137.33C175.693 130.252 186.05 122.264 195.995 115.621C201.684 112.046 207.316 108.758 212.475 104.243C200.64 105.87 190.877 112.767 181.057 118.973C174.578 123.11 168.164 127.323 161.953 131.864H161.949Z" fill="var(--primary-color)"/>
<path d="M57.598 142.482C53.0092 138.341 48.8967 133.638 45.4419 128.478C42.3726 123.74 39.6057 118.912 36.0564 114.458C35.7994 121.272 38.7741 127.64 42.108 133.404C48.9231 145.027 59.5409 154.72 72.109 159.771C78.3912 162.289 85.3008 163.274 91.9912 162.096C86.019 159.416 80.1753 157.363 74.4714 154.471C68.2648 151.421 62.6706 147.235 57.598 142.486V142.482Z" fill="var(--primary-color)"/>
<path d="M196.558 128.474C193.107 133.634 188.991 138.338 184.402 142.482C179.329 147.231 173.735 151.417 167.529 154.467C161.825 157.359 155.977 159.412 150.009 162.093C156.695 163.274 163.605 162.285 169.887 159.767C182.459 154.713 193.077 145.023 199.888 133.4C203.222 127.64 206.197 121.268 205.94 114.454C202.391 118.909 199.624 123.737 196.554 128.474H196.558Z" fill="var(--primary-color)"/>
</svg>
