<svg width="32" height="16" viewBox="0 0 32 16" fill="none" xmlns="http://www.w3.org/2000/svg">
<path d="M32 0V5H20.4755C20.3893 5 20.3628 5.12075 20.4403 5.15855C21.9082 5.87413 23.1559 6.85501 24.3206 7.77056C26.6 9.56278 28.5689 11.1111 32 11.1111V16C26.8767 16 23.7839 13.5678 21.2989 11.6139C19.1756 9.94444 17.8828 9 16 9C14.1172 9 12.8244 9.94444 10.7011 11.6139C8.21612 13.5678 5.12278 16 0 16V11.1111C3.43111 11.1111 5.40003 9.56334 7.67947 7.77056C8.84403 6.85481 10.0916 5.87403 11.5592 5.15855C11.6368 5.12075 11.6103 5 11.524 5H0V0H32Z" fill="white"/>
</svg>
