<svg width="49" height="49" viewBox="0 0 49 49" fill="none" xmlns="http://www.w3.org/2000/svg">
<g filter="url(#filter0_dd_2234_421)">
<path d="M37.6569 21.9001C39.9911 16.054 40.2485 12.4786 40.25 11.2068C40.2505 10.8464 40.0891 10.512 39.8062 10.2894C39.5403 10.0797 39.1984 9.99586 38.868 10.0583C37.33 10.3498 35.2368 11.1115 32.6467 12.3209C31.0653 13.0596 29.7728 13.749 29.3574 13.9736C26.3418 12.9595 22.1579 12.9605 19.1421 13.9736C18.7267 13.749 17.4342 13.0596 15.8528 12.3209C13.2632 11.1115 11.17 10.3503 9.632 10.0588C9.30162 9.99586 8.95974 10.0802 8.69384 10.2899C8.41144 10.5125 8.25 10.8464 8.25 11.2068C8.252 12.4786 8.50941 16.054 10.8431 21.9001C10.7186 22.227 10.4267 23.1001 10.3203 24.332C10.1973 25.7555 10.3108 27.9528 11.5493 30.3337C12.6784 32.5046 14.6147 34.8376 16.7295 36.5751C19.9348 39.2086 22.5689 39.7802 24.2278 39.7902C24.2353 39.7902 24.2428 39.7902 24.2502 39.7902C24.2577 39.7902 24.2652 39.7902 24.2727 39.7902C25.9316 39.7797 28.5657 39.2086 31.771 36.5751C33.8853 34.8376 35.8221 32.5046 36.9507 30.3337C38.1892 27.9528 38.3027 25.7555 38.1797 24.332C38.0733 23.1001 37.7814 22.227 37.6569 21.9001ZM36.3294 30.0113C35.2418 32.1027 33.371 34.3544 31.3257 36.035C28.2663 38.5488 25.7927 39.0858 24.2497 39.0908C22.7068 39.0858 20.2332 38.5488 17.1738 36.035C15.1285 34.3544 13.2582 32.1027 12.1701 30.0113C11.0155 27.7911 10.9045 25.7456 11.015 24.4208C11.2193 21.9743 12.4059 19.7502 14.4333 18.2872C12.9901 18.4772 11.826 19.6744 11.2149 20.9298C9.18366 15.6198 8.95125 12.3858 8.94975 11.2058C8.94975 11.061 9.01423 10.9273 9.12768 10.8379C9.23415 10.7541 9.3706 10.7201 9.50155 10.7451C13.0438 11.4169 18.8857 14.63 18.9442 14.6624L19.0921 14.7433L19.2475 14.6799C21.9987 13.5809 26.4988 13.5988 29.253 14.6794L29.4089 14.7443L29.5568 14.6624C29.6153 14.63 35.4557 11.4169 38.9995 10.7451C39.1304 10.7201 39.2669 10.7541 39.3733 10.8379C39.4863 10.9273 39.5513 11.061 39.5508 11.2058C39.5493 12.3853 39.3173 15.6203 37.2846 20.9317C36.6636 19.6789 35.5173 18.4752 34.0667 18.2877C36.0315 19.783 37.2773 21.9336 37.485 24.4213C37.5955 25.7461 37.485 27.7911 36.3299 30.0118L36.3294 30.0113Z" fill="currentColor"/>
<path d="M18.8352 27.4746C18.014 26.8746 17.1658 26.3171 16.3091 25.77C15.0101 24.9494 13.7195 24.0375 12.1546 23.8223C12.8369 24.4193 13.5816 24.8541 14.3338 25.3268C15.6503 26.2068 17.0168 27.2605 18.3054 28.1974C18.7097 28.4939 19.1176 28.7884 19.5105 29.0859C19.6639 29.2052 19.9193 29.3973 20.0503 29.5306C20.3791 29.8476 20.6555 30.2344 20.9204 30.6238C21.0609 30.8299 21.1993 31.043 21.3528 31.2652C21.4423 30.453 21.1749 29.6035 20.6435 28.9751C20.1062 28.4005 19.4565 27.9423 18.8357 27.4746H18.8352Z" fill="currentColor"/>
<path d="M29.6648 27.4746C29.044 27.9428 28.3943 28.4005 27.857 28.9751C27.3256 29.6025 27.0577 30.4535 27.1477 31.2652C27.3012 31.0425 27.4396 30.8299 27.5801 30.6238C27.8455 30.2344 28.1214 29.8476 28.4502 29.5306C28.5822 29.3963 28.8376 29.2042 28.99 29.0859C29.3829 28.7884 29.7913 28.4939 30.1951 28.1974C31.4822 27.2615 32.8517 26.2053 34.1667 25.3268C34.9189 24.8541 35.6636 24.4193 36.3459 23.8223C34.781 24.0375 33.4899 24.9494 32.1914 25.77C31.3347 26.3171 30.4865 26.8741 29.6653 27.4746H29.6648Z" fill="currentColor"/>
<path d="M15.8663 28.8787C15.2595 28.3312 14.7157 27.7092 14.2588 27.0269C13.853 26.4004 13.4871 25.762 13.0178 25.173C12.9838 26.074 13.3772 26.9161 13.818 27.6783C14.7192 29.2151 16.1232 30.497 17.7851 31.1648C18.6158 31.4978 19.5294 31.628 20.4141 31.4723C19.6244 31.1179 18.8517 30.8464 18.0975 30.464C17.2768 30.0607 16.537 29.5072 15.8663 28.8792V28.8787Z" fill="currentColor"/>
<path d="M34.2412 27.0264C33.7848 27.7087 33.2405 28.3307 32.6337 28.8787C31.963 29.5067 31.2232 30.0602 30.4025 30.4635C29.6483 30.8459 28.8751 31.1174 28.0859 31.4718C28.9701 31.628 29.8837 31.4973 30.7144 31.1643C32.3768 30.496 33.7808 29.2147 34.6815 27.6778C35.1223 26.9161 35.5157 26.0735 35.4817 25.1725C35.0124 25.7615 34.6465 26.3999 34.2407 27.0264H34.2412Z" fill="currentColor"/>
</g>
<defs>
<filter id="filter0_dd_2234_421" x="6.50509" y="8.29318" width="35.4898" height="33.2418" filterUnits="userSpaceOnUse" color-interpolation-filters="sRGB">
<feFlood flood-opacity="0" result="BackgroundImageFix"/>
<feColorMatrix in="SourceAlpha" type="matrix" values="0 0 0 0 0 0 0 0 0 0 0 0 0 0 0 0 0 0 127 0" result="hardAlpha"/>
<feOffset/>
<feGaussianBlur stdDeviation="0.872455"/>
<feComposite in2="hardAlpha" operator="out"/>
<feColorMatrix type="matrix" values="0 0 0 0 0.262745 0 0 0 0 0.458824 0 0 0 0 0.109804 0 0 0 1 0"/>
<feBlend mode="normal" in2="BackgroundImageFix" result="effect1_dropShadow_2234_421"/>
<feColorMatrix in="SourceAlpha" type="matrix" values="0 0 0 0 0 0 0 0 0 0 0 0 0 0 0 0 0 0 127 0" result="hardAlpha"/>
<feOffset/>
<feGaussianBlur stdDeviation="0.348982"/>
<feComposite in2="hardAlpha" operator="out"/>
<feColorMatrix type="matrix" values="0 0 0 0 0.333333 0 0 0 0 0.541176 0 0 0 0 0.00392157 0 0 0 1 0"/>
<feBlend mode="normal" in2="effect1_dropShadow_2234_421" result="effect2_dropShadow_2234_421"/>
<feBlend mode="normal" in="SourceGraphic" in2="effect2_dropShadow_2234_421" result="shape"/>
</filter>
</defs>
</svg>
