<svg width="49" height="49" viewBox="0 0 49 49" fill="none" xmlns="http://www.w3.org/2000/svg">
<g clip-path="url(#clip0_2217_2926)">
<g clip-path="url(#clip1_2217_2926)">
<path d="M34.1762 11.3311L29.3359 19.5458L24.2469 10.9141L19.1641 19.5468L14.3186 11.3301L8.25 21.6299L18.969 39.8173L24.2469 30.8573L29.531 39.8173L40.25 21.6299L34.1762 11.3311ZM18.969 37.1365L9.83039 21.6299L14.3186 14.0119L23.4572 29.5184L18.969 37.1365ZM19.9537 20.8857L24.2469 13.5948L28.5463 20.8857L24.2469 28.1765L19.9537 20.8857ZM29.531 37.1365L25.0376 29.5184L34.1762 14.0119L38.6696 21.6299L29.531 37.1365Z" fill="currentColor"/>
</g>
</g>
<defs>
<clipPath id="clip0_2217_2926">
<rect width="32" height="32" fill="white" transform="translate(8.25 8.91406)"/>
</clipPath>
<clipPath id="clip1_2217_2926">
<rect width="32" height="28.9032" fill="white" transform="translate(8.25 10.9141)"/>
</clipPath>
</defs>
</svg>
