<svg width="112" height="112" viewBox="0 0 112 112" fill="none" xmlns="http://www.w3.org/2000/svg">
<g filter="url(#filter0_dii_2306_52)">
<path d="M72.3137 5C72.3137 2.23858 70.0751 0 67.3137 0H44.6863C41.9249 0 39.6863 2.23858 39.6863 5V27.6863C39.6863 32.1046 36.1046 35.6863 31.6863 35.6863H9C6.23858 35.6863 4 37.9249 4 40.6863V63.3137C4 66.0751 6.23858 68.3137 9 68.3137H31.6863C36.1046 68.3137 39.6863 71.8955 39.6863 76.3137V99C39.6863 101.761 41.9249 104 44.6863 104H67.3137C70.0751 104 72.3137 101.761 72.3137 99V76.3137C72.3137 71.8954 75.8955 68.3137 80.3137 68.3137H103C105.761 68.3137 108 66.0751 108 63.3137V40.6863C108 37.9249 105.761 35.6863 103 35.6863H80.3137C75.8954 35.6863 72.3137 32.1046 72.3137 27.6863V5Z" fill="#262626"/>
<path d="M72.3137 5C72.3137 2.23858 70.0751 0 67.3137 0H44.6863C41.9249 0 39.6863 2.23858 39.6863 5V27.6863C39.6863 32.1046 36.1046 35.6863 31.6863 35.6863H9C6.23858 35.6863 4 37.9249 4 40.6863V63.3137C4 66.0751 6.23858 68.3137 9 68.3137H31.6863C36.1046 68.3137 39.6863 71.8955 39.6863 76.3137V99C39.6863 101.761 41.9249 104 44.6863 104H67.3137C70.0751 104 72.3137 101.761 72.3137 99V76.3137C72.3137 71.8954 75.8955 68.3137 80.3137 68.3137H103C105.761 68.3137 108 66.0751 108 63.3137V40.6863C108 37.9249 105.761 35.6863 103 35.6863H80.3137C75.8954 35.6863 72.3137 32.1046 72.3137 27.6863V5Z" fill="url(#paint0_radial_2306_52)" fill-opacity="0.3"/>
<path d="M67.3137 0.5C69.799 0.5 71.8137 2.51472 71.8137 5V27.6863C71.8137 32.3807 75.6193 36.1863 80.3137 36.1863H103C105.485 36.1863 107.5 38.201 107.5 40.6863V63.3137C107.5 65.799 105.485 67.8137 103 67.8137H80.3137C75.6193 67.8137 71.8137 71.6193 71.8137 76.3137V99C71.8137 101.485 69.799 103.5 67.3137 103.5H44.6863C42.201 103.5 40.1863 101.485 40.1863 99V76.3137C40.1863 71.6193 36.3807 67.8137 31.6863 67.8137H9C6.51472 67.8137 4.5 65.799 4.5 63.3137V40.6863C4.5 38.201 6.51472 36.1863 9 36.1863H31.6863C36.3807 36.1863 40.1863 32.3807 40.1863 27.6863V5C40.1863 2.51472 42.201 0.5 44.6863 0.5H67.3137Z" stroke="black" stroke-opacity="0.8"/>
</g>
<circle opacity="0.3" cx="56.0005" cy="52" r="15.5" fill="url(#paint1_linear_2306_52)" stroke="url(#paint2_linear_2306_52)"/>
<g opacity="0.5" filter="url(#filter1_di_2306_52)">
<path d="M55.1336 10.0825C55.5185 9.41585 56.4808 9.41585 56.8657 10.0825L60.9072 17.0825C61.2921 17.7492 60.8109 18.5825 60.0411 18.5825H51.9582C51.1884 18.5825 50.7073 17.7492 51.0922 17.0825L55.1336 10.0825Z" fill="#161616"/>
</g>
<g opacity="0.5" filter="url(#filter2_di_2306_52)">
<path d="M55.1336 93.4514C55.5185 94.1181 56.4808 94.1181 56.8657 93.4514L60.9072 86.4514C61.2921 85.7847 60.8109 84.9514 60.0411 84.9514H51.9582C51.1884 84.9514 50.7073 85.7847 51.0922 86.4514L55.1336 93.4514Z" fill="#161616"/>
</g>
<g opacity="0.5" filter="url(#filter3_di_2306_52)">
<path d="M97.2812 50.901C97.9479 51.2859 97.9479 52.2481 97.2812 52.633L90.2813 56.6745C89.6146 57.0594 88.7812 56.5783 88.7812 55.8085L88.7812 47.7256C88.7812 46.9558 89.6146 46.4746 90.2812 46.8595L97.2812 50.901Z" fill="#161616"/>
</g>
<g opacity="0.5" filter="url(#filter4_di_2306_52)">
<path d="M13.9136 50.901C13.2469 51.2859 13.2469 52.2481 13.9136 52.633L20.9136 56.6745C21.5802 57.0594 22.4136 56.5783 22.4136 55.8085L22.4136 47.7256C22.4136 46.9558 21.5802 46.4746 20.9136 46.8595L13.9136 50.901Z" fill="#161616"/>
</g>
<defs>
<filter id="filter0_dii_2306_52" x="0" y="-1" width="112" height="113" filterUnits="userSpaceOnUse" color-interpolation-filters="sRGB">
<feFlood flood-opacity="0" result="BackgroundImageFix"/>
<feColorMatrix in="SourceAlpha" type="matrix" values="0 0 0 0 0 0 0 0 0 0 0 0 0 0 0 0 0 0 127 0" result="hardAlpha"/>
<feOffset dy="4"/>
<feGaussianBlur stdDeviation="2"/>
<feComposite in2="hardAlpha" operator="out"/>
<feColorMatrix type="matrix" values="0 0 0 0 0 0 0 0 0 0 0 0 0 0 0 0 0 0 0.6 0"/>
<feBlend mode="normal" in2="BackgroundImageFix" result="effect1_dropShadow_2306_52"/>
<feBlend mode="normal" in="SourceGraphic" in2="effect1_dropShadow_2306_52" result="shape"/>
<feColorMatrix in="SourceAlpha" type="matrix" values="0 0 0 0 0 0 0 0 0 0 0 0 0 0 0 0 0 0 127 0" result="hardAlpha"/>
<feOffset dy="-2"/>
<feGaussianBlur stdDeviation="0.5"/>
<feComposite in2="hardAlpha" operator="arithmetic" k2="-1" k3="1"/>
<feColorMatrix type="matrix" values="0 0 0 0 0 0 0 0 0 0 0 0 0 0 0 0 0 0 0.5 0"/>
<feBlend mode="normal" in2="shape" result="effect2_innerShadow_2306_52"/>
<feColorMatrix in="SourceAlpha" type="matrix" values="0 0 0 0 0 0 0 0 0 0 0 0 0 0 0 0 0 0 127 0" result="hardAlpha"/>
<feOffset dy="2"/>
<feGaussianBlur stdDeviation="0.5"/>
<feComposite in2="hardAlpha" operator="arithmetic" k2="-1" k3="1"/>
<feColorMatrix type="matrix" values="0 0 0 0 1 0 0 0 0 1 0 0 0 0 1 0 0 0 0.64 0"/>
<feBlend mode="normal" in2="effect2_innerShadow_2306_52" result="effect3_innerShadow_2306_52"/>
</filter>
<filter id="filter1_di_2306_52" x="48.9565" y="8.58252" width="14.0859" height="13" filterUnits="userSpaceOnUse" color-interpolation-filters="sRGB">
<feFlood flood-opacity="0" result="BackgroundImageFix"/>
<feColorMatrix in="SourceAlpha" type="matrix" values="0 0 0 0 0 0 0 0 0 0 0 0 0 0 0 0 0 0 127 0" result="hardAlpha"/>
<feOffset dy="1"/>
<feGaussianBlur stdDeviation="1"/>
<feComposite in2="hardAlpha" operator="out"/>
<feColorMatrix type="matrix" values="0 0 0 0 0 0 0 0 0 0 0 0 0 0 0 0 0 0 0.6 0"/>
<feBlend mode="normal" in2="BackgroundImageFix" result="effect1_dropShadow_2306_52"/>
<feBlend mode="normal" in="SourceGraphic" in2="effect1_dropShadow_2306_52" result="shape"/>
<feColorMatrix in="SourceAlpha" type="matrix" values="0 0 0 0 0 0 0 0 0 0 0 0 0 0 0 0 0 0 127 0" result="hardAlpha"/>
<feOffset dy="1"/>
<feGaussianBlur stdDeviation="0.5"/>
<feComposite in2="hardAlpha" operator="arithmetic" k2="-1" k3="1"/>
<feColorMatrix type="matrix" values="0 0 0 0 1 0 0 0 0 1 0 0 0 0 1 0 0 0 0.3 0"/>
<feBlend mode="normal" in2="shape" result="effect2_innerShadow_2306_52"/>
</filter>
<filter id="filter2_di_2306_52" x="48.9565" y="83.9514" width="14.0859" height="13" filterUnits="userSpaceOnUse" color-interpolation-filters="sRGB">
<feFlood flood-opacity="0" result="BackgroundImageFix"/>
<feColorMatrix in="SourceAlpha" type="matrix" values="0 0 0 0 0 0 0 0 0 0 0 0 0 0 0 0 0 0 127 0" result="hardAlpha"/>
<feOffset dy="1"/>
<feGaussianBlur stdDeviation="1"/>
<feComposite in2="hardAlpha" operator="out"/>
<feColorMatrix type="matrix" values="0 0 0 0 0 0 0 0 0 0 0 0 0 0 0 0 0 0 0.6 0"/>
<feBlend mode="normal" in2="BackgroundImageFix" result="effect1_dropShadow_2306_52"/>
<feBlend mode="normal" in="SourceGraphic" in2="effect1_dropShadow_2306_52" result="shape"/>
<feColorMatrix in="SourceAlpha" type="matrix" values="0 0 0 0 0 0 0 0 0 0 0 0 0 0 0 0 0 0 127 0" result="hardAlpha"/>
<feOffset dy="1"/>
<feGaussianBlur stdDeviation="0.5"/>
<feComposite in2="hardAlpha" operator="arithmetic" k2="-1" k3="1"/>
<feColorMatrix type="matrix" values="0 0 0 0 1 0 0 0 0 1 0 0 0 0 1 0 0 0 0.3 0"/>
<feBlend mode="normal" in2="shape" result="effect2_innerShadow_2306_52"/>
</filter>
<filter id="filter3_di_2306_52" x="86.7812" y="45.7241" width="13" height="14.0859" filterUnits="userSpaceOnUse" color-interpolation-filters="sRGB">
<feFlood flood-opacity="0" result="BackgroundImageFix"/>
<feColorMatrix in="SourceAlpha" type="matrix" values="0 0 0 0 0 0 0 0 0 0 0 0 0 0 0 0 0 0 127 0" result="hardAlpha"/>
<feOffset dy="1"/>
<feGaussianBlur stdDeviation="1"/>
<feComposite in2="hardAlpha" operator="out"/>
<feColorMatrix type="matrix" values="0 0 0 0 0 0 0 0 0 0 0 0 0 0 0 0 0 0 0.6 0"/>
<feBlend mode="normal" in2="BackgroundImageFix" result="effect1_dropShadow_2306_52"/>
<feBlend mode="normal" in="SourceGraphic" in2="effect1_dropShadow_2306_52" result="shape"/>
<feColorMatrix in="SourceAlpha" type="matrix" values="0 0 0 0 0 0 0 0 0 0 0 0 0 0 0 0 0 0 127 0" result="hardAlpha"/>
<feOffset dy="1"/>
<feGaussianBlur stdDeviation="0.5"/>
<feComposite in2="hardAlpha" operator="arithmetic" k2="-1" k3="1"/>
<feColorMatrix type="matrix" values="0 0 0 0 1 0 0 0 0 1 0 0 0 0 1 0 0 0 0.3 0"/>
<feBlend mode="normal" in2="shape" result="effect2_innerShadow_2306_52"/>
</filter>
<filter id="filter4_di_2306_52" x="11.4136" y="45.7241" width="13" height="14.0859" filterUnits="userSpaceOnUse" color-interpolation-filters="sRGB">
<feFlood flood-opacity="0" result="BackgroundImageFix"/>
<feColorMatrix in="SourceAlpha" type="matrix" values="0 0 0 0 0 0 0 0 0 0 0 0 0 0 0 0 0 0 127 0" result="hardAlpha"/>
<feOffset dy="1"/>
<feGaussianBlur stdDeviation="1"/>
<feComposite in2="hardAlpha" operator="out"/>
<feColorMatrix type="matrix" values="0 0 0 0 0 0 0 0 0 0 0 0 0 0 0 0 0 0 0.6 0"/>
<feBlend mode="normal" in2="BackgroundImageFix" result="effect1_dropShadow_2306_52"/>
<feBlend mode="normal" in="SourceGraphic" in2="effect1_dropShadow_2306_52" result="shape"/>
<feColorMatrix in="SourceAlpha" type="matrix" values="0 0 0 0 0 0 0 0 0 0 0 0 0 0 0 0 0 0 127 0" result="hardAlpha"/>
<feOffset dy="1"/>
<feGaussianBlur stdDeviation="0.5"/>
<feComposite in2="hardAlpha" operator="arithmetic" k2="-1" k3="1"/>
<feColorMatrix type="matrix" values="0 0 0 0 1 0 0 0 0 1 0 0 0 0 1 0 0 0 0.3 0"/>
<feBlend mode="normal" in2="shape" result="effect2_innerShadow_2306_52"/>
</filter>
<radialGradient id="paint0_radial_2306_52" cx="0" cy="0" r="1" gradientUnits="userSpaceOnUse" gradientTransform="translate(56 104) rotate(-90) scale(104)">
<stop stop-opacity="0"/>
<stop offset="1"/>
</radialGradient>
<linearGradient id="paint1_linear_2306_52" x1="56.0005" y1="36" x2="56.0005" y2="68" gradientUnits="userSpaceOnUse">
<stop/>
<stop offset="1" stop-color="#4E4E4E"/>
</linearGradient>
<linearGradient id="paint2_linear_2306_52" x1="56.0005" y1="36" x2="56.0005" y2="68" gradientUnits="userSpaceOnUse">
<stop/>
<stop offset="1" stop-color="#868686"/>
</linearGradient>
</defs>
</svg>
