<svg width="112" height="112" viewBox="0 0 112 112" fill="none" xmlns="http://www.w3.org/2000/svg">
<g filter="url(#filter0_dii_2297_613)">
<path d="M72.3137 9C72.3137 6.23858 70.0751 4 67.3137 4H44.6863C41.9249 4 39.6863 6.23858 39.6863 9V31.6863C39.6863 36.1046 36.1046 39.6863 31.6863 39.6863H9C6.23858 39.6863 4 41.9249 4 44.6863V67.3137C4 70.0751 6.23858 72.3137 9 72.3137H31.6863C36.1046 72.3137 39.6863 75.8955 39.6863 80.3137V103C39.6863 105.761 41.9249 108 44.6863 108H67.3137C70.0751 108 72.3137 105.761 72.3137 103V80.3137C72.3137 75.8954 75.8955 72.3137 80.3137 72.3137H103C105.761 72.3137 108 70.0751 108 67.3137V44.6863C108 41.9249 105.761 39.6863 103 39.6863H80.3137C75.8954 39.6863 72.3137 36.1046 72.3137 31.6863V9Z" fill="#262626"/>
<path d="M72.3137 9C72.3137 6.23858 70.0751 4 67.3137 4H44.6863C41.9249 4 39.6863 6.23858 39.6863 9V31.6863C39.6863 36.1046 36.1046 39.6863 31.6863 39.6863H9C6.23858 39.6863 4 41.9249 4 44.6863V67.3137C4 70.0751 6.23858 72.3137 9 72.3137H31.6863C36.1046 72.3137 39.6863 75.8955 39.6863 80.3137V103C39.6863 105.761 41.9249 108 44.6863 108H67.3137C70.0751 108 72.3137 105.761 72.3137 103V80.3137C72.3137 75.8954 75.8955 72.3137 80.3137 72.3137H103C105.761 72.3137 108 70.0751 108 67.3137V44.6863C108 41.9249 105.761 39.6863 103 39.6863H80.3137C75.8954 39.6863 72.3137 36.1046 72.3137 31.6863V9Z" fill="url(#paint0_radial_2297_613)" fill-opacity="0.3"/>
<path d="M67.3137 4.5C69.799 4.5 71.8137 6.51472 71.8137 9V31.6863C71.8137 36.3807 75.6193 40.1863 80.3137 40.1863H103C105.485 40.1863 107.5 42.201 107.5 44.6863V67.3137C107.5 69.799 105.485 71.8137 103 71.8137H80.3137C75.6193 71.8137 71.8137 75.6193 71.8137 80.3137V103C71.8137 105.485 69.799 107.5 67.3137 107.5H44.6863C42.201 107.5 40.1863 105.485 40.1863 103V80.3137C40.1863 75.6193 36.3807 71.8137 31.6863 71.8137H9C6.51472 71.8137 4.5 69.799 4.5 67.3137V44.6863C4.5 42.201 6.51472 40.1863 9 40.1863H31.6863C36.3807 40.1863 40.1863 36.3807 40.1863 31.6863V9C40.1863 6.51472 42.201 4.5 44.6863 4.5H67.3137Z" stroke="black" stroke-opacity="0.8"/>
</g>
<circle opacity="0.3" cx="56.0005" cy="56" r="15.5" fill="url(#paint1_linear_2297_613)" stroke="url(#paint2_linear_2297_613)"/>
<g opacity="0.5" filter="url(#filter1_di_2297_613)">
<path d="M55.1336 14.0825C55.5185 13.4159 56.4808 13.4159 56.8657 14.0825L60.9072 21.0825C61.2921 21.7492 60.8109 22.5825 60.0411 22.5825H51.9582C51.1884 22.5825 50.7073 21.7492 51.0922 21.0825L55.1336 14.0825Z" fill="#161616"/>
</g>
<g opacity="0.5" filter="url(#filter2_di_2297_613)">
<path d="M55.1336 97.4514C55.5185 98.1181 56.4808 98.1181 56.8657 97.4514L60.9072 90.4514C61.2921 89.7847 60.8109 88.9514 60.0411 88.9514H51.9582C51.1884 88.9514 50.7073 89.7847 51.0922 90.4514L55.1336 97.4514Z" fill="#161616"/>
</g>
<g opacity="0.5" filter="url(#filter3_di_2297_613)">
<path d="M97.2812 54.901C97.9479 55.2859 97.9479 56.2481 97.2812 56.633L90.2813 60.6745C89.6146 61.0594 88.7812 60.5783 88.7812 59.8085L88.7812 51.7256C88.7812 50.9558 89.6146 50.4746 90.2812 50.8595L97.2812 54.901Z" fill="#161616"/>
</g>
<g opacity="0.5" filter="url(#filter4_di_2297_613)">
<path d="M13.9136 54.901C13.2469 55.2859 13.2469 56.2481 13.9136 56.633L20.9136 60.6745C21.5802 61.0594 22.4136 60.5783 22.4136 59.8085L22.4136 51.7256C22.4136 50.9558 21.5802 50.4746 20.9136 50.8595L13.9136 54.901Z" fill="#161616"/>
</g>
<defs>
<filter id="filter0_dii_2297_613" x="0" y="0" width="112" height="112" filterUnits="userSpaceOnUse" color-interpolation-filters="sRGB">
<feFlood flood-opacity="0" result="BackgroundImageFix"/>
<feColorMatrix in="SourceAlpha" type="matrix" values="0 0 0 0 0 0 0 0 0 0 0 0 0 0 0 0 0 0 127 0" result="hardAlpha"/>
<feOffset/>
<feGaussianBlur stdDeviation="2"/>
<feComposite in2="hardAlpha" operator="out"/>
<feColorMatrix type="matrix" values="0 0 0 0 0 0 0 0 0 0 0 0 0 0 0 0 0 0 0.8 0"/>
<feBlend mode="normal" in2="BackgroundImageFix" result="effect1_dropShadow_2297_613"/>
<feBlend mode="normal" in="SourceGraphic" in2="effect1_dropShadow_2297_613" result="shape"/>
<feColorMatrix in="SourceAlpha" type="matrix" values="0 0 0 0 0 0 0 0 0 0 0 0 0 0 0 0 0 0 127 0" result="hardAlpha"/>
<feOffset dy="-2"/>
<feGaussianBlur stdDeviation="0.5"/>
<feComposite in2="hardAlpha" operator="arithmetic" k2="-1" k3="1"/>
<feColorMatrix type="matrix" values="0 0 0 0 0 0 0 0 0 0 0 0 0 0 0 0 0 0 0.5 0"/>
<feBlend mode="normal" in2="shape" result="effect2_innerShadow_2297_613"/>
<feColorMatrix in="SourceAlpha" type="matrix" values="0 0 0 0 0 0 0 0 0 0 0 0 0 0 0 0 0 0 127 0" result="hardAlpha"/>
<feOffset dy="-2"/>
<feGaussianBlur stdDeviation="0.5"/>
<feComposite in2="hardAlpha" operator="arithmetic" k2="-1" k3="1"/>
<feColorMatrix type="matrix" values="0 0 0 0 1 0 0 0 0 1 0 0 0 0 1 0 0 0 0.4 0"/>
<feBlend mode="normal" in2="effect2_innerShadow_2297_613" result="effect3_innerShadow_2297_613"/>
</filter>
<filter id="filter1_di_2297_613" x="48.9565" y="12.5825" width="14.0859" height="13" filterUnits="userSpaceOnUse" color-interpolation-filters="sRGB">
<feFlood flood-opacity="0" result="BackgroundImageFix"/>
<feColorMatrix in="SourceAlpha" type="matrix" values="0 0 0 0 0 0 0 0 0 0 0 0 0 0 0 0 0 0 127 0" result="hardAlpha"/>
<feOffset dy="1"/>
<feGaussianBlur stdDeviation="1"/>
<feComposite in2="hardAlpha" operator="out"/>
<feColorMatrix type="matrix" values="0 0 0 0 0 0 0 0 0 0 0 0 0 0 0 0 0 0 0.6 0"/>
<feBlend mode="normal" in2="BackgroundImageFix" result="effect1_dropShadow_2297_613"/>
<feBlend mode="normal" in="SourceGraphic" in2="effect1_dropShadow_2297_613" result="shape"/>
<feColorMatrix in="SourceAlpha" type="matrix" values="0 0 0 0 0 0 0 0 0 0 0 0 0 0 0 0 0 0 127 0" result="hardAlpha"/>
<feOffset dy="1"/>
<feGaussianBlur stdDeviation="0.5"/>
<feComposite in2="hardAlpha" operator="arithmetic" k2="-1" k3="1"/>
<feColorMatrix type="matrix" values="0 0 0 0 1 0 0 0 0 1 0 0 0 0 1 0 0 0 0.3 0"/>
<feBlend mode="normal" in2="shape" result="effect2_innerShadow_2297_613"/>
</filter>
<filter id="filter2_di_2297_613" x="48.9565" y="87.9514" width="14.0859" height="13" filterUnits="userSpaceOnUse" color-interpolation-filters="sRGB">
<feFlood flood-opacity="0" result="BackgroundImageFix"/>
<feColorMatrix in="SourceAlpha" type="matrix" values="0 0 0 0 0 0 0 0 0 0 0 0 0 0 0 0 0 0 127 0" result="hardAlpha"/>
<feOffset dy="1"/>
<feGaussianBlur stdDeviation="1"/>
<feComposite in2="hardAlpha" operator="out"/>
<feColorMatrix type="matrix" values="0 0 0 0 0 0 0 0 0 0 0 0 0 0 0 0 0 0 0.6 0"/>
<feBlend mode="normal" in2="BackgroundImageFix" result="effect1_dropShadow_2297_613"/>
<feBlend mode="normal" in="SourceGraphic" in2="effect1_dropShadow_2297_613" result="shape"/>
<feColorMatrix in="SourceAlpha" type="matrix" values="0 0 0 0 0 0 0 0 0 0 0 0 0 0 0 0 0 0 127 0" result="hardAlpha"/>
<feOffset dy="1"/>
<feGaussianBlur stdDeviation="0.5"/>
<feComposite in2="hardAlpha" operator="arithmetic" k2="-1" k3="1"/>
<feColorMatrix type="matrix" values="0 0 0 0 1 0 0 0 0 1 0 0 0 0 1 0 0 0 0.3 0"/>
<feBlend mode="normal" in2="shape" result="effect2_innerShadow_2297_613"/>
</filter>
<filter id="filter3_di_2297_613" x="86.7812" y="49.7241" width="13" height="14.0859" filterUnits="userSpaceOnUse" color-interpolation-filters="sRGB">
<feFlood flood-opacity="0" result="BackgroundImageFix"/>
<feColorMatrix in="SourceAlpha" type="matrix" values="0 0 0 0 0 0 0 0 0 0 0 0 0 0 0 0 0 0 127 0" result="hardAlpha"/>
<feOffset dy="1"/>
<feGaussianBlur stdDeviation="1"/>
<feComposite in2="hardAlpha" operator="out"/>
<feColorMatrix type="matrix" values="0 0 0 0 0 0 0 0 0 0 0 0 0 0 0 0 0 0 0.6 0"/>
<feBlend mode="normal" in2="BackgroundImageFix" result="effect1_dropShadow_2297_613"/>
<feBlend mode="normal" in="SourceGraphic" in2="effect1_dropShadow_2297_613" result="shape"/>
<feColorMatrix in="SourceAlpha" type="matrix" values="0 0 0 0 0 0 0 0 0 0 0 0 0 0 0 0 0 0 127 0" result="hardAlpha"/>
<feOffset dy="1"/>
<feGaussianBlur stdDeviation="0.5"/>
<feComposite in2="hardAlpha" operator="arithmetic" k2="-1" k3="1"/>
<feColorMatrix type="matrix" values="0 0 0 0 1 0 0 0 0 1 0 0 0 0 1 0 0 0 0.3 0"/>
<feBlend mode="normal" in2="shape" result="effect2_innerShadow_2297_613"/>
</filter>
<filter id="filter4_di_2297_613" x="11.4136" y="49.7241" width="13" height="14.0859" filterUnits="userSpaceOnUse" color-interpolation-filters="sRGB">
<feFlood flood-opacity="0" result="BackgroundImageFix"/>
<feColorMatrix in="SourceAlpha" type="matrix" values="0 0 0 0 0 0 0 0 0 0 0 0 0 0 0 0 0 0 127 0" result="hardAlpha"/>
<feOffset dy="1"/>
<feGaussianBlur stdDeviation="1"/>
<feComposite in2="hardAlpha" operator="out"/>
<feColorMatrix type="matrix" values="0 0 0 0 0 0 0 0 0 0 0 0 0 0 0 0 0 0 0.6 0"/>
<feBlend mode="normal" in2="BackgroundImageFix" result="effect1_dropShadow_2297_613"/>
<feBlend mode="normal" in="SourceGraphic" in2="effect1_dropShadow_2297_613" result="shape"/>
<feColorMatrix in="SourceAlpha" type="matrix" values="0 0 0 0 0 0 0 0 0 0 0 0 0 0 0 0 0 0 127 0" result="hardAlpha"/>
<feOffset dy="1"/>
<feGaussianBlur stdDeviation="0.5"/>
<feComposite in2="hardAlpha" operator="arithmetic" k2="-1" k3="1"/>
<feColorMatrix type="matrix" values="0 0 0 0 1 0 0 0 0 1 0 0 0 0 1 0 0 0 0.3 0"/>
<feBlend mode="normal" in2="shape" result="effect2_innerShadow_2297_613"/>
</filter>
<radialGradient id="paint0_radial_2297_613" cx="0" cy="0" r="1" gradientUnits="userSpaceOnUse" gradientTransform="translate(56 108) rotate(-90) scale(104)">
<stop stop-opacity="0"/>
<stop offset="1"/>
</radialGradient>
<linearGradient id="paint1_linear_2297_613" x1="56.0005" y1="40" x2="56.0005" y2="72" gradientUnits="userSpaceOnUse">
<stop/>
<stop offset="1" stop-color="#4E4E4E"/>
</linearGradient>
<linearGradient id="paint2_linear_2297_613" x1="56.0005" y1="40" x2="56.0005" y2="72" gradientUnits="userSpaceOnUse">
<stop/>
<stop offset="1" stop-color="#868686"/>
</linearGradient>
</defs>
</svg>
