<svg width="112" height="112" viewBox="0 0 112 112" fill="none" xmlns="http://www.w3.org/2000/svg">
<g filter="url(#filter0_dii_2297_683)">
<path d="M74.3137 5C74.3137 2.23858 72.0751 0 69.3137 0H46.6863C43.9249 0 41.6863 2.23858 41.6863 5V27.6863C41.6863 32.1046 38.1046 35.6863 33.6863 35.6863H11C8.23858 35.6863 6 37.9249 6 40.6863V63.3137C6 66.0751 8.23858 68.3137 11 68.3137H33.6863C38.1046 68.3137 41.6863 71.8955 41.6863 76.3137V99C41.6863 101.761 43.9249 104 46.6863 104H69.3137C72.0751 104 74.3137 101.761 74.3137 99V76.3137C74.3137 71.8954 77.8955 68.3137 82.3137 68.3137H105C107.761 68.3137 110 66.0751 110 63.3137V40.6863C110 37.9249 107.761 35.6863 105 35.6863H82.3137C77.8954 35.6863 74.3137 32.1046 74.3137 27.6863V5Z" fill="#262626"/>
<path d="M74.3137 5C74.3137 2.23858 72.0751 0 69.3137 0H46.6863C43.9249 0 41.6863 2.23858 41.6863 5V27.6863C41.6863 32.1046 38.1046 35.6863 33.6863 35.6863H11C8.23858 35.6863 6 37.9249 6 40.6863V63.3137C6 66.0751 8.23858 68.3137 11 68.3137H33.6863C38.1046 68.3137 41.6863 71.8955 41.6863 76.3137V99C41.6863 101.761 43.9249 104 46.6863 104H69.3137C72.0751 104 74.3137 101.761 74.3137 99V76.3137C74.3137 71.8954 77.8955 68.3137 82.3137 68.3137H105C107.761 68.3137 110 66.0751 110 63.3137V40.6863C110 37.9249 107.761 35.6863 105 35.6863H82.3137C77.8954 35.6863 74.3137 32.1046 74.3137 27.6863V5Z" fill="url(#paint0_radial_2297_683)" fill-opacity="0.3"/>
<path d="M69.3137 0.5C71.799 0.5 73.8137 2.51472 73.8137 5V27.6863C73.8137 32.3807 77.6193 36.1863 82.3137 36.1863H105C107.485 36.1863 109.5 38.201 109.5 40.6863V63.3137C109.5 65.799 107.485 67.8137 105 67.8137H82.3137C77.6193 67.8137 73.8137 71.6193 73.8137 76.3137V99C73.8137 101.485 71.799 103.5 69.3137 103.5H46.6863C44.201 103.5 42.1863 101.485 42.1863 99V76.3137C42.1863 71.6193 38.3807 67.8137 33.6863 67.8137H11C8.51472 67.8137 6.5 65.799 6.5 63.3137V40.6863C6.5 38.201 8.51472 36.1863 11 36.1863H33.6863C38.3807 36.1863 42.1863 32.3807 42.1863 27.6863V5C42.1863 2.51472 44.201 0.5 46.6863 0.5H69.3137Z" stroke="black" stroke-opacity="0.8"/>
</g>
<circle opacity="0.3" cx="58.0005" cy="52" r="15.5" fill="url(#paint1_linear_2297_683)" stroke="url(#paint2_linear_2297_683)"/>
<g opacity="0.5" filter="url(#filter1_di_2297_683)">
<path d="M57.1336 10.0825C57.5185 9.41585 58.4808 9.41585 58.8657 10.0825L62.9072 17.0825C63.2921 17.7492 62.8109 18.5825 62.0411 18.5825H53.9582C53.1884 18.5825 52.7073 17.7492 53.0922 17.0825L57.1336 10.0825Z" fill="#161616"/>
</g>
<g opacity="0.5" filter="url(#filter2_di_2297_683)">
<path d="M57.1336 93.4514C57.5185 94.1181 58.4808 94.1181 58.8657 93.4514L62.9072 86.4514C63.2921 85.7847 62.8109 84.9514 62.0411 84.9514H53.9582C53.1884 84.9514 52.7073 85.7847 53.0922 86.4514L57.1336 93.4514Z" fill="#161616"/>
</g>
<g opacity="0.5" filter="url(#filter3_i_2297_683)">
<path d="M99.2812 50.901C99.9479 51.2859 99.9479 52.2481 99.2812 52.633L92.2813 56.6745C91.6146 57.0594 90.7812 56.5783 90.7812 55.8085L90.7812 47.7256C90.7812 46.9558 91.6146 46.4746 92.2812 46.8595L99.2812 50.901Z" fill="#161616"/>
</g>
<g opacity="0.5" filter="url(#filter4_di_2297_683)">
<path d="M15.9136 50.901C15.2469 51.2859 15.2469 52.2481 15.9136 52.633L22.9136 56.6745C23.5802 57.0594 24.4136 56.5783 24.4136 55.8085L24.4136 47.7256C24.4136 46.9558 23.5802 46.4746 22.9136 46.8595L15.9136 50.901Z" fill="#161616"/>
</g>
<defs>
<filter id="filter0_dii_2297_683" x="0" y="-1" width="112" height="113" filterUnits="userSpaceOnUse" color-interpolation-filters="sRGB">
<feFlood flood-opacity="0" result="BackgroundImageFix"/>
<feColorMatrix in="SourceAlpha" type="matrix" values="0 0 0 0 0 0 0 0 0 0 0 0 0 0 0 0 0 0 127 0" result="hardAlpha"/>
<feOffset dx="-2" dy="4"/>
<feGaussianBlur stdDeviation="2"/>
<feComposite in2="hardAlpha" operator="out"/>
<feColorMatrix type="matrix" values="0 0 0 0 0 0 0 0 0 0 0 0 0 0 0 0 0 0 0.6 0"/>
<feBlend mode="normal" in2="BackgroundImageFix" result="effect1_dropShadow_2297_683"/>
<feBlend mode="normal" in="SourceGraphic" in2="effect1_dropShadow_2297_683" result="shape"/>
<feColorMatrix in="SourceAlpha" type="matrix" values="0 0 0 0 0 0 0 0 0 0 0 0 0 0 0 0 0 0 127 0" result="hardAlpha"/>
<feOffset dx="2" dy="-1"/>
<feGaussianBlur stdDeviation="0.5"/>
<feComposite in2="hardAlpha" operator="arithmetic" k2="-1" k3="1"/>
<feColorMatrix type="matrix" values="0 0 0 0 0 0 0 0 0 0 0 0 0 0 0 0 0 0 0.5 0"/>
<feBlend mode="normal" in2="shape" result="effect2_innerShadow_2297_683"/>
<feColorMatrix in="SourceAlpha" type="matrix" values="0 0 0 0 0 0 0 0 0 0 0 0 0 0 0 0 0 0 127 0" result="hardAlpha"/>
<feOffset dx="2"/>
<feGaussianBlur stdDeviation="0.5"/>
<feComposite in2="hardAlpha" operator="arithmetic" k2="-1" k3="1"/>
<feColorMatrix type="matrix" values="0 0 0 0 1 0 0 0 0 1 0 0 0 0 1 0 0 0 0.4 0"/>
<feBlend mode="normal" in2="effect2_innerShadow_2297_683" result="effect3_innerShadow_2297_683"/>
</filter>
<filter id="filter1_di_2297_683" x="50.9565" y="8.58252" width="14.0859" height="13" filterUnits="userSpaceOnUse" color-interpolation-filters="sRGB">
<feFlood flood-opacity="0" result="BackgroundImageFix"/>
<feColorMatrix in="SourceAlpha" type="matrix" values="0 0 0 0 0 0 0 0 0 0 0 0 0 0 0 0 0 0 127 0" result="hardAlpha"/>
<feOffset dy="1"/>
<feGaussianBlur stdDeviation="1"/>
<feComposite in2="hardAlpha" operator="out"/>
<feColorMatrix type="matrix" values="0 0 0 0 0 0 0 0 0 0 0 0 0 0 0 0 0 0 0.6 0"/>
<feBlend mode="normal" in2="BackgroundImageFix" result="effect1_dropShadow_2297_683"/>
<feBlend mode="normal" in="SourceGraphic" in2="effect1_dropShadow_2297_683" result="shape"/>
<feColorMatrix in="SourceAlpha" type="matrix" values="0 0 0 0 0 0 0 0 0 0 0 0 0 0 0 0 0 0 127 0" result="hardAlpha"/>
<feOffset dy="1"/>
<feGaussianBlur stdDeviation="0.5"/>
<feComposite in2="hardAlpha" operator="arithmetic" k2="-1" k3="1"/>
<feColorMatrix type="matrix" values="0 0 0 0 1 0 0 0 0 1 0 0 0 0 1 0 0 0 0.3 0"/>
<feBlend mode="normal" in2="shape" result="effect2_innerShadow_2297_683"/>
</filter>
<filter id="filter2_di_2297_683" x="50.9565" y="83.9514" width="14.0859" height="13" filterUnits="userSpaceOnUse" color-interpolation-filters="sRGB">
<feFlood flood-opacity="0" result="BackgroundImageFix"/>
<feColorMatrix in="SourceAlpha" type="matrix" values="0 0 0 0 0 0 0 0 0 0 0 0 0 0 0 0 0 0 127 0" result="hardAlpha"/>
<feOffset dy="1"/>
<feGaussianBlur stdDeviation="1"/>
<feComposite in2="hardAlpha" operator="out"/>
<feColorMatrix type="matrix" values="0 0 0 0 0 0 0 0 0 0 0 0 0 0 0 0 0 0 0.6 0"/>
<feBlend mode="normal" in2="BackgroundImageFix" result="effect1_dropShadow_2297_683"/>
<feBlend mode="normal" in="SourceGraphic" in2="effect1_dropShadow_2297_683" result="shape"/>
<feColorMatrix in="SourceAlpha" type="matrix" values="0 0 0 0 0 0 0 0 0 0 0 0 0 0 0 0 0 0 127 0" result="hardAlpha"/>
<feOffset dy="1"/>
<feGaussianBlur stdDeviation="0.5"/>
<feComposite in2="hardAlpha" operator="arithmetic" k2="-1" k3="1"/>
<feColorMatrix type="matrix" values="0 0 0 0 1 0 0 0 0 1 0 0 0 0 1 0 0 0 0.3 0"/>
<feBlend mode="normal" in2="shape" result="effect2_innerShadow_2297_683"/>
</filter>
<filter id="filter3_i_2297_683" x="90.7812" y="46.7241" width="10" height="11.0859" filterUnits="userSpaceOnUse" color-interpolation-filters="sRGB">
<feFlood flood-opacity="0" result="BackgroundImageFix"/>
<feBlend mode="normal" in="SourceGraphic" in2="BackgroundImageFix" result="shape"/>
<feColorMatrix in="SourceAlpha" type="matrix" values="0 0 0 0 0 0 0 0 0 0 0 0 0 0 0 0 0 0 127 0" result="hardAlpha"/>
<feOffset dx="1" dy="1"/>
<feGaussianBlur stdDeviation="0.5"/>
<feComposite in2="hardAlpha" operator="arithmetic" k2="-1" k3="1"/>
<feColorMatrix type="matrix" values="0 0 0 0 1 0 0 0 0 1 0 0 0 0 1 0 0 0 0.3 0"/>
<feBlend mode="normal" in2="shape" result="effect1_innerShadow_2297_683"/>
</filter>
<filter id="filter4_di_2297_683" x="13.4136" y="45.7241" width="13" height="14.0859" filterUnits="userSpaceOnUse" color-interpolation-filters="sRGB">
<feFlood flood-opacity="0" result="BackgroundImageFix"/>
<feColorMatrix in="SourceAlpha" type="matrix" values="0 0 0 0 0 0 0 0 0 0 0 0 0 0 0 0 0 0 127 0" result="hardAlpha"/>
<feOffset dy="1"/>
<feGaussianBlur stdDeviation="1"/>
<feComposite in2="hardAlpha" operator="out"/>
<feColorMatrix type="matrix" values="0 0 0 0 0 0 0 0 0 0 0 0 0 0 0 0 0 0 0.6 0"/>
<feBlend mode="normal" in2="BackgroundImageFix" result="effect1_dropShadow_2297_683"/>
<feBlend mode="normal" in="SourceGraphic" in2="effect1_dropShadow_2297_683" result="shape"/>
<feColorMatrix in="SourceAlpha" type="matrix" values="0 0 0 0 0 0 0 0 0 0 0 0 0 0 0 0 0 0 127 0" result="hardAlpha"/>
<feOffset dy="1"/>
<feGaussianBlur stdDeviation="0.5"/>
<feComposite in2="hardAlpha" operator="arithmetic" k2="-1" k3="1"/>
<feColorMatrix type="matrix" values="0 0 0 0 1 0 0 0 0 1 0 0 0 0 1 0 0 0 0.3 0"/>
<feBlend mode="normal" in2="shape" result="effect2_innerShadow_2297_683"/>
</filter>
<radialGradient id="paint0_radial_2297_683" cx="0" cy="0" r="1" gradientUnits="userSpaceOnUse" gradientTransform="translate(58 104) rotate(-82.0628) scale(105.006)">
<stop stop-opacity="0"/>
<stop offset="1"/>
</radialGradient>
<linearGradient id="paint1_linear_2297_683" x1="58.0005" y1="36" x2="58.0005" y2="68" gradientUnits="userSpaceOnUse">
<stop/>
<stop offset="1" stop-color="#4E4E4E"/>
</linearGradient>
<linearGradient id="paint2_linear_2297_683" x1="58.0005" y1="36" x2="58.0005" y2="68" gradientUnits="userSpaceOnUse">
<stop/>
<stop offset="1" stop-color="#868686"/>
</linearGradient>
</defs>
</svg>
