<svg width="134" height="26" viewBox="0 0 134 26" fill="none" xmlns="http://www.w3.org/2000/svg">
<path d="M1 1.72302H0.75V1.97302V24.0271V24.2771H1H3.52632H3.77632V24.0271V4.57864H11.7539H12.0039V4.32864V1.97302V1.72302H11.7539H1Z" fill="var(--primary-color)" stroke="var(--primary-color)" stroke-width="0.5"/>
<path d="M19.5039 19.5628L19.7686 19.5784C20.0487 19.5948 20.3275 19.6132 20.6068 19.6316C21.4937 19.6899 22.3853 19.7486 23.3385 19.7486H23.3501H23.362H23.3742H23.3868H23.3997H23.4129H23.4265H23.4403H23.4545H23.469H23.4839H23.499H23.5145H23.5303H23.5464H23.5628H23.5795H23.5966H23.6139H23.6316H23.6495H23.6678H23.6864H23.7053H23.7245H23.744H23.7637H23.7838H23.8042H23.8249H23.8459H23.8671H23.8887H23.9105H23.9327H23.9551H23.9778H24.0008H24.0241H24.0477H24.0715H24.0956H24.12H24.1447H24.1697H24.1949H24.2204H24.2462H24.2723H24.2986H24.3252H24.352H24.3792H24.4066H24.4342H24.4621H24.4903H24.5187H24.5474H24.5764H24.6056H24.635H24.6648H24.6947H24.7249H24.7554H24.7861H24.8171H24.8483H24.8797H24.9114H24.9433H24.9755H25.0079H25.0406H25.0734H25.1066H25.1399H25.1735H25.2073H25.2414H25.2756H25.3101H25.3448H25.3798H25.415H25.4504H25.486H25.5218H25.5579H25.5941H25.6306H25.6673H25.7042H25.7413H25.7787H25.8162H25.8539H25.8919H25.93H25.9684H26.007H26.0457H26.0847H26.1239H26.1632H26.2028H26.2425H26.2825H26.3226H26.3629H26.4034H26.4441H26.485H26.5261H26.5673H26.6088H26.6504H26.6922H26.7342H26.7763H26.8187H26.8612H26.9038H26.9467H26.9897H27.0329H27.0763H27.1198H27.1635H27.2074H27.2514H27.2956H27.3399H27.3844H27.4291H27.4739H27.5189H27.564H27.6093H27.6547H27.7003H27.746H27.7919H27.8379H27.8841H27.9304H27.9768H28.0234H28.0702H28.1171H28.1641H28.2112H28.2585H28.3059H28.3534H28.4011H28.4489H28.4969H28.5449H28.5931H28.6414H28.6899H28.7384H28.7871H28.8359H28.8848H28.9338H28.983H29.0322H29.0816H29.1311H29.1806H29.2303H29.2801H29.3301H29.3801H29.4302H29.4804H29.5307H29.5812H29.6317H29.6823H29.733H29.7838H29.8347H29.8857H29.9368H29.9879H30.0392H30.0905H30.142H30.1935H30.2451H30.2967H30.3485H30.4003H30.4522H30.5042H30.5563H30.6084H30.6606H30.7129H30.7652H30.8176H30.8701H30.9227H30.9753H31.0279H31.0807H31.1335H31.1863H31.2392H31.2922H31.3452H31.3983H31.4514H31.5046H31.5578H31.6111H31.6644H31.7178H31.7712H31.8247H31.8782H31.9317H31.9853H32.0389H32.0926H32.1463H32.2H32.2538H32.3076H32.3614H32.4152H32.4691H32.523H32.5769H32.6309H32.6849H32.7389H32.7929H32.8469H32.901H32.955H33.0091H33.0632H33.1173H33.1715H33.2256H33.2797H33.3339H33.388H33.4422H33.4963H33.5505H33.6047H33.6588H33.713H33.7671H33.8213H33.8754H33.9295H33.9837H34.0378H34.0919H34.146H34.2001H34.2541H34.3082H34.3622H34.4162H34.4702H34.5242H34.5781H34.632H34.6859H34.7398H34.7936H34.8474H34.9012H34.955H35.0087H35.0624H35.116H35.1696H35.2232H35.2767H35.3302H35.3836H35.437H35.4904H35.5437H35.5969H35.6501H35.7033H35.7564H35.8095H35.8625H35.9154H35.9683H36.0211H36.0739H36.1266H36.1793H36.2318H36.2844H36.3368H36.3892H36.4415H36.4938H36.5459H36.598H36.6501H36.702H36.7539H36.8057H36.8574H36.9091H36.9606H37.0121H37.0635H37.1148H37.166H37.2172H37.2682H37.3192H37.37H37.4208H37.4715H37.522H37.5725H37.6229H37.6732H37.7233H37.7734H37.8234H37.8733H37.923H37.9727H38.0222H38.0717H38.121H38.1702H38.2193H38.2683H38.3171H38.3659H38.4145H38.463H38.5114H38.5597H38.6078H38.6558H38.7037H38.7514H38.7991H38.8466H38.8939H38.9411H38.9882H39.0352H39.082H39.1287H39.1752H39.2216H39.2679H39.314H39.36H39.4058H39.4515H39.497H39.5423H39.5876H39.6326H39.6775H39.7223H39.7669H39.8113H39.8556H39.8997H39.9437H39.9875H40.0311H40.0746H40.1179H40.161H40.2039H40.2467H40.2893H40.3318H40.374H40.4161H40.458H40.4998H40.5413H40.5827H40.6239H40.6649H40.7057H40.7463H40.7867H40.827H40.867H40.9069H40.9466H40.986H41.0253H41.0644H41.1033H41.142H41.1804H41.2187H41.2568H41.2947H41.3323H41.3698H41.407H41.4441H41.4809H41.5175H41.5539H41.5901H41.626H41.6618H41.6973H41.7326H41.7677H41.8026H41.8372H41.8716H41.9058H41.9397H41.9734H42.0069H42.0402H42.0732H42.106H42.1386H42.1709H42.2029H42.2348H42.2664H42.2977H42.3288H42.3597H42.3903H42.4207H42.4508H42.4806H42.5103H42.5396H42.5687H42.5976H42.6262H42.6545H42.6826H42.7104H42.7379H42.7652H42.7922H42.819H42.8455H42.8717H42.8976H42.9233H42.9487H42.9738H42.9987H43.0232H43.0475H43.0716H43.0953H43.1187H43.1419H43.1648H43.1874H43.2097H43.2317H43.2535H43.2749H43.296H43.3169H43.3375H43.3577H43.3777H43.3974H43.4167H43.4358H43.4546H43.473H43.4912H43.509H43.5265H43.5438H43.5607H43.5773H43.5936H43.6096H43.6252H43.6406H43.6556H43.6703H43.6847H43.6987H43.7125H43.7259H43.739H43.7517H43.7642H43.7763H43.788C44.768 19.7486 45.8858 19.681 46.869 19.5792L47.1447 19.5507V19.8279V23.1053V23.3815L46.8699 23.3541C45.8519 23.2523 44.6656 23.1846 43.788 23.1846L19.5039 19.5628ZM19.5039 19.5628V19.8279M19.5039 19.5628V19.8279M19.5039 19.8279H19.7539M19.5039 19.8279H19.7539M19.7539 19.8279C20.0304 19.8442 20.307 19.8624 20.5849 19.8807C21.4735 19.9392 22.3763 19.9986 23.3385 19.9986H43.788C44.6956 19.9986 45.718 19.9412 46.6447 19.8528V19.8279H46.8947L46.9205 20.0766C46.9119 20.0775 46.9033 20.0784 46.8947 20.0792V22.8541C46.903 22.8549 46.9113 22.8557 46.9196 22.8565L46.8947 23.1053H46.6447V23.0813C45.6805 22.9923 44.6043 22.9346 43.788 22.9346H23.3385C22.0754 22.9346 20.8805 23.0029 19.7539 23.1053M19.7539 19.8279V20.0784M19.7539 19.8279V20.0784M19.7539 19.8279L19.7392 20.0775C19.7441 20.0778 19.749 20.0781 19.7539 20.0784M19.7539 23.1053H19.5039V23.3791L19.7765 23.3543L19.7539 23.1053ZM19.7539 23.1053V20.0784M23.3501 23.1846H23.3385H23.3501ZM23.3501 23.1846H23.362M23.3501 23.1846H23.362M23.362 23.1846H23.3742M23.362 23.1846H23.3742M23.3742 23.1846H23.3868M23.3742 23.1846H23.3868M23.3868 23.1846H23.3997M23.3868 23.1846H23.3997M23.3997 23.1846H23.4129M23.3997 23.1846H23.4129M23.4129 23.1846H23.4265M23.4129 23.1846H23.4265M23.4265 23.1846H23.4403M23.4265 23.1846H23.4403M23.4403 23.1846H23.4545M23.4403 23.1846H23.4545M23.4545 23.1846H23.469M23.4545 23.1846H23.469M23.469 23.1846H23.4839M23.469 23.1846H23.4839M23.4839 23.1846H23.499M23.4839 23.1846H23.499M23.499 23.1846H23.5145M23.499 23.1846H23.5145M23.5145 23.1846H23.5303M23.5145 23.1846H23.5303M23.5303 23.1846H23.5464M23.5303 23.1846H23.5464M23.5464 23.1846H23.5628M23.5464 23.1846H23.5628M23.5628 23.1846H23.5795M23.5628 23.1846H23.5795M23.5795 23.1846H23.5966M23.5795 23.1846H23.5966M23.5966 23.1846H23.6139M23.5966 23.1846H23.6139M23.6139 23.1846H23.6316M23.6139 23.1846H23.6316M23.6316 23.1846H23.6495M23.6316 23.1846H23.6495M23.6495 23.1846H23.6678M23.6495 23.1846H23.6678M23.6678 23.1846H23.6864M23.6678 23.1846H23.6864M23.6864 23.1846H23.7053M23.6864 23.1846H23.7053M23.7053 23.1846H23.7245M23.7053 23.1846H23.7245M23.7245 23.1846H23.744M23.7245 23.1846H23.744M23.744 23.1846H23.7637M23.744 23.1846H23.7637M23.7637 23.1846H23.7838M23.7637 23.1846H23.7838M23.7838 23.1846H23.8042M23.7838 23.1846H23.8042M23.8042 23.1846H23.8249M23.8042 23.1846H23.8249M23.8249 23.1846H23.8459M23.8249 23.1846H23.8459M23.8459 23.1846H23.8671M23.8459 23.1846H23.8671M23.8671 23.1846H23.8887M23.8671 23.1846H23.8887M23.8887 23.1846H23.9105M23.8887 23.1846H23.9105M23.9105 23.1846H23.9327M23.9105 23.1846H23.9327M23.9327 23.1846H23.9551M23.9327 23.1846H23.9551M23.9551 23.1846H23.9778M23.9551 23.1846H23.9778M23.9778 23.1846H24.0008M23.9778 23.1846H24.0008M24.0008 23.1846H24.0241M24.0008 23.1846H24.0241M24.0241 23.1846H24.0477M24.0241 23.1846H24.0477M24.0477 23.1846H24.0715M24.0477 23.1846H24.0715M24.0715 23.1846H24.0956M24.0715 23.1846H24.0956M24.0956 23.1846H24.12M24.0956 23.1846H24.12M24.12 23.1846H24.1447M24.12 23.1846H24.1447M24.1447 23.1846H24.1697M24.1447 23.1846H24.1697M24.1697 23.1846H24.1949M24.1697 23.1846H24.1949M24.1949 23.1846H24.2204M24.1949 23.1846H24.2204M24.2204 23.1846H24.2462M24.2204 23.1846H24.2462M24.2462 23.1846H24.2723M24.2462 23.1846H24.2723M24.2723 23.1846H24.2986M24.2723 23.1846H24.2986M24.2986 23.1846H24.3252M24.2986 23.1846H24.3252M24.3252 23.1846H24.352M24.3252 23.1846H24.352M24.352 23.1846H24.3792M24.352 23.1846H24.3792M24.3792 23.1846H24.4066M24.3792 23.1846H24.4066M24.4066 23.1846H24.4342M24.4066 23.1846H24.4342M24.4342 23.1846H24.4621M24.4342 23.1846H24.4621M24.4621 23.1846H24.4903M24.4621 23.1846H24.4903M24.4903 23.1846H24.5187M24.4903 23.1846H24.5187M24.5187 23.1846H24.5474M24.5187 23.1846H24.5474M24.5474 23.1846H24.5764M24.5474 23.1846H24.5764M24.5764 23.1846H24.6056M24.5764 23.1846H24.6056M24.6056 23.1846H24.635M24.6056 23.1846H24.635M24.635 23.1846H24.6648M24.635 23.1846H24.6648M24.6648 23.1846H24.6947M24.6648 23.1846H24.6947M24.6947 23.1846H24.7249M24.6947 23.1846H24.7249M24.7249 23.1846H24.7554M24.7249 23.1846H24.7554M24.7554 23.1846H24.7861M24.7554 23.1846H24.7861M24.7861 23.1846H24.8171M24.7861 23.1846H24.8171M24.8171 23.1846H24.8483M24.8171 23.1846H24.8483M24.8483 23.1846H24.8797M24.8483 23.1846H24.8797M24.8797 23.1846H24.9114M24.8797 23.1846H24.9114M24.9114 23.1846H24.9433M24.9114 23.1846H24.9433M24.9433 23.1846H24.9755M24.9433 23.1846H24.9755M24.9755 23.1846H25.0079M24.9755 23.1846H25.0079M25.0079 23.1846H25.0406M25.0079 23.1846H25.0406M25.0406 23.1846H25.0734M25.0406 23.1846H25.0734M25.0734 23.1846H25.1066M25.0734 23.1846H25.1066M25.1066 23.1846H25.1399M25.1066 23.1846H25.1399M25.1399 23.1846H25.1735M25.1399 23.1846H25.1735M25.1735 23.1846H25.2073M25.1735 23.1846H25.2073M25.2073 23.1846H25.2414M25.2073 23.1846H25.2414M25.2414 23.1846H25.2756M25.2414 23.1846H25.2756M25.2756 23.1846H25.3101M25.2756 23.1846H25.3101M25.3101 23.1846H25.3448M25.3101 23.1846H25.3448M25.3448 23.1846H25.3798M25.3448 23.1846H25.3798M25.3798 23.1846H25.415M25.3798 23.1846H25.415M25.415 23.1846H25.4504M25.415 23.1846H25.4504M25.4504 23.1846H25.486M25.4504 23.1846H25.486M25.486 23.1846H25.5218M25.486 23.1846H25.5218M25.5218 23.1846H25.5579M25.5218 23.1846H25.5579M25.5579 23.1846H25.5941M25.5579 23.1846H25.5941M25.5941 23.1846H25.6306M25.5941 23.1846H25.6306M25.6306 23.1846H25.6673M25.6306 23.1846H25.6673M25.6673 23.1846H25.7042M25.6673 23.1846H25.7042M25.7042 23.1846H25.7413M25.7042 23.1846H25.7413M25.7413 23.1846H25.7787M25.7413 23.1846H25.7787M25.7787 23.1846H25.8162M25.7787 23.1846H25.8162M25.8162 23.1846H25.8539M25.8162 23.1846H25.8539M25.8539 23.1846H25.8919M25.8539 23.1846H25.8919M25.8919 23.1846H25.93M25.8919 23.1846H25.93M25.93 23.1846H25.9684M25.93 23.1846H25.9684M25.9684 23.1846H26.007M25.9684 23.1846H26.007M26.007 23.1846H26.0457M26.007 23.1846H26.0457M26.0457 23.1846H26.0847M26.0457 23.1846H26.0847M26.0847 23.1846H26.1239M26.0847 23.1846H26.1239M26.1239 23.1846H26.1632M26.1239 23.1846H26.1632M26.1632 23.1846H26.2028M26.1632 23.1846H26.2028M26.2028 23.1846H26.2425M26.2028 23.1846H26.2425M26.2425 23.1846H26.2825M26.2425 23.1846H26.2825M26.2825 23.1846H26.3226M26.2825 23.1846H26.3226M26.3226 23.1846H26.3629M26.3226 23.1846H26.3629M26.3629 23.1846H26.4034M26.3629 23.1846H26.4034M26.4034 23.1846H26.4441M26.4034 23.1846H26.4441M26.4441 23.1846H26.485M26.4441 23.1846H26.485M26.485 23.1846H26.5261M26.485 23.1846H26.5261M26.5261 23.1846H26.5673M26.5261 23.1846H26.5673M26.5673 23.1846H26.6088M26.5673 23.1846H26.6088M26.6088 23.1846H26.6504M26.6088 23.1846H26.6504M26.6504 23.1846H26.6922M26.6504 23.1846H26.6922M26.6922 23.1846H26.7342M26.6922 23.1846H26.7342M26.7342 23.1846H26.7763M26.7342 23.1846H26.7763M26.7763 23.1846H26.8187M26.7763 23.1846H26.8187M26.8187 23.1846H26.8612M26.8187 23.1846H26.8612M26.8612 23.1846H26.9038M26.8612 23.1846H26.9038M26.9038 23.1846H26.9467M26.9038 23.1846H26.9467M26.9467 23.1846H26.9897M26.9467 23.1846H26.9897M26.9897 23.1846H27.0329M26.9897 23.1846H27.0329M27.0329 23.1846H27.0763M27.0329 23.1846H27.0763M27.0763 23.1846H27.1198M27.0763 23.1846H27.1198M27.1198 23.1846H27.1635M27.1198 23.1846H27.1635M27.1635 23.1846H27.2074M27.1635 23.1846H27.2074M27.2074 23.1846H27.2514M27.2074 23.1846H27.2514M27.2514 23.1846H27.2956M27.2514 23.1846H27.2956M27.2956 23.1846H27.3399M27.2956 23.1846H27.3399M27.3399 23.1846H27.3844M27.3399 23.1846H27.3844M27.3844 23.1846H27.4291M27.3844 23.1846H27.4291M27.4291 23.1846H27.4739M27.4291 23.1846H27.4739M27.4739 23.1846H27.5189M27.4739 23.1846H27.5189M27.5189 23.1846H27.564M27.5189 23.1846H27.564M27.564 23.1846H27.6093M27.564 23.1846H27.6093M27.6093 23.1846H27.6547M27.6093 23.1846H27.6547M27.6547 23.1846H27.7003M27.6547 23.1846H27.7003M27.7003 23.1846H27.746M27.7003 23.1846H27.746M27.746 23.1846H27.7919M27.746 23.1846H27.7919M27.7919 23.1846H27.8379M27.7919 23.1846H27.8379M27.8379 23.1846H27.8841M27.8379 23.1846H27.8841M27.8841 23.1846H27.9304M27.8841 23.1846H27.9304M27.9304 23.1846H27.9768M27.9304 23.1846H27.9768M27.9768 23.1846H28.0234M27.9768 23.1846H28.0234M28.0234 23.1846H28.0702M28.0234 23.1846H28.0702M28.0702 23.1846H28.1171M28.0702 23.1846H28.1171M28.1171 23.1846H28.1641M28.1171 23.1846H28.1641M28.1641 23.1846H28.2112M28.1641 23.1846H28.2112M28.2112 23.1846H28.2585M28.2112 23.1846H28.2585M28.2585 23.1846H28.3059M28.2585 23.1846H28.3059M28.3059 23.1846H28.3534M28.3059 23.1846H28.3534M28.3534 23.1846H28.4011M28.3534 23.1846H28.4011M28.4011 23.1846H28.4489M28.4011 23.1846H28.4489M28.4489 23.1846H28.4969M28.4489 23.1846H28.4969M28.4969 23.1846H28.5449M28.4969 23.1846H28.5449M28.5449 23.1846H28.5931M28.5449 23.1846H28.5931M28.5931 23.1846H28.6414M28.5931 23.1846H28.6414M28.6414 23.1846H28.6899M28.6414 23.1846H28.6899M28.6899 23.1846H28.7384M28.6899 23.1846H28.7384M28.7384 23.1846H28.7871M28.7384 23.1846H28.7871M28.7871 23.1846H28.8359M28.7871 23.1846H28.8359M28.8359 23.1846H28.8848M28.8359 23.1846H28.8848M28.8848 23.1846H28.9338M28.8848 23.1846H28.9338M28.9338 23.1846H28.983M28.9338 23.1846H28.983M28.983 23.1846H29.0322M28.983 23.1846H29.0322M29.0322 23.1846H29.0816M29.0322 23.1846H29.0816M29.0816 23.1846H29.1311M29.0816 23.1846H29.1311M29.1311 23.1846H29.1806M29.1311 23.1846H29.1806M29.1806 23.1846H29.2303M29.1806 23.1846H29.2303M29.2303 23.1846H29.2801M29.2303 23.1846H29.2801M29.2801 23.1846H29.3301M29.2801 23.1846H29.3301M29.3301 23.1846H29.3801M29.3301 23.1846H29.3801M29.3801 23.1846H29.4302M29.3801 23.1846H29.4302M29.4302 23.1846H29.4804M29.4302 23.1846H29.4804M29.4804 23.1846H29.5307M29.4804 23.1846H29.5307M29.5307 23.1846H29.5812M29.5307 23.1846H29.5812M29.5812 23.1846H29.6317M29.5812 23.1846H29.6317M29.6317 23.1846H29.6823M29.6317 23.1846H29.6823M29.6823 23.1846H29.733M29.6823 23.1846H29.733M29.733 23.1846H29.7838M29.733 23.1846H29.7838M29.7838 23.1846H29.8347M29.7838 23.1846H29.8347M29.8347 23.1846H29.8857M29.8347 23.1846H29.8857M29.8857 23.1846H29.9368M29.8857 23.1846H29.9368M29.9368 23.1846H29.9879M29.9368 23.1846H29.9879M29.9879 23.1846H30.0392M29.9879 23.1846H30.0392M30.0392 23.1846H30.0905M30.0392 23.1846H30.0905M30.0905 23.1846H30.142M30.0905 23.1846H30.142M30.142 23.1846H30.1935M30.142 23.1846H30.1935M30.1935 23.1846H30.2451M30.1935 23.1846H30.2451M30.2451 23.1846H30.2967M30.2451 23.1846H30.2967M30.2967 23.1846H30.3485M30.2967 23.1846H30.3485M30.3485 23.1846H30.4003M30.3485 23.1846H30.4003M30.4003 23.1846H30.4522M30.4003 23.1846H30.4522M30.4522 23.1846H30.5042M30.4522 23.1846H30.5042M30.5042 23.1846H30.5563M30.5042 23.1846H30.5563M30.5563 23.1846H30.6084M30.5563 23.1846H30.6084M30.6084 23.1846H30.6606M30.6084 23.1846H30.6606M30.6606 23.1846H30.7129M30.6606 23.1846H30.7129M30.7129 23.1846H30.7652M30.7129 23.1846H30.7652M30.7652 23.1846H30.8176M30.7652 23.1846H30.8176M30.8176 23.1846H30.8701M30.8176 23.1846H30.8701M30.8701 23.1846H30.9227M30.8701 23.1846H30.9227M30.9227 23.1846H30.9753M30.9227 23.1846H30.9753M30.9753 23.1846H31.0279M30.9753 23.1846H31.0279M31.0279 23.1846H31.0807M31.0279 23.1846H31.0807M31.0807 23.1846H31.1335M31.0807 23.1846H31.1335M31.1335 23.1846H31.1863M31.1335 23.1846H31.1863M31.1863 23.1846H31.2392M31.1863 23.1846H31.2392M31.2392 23.1846H31.2922M31.2392 23.1846H31.2922M31.2922 23.1846H31.3452M31.2922 23.1846H31.3452M31.3452 23.1846H31.3983M31.3452 23.1846H31.3983M31.3983 23.1846H31.4514M31.3983 23.1846H31.4514M31.4514 23.1846H31.5046M31.4514 23.1846H31.5046M31.5046 23.1846H31.5578M31.5046 23.1846H31.5578M31.5578 23.1846H31.6111M31.5578 23.1846H31.6111M31.6111 23.1846H31.6644M31.6111 23.1846H31.6644M31.6644 23.1846H31.7178M31.6644 23.1846H31.7178M31.7178 23.1846H31.7712M31.7178 23.1846H31.7712M31.7712 23.1846H31.8247M31.7712 23.1846H31.8247M31.8247 23.1846H31.8782M31.8247 23.1846H31.8782M31.8782 23.1846H31.9317M31.8782 23.1846H31.9317M31.9317 23.1846H31.9853M31.9317 23.1846H31.9853M31.9853 23.1846H32.0389M31.9853 23.1846H32.0389M32.0389 23.1846H32.0926M32.0389 23.1846H32.0926M32.0926 23.1846H32.1463M32.0926 23.1846H32.1463M32.1463 23.1846H32.2M32.1463 23.1846H32.2M32.2 23.1846H32.2538M32.2 23.1846H32.2538M32.2538 23.1846H32.3076M32.2538 23.1846H32.3076M32.3076 23.1846H32.3614M32.3076 23.1846H32.3614M32.3614 23.1846H32.4152M32.3614 23.1846H32.4152M32.4152 23.1846H32.4691M32.4152 23.1846H32.4691M32.4691 23.1846H32.523M32.4691 23.1846H32.523M32.523 23.1846H32.5769M32.523 23.1846H32.5769M32.5769 23.1846H32.6309M32.5769 23.1846H32.6309M32.6309 23.1846H32.6849M32.6309 23.1846H32.6849M32.6849 23.1846H32.7389M32.6849 23.1846H32.7389M32.7389 23.1846H32.7929M32.7389 23.1846H32.7929M32.7929 23.1846H32.8469M32.7929 23.1846H32.8469M32.8469 23.1846H32.901M32.8469 23.1846H32.901M32.901 23.1846H32.955M32.901 23.1846H32.955M32.955 23.1846H33.0091M32.955 23.1846H33.0091M33.0091 23.1846H33.0632M33.0091 23.1846H33.0632M33.0632 23.1846H33.1173M33.0632 23.1846H33.1173M33.1173 23.1846H33.1715M33.1173 23.1846H33.1715M33.1715 23.1846H33.2256M33.1715 23.1846H33.2256M33.2256 23.1846H33.2797M33.2256 23.1846H33.2797M33.2797 23.1846H33.3339M33.2797 23.1846H33.3339M33.3339 23.1846H33.388M33.3339 23.1846H33.388M33.388 23.1846H33.4422M33.388 23.1846H33.4422M33.4422 23.1846H33.4963M33.4422 23.1846H33.4963M33.4963 23.1846H33.5505M33.4963 23.1846H33.5505M33.5505 23.1846H33.6047M33.5505 23.1846H33.6047M33.6047 23.1846H33.6588M33.6047 23.1846H33.6588M33.6588 23.1846H33.713M33.6588 23.1846H33.713M33.713 23.1846H33.7671M33.713 23.1846H33.7671M33.7671 23.1846H33.8213M33.7671 23.1846H33.8213M33.8213 23.1846H33.8754M33.8213 23.1846H33.8754M33.8754 23.1846H33.9295M33.8754 23.1846H33.9295M33.9295 23.1846H33.9837M33.9295 23.1846H33.9837M33.9837 23.1846H34.0378M33.9837 23.1846H34.0378M34.0378 23.1846H34.0919M34.0378 23.1846H34.0919M34.0919 23.1846H34.146M34.0919 23.1846H34.146M34.146 23.1846H34.2001M34.146 23.1846H34.2001M34.2001 23.1846H34.2541M34.2001 23.1846H34.2541M34.2541 23.1846H34.3082M34.2541 23.1846H34.3082M34.3082 23.1846H34.3622M34.3082 23.1846H34.3622M34.3622 23.1846H34.4162M34.3622 23.1846H34.4162M34.4162 23.1846H34.4702M34.4162 23.1846H34.4702M34.4702 23.1846H34.5242M34.4702 23.1846H34.5242M34.5242 23.1846H34.5781M34.5242 23.1846H34.5781M34.5781 23.1846H34.632M34.5781 23.1846H34.632M34.632 23.1846H34.6859M34.632 23.1846H34.6859M34.6859 23.1846H34.7398M34.6859 23.1846H34.7398M34.7398 23.1846H34.7936M34.7398 23.1846H34.7936M34.7936 23.1846H34.8474M34.7936 23.1846H34.8474M34.8474 23.1846H34.9012M34.8474 23.1846H34.9012M34.9012 23.1846H34.955M34.9012 23.1846H34.955M34.955 23.1846H35.0087M34.955 23.1846H35.0087M35.0087 23.1846H35.0624M35.0087 23.1846H35.0624M35.0624 23.1846H35.116M35.0624 23.1846H35.116M35.116 23.1846H35.1696M35.116 23.1846H35.1696M35.1696 23.1846H35.2232M35.1696 23.1846H35.2232M35.2232 23.1846H35.2767M35.2232 23.1846H35.2767M35.2767 23.1846H35.3302M35.2767 23.1846H35.3302M35.3302 23.1846H35.3836M35.3302 23.1846H35.3836M35.3836 23.1846H35.437M35.3836 23.1846H35.437M35.437 23.1846H35.4904M35.437 23.1846H35.4904M35.4904 23.1846H35.5437M35.4904 23.1846H35.5437M35.5437 23.1846H35.5969M35.5437 23.1846H35.5969M35.5969 23.1846H35.6501M35.5969 23.1846H35.6501M35.6501 23.1846H35.7033M35.6501 23.1846H35.7033M35.7033 23.1846H35.7564M35.7033 23.1846H35.7564M35.7564 23.1846H35.8095M35.7564 23.1846H35.8095M35.8095 23.1846H35.8625M35.8095 23.1846H35.8625M35.8625 23.1846H35.9154M35.8625 23.1846H35.9154M35.9154 23.1846H35.9683M35.9154 23.1846H35.9683M35.9683 23.1846H36.0211M35.9683 23.1846H36.0211M36.0211 23.1846H36.0739M36.0211 23.1846H36.0739M36.0739 23.1846H36.1266M36.0739 23.1846H36.1266M36.1266 23.1846H36.1793M36.1266 23.1846H36.1793M36.1793 23.1846H36.2318M36.1793 23.1846H36.2318M36.2318 23.1846H36.2844M36.2318 23.1846H36.2844M36.2844 23.1846H36.3368M36.2844 23.1846H36.3368M36.3368 23.1846H36.3892M36.3368 23.1846H36.3892M36.3892 23.1846H36.4415M36.3892 23.1846H36.4415M36.4415 23.1846H36.4938M36.4415 23.1846H36.4938M36.4938 23.1846H36.5459M36.4938 23.1846H36.5459M36.5459 23.1846H36.598M36.5459 23.1846H36.598M36.598 23.1846H36.6501M36.598 23.1846H36.6501M36.6501 23.1846H36.702M36.6501 23.1846H36.702M36.702 23.1846H36.7539M36.702 23.1846H36.7539M36.7539 23.1846H36.8057M36.7539 23.1846H36.8057M36.8057 23.1846H36.8574M36.8057 23.1846H36.8574M36.8574 23.1846H36.9091M36.8574 23.1846H36.9091M36.9091 23.1846H36.9606M36.9091 23.1846H36.9606M36.9606 23.1846H37.0121M36.9606 23.1846H37.0121M37.0121 23.1846H37.0635M37.0121 23.1846H37.0635M37.0635 23.1846H37.1148M37.0635 23.1846H37.1148M37.1148 23.1846H37.166M37.1148 23.1846H37.166M37.166 23.1846H37.2172M37.166 23.1846H37.2172M37.2172 23.1846H37.2682M37.2172 23.1846H37.2682M37.2682 23.1846H37.3192M37.2682 23.1846H37.3192M37.3192 23.1846H37.37M37.3192 23.1846H37.37M37.37 23.1846H37.4208M37.37 23.1846H37.4208M37.4208 23.1846H37.4715M37.4208 23.1846H37.4715M37.4715 23.1846H37.522M37.4715 23.1846H37.522M37.522 23.1846H37.5725M37.522 23.1846H37.5725M37.5725 23.1846H37.6229M37.5725 23.1846H37.6229M37.6229 23.1846H37.6732M37.6229 23.1846H37.6732M37.6732 23.1846H37.7233M37.6732 23.1846H37.7233M37.7233 23.1846H37.7734M37.7233 23.1846H37.7734M37.7734 23.1846H37.8234M37.7734 23.1846H37.8234M37.8234 23.1846H37.8733M37.8234 23.1846H37.8733M37.8733 23.1846H37.923M37.8733 23.1846H37.923M37.923 23.1846H37.9727M37.923 23.1846H37.9727M37.9727 23.1846H38.0222M37.9727 23.1846H38.0222M38.0222 23.1846H38.0717M38.0222 23.1846H38.0717M38.0717 23.1846H38.121M38.0717 23.1846H38.121M38.121 23.1846H38.1702M38.121 23.1846H38.1702M38.1702 23.1846H38.2193M38.1702 23.1846H38.2193M38.2193 23.1846H38.2683M38.2193 23.1846H38.2683M38.2683 23.1846H38.3171M38.2683 23.1846H38.3171M38.3171 23.1846H38.3659M38.3171 23.1846H38.3659M38.3659 23.1846H38.4145M38.3659 23.1846H38.4145M38.4145 23.1846H38.463M38.4145 23.1846H38.463M38.463 23.1846H38.5114M38.463 23.1846H38.5114M38.5114 23.1846H38.5597M38.5114 23.1846H38.5597M38.5597 23.1846H38.6078M38.5597 23.1846H38.6078M38.6078 23.1846H38.6558M38.6078 23.1846H38.6558M38.6558 23.1846H38.7037M38.6558 23.1846H38.7037M38.7037 23.1846H38.7514M38.7037 23.1846H38.7514M38.7514 23.1846H38.7991M38.7514 23.1846H38.7991M38.7991 23.1846H38.8466M38.7991 23.1846H38.8466M38.8466 23.1846H38.8939M38.8466 23.1846H38.8939M38.8939 23.1846H38.9411M38.8939 23.1846H38.9411M38.9411 23.1846H38.9882M38.9411 23.1846H38.9882M38.9882 23.1846H39.0352M38.9882 23.1846H39.0352M39.0352 23.1846H39.082M39.0352 23.1846H39.082M39.082 23.1846H39.1287M39.082 23.1846H39.1287M39.1287 23.1846H39.1752M39.1287 23.1846H39.1752M39.1752 23.1846H39.2216M39.1752 23.1846H39.2216M39.2216 23.1846H39.2679M39.2216 23.1846H39.2679M39.2679 23.1846H39.314M39.2679 23.1846H39.314M39.314 23.1846H39.36M39.314 23.1846H39.36M39.36 23.1846H39.4058M39.36 23.1846H39.4058M39.4058 23.1846H39.4515M39.4058 23.1846H39.4515M39.4515 23.1846H39.497M39.4515 23.1846H39.497M39.497 23.1846H39.5423M39.497 23.1846H39.5423M39.5423 23.1846H39.5876M39.5423 23.1846H39.5876M39.5876 23.1846H39.6326M39.5876 23.1846H39.6326M39.6326 23.1846H39.6775M39.6326 23.1846H39.6775M39.6775 23.1846H39.7223M39.6775 23.1846H39.7223M39.7223 23.1846H39.7669M39.7223 23.1846H39.7669M39.7669 23.1846H39.8113M39.7669 23.1846H39.8113M39.8113 23.1846H39.8556M39.8113 23.1846H39.8556M39.8556 23.1846H39.8997M39.8556 23.1846H39.8997M39.8997 23.1846H39.9437M39.8997 23.1846H39.9437M39.9437 23.1846H39.9875M39.9437 23.1846H39.9875M39.9875 23.1846H40.0311M39.9875 23.1846H40.0311M40.0311 23.1846H40.0746M40.0311 23.1846H40.0746M40.0746 23.1846H40.1179M40.0746 23.1846H40.1179M40.1179 23.1846H40.161M40.1179 23.1846H40.161M40.161 23.1846H40.2039M40.161 23.1846H40.2039M40.2039 23.1846H40.2467M40.2039 23.1846H40.2467M40.2467 23.1846H40.2893M40.2467 23.1846H40.2893M40.2893 23.1846H40.3318M40.2893 23.1846H40.3318M40.3318 23.1846H40.374M40.3318 23.1846H40.374M40.374 23.1846H40.4161M40.374 23.1846H40.4161M40.4161 23.1846H40.458M40.4161 23.1846H40.458M40.458 23.1846H40.4998M40.458 23.1846H40.4998M40.4998 23.1846H40.5413M40.4998 23.1846H40.5413M40.5413 23.1846H40.5827M40.5413 23.1846H40.5827M40.5827 23.1846H40.6239M40.5827 23.1846H40.6239M40.6239 23.1846H40.6649M40.6239 23.1846H40.6649M40.6649 23.1846H40.7057M40.6649 23.1846H40.7057M40.7057 23.1846H40.7463M40.7057 23.1846H40.7463M40.7463 23.1846H40.7867M40.7463 23.1846H40.7867M40.7867 23.1846H40.827M40.7867 23.1846H40.827M40.827 23.1846H40.867M40.827 23.1846H40.867M40.867 23.1846H40.9069M40.867 23.1846H40.9069M40.9069 23.1846H40.9466M40.9069 23.1846H40.9466M40.9466 23.1846H40.986M40.9466 23.1846H40.986M40.986 23.1846H41.0253M40.986 23.1846H41.0253M41.0253 23.1846H41.0644M41.0253 23.1846H41.0644M41.0644 23.1846H41.1033M41.0644 23.1846H41.1033M41.1033 23.1846H41.142M41.1033 23.1846H41.142M41.142 23.1846H41.1804M41.142 23.1846H41.1804M41.1804 23.1846H41.2187M41.1804 23.1846H41.2187M41.2187 23.1846H41.2568M41.2187 23.1846H41.2568M41.2568 23.1846H41.2947M41.2568 23.1846H41.2947M41.2947 23.1846H41.3323M41.2947 23.1846H41.3323M41.3323 23.1846H41.3698M41.3323 23.1846H41.3698M41.3698 23.1846H41.407M41.3698 23.1846H41.407M41.407 23.1846H41.4441M41.407 23.1846H41.4441M41.4441 23.1846H41.4809M41.4441 23.1846H41.4809M41.4809 23.1846H41.5175M41.4809 23.1846H41.5175M41.5175 23.1846H41.5539M41.5175 23.1846H41.5539M41.5539 23.1846H41.5901M41.5539 23.1846H41.5901M41.5901 23.1846H41.626M41.5901 23.1846H41.626M41.626 23.1846H41.6618M41.626 23.1846H41.6618M41.6618 23.1846H41.6973M41.6618 23.1846H41.6973M41.6973 23.1846H41.7326M41.6973 23.1846H41.7326M41.7326 23.1846H41.7677M41.7326 23.1846H41.7677M41.7677 23.1846H41.8026M41.7677 23.1846H41.8026M41.8026 23.1846H41.8372M41.8026 23.1846H41.8372M41.8372 23.1846H41.8716M41.8372 23.1846H41.8716M41.8716 23.1846H41.9058H41.8716ZM22.7132 2.64587L22.4399 2.62024V2.89478V5.96732V6.22579L22.6982 6.21718C23.722 6.18306 24.8792 6.14904 26.0356 6.14904H26.0455H26.0556H26.0659H26.0765H26.0873H26.0983H26.1095H26.1209H26.1326H26.1444H26.1565H26.1687H26.1812H26.1939H26.2068H26.2199H26.2332H26.2467H26.2604H26.2744H26.2885H26.3028H26.3173H26.3321H26.347H26.3621H26.3774H26.3929H26.4087H26.4246H26.4407H26.457H26.4734H26.4901H26.507H26.524H26.5413H26.5587H26.5763H26.5941H26.6121H26.6303H26.6487H26.6672H26.6859H26.7049H26.7239H26.7432H26.7626H26.7823H26.8021H26.822H26.8422H26.8625H26.883H26.9037H26.9245H26.9455H26.9667H26.9881H27.0096H27.0313H27.0531H27.0751H27.0973H27.1197H27.1422H27.1649H27.1877H27.2107H27.2338H27.2571H27.2806H27.3042H27.328H27.352H27.3761H27.4003H27.4247H27.4493H27.474H27.4988H27.5238H27.549H27.5743H27.5997H27.6253H27.651H27.6769H27.7029H27.7291H27.7554H27.7819H27.8085H27.8352H27.8621H27.8891H27.9162H27.9435H27.9709H27.9984H28.0261H28.0539H28.0819H28.1099H28.1381H28.1665H28.1949H28.2235H28.2522H28.2811H28.31H28.3391H28.3683H28.3976H28.4271H28.4567H28.4864H28.5162H28.5461H28.5761H28.6063H28.6366H28.667H28.6975H28.7281H28.7588H28.7896H28.8206H28.8517H28.8828H28.9141H28.9455H28.977H29.0085H29.0402H29.072H29.1039H29.1359H29.168H29.2002H29.2325H29.2649H29.2974H29.33H29.3627H29.3955H29.4284H29.4613H29.4944H29.5275H29.5608H29.5941H29.6275H29.661H29.6946H29.7283H29.7621H29.7959H29.8299H29.8639H29.898H29.9321H29.9664H30.0007H30.0352H30.0696H30.1042H30.1389H30.1736H30.2084H30.2432H30.2782H30.3132H30.3483H30.3834H30.4186H30.4539H30.4893H30.5247H30.5602H30.5957H30.6314H30.667H30.7028H30.7386H30.7744H30.8104H30.8463H30.8824H30.9185H30.9546H30.9908H31.0271H31.0634H31.0998H31.1362H31.1727H31.2092H31.2457H31.2824H31.319H31.3557H31.3925H31.4293H31.4661H31.503H31.54H31.5769H31.6139H31.651H31.6881H31.7252H31.7624H31.7996H31.8368H31.8741H31.9114H31.9488H31.9861H32.0235H32.061H32.0984H32.1359H32.1734H32.211H32.2486H32.2862H32.3238H32.3614H32.3991H32.4368H32.4745H32.5122H32.55H32.5877H32.6255H32.6633H32.7011H32.739H32.7768H32.8147H32.8526H32.8904H32.9283H32.9662H33.0042H33.0421H33.08H33.118H33.1559H33.1938H33.2318H33.2697H33.3077H33.3457H33.3836H33.4216H33.4595H33.4975H33.5354H33.5734H33.6113H33.6492H33.6872H33.7251H33.763H33.8009H33.8388H33.8767H33.9146H33.9524H33.9903H34.0281H34.0659H34.1037H34.1415H34.1793H34.217H34.2548H34.2925H34.3302H34.3678H34.4055H34.4431H34.4807H34.5183H34.5558H34.5933H34.6308H34.6683H34.7057H34.7431H34.7805H34.8178H34.8551H34.8924H34.9296H34.9668H35.004H35.0411H35.0782H35.1152H35.1522H35.1892H35.2261H35.263H35.2999H35.3367H35.3734H35.4101H35.4468H35.4834H35.52H35.5565H35.5929H35.6294H35.6657H35.702H35.7383H35.7745H35.8106H35.8467H35.8827H35.9187H35.9546H35.9905H36.0263H36.062H36.0977H36.1333H36.1689H36.2043H36.2398H36.2751H36.3104H36.3456H36.3807H36.4158H36.4508H36.4858H36.5206H36.5554H36.5901H36.6248H36.6593H36.6938H36.7282H36.7625H36.7968H36.831H36.8651H36.8991H36.933H36.9668H37.0006H37.0343H37.0678H37.1013H37.1348H37.1681H37.2013H37.2345H37.2675H37.3005H37.3333H37.3661H37.3988H37.4314H37.4639H37.4962H37.5285H37.5607H37.5928H37.6248H37.6567H37.6885H37.7202H37.7518H37.7832H37.8146H37.8459H37.877H37.9081H37.939H37.9698H38.0005H38.0312H38.0616H38.092H38.1223H38.1524H38.1825H38.2124H38.2422H38.2719H38.3014H38.3309H38.3602H38.3894H38.4185H38.4474H38.4762H38.5049H38.5335H38.562H38.5903H38.6185H38.6465H38.6745H38.7023H38.7299H38.7575H38.7849H38.8121H38.8393H38.8662H38.8931H38.9198H38.9464H38.9728H38.9991H39.0253H39.0513H39.0772H39.1029H39.1285H39.1539H39.1792H39.2043H39.2293H39.2542H39.2788H39.3034H39.3278H39.352H39.3761H39.4H39.4238H39.4474H39.4708H39.4941H39.5173H39.5403H39.5631H39.5857H39.6082H39.6306H39.6527H39.6747H39.6966H39.7183H39.7398H39.7611H39.7823H39.8033H39.8241H39.8447H39.8652H39.8855H39.9057H39.9256H39.9454H39.965H39.9844H40.0037H40.0228H40.0416H40.0604H40.0789H40.0972H40.1154H40.1334H40.1512H40.1688H40.1862H40.2034H40.2204H40.2373H40.254H40.2704H40.2867H40.3028H40.3187H40.3344H40.3499H40.3652H40.3803H40.3952H40.4099H40.4244H40.4387H40.4528H40.4667H40.4804H40.4939H40.5072H40.5203H40.5332H40.5458H40.5583H40.5705H40.5826H40.5944H40.606H40.6174H40.6286H40.6396H40.6504H40.6609H40.6712H40.6814C41.8038 6.14904 43.0978 6.18308 44.0178 6.21715L44.277 6.22675V5.96732V2.89478V2.61546L43.9994 2.6463C43.0877 2.74761 41.9021 2.81547 40.6814 2.81547H40.6711H40.6605H40.6498H40.6389H40.6278H40.6165H40.6049H40.5932H40.5813H40.5692H40.5568H40.5443H40.5316H40.5187H40.5056H40.4923H40.4788H40.4651H40.4512H40.4371H40.4228H40.4084H40.3938H40.3789H40.3639H40.3487H40.3333H40.3177H40.302H40.286H40.2699H40.2536H40.2371H40.2204H40.2036H40.1865H40.1693H40.152H40.1344H40.1167H40.0987H40.0807H40.0624H40.044H40.0254H40.0066H39.9877H39.9685H39.9493H39.9298H39.9102H39.8904H39.8705H39.8504H39.8301H39.8096H39.789H39.7683H39.7474H39.7263H39.705H39.6836H39.6621H39.6404H39.6185H39.5965H39.5743H39.552H39.5295H39.5068H39.4841H39.4611H39.438H39.4148H39.3914H39.3679H39.3442H39.3204H39.2964H39.2723H39.248H39.2236H39.1991H39.1744H39.1496H39.1246H39.0995H39.0743H39.0489H39.0234H38.9978H38.972H38.9461H38.92H38.8938H38.8675H38.8411H38.8145H38.7878H38.761H38.734H38.707H38.6797H38.6524H38.625H38.5974H38.5697H38.5418H38.5139H38.4858H38.4576H38.4293H38.4009H38.3724H38.3437H38.3149H38.286H38.257H38.2279H38.1987H38.1693H38.1399H38.1103H38.0806H38.0509H38.021H37.991H37.9609H37.9307H37.9004H37.8699H37.8394H37.8088H37.7781H37.7472H37.7163H37.6853H37.6542H37.623H37.5916H37.5602H37.5287H37.4971H37.4654H37.4336H37.4018H37.3698H37.3377H37.3056H37.2733H37.241H37.2086H37.1761H37.1435H37.1108H37.0781H37.0452H37.0123H36.9793H36.9462H36.913H36.8798H36.8465H36.8131H36.7796H36.746H36.7124H36.6787H36.6449H36.611H36.5771H36.5431H36.509H36.4749H36.4407H36.4064H36.3721H36.3377H36.3032H36.2686H36.234H36.1994H36.1646H36.1298H36.095H36.06H36.0251H35.99H35.9549H35.9198H35.8846H35.8493H35.814H35.7786H35.7432H35.7077H35.6722H35.6366H35.6009H35.5653H35.5295H35.4937H35.4579H35.422H35.3861H35.3501H35.3141H35.2781H35.242H35.2059H35.1697H35.1335H35.0972H35.0609H35.0246H34.9882H34.9518H34.9153H34.8789H34.8424H34.8058H34.7692H34.7326H34.696H34.6593H34.6226H34.5859H34.5492H34.5124H34.4756H34.4387H34.4019H34.365H34.3281H34.2912H34.2542H34.2173H34.1803H34.1433H34.1063H34.0692H34.0322H33.9951H33.958H33.9209H33.8838H33.8467H33.8095H33.7724H33.7352H33.698H33.6609H33.6237H33.5865H33.5493H33.5121H33.4749H33.4377H33.4004H33.3632H33.326H33.2888H33.2516H33.2143H33.1771H33.1399H33.1027H33.0655H33.0283H32.9911H32.9539H32.9167H32.8795H32.8424H32.8052H32.7681H32.7309H32.6938H32.6567H32.6196H32.5825H32.5454H32.5084H32.4713H32.4343H32.3973H32.3603H32.3234H32.2864H32.2495H32.2126H32.1757H32.1389H32.1021H32.0652H32.0285H31.9917H31.955H31.9183H31.8816H31.845H31.8084H31.7718H31.7353H31.6988H31.6623H31.6259H31.5895H31.5531H31.5168H31.4805H31.4442H31.408H31.3718H31.3357H31.2996H31.2635H31.2275H31.1916H31.1557H31.1198H31.084H31.0482H31.0125H30.9768H30.9412H30.9056H30.87H30.8346H30.7991H30.7638H30.7285H30.6932H30.658H30.6228H30.5878H30.5527H30.5177H30.4828H30.448H30.4132H30.3785H30.3438H30.3092H30.2747H30.2402H30.2058H30.1714H30.1372H30.103H30.0688H30.0348H30.0008H29.9669H29.933H29.8992H29.8655H29.8319H29.7984H29.7649H29.7315H29.6982H29.6649H29.6318H29.5987H29.5657H29.5328H29.4999H29.4672H29.4345H29.4019H29.3694H29.337H29.3047H29.2725H29.2403H29.2083H29.1763H29.1444H29.1127H29.081H29.0494H29.0179H28.9865H28.9552H28.924H28.8928H28.8618H28.8309H28.8001H28.7694H28.7388H28.7083H28.6779H28.6476H28.6174H28.5873H28.5573H28.5274H28.4976H28.468H28.4384H28.409H28.3796H28.3504H28.3213H28.2923H28.2634H28.2347H28.206H28.1775H28.1491H28.1208H28.0926H28.0645H28.0366H28.0088H27.9811H27.9535H27.9261H27.8988H27.8716H27.8445H27.8175H27.7907H27.764H27.7375H27.7111H27.6848H27.6586H27.6325H27.6066H27.5809H27.5552H27.5297H27.5044H27.4792H27.4541H27.4291H27.4043H27.3797H27.3551H27.3307H27.3065H27.2824H27.2584H27.2346H27.211H27.1874H27.1641H27.1409H27.1178H27.0949H27.0721H27.0495H27.027H27.0047H26.9825H26.9605H26.9386H26.9169H26.8954H26.874H26.8528H26.8317H26.8108H26.7901H26.7695H26.7491H26.7288H26.7087H26.6888H26.669H26.6494H26.63H26.6107H26.5916H26.5727H26.5539H26.5353H26.5169H26.4987H26.4806H26.4627H26.445H26.4275H26.4101H26.3929H26.3759H26.3591H26.3424H26.3259H26.3096H26.2935H26.2776H26.2619H26.2463H26.2309H26.2157H26.2007H26.1859H26.1713H26.1569H26.1426H26.1286H26.1147H26.101H26.0875H26.0742H26.0612H26.0483H26.0356C24.9188 2.81547 23.8003 2.74778 22.7132 2.64587Z" fill="var(--primary-color)" stroke="var(--primary-color)" stroke-width="0.5"/>
<path d="M63.1658 0.972392L63.1343 0.689653L62.858 0.757136L59.922 1.47406L59.6018 1.55224L59.7634 1.83949C60.0586 2.36435 60.3252 3.02816 60.5606 3.83529L60.5606 3.8353L60.5619 3.83949C60.7586 4.47233 61.1341 5.80572 61.5979 7.48842C59.6514 7.84926 58.1617 8.11983 57.6886 8.19553L57.6886 8.19534L57.6791 8.19724C56.6662 8.39982 55.8217 8.50129 54.8679 8.60349L54.5788 8.63446L54.6528 8.91569L55.3356 11.5103L55.3961 11.7405L55.629 11.6913C56.5169 11.5037 59.2246 10.954 62.3728 10.3193C62.8056 11.9088 63.2662 13.6102 63.7056 15.2332C64.6042 18.5524 65.414 21.5435 65.7157 22.5778C65.9505 23.3828 66.1179 24.2542 66.1846 25.0217L66.2104 25.3185L66.4982 25.2415L69.4342 24.4563L69.7038 24.3842L69.6026 24.1242C69.4283 23.6758 69.217 22.987 69.0344 22.3915C68.971 22.1847 68.911 21.9891 68.8572 21.8188C68.4099 20.3701 66.7907 14.554 65.4468 9.7008C69.4387 8.89894 73.4375 8.10102 74.9771 7.80264C73.7268 9.79056 71.3814 12.6066 69.4462 14.2609L69.1631 14.5029L69.4943 14.6732L71.884 15.9023L72.0437 15.9844L72.1725 15.8593C74.5483 13.5524 78.0814 8.71591 79.5278 5.82304L79.6239 5.63089L79.4484 5.507L77.7073 4.27798L77.5851 4.19172L77.4513 4.25861C77.1326 4.41797 76.6406 4.58296 76.2098 4.68238C75.0686 4.94262 69.4543 6.01732 64.6758 6.91406C64.4941 6.25647 64.326 5.64791 64.1769 5.10821C63.9438 4.2644 63.7571 3.58892 63.6376 3.15754C63.5801 2.90861 63.5236 2.67624 63.4704 2.4578C63.3302 1.88208 63.2136 1.40307 63.1658 0.972392Z" fill="var(--primary-color)" stroke="var(--primary-color)" stroke-width="0.5"/>
<path d="M87.3288 11.0783L87.0547 11.0518V11.3271V14.6728V14.9389L87.3203 14.9223C88.4075 14.8544 90.2117 14.7863 92.0842 14.7863H92.0991H92.1143H92.1297H92.1454H92.1614H92.1776H92.194H92.2107H92.2276H92.2448H92.2622H92.2798H92.2977H92.3159H92.3343H92.3529H92.3717H92.3908H92.4102H92.4297H92.4495H92.4696H92.4898H92.5103H92.5311H92.552H92.5732H92.5946H92.6162H92.6381H92.6602H92.6825H92.705H92.7278H92.7508H92.774H92.7974H92.821H92.8449H92.8689H92.8932H92.9177H92.9424H92.9673H92.9924H93.0178H93.0433H93.0691H93.095H93.1212H93.1475H93.1741H93.2009H93.2279H93.255H93.2824H93.31H93.3377H93.3657H93.3939H93.4222H93.4508H93.4795H93.5085H93.5376H93.5669H93.5964H93.6261H93.656H93.686H93.7163H93.7467H93.7773H93.8081H93.8391H93.8703H93.9016H93.9331H93.9648H93.9967H94.0287H94.0609H94.0933H94.1259H94.1586H94.1915H94.2246H94.2578H94.2912H94.3248H94.3585H94.3924H94.4265H94.4607H94.4951H94.5296H94.5643H94.5992H94.6342H94.6694H94.7047H94.7402H94.7759H94.8116H94.8476H94.8837H94.9199H94.9563H94.9928H95.0295H95.0663H95.1033H95.1404H95.1777H95.2151H95.2526H95.2903H95.3281H95.3661H95.4042H95.4424H95.4807H95.5192H95.5578H95.5966H95.6355H95.6745H95.7136H95.7529H95.7923H95.8318H95.8715H95.9113H95.9511H95.9912H96.0313H96.0715H96.1119H96.1524H96.193H96.2337H96.2746H96.3155H96.3566H96.3978H96.439H96.4804H96.5219H96.5636H96.6053H96.6471H96.689H96.731H96.7732H96.8154H96.8578H96.9002H96.9427H96.9854H97.0281H97.0709H97.1138H97.1568H97.1999H97.2431H97.2864H97.3298H97.3733H97.4168H97.4605H97.5042H97.548H97.5919H97.6359H97.6799H97.7241H97.7683H97.8126H97.857H97.9014H97.946H97.9906H98.0353H98.08H98.1248H98.1697H98.2147H98.2597H98.3048H98.35H98.3952H98.4405H98.4859H98.5313H98.5768H98.6224H98.668H98.7136H98.7594H98.8052H98.851H98.8969H98.9429H98.9889H99.0349H99.081H99.1272H99.1734H99.2196H99.2659H99.3123H99.3587H99.4051H99.4516H99.4981H99.5447H99.5913H99.638H99.6846H99.7314H99.7781H99.8249H99.8717H99.9186H99.9655H100.012H100.059H100.106H100.153H100.2H100.247H100.295H100.342H100.389H100.436H100.483H100.53H100.578H100.625H100.672H100.719H100.767H100.814H100.861H100.909H100.956H101.003H101.051H101.098H101.145H101.193H101.24H101.288H101.335H101.382H101.43H101.477H101.525H101.572H101.619H101.667H101.714H101.762H101.809H101.856H101.904H101.951H101.999H102.046H102.093H102.141H102.188H102.235H102.282H102.33H102.377H102.424H102.471H102.518H102.566H102.613H102.66H102.707H102.754H102.801H102.848H102.895H102.942H102.989H103.036H103.083H103.129H103.176H103.223H103.27H103.316H103.363H103.409H103.456H103.503H103.549H103.595H103.642H103.688H103.734H103.781H103.827H103.873H103.919H103.965H104.011H104.057H104.103H104.149H104.194H104.24H104.286H104.331H104.377H104.422H104.468H104.513H104.558H104.604H104.649H104.694H104.739H104.784H104.829H104.873H104.918H104.963H105.007H105.052H105.096H105.141H105.185H105.229H105.273H105.317H105.361H105.405H105.449H105.493H105.536H105.58H105.623H105.666H105.71H105.753H105.796H105.839H105.882H105.925H105.967H106.01H106.052H106.095H106.137H106.179H106.221H106.263H106.305H106.347H106.389H106.43H106.472H106.513H106.554H106.595H106.636H106.677H106.718H106.759H106.799H106.84H106.88H106.92H106.96H107H107.04H107.08H107.119H107.159H107.198H107.237H107.277H107.315H107.354H107.393H107.432H107.47H107.508H107.546H107.585H107.622H107.66H107.698H107.735H107.773H107.81H107.847H107.884H107.921H107.957H107.994H108.03H108.066H108.102H108.138H108.174H108.209H108.245H108.28H108.315H108.35H108.385H108.42H108.454H108.488H108.522H108.556H108.59H108.624H108.657H108.691H108.724H108.757H108.79H108.822H108.855H108.887H108.919H108.951H108.983H109.015H109.046H109.077H109.109H109.139H109.17H109.201H109.231H109.261H109.291H109.321H109.351H109.38H109.409H109.438H109.467H109.496H109.524H109.553H109.581H109.609H109.636H109.664H109.691H109.718H109.745H109.772H109.798H109.824H109.851H109.876H109.902H109.928H109.953H109.978H110.003H110.027H110.052H110.076H110.1H110.124H110.147H110.17H110.194H110.216H110.239H110.262H110.284H110.306H110.328H110.349H110.37H110.391H110.412H110.433H110.453H110.474H110.493H110.513H110.533H110.552H110.571H110.59H110.608H110.626H110.644H110.662H110.68H110.697H110.714H110.731H110.748H110.764H110.78H110.796H110.811H110.827C112.006 14.7863 113.14 14.8496 113.922 14.8933C114.131 14.905 114.315 14.9152 114.468 14.9225L114.73 14.935V14.6728V11.3271V11.0545L114.458 11.0781C114.346 11.0879 114.225 11.099 114.097 11.1109C113.322 11.1825 112.245 11.282 110.793 11.282H110.778H110.762H110.747H110.731H110.715H110.699H110.683H110.666H110.649H110.632H110.615H110.597H110.579H110.561H110.542H110.524H110.505H110.486H110.466H110.447H110.427H110.407H110.387H110.366H110.345H110.324H110.303H110.282H110.26H110.238H110.216H110.194H110.171H110.148H110.125H110.102H110.078H110.055H110.031H110.007H109.982H109.958H109.933H109.908H109.883H109.858H109.832H109.806H109.78H109.754H109.727H109.701H109.674H109.647H109.62H109.592H109.565H109.537H109.509H109.48H109.452H109.423H109.395H109.366H109.336H109.307H109.277H109.248H109.218H109.188H109.157H109.127H109.096H109.065H109.034H109.003H108.971H108.94H108.908H108.876H108.844H108.812H108.779H108.746H108.714H108.681H108.647H108.614H108.581H108.547H108.513H108.479H108.445H108.411H108.376H108.342H108.307H108.272H108.237H108.201H108.166H108.13H108.095H108.059H108.023H107.986H107.95H107.914H107.877H107.84H107.803H107.766H107.729H107.692H107.654H107.616H107.579H107.541H107.503H107.464H107.426H107.388H107.349H107.31H107.271H107.232H107.193H107.154H107.115H107.075H107.036H106.996H106.956H106.916H106.876H106.836H106.795H106.755H106.714H106.673H106.633H106.592H106.551H106.509H106.468H106.427H106.385H106.344H106.302H106.26H106.218H106.176H106.134H106.092H106.049H106.007H105.964H105.922H105.879H105.836H105.793H105.75H105.707H105.664H105.62H105.577H105.533H105.49H105.446H105.402H105.359H105.315H105.271H105.227H105.182H105.138H105.094H105.049H105.005H104.96H104.916H104.871H104.826H104.781H104.736H104.691H104.646H104.601H104.556H104.511H104.465H104.42H104.375H104.329H104.283H104.238H104.192H104.146H104.101H104.055H104.009H103.963H103.917H103.871H103.824H103.778H103.732H103.686H103.639H103.593H103.546H103.5H103.453H103.407H103.36H103.314H103.267H103.22H103.173H103.127H103.08H103.033H102.986H102.939H102.892H102.845H102.798H102.751H102.704H102.657H102.61H102.562H102.515H102.468H102.421H102.374H102.326H102.279H102.232H102.184H102.137H102.09H102.042H101.995H101.947H101.9H101.853H101.805H101.758H101.71H101.663H101.615H101.568H101.521H101.473H101.426H101.378H101.331H101.283H101.236H101.188H101.141H101.093H101.046H100.999H100.951H100.904H100.856H100.809H100.762H100.714H100.667H100.62H100.572H100.525H100.478H100.431H100.383H100.336H100.289H100.242H100.195H100.148H100.101H100.054H100.007H99.9595H99.9126H99.8657H99.8188H99.7719H99.7251H99.6783H99.6316H99.5849H99.5382H99.4916H99.445H99.3985H99.352H99.3055H99.2591H99.2128H99.1665H99.1202H99.074H99.0278H98.9817H98.9357H98.8896H98.8437H98.7978H98.752H98.7062H98.6604H98.6148H98.5692H98.5236H98.4781H98.4327H98.3874H98.3421H98.2969H98.2517H98.2066H98.1616H98.1167H98.0718H98.027H97.9823H97.9376H97.893H97.8485H97.8041H97.7597H97.7155H97.6713H97.6272H97.5832H97.5392H97.4954H97.4516H97.4079H97.3643H97.3208H97.2774H97.234H97.1908H97.1477H97.1046H97.0617H97.0188H96.976H96.9334H96.8908H96.8483H96.8059H96.7637H96.7215H96.6794H96.6375H96.5956H96.5539H96.5122H96.4707H96.4293H96.388H96.3468H96.3057H96.2647H96.2238H96.1831H96.1425H96.102H96.0616H96.0213H95.9811H95.9411H95.9012H95.8614H95.8217H95.7822H95.7428H95.7035H95.6644H95.6253H95.5864H95.5477H95.509H95.4705H95.4322H95.3939H95.3559H95.3179H95.2801H95.2424H95.2049H95.1675H95.1302H95.0931H95.0561H95.0193H94.9827H94.9461H94.9097H94.8735H94.8374H94.8015H94.7657H94.7301H94.6946H94.6593H94.6242H94.5892H94.5543H94.5197H94.4851H94.4508H94.4166H94.3826H94.3487H94.315H94.2814H94.2481H94.2149H94.1818H94.149H94.1163H94.0838H94.0514H94.0193H93.9873H93.9554H93.9238H93.8923H93.861H93.8299H93.799H93.7683H93.7377H93.7074H93.6772H93.6472H93.6173H93.5877H93.5583H93.529H93.5H93.4711H93.4425H93.414H93.3857H93.3576H93.3297H93.302H93.2746H93.2473H93.2202H93.1933H93.1666H93.1401H93.1139H93.0878H93.062H93.0363H93.0109H92.9856H92.9606H92.9358H92.9112H92.8868H92.8627H92.8387H92.815H92.7915H92.7682H92.7451H92.7223H92.6997H92.6773H92.6551H92.6331H92.6114H92.5899H92.5686H92.5476H92.5268H92.5062H92.4858H92.4657H92.4458H92.4262H92.4068H92.3876H92.3687H92.35H92.3315H92.3133H92.2953H92.2776H92.2601H92.2429H92.2259H92.2091H92.1926H92.1764H92.1604H92.1447H92.1292H92.1139H92.0989H92.0842C90.1458 11.282 88.3786 11.1799 87.3288 11.0783Z" fill="var(--primary-color)" stroke="var(--primary-color)" stroke-width="0.5"/>
<path d="M133.233 24.2771H133.483V24.0271V1.97302V1.72302H133.233H130.707H130.457V1.97302V21.4215H122.479H122.229V21.6715V24.0271V24.2771H122.479H133.233Z" fill="var(--primary-color)" stroke="var(--primary-color)" stroke-width="0.5"/>
</svg>
