<svg width="144" height="24" viewBox="0 0 144 24" fill="none" xmlns="http://www.w3.org/2000/svg">
<path d="M13.6565 1.48169H22.9976V15.5845L27.5498 5.43258C28.7602 2.7376 30.7074 1.48169 33.6808 1.48169H42.8903V22.4135H32.4177V9.85443H31.8125L26.2342 22.4135H12.5513V9.85443H11.8409L6.26252 22.4135H0L7.52554 5.45874C8.73595 2.7376 10.6831 1.48169 13.6565 1.48169ZM86.8595 0.565918C93.9114 0.565918 98.8846 5.43258 98.8846 11.9999C98.8846 18.5673 93.9114 23.434 86.8595 23.434C79.5182 23.434 74.8344 18.5673 74.8344 11.9999C74.8344 5.43258 79.5182 0.565918 86.8595 0.565918ZM72.7294 22.4135H55.468C49.6791 22.4135 44.9954 17.73 44.9954 11.9476C44.9954 6.16519 49.6791 1.48169 55.468 1.48169H72.7294V8.80784H54.6786V9.85443H72.7294V14.0408H54.6786V15.0874H72.7294V22.4135ZM130.223 22.4135H120.882V8.31071L116.33 18.4627C115.12 21.1576 113.173 22.4135 110.199 22.4135H100.99V1.48169H111.462V14.0408H112.067L117.646 1.48169H131.329V14.0408H132.039L137.617 1.48169H143.88L136.354 18.4365C135.144 21.1576 133.197 22.4135 130.223 22.4135Z" fill="#ACFD5A"/>
</svg>
