<svg width="26" height="26" viewBox="0 0 26 26" fill="none" xmlns="http://www.w3.org/2000/svg">
<path d="M9.16576 0.972392L9.13435 0.689653L8.85799 0.757136L5.922 1.47406L5.60183 1.55224L5.76341 1.83949C6.05864 2.36435 6.32523 3.02816 6.56065 3.83529L6.56061 3.8353L6.56191 3.83949C6.75861 4.47233 7.13407 5.80572 7.5979 7.48842C5.65135 7.84926 4.1617 8.11983 3.6886 8.19553L3.68857 8.19534L3.67907 8.19724C2.66619 8.39982 1.82168 8.50129 0.867898 8.60349L0.578757 8.63446L0.652763 8.91569L1.33555 11.5103L1.39612 11.7405L1.629 11.6913C2.51693 11.5037 5.22457 10.954 8.37278 10.3193C8.80563 11.9088 9.26625 13.6102 9.70563 15.2332C10.6042 18.5524 11.414 21.5435 11.7157 22.5778C11.9505 23.3828 12.1179 24.2542 12.1846 25.0217L12.2104 25.3185L12.4982 25.2415L15.4342 24.4563L15.7038 24.3842L15.6026 24.1242C15.4283 23.6758 15.217 22.987 15.0344 22.3915C14.971 22.1847 14.911 21.9891 14.8572 21.8188C14.4099 20.3701 12.7907 14.554 11.4468 9.7008C15.4387 8.89894 19.4375 8.10102 20.9771 7.80264C19.7268 9.79056 17.3814 12.6066 15.4462 14.2609L15.1631 14.5029L15.4943 14.6732L17.884 15.9023L18.0437 15.9844L18.1725 15.8593C20.5483 13.5524 24.0814 8.71591 25.5278 5.82304L25.6239 5.63089L25.4484 5.507L23.7073 4.27798L23.5851 4.19172L23.4513 4.25861C23.1326 4.41797 22.6406 4.58296 22.2098 4.68238C21.0686 4.94262 15.4543 6.01732 10.6758 6.91406C10.4941 6.25647 10.326 5.64791 10.1769 5.10821C9.94376 4.2644 9.75715 3.58892 9.63761 3.15754C9.58013 2.90861 9.52356 2.67624 9.47038 2.4578C9.33023 1.88208 9.21361 1.40307 9.16576 0.972392Z" fill="#ACFD5A" stroke="#ACFD5A" stroke-width="0.5"/>
</svg>
