<svg width="29" height="6" viewBox="0 0 29 6" fill="none" xmlns="http://www.w3.org/2000/svg">
<path d="M1.32877 1.07831L1.05469 1.05179V1.32715V4.67281V4.93892L1.32028 4.92232C2.40751 4.85437 4.21169 4.78625 6.0842 4.78625H6.09913H6.11432H6.12975H6.14544H6.16137H6.17756H6.19399H6.21067H6.22759H6.24476H6.26218H6.27983H6.29773H6.31588H6.33426H6.35288H6.37173H6.39083H6.41016H6.42973H6.44953H6.46956H6.48983H6.51033H6.53105H6.55201H6.5732H6.59461H6.61625H6.63811H6.6602H6.68251H6.70504H6.7278H6.75077H6.77397H6.79738H6.82101H6.84486H6.86892H6.8932H6.91769H6.94239H6.9673H6.99243H7.01776H7.0433H7.06905H7.09501H7.12117H7.14754H7.17411H7.20088H7.22785H7.25503H7.2824H7.30997H7.33774H7.36571H7.39387H7.42223H7.45078H7.47952H7.50846H7.53758H7.5669H7.5964H7.62609H7.65597H7.68603H7.71628H7.74671H7.77733H7.80813H7.8391H7.87026H7.9016H7.93311H7.9648H7.99667H8.02871H8.06093H8.09331H8.12587H8.1586H8.1915H8.22457H8.25781H8.29122H8.32479H8.35852H8.39242H8.42648H8.46071H8.49509H8.52964H8.56434H8.59921H8.63422H8.6694H8.70473H8.74021H8.77585H8.81164H8.84758H8.88367H8.91991H8.9563H8.99284H9.02952H9.06634H9.10332H9.14043H9.17769H9.21508H9.25262H9.2903H9.32811H9.36606H9.40415H9.44238H9.48073H9.51923H9.55785H9.59661H9.63549H9.67451H9.71365H9.75292H9.79232H9.83184H9.87148H9.91125H9.95115H9.99116H10.0313H10.0715H10.1119H10.1524H10.193H10.2337H10.2746H10.3155H10.3566H10.3978H10.439H10.4804H10.5219H10.5636H10.6053H10.6471H10.689H10.731H10.7732H10.8154H10.8578H10.9002H10.9427H10.9854H11.0281H11.0709H11.1138H11.1568H11.1999H11.2431H11.2864H11.3298H11.3733H11.4168H11.4605H11.5042H11.548H11.5919H11.6359H11.6799H11.7241H11.7683H11.8126H11.857H11.9014H11.946H11.9906H12.0353H12.08H12.1248H12.1697H12.2147H12.2597H12.3048H12.35H12.3952H12.4405H12.4859H12.5313H12.5768H12.6224H12.668H12.7136H12.7594H12.8052H12.851H12.8969H12.9429H12.9889H13.0349H13.081H13.1272H13.1734H13.2196H13.2659H13.3123H13.3587H13.4051H13.4516H13.4981H13.5447H13.5913H13.638H13.6846H13.7314H13.7781H13.8249H13.8717H13.9186H13.9655H14.0124H14.0594H14.1064H14.1534H14.2004H14.2475H14.2946H14.3417H14.3888H14.436H14.4832H14.5304H14.5776H14.6248H14.6721H14.7194H14.7667H14.814H14.8613H14.9086H14.956H15.0033H15.0507H15.0981H15.1455H15.1929H15.2402H15.2876H15.3351H15.3825H15.4299H15.4773H15.5247H15.5721H15.6195H15.6669H15.7143H15.7617H15.8091H15.8565H15.9038H15.9512H15.9985H16.0459H16.0932H16.1405H16.1878H16.2351H16.2824H16.3296H16.3769H16.4241H16.4713H16.5185H16.5656H16.6127H16.6599H16.7069H16.754H16.801H16.848H16.895H16.9419H16.9888H17.0357H17.0826H17.1294H17.1762H17.2229H17.2696H17.3163H17.3629H17.4095H17.456H17.5026H17.549H17.5954H17.6418H17.6881H17.7344H17.7807H17.8268H17.873H17.9191H17.9651H18.0111H18.057H18.1029H18.1487H18.1945H18.2402H18.2858H18.3314H18.3769H18.4224H18.4678H18.5131H18.5584H18.6036H18.6488H18.6938H18.7388H18.7838H18.8286H18.8734H18.9182H18.9628H19.0074H19.0519H19.0963H19.1406H19.1849H19.2291H19.2732H19.3172H19.3612H19.405H19.4488H19.4925H19.5361H19.5796H19.6231H19.6664H19.7096H19.7528H19.7959H19.8388H19.8817H19.9245H19.9672H20.0098H20.0523H20.0947H20.137H20.1792H20.2213H20.2632H20.3051H20.3469H20.3886H20.4301H20.4716H20.5129H20.5542H20.5953H20.6363H20.6772H20.718H20.7587H20.7992H20.8397H20.88H20.9202H20.9603H21.0003H21.0401H21.0798H21.1194H21.1589H21.1982H21.2374H21.2765H21.3155H21.3543H21.393H21.4316H21.47H21.5083H21.5465H21.5845H21.6224H21.6602H21.6978H21.7353H21.7726H21.8098H21.8469H21.8838H21.9205H21.9572H21.9936H22.03H22.0661H22.1022H22.138H22.1738H22.2093H22.2448H22.28H22.3151H22.3501H22.3849H22.4195H22.454H22.4883H22.5225H22.5565H22.5903H22.624H22.6575H22.6908H22.724H22.757H22.7898H22.8225H22.8549H22.8873H22.9194H22.9514H22.9832H23.0148H23.0462H23.0775H23.1086H23.1395H23.1702H23.2007H23.2311H23.2613H23.2912H23.321H23.3507H23.3801H23.4093H23.4384H23.4672H23.4959H23.5243H23.5526H23.5807H23.6086H23.6363H23.6638H23.691H23.7181H23.745H23.7717H23.7982H23.8245H23.8506H23.8764H23.9021H23.9275H23.9528H23.9778H24.0026H24.0273H24.0517H24.0758H24.0998H24.1236H24.1471H24.1704H24.1935H24.2164H24.2391H24.2615H24.2837H24.3057H24.3275H24.3491H24.3704H24.3915H24.4123H24.433H24.4534H24.4735H24.4935H24.5132H24.5326H24.5519H24.5709H24.5896H24.6081H24.6264H24.6445H24.6623H24.6798H24.6971H24.7142H24.731H24.7476H24.7639H24.78H24.7958H24.8114H24.8267C26.0057 4.78625 27.1399 4.84961 27.9218 4.89329C28.131 4.90497 28.3149 4.91525 28.4678 4.92253L28.7297 4.935V4.67281V1.32715V1.05447L28.458 1.07809C28.3456 1.08786 28.2253 1.09898 28.0966 1.11087C27.3216 1.1825 26.2451 1.28199 24.7926 1.28199H24.7777H24.7625H24.747H24.7314H24.7154H24.6992H24.6828H24.6661H24.6491H24.632H24.6145H24.5969H24.5789H24.5608H24.5424H24.5237H24.5048H24.4857H24.4664H24.4468H24.4269H24.4069H24.3866H24.366H24.3453H24.3243H24.3031H24.2816H24.2599H24.238H24.2159H24.1935H24.171H24.1482H24.1251H24.1019H24.0784H24.0548H24.0309H24.0067H23.9824H23.9579H23.9331H23.9081H23.8829H23.8576H23.832H23.8061H23.7801H23.7539H23.7275H23.7008H23.674H23.6469H23.6197H23.5923H23.5646H23.5368H23.5087H23.4805H23.4521H23.4234H23.3946H23.3656H23.3364H23.307H23.2774H23.2477H23.2177H23.1875H23.1572H23.1267H23.096H23.0651H23.034H23.0028H22.9714H22.9398H22.908H22.876H22.8439H22.8116H22.7791H22.7465H22.7136H22.6806H22.6475H22.6141H22.5806H22.547H22.5131H22.4792H22.445H22.4107H22.3762H22.3415H22.3067H22.2718H22.2366H22.2014H22.1659H22.1303H22.0946H22.0587H22.0227H21.9865H21.9501H21.9136H21.877H21.8402H21.8033H21.7662H21.729H21.6916H21.6541H21.6164H21.5787H21.5407H21.5027H21.4645H21.4261H21.3877H21.3491H21.3103H21.2715H21.2325H21.1933H21.1541H21.1147H21.0752H21.0356H20.9958H20.9559H20.9159H20.8758H20.8355H20.7952H20.7547H20.7141H20.6734H20.6325H20.5916H20.5505H20.5093H20.468H20.4266H20.3851H20.3435H20.3018H20.26H20.218H20.176H20.1338H20.0916H20.0492H20.0068H19.9642H19.9216H19.8788H19.836H19.7931H19.75H19.7069H19.6637H19.6204H19.577H19.5335H19.4899H19.4462H19.4025H19.3587H19.3147H19.2707H19.2266H19.1825H19.1382H19.0939H19.0495H19.005H18.9604H18.9158H18.8711H18.8263H18.7814H18.7365H18.6915H18.6464H18.6013H18.5561H18.5108H18.4655H18.4201H18.3746H18.3291H18.2835H18.2378H18.1921H18.1463H18.1005H18.0546H18.0087H17.9627H17.9166H17.8705H17.8244H17.7782H17.7319H17.6856H17.6393H17.5929H17.5464H17.5H17.4534H17.4069H17.3602H17.3136H17.2669H17.2202H17.1734H17.1266H17.0797H17.0329H16.986H16.939H16.892H16.845H16.798H16.7509H16.7038H16.6567H16.6096H16.5624H16.5152H16.468H16.4208H16.3735H16.3262H16.2789H16.2316H16.1843H16.137H16.0896H16.0422H15.9948H15.9474H15.9H15.8526H15.8052H15.7578H15.7103H15.6629H15.6154H15.568H15.5205H15.4731H15.4256H15.3781H15.3307H15.2832H15.2358H15.1883H15.1409H15.0935H15.046H14.9986H14.9512H14.9038H14.8564H14.809H14.7617H14.7143H14.667H14.6197H14.5724H14.5251H14.4778H14.4306H14.3834H14.3362H14.289H14.2419H14.1947H14.1476H14.1006H14.0535H14.0065H13.9595H13.9126H13.8657H13.8188H13.7719H13.7251H13.6783H13.6316H13.5849H13.5382H13.4916H13.445H13.3985H13.352H13.3055H13.2591H13.2128H13.1665H13.1202H13.074H13.0278H12.9817H12.9357H12.8896H12.8437H12.7978H12.752H12.7062H12.6604H12.6148H12.5692H12.5236H12.4781H12.4327H12.3874H12.3421H12.2969H12.2517H12.2066H12.1616H12.1167H12.0718H12.027H11.9823H11.9376H11.893H11.8485H11.8041H11.7597H11.7155H11.6713H11.6272H11.5832H11.5392H11.4954H11.4516H11.4079H11.3643H11.3208H11.2774H11.234H11.1908H11.1477H11.1046H11.0617H11.0188H10.976H10.9334H10.8908H10.8483H10.8059H10.7637H10.7215H10.6794H10.6375H10.5956H10.5539H10.5122H10.4707H10.4293H10.388H10.3468H10.3057H10.2647H10.2238H10.1831H10.1425H10.102H10.0616H10.0213H9.98114H9.9411H9.90119H9.86141H9.82174H9.78221H9.7428H9.70351H9.66436H9.62533H9.58644H9.54767H9.50904H9.47054H9.43218H9.39395H9.35586H9.3179H9.28009H9.24241H9.20487H9.16748H9.13022H9.09311H9.05615H9.01933H8.98265H8.94613H8.90975H8.87352H8.83744H8.80151H8.76574H8.73012H8.69465H8.65934H8.62418H8.58918H8.55434H8.51966H8.48514H8.45078H8.41659H8.38255H8.34868H8.31498H8.28144H8.24807H8.21487H8.18184H8.14898H8.11628H8.08377H8.05142H8.01925H7.98726H7.95544H7.92379H7.89233H7.86105H7.82994H7.79902H7.76828H7.73772H7.70735H7.67716H7.64716H7.61735H7.58772H7.55829H7.52904H7.49999H7.47113H7.44246H7.41398H7.3857H7.35762H7.32974H7.30205H7.27456H7.24727H7.22019H7.1933H7.16662H7.14015H7.11388H7.08781H7.06196H7.03631H7.01087H6.98564H6.96062H6.93581H6.91122H6.88684H6.86268H6.83873H6.81501H6.79149H6.7682H6.74513H6.72228H6.69966H6.67725H6.65507H6.63312H6.61139H6.58989H6.56861H6.54757H6.52676H6.50618H6.48583H6.46571H6.44583H6.42618H6.40677H6.3876H6.36866H6.34997H6.33151H6.3133H6.29533H6.2776H6.26012H6.24288H6.22589H6.20914H6.19264H6.1764H6.1604H6.14465H6.12916H6.11392H6.09893H6.0842C4.14583 1.28199 2.37863 1.17991 1.32877 1.07831Z" fill="#ACFD5A" stroke="#ACFD5A" stroke-width="0.5"/>
</svg>
