<svg width="1440" height="57" viewBox="0 0 1440 57" fill="none" xmlns="http://www.w3.org/2000/svg">
<g clip-path="url(#clip0_1548_3173)">
<path d="M0 16.5C0 7.66344 7.16344 0.5 16 0.5H1424C1432.84 0.5 1440 7.66344 1440 16.5V56.5H0V16.5Z" fill="#313131"/>
<g filter="url(#filter0_i_1548_3173)">
<path d="M1404 36.5H36C29.3726 36.5 24 41.8726 24 48.5V56.5H1416V48.5C1416 41.8726 1410.63 36.5 1404 36.5Z" fill="black"/>
</g>
<path d="M36 37H1404C1410.35 37 1415.5 42.1487 1415.5 48.5V56H24.5V48.5C24.5 42.1487 29.6487 37 36 37Z" stroke="black"/>
</g>
<defs>
<filter id="filter0_i_1548_3173" x="24" y="36.5" width="1392" height="22" filterUnits="userSpaceOnUse" color-interpolation-filters="sRGB">
<feFlood flood-opacity="0" result="BackgroundImageFix"/>
<feBlend mode="normal" in="SourceGraphic" in2="BackgroundImageFix" result="shape"/>
<feColorMatrix in="SourceAlpha" type="matrix" values="0 0 0 0 0 0 0 0 0 0 0 0 0 0 0 0 0 0 127 0" result="hardAlpha"/>
<feOffset dy="2"/>
<feGaussianBlur stdDeviation="1"/>
<feComposite in2="hardAlpha" operator="arithmetic" k2="-1" k3="1"/>
<feColorMatrix type="matrix" values="0 0 0 0 1 0 0 0 0 1 0 0 0 0 1 0 0 0 0.5 0"/>
<feBlend mode="normal" in2="shape" result="effect1_innerShadow_1548_3173"/>
</filter>
<clipPath id="clip0_1548_3173">
<path d="M0 16.5C0 7.66344 7.16344 0.5 16 0.5H1424C1432.84 0.5 1440 7.66344 1440 16.5V56.5H0V16.5Z" fill="white"/>
</clipPath>
</defs>
</svg>
