<svg width="1728" height="57" viewBox="0 0 1728 57" fill="none" xmlns="http://www.w3.org/2000/svg">
<g clip-path="url(#clip0_1548_3554)">
<path d="M0 16.5C0 7.66344 7.16344 0.5 16 0.5H1712C1720.84 0.5 1728 7.66344 1728 16.5V56.5H0V16.5Z" fill="#313131"/>
<g filter="url(#filter0_i_1548_3554)">
<path d="M1692 36.5H36C29.3726 36.5 24 41.8726 24 48.5V56.5H1704V48.5C1704 41.8726 1698.63 36.5 1692 36.5Z" fill="black"/>
</g>
<path d="M36 37H1692C1698.35 37 1703.5 42.1487 1703.5 48.5V56H24.5V48.5C24.5 42.1487 29.6487 37 36 37Z" stroke="black"/>
</g>
<defs>
<filter id="filter0_i_1548_3554" x="24" y="36.5" width="1680" height="22" filterUnits="userSpaceOnUse" color-interpolation-filters="sRGB">
<feFlood flood-opacity="0" result="BackgroundImageFix"/>
<feBlend mode="normal" in="SourceGraphic" in2="BackgroundImageFix" result="shape"/>
<feColorMatrix in="SourceAlpha" type="matrix" values="0 0 0 0 0 0 0 0 0 0 0 0 0 0 0 0 0 0 127 0" result="hardAlpha"/>
<feOffset dy="2"/>
<feGaussianBlur stdDeviation="1"/>
<feComposite in2="hardAlpha" operator="arithmetic" k2="-1" k3="1"/>
<feColorMatrix type="matrix" values="0 0 0 0 1 0 0 0 0 1 0 0 0 0 1 0 0 0 0.5 0"/>
<feBlend mode="normal" in2="shape" result="effect1_innerShadow_1548_3554"/>
</filter>
<clipPath id="clip0_1548_3554">
<path d="M0 16.5C0 7.66344 7.16344 0.5 16 0.5H1712C1720.84 0.5 1728 7.66344 1728 16.5V56.5H0V16.5Z" fill="white"/>
</clipPath>
</defs>
</svg>
