<svg width="104" height="104" viewBox="0 0 104 104" fill="none" xmlns="http://www.w3.org/2000/svg">
<g filter="url(#filter0_ii_908_33205)">
<path d="M68.3137 5C68.3137 2.23858 66.0752 0 63.3137 0H40.6863C37.9249 0 35.6863 2.23858 35.6863 5V27.6863C35.6863 32.1046 32.1046 35.6863 27.6863 35.6863H5C2.23858 35.6863 0 37.9249 0 40.6863V63.3137C0 66.0752 2.23858 68.3137 5 68.3137H27.6863C32.1046 68.3137 35.6863 71.8955 35.6863 76.3137V99C35.6863 101.761 37.9249 104 40.6863 104H63.3137C66.0752 104 68.3137 101.761 68.3137 99V76.3137C68.3137 71.8954 71.8955 68.3137 76.3137 68.3137H99C101.761 68.3137 104 66.0752 104 63.3137V40.6863C104 37.9249 101.761 35.6863 99 35.6863H76.3137C71.8954 35.6863 68.3137 32.1046 68.3137 27.6863V5Z" fill="#262626"/>
<path d="M68.3137 5C68.3137 2.23858 66.0752 0 63.3137 0H40.6863C37.9249 0 35.6863 2.23858 35.6863 5V27.6863C35.6863 32.1046 32.1046 35.6863 27.6863 35.6863H5C2.23858 35.6863 0 37.9249 0 40.6863V63.3137C0 66.0752 2.23858 68.3137 5 68.3137H27.6863C32.1046 68.3137 35.6863 71.8955 35.6863 76.3137V99C35.6863 101.761 37.9249 104 40.6863 104H63.3137C66.0752 104 68.3137 101.761 68.3137 99V76.3137C68.3137 71.8954 71.8955 68.3137 76.3137 68.3137H99C101.761 68.3137 104 66.0752 104 63.3137V40.6863C104 37.9249 101.761 35.6863 99 35.6863H76.3137C71.8954 35.6863 68.3137 32.1046 68.3137 27.6863V5Z" fill="url(#paint0_radial_908_33205)" fill-opacity="0.3"/>
</g>
<path d="M40.6863 0.5H63.3137C65.799 0.5 67.8137 2.51472 67.8137 5V27.6863C67.8137 32.3807 71.6193 36.1863 76.3137 36.1863H99C101.485 36.1863 103.5 38.201 103.5 40.6863V63.3137C103.5 65.799 101.485 67.8137 99 67.8137H76.3137C71.6193 67.8137 67.8137 71.6193 67.8137 76.3137V99C67.8137 101.485 65.799 103.5 63.3137 103.5H40.6863C38.201 103.5 36.1863 101.485 36.1863 99V76.3137C36.1863 71.6193 32.3807 67.8137 27.6863 67.8137H5C2.51472 67.8137 0.5 65.799 0.5 63.3137V40.6863C0.5 38.201 2.51472 36.1863 5 36.1863H27.6863C32.3807 36.1863 36.1863 32.3807 36.1863 27.6863V5C36.1863 2.51472 38.201 0.5 40.6863 0.5Z" stroke="black" stroke-opacity="0.8"/>
<circle opacity="0.3" cx="52.0002" cy="51.9999" r="15.5" fill="url(#paint1_linear_908_33205)" stroke="url(#paint2_linear_908_33205)"/>
<g opacity="0.5" filter="url(#filter1_di_908_33205)">
<path d="M51.1338 10.0825C51.5187 9.41579 52.4809 9.41579 52.8658 10.0825L56.9073 17.0825C57.2922 17.7491 56.811 18.5825 56.0412 18.5825H47.9583C47.1885 18.5825 46.7074 17.7491 47.0923 17.0825L51.1338 10.0825Z" fill="#161616"/>
</g>
<g opacity="0.5" filter="url(#filter2_di_908_33205)">
<path d="M51.1338 93.4514C51.5187 94.118 52.4809 94.118 52.8658 93.4514L56.9073 86.4514C57.2922 85.7847 56.811 84.9514 56.0412 84.9514H47.9583C47.1885 84.9514 46.7074 85.7847 47.0923 86.4514L51.1338 93.4514Z" fill="#161616"/>
</g>
<g opacity="0.5" filter="url(#filter3_di_908_33205)">
<path d="M93.2814 50.901C93.948 51.2859 93.948 52.2481 93.2814 52.633L86.2814 56.6745C85.6147 57.0594 84.7814 56.5783 84.7814 55.8085L84.7814 47.7256C84.7814 46.9558 85.6147 46.4746 86.2814 46.8595L93.2814 50.901Z" fill="#161616"/>
</g>
<g opacity="0.5" filter="url(#filter4_di_908_33205)">
<path d="M9.91333 50.901C9.24666 51.2859 9.24666 52.2481 9.91333 52.633L16.9133 56.6745C17.58 57.0594 18.4133 56.5783 18.4133 55.8085L18.4133 47.7256C18.4133 46.9558 17.58 46.4746 16.9133 46.8595L9.91333 50.901Z" fill="#161616"/>
</g>
<defs>
<filter id="filter0_ii_908_33205" x="0" y="-1" width="104" height="106" filterUnits="userSpaceOnUse" color-interpolation-filters="sRGB">
<feFlood flood-opacity="0" result="BackgroundImageFix"/>
<feBlend mode="normal" in="SourceGraphic" in2="BackgroundImageFix" result="shape"/>
<feColorMatrix in="SourceAlpha" type="matrix" values="0 0 0 0 0 0 0 0 0 0 0 0 0 0 0 0 0 0 127 0" result="hardAlpha"/>
<feOffset dy="-2"/>
<feGaussianBlur stdDeviation="0.5"/>
<feComposite in2="hardAlpha" operator="arithmetic" k2="-1" k3="1"/>
<feColorMatrix type="matrix" values="0 0 0 0 0 0 0 0 0 0 0 0 0 0 0 0 0 0 0.5 0"/>
<feBlend mode="normal" in2="shape" result="effect1_innerShadow_908_33205"/>
<feColorMatrix in="SourceAlpha" type="matrix" values="0 0 0 0 0 0 0 0 0 0 0 0 0 0 0 0 0 0 127 0" result="hardAlpha"/>
<feOffset dy="2"/>
<feGaussianBlur stdDeviation="0.5"/>
<feComposite in2="hardAlpha" operator="arithmetic" k2="-1" k3="1"/>
<feColorMatrix type="matrix" values="0 0 0 0 1 0 0 0 0 1 0 0 0 0 1 0 0 0 0.4 0"/>
<feBlend mode="normal" in2="effect1_innerShadow_908_33205" result="effect2_innerShadow_908_33205"/>
</filter>
<filter id="filter1_di_908_33205" x="44.9569" y="8.58246" width="14.0858" height="13" filterUnits="userSpaceOnUse" color-interpolation-filters="sRGB">
<feFlood flood-opacity="0" result="BackgroundImageFix"/>
<feColorMatrix in="SourceAlpha" type="matrix" values="0 0 0 0 0 0 0 0 0 0 0 0 0 0 0 0 0 0 127 0" result="hardAlpha"/>
<feOffset dy="1"/>
<feGaussianBlur stdDeviation="1"/>
<feComposite in2="hardAlpha" operator="out"/>
<feColorMatrix type="matrix" values="0 0 0 0 0 0 0 0 0 0 0 0 0 0 0 0 0 0 0.6 0"/>
<feBlend mode="normal" in2="BackgroundImageFix" result="effect1_dropShadow_908_33205"/>
<feBlend mode="normal" in="SourceGraphic" in2="effect1_dropShadow_908_33205" result="shape"/>
<feColorMatrix in="SourceAlpha" type="matrix" values="0 0 0 0 0 0 0 0 0 0 0 0 0 0 0 0 0 0 127 0" result="hardAlpha"/>
<feOffset dy="1"/>
<feGaussianBlur stdDeviation="0.5"/>
<feComposite in2="hardAlpha" operator="arithmetic" k2="-1" k3="1"/>
<feColorMatrix type="matrix" values="0 0 0 0 1 0 0 0 0 1 0 0 0 0 1 0 0 0 0.3 0"/>
<feBlend mode="normal" in2="shape" result="effect2_innerShadow_908_33205"/>
</filter>
<filter id="filter2_di_908_33205" x="44.9569" y="83.9514" width="14.0858" height="13" filterUnits="userSpaceOnUse" color-interpolation-filters="sRGB">
<feFlood flood-opacity="0" result="BackgroundImageFix"/>
<feColorMatrix in="SourceAlpha" type="matrix" values="0 0 0 0 0 0 0 0 0 0 0 0 0 0 0 0 0 0 127 0" result="hardAlpha"/>
<feOffset dy="1"/>
<feGaussianBlur stdDeviation="1"/>
<feComposite in2="hardAlpha" operator="out"/>
<feColorMatrix type="matrix" values="0 0 0 0 0 0 0 0 0 0 0 0 0 0 0 0 0 0 0.6 0"/>
<feBlend mode="normal" in2="BackgroundImageFix" result="effect1_dropShadow_908_33205"/>
<feBlend mode="normal" in="SourceGraphic" in2="effect1_dropShadow_908_33205" result="shape"/>
<feColorMatrix in="SourceAlpha" type="matrix" values="0 0 0 0 0 0 0 0 0 0 0 0 0 0 0 0 0 0 127 0" result="hardAlpha"/>
<feOffset dy="1"/>
<feGaussianBlur stdDeviation="0.5"/>
<feComposite in2="hardAlpha" operator="arithmetic" k2="-1" k3="1"/>
<feColorMatrix type="matrix" values="0 0 0 0 1 0 0 0 0 1 0 0 0 0 1 0 0 0 0.3 0"/>
<feBlend mode="normal" in2="shape" result="effect2_innerShadow_908_33205"/>
</filter>
<filter id="filter3_di_908_33205" x="82.7814" y="45.7241" width="13" height="14.0859" filterUnits="userSpaceOnUse" color-interpolation-filters="sRGB">
<feFlood flood-opacity="0" result="BackgroundImageFix"/>
<feColorMatrix in="SourceAlpha" type="matrix" values="0 0 0 0 0 0 0 0 0 0 0 0 0 0 0 0 0 0 127 0" result="hardAlpha"/>
<feOffset dy="1"/>
<feGaussianBlur stdDeviation="1"/>
<feComposite in2="hardAlpha" operator="out"/>
<feColorMatrix type="matrix" values="0 0 0 0 0 0 0 0 0 0 0 0 0 0 0 0 0 0 0.6 0"/>
<feBlend mode="normal" in2="BackgroundImageFix" result="effect1_dropShadow_908_33205"/>
<feBlend mode="normal" in="SourceGraphic" in2="effect1_dropShadow_908_33205" result="shape"/>
<feColorMatrix in="SourceAlpha" type="matrix" values="0 0 0 0 0 0 0 0 0 0 0 0 0 0 0 0 0 0 127 0" result="hardAlpha"/>
<feOffset dy="1"/>
<feGaussianBlur stdDeviation="0.5"/>
<feComposite in2="hardAlpha" operator="arithmetic" k2="-1" k3="1"/>
<feColorMatrix type="matrix" values="0 0 0 0 1 0 0 0 0 1 0 0 0 0 1 0 0 0 0.3 0"/>
<feBlend mode="normal" in2="shape" result="effect2_innerShadow_908_33205"/>
</filter>
<filter id="filter4_di_908_33205" x="7.41333" y="45.7241" width="13" height="14.0859" filterUnits="userSpaceOnUse" color-interpolation-filters="sRGB">
<feFlood flood-opacity="0" result="BackgroundImageFix"/>
<feColorMatrix in="SourceAlpha" type="matrix" values="0 0 0 0 0 0 0 0 0 0 0 0 0 0 0 0 0 0 127 0" result="hardAlpha"/>
<feOffset dy="1"/>
<feGaussianBlur stdDeviation="1"/>
<feComposite in2="hardAlpha" operator="out"/>
<feColorMatrix type="matrix" values="0 0 0 0 0 0 0 0 0 0 0 0 0 0 0 0 0 0 0.6 0"/>
<feBlend mode="normal" in2="BackgroundImageFix" result="effect1_dropShadow_908_33205"/>
<feBlend mode="normal" in="SourceGraphic" in2="effect1_dropShadow_908_33205" result="shape"/>
<feColorMatrix in="SourceAlpha" type="matrix" values="0 0 0 0 0 0 0 0 0 0 0 0 0 0 0 0 0 0 127 0" result="hardAlpha"/>
<feOffset dy="1"/>
<feGaussianBlur stdDeviation="0.5"/>
<feComposite in2="hardAlpha" operator="arithmetic" k2="-1" k3="1"/>
<feColorMatrix type="matrix" values="0 0 0 0 1 0 0 0 0 1 0 0 0 0 1 0 0 0 0.3 0"/>
<feBlend mode="normal" in2="shape" result="effect2_innerShadow_908_33205"/>
</filter>
<radialGradient id="paint0_radial_908_33205" cx="0" cy="0" r="1" gradientUnits="userSpaceOnUse" gradientTransform="translate(52 104) rotate(-90) scale(104)">
<stop stop-opacity="0"/>
<stop offset="1"/>
</radialGradient>
<linearGradient id="paint1_linear_908_33205" x1="52.0002" y1="35.9999" x2="52.0002" y2="67.9999" gradientUnits="userSpaceOnUse">
<stop/>
<stop offset="1" stop-color="#4E4E4E"/>
</linearGradient>
<linearGradient id="paint2_linear_908_33205" x1="52.0002" y1="35.9999" x2="52.0002" y2="67.9999" gradientUnits="userSpaceOnUse">
<stop/>
<stop offset="1" stop-color="#868686"/>
</linearGradient>
</defs>
</svg>
