<svg viewBox="0 0 92 21" fill="none" xmlns="http://www.w3.org/2000/svg">
<g opacity="0.8" filter="url(#filter0_di_1842_26900)">
<path d="M10.6643 17.44C6.15429 17.44 2.41429 13.81 2.41429 9.256C2.41429 4.768 6.17629 1.072 10.6643 1.072C15.1303 1.072 18.9143 4.812 18.9143 9.256C18.9143 13.788 15.1523 17.44 10.6643 17.44ZM10.6643 16.274C14.4703 16.274 17.5943 13.062 17.5943 9.256C17.5943 5.384 14.4483 2.238 10.6643 2.238C6.79229 2.238 3.73429 5.45 3.73429 9.256C3.73429 13.062 6.85829 16.274 10.6643 16.274ZM10.7743 14.074C8.13429 14.074 5.97829 11.852 5.97829 9.212C5.97829 6.638 8.04629 4.438 10.7523 4.438C12.6663 4.438 14.4923 5.626 15.2403 7.54L12.9083 8.42C12.5563 7.496 11.6763 6.946 10.7963 6.946C9.52029 6.946 8.48629 7.958 8.48629 9.234C8.48629 10.532 9.47629 11.566 10.7303 11.566C11.6983 11.566 12.6003 10.994 12.9523 9.982L15.3283 10.708C14.7343 12.732 12.8203 14.074 10.7743 14.074ZM35.4114 1.446C37.0394 1.446 38.3374 2.59 38.3374 4.592V17H35.1474V4.702L32.5954 14.58C32.1774 16.23 31.3194 17.154 29.8674 17.154C28.3934 17.154 27.5354 16.252 27.0954 14.58L24.5434 4.856V17H21.3534V4.592C21.3534 2.59 22.6734 1.446 24.2794 1.446C25.8194 1.446 26.8534 2.37 27.3374 4.35L29.8454 13.898L32.2874 4.35C32.7494 2.458 33.8494 1.446 35.4114 1.446ZM49.8504 17H41.2704V1.6H49.8504V4.702H44.6804V7.65H49.4764V10.708H44.6804V13.898H49.8504V17ZM59.5335 17.264C54.9795 17.264 51.3495 13.7 51.3495 9.3C51.3495 4.9 55.0015 1.336 59.5335 1.336C64.0655 1.336 67.7175 4.966 67.7175 9.3C67.7175 13.7 64.0875 17.264 59.5335 17.264ZM59.5335 13.986C62.1515 13.986 64.0215 11.918 64.0215 9.3C64.0215 6.682 62.1295 4.614 59.5335 4.614C56.9155 4.614 55.0455 6.682 55.0455 9.3C55.0455 11.918 56.9155 13.986 59.5335 13.986ZM83.4479 13.304L85.8459 1.6H89.1239L86.4399 14.052C85.9999 16.164 85.1199 17.154 83.4479 17.154C81.6879 17.154 80.8959 16.054 80.5219 14.074L78.8059 5.582L77.0679 14.074C76.6939 16.054 75.9019 17.154 74.1419 17.154C72.4699 17.154 71.5899 16.164 71.1499 14.052L68.4439 1.6H71.9199L74.3399 13.304L76.1879 4.196C76.5179 2.524 77.3539 1.468 78.8719 1.468C80.3899 1.468 81.2479 2.524 81.5779 4.196L83.4479 13.304Z" fill="#3D3D3D" fill-opacity="0.3" shape-rendering="crispEdges"/>
</g>
<defs>
<filter id="filter0_di_1842_26900" x="0.414062" y="0.071991" width="90.71" height="20.368" filterUnits="userSpaceOnUse" color-interpolation-filters="sRGB">
<feFlood flood-opacity="0" result="BackgroundImageFix"/>
<feColorMatrix in="SourceAlpha" type="matrix" values="0 0 0 0 0 0 0 0 0 0 0 0 0 0 0 0 0 0 127 0" result="hardAlpha"/>
<feOffset dy="1"/>
<feGaussianBlur stdDeviation="1"/>
<feComposite in2="hardAlpha" operator="out"/>
<feColorMatrix type="matrix" values="0 0 0 0 0 0 0 0 0 0 0 0 0 0 0 0 0 0 0.4 0"/>
<feBlend mode="normal" in2="BackgroundImageFix" result="effect1_dropShadow_1842_26900"/>
<feBlend mode="normal" in="SourceGraphic" in2="effect1_dropShadow_1842_26900" result="shape"/>
<feColorMatrix in="SourceAlpha" type="matrix" values="0 0 0 0 0 0 0 0 0 0 0 0 0 0 0 0 0 0 127 0" result="hardAlpha"/>
<feOffset dy="1"/>
<feGaussianBlur stdDeviation="0.5"/>
<feComposite in2="hardAlpha" operator="arithmetic" k2="-1" k3="1"/>
<feColorMatrix type="matrix" values="0 0 0 0 1 0 0 0 0 1 0 0 0 0 1 0 0 0 0.2 0"/>
<feBlend mode="normal" in2="shape" result="effect2_innerShadow_1842_26900"/>
</filter>
</defs>
</svg>
