<svg width="108" height="17" viewBox="0 0 108 17" fill="none" xmlns="http://www.w3.org/2000/svg">
<g opacity="0.8" filter="url(#filter0_di_908_34005)">
<path d="M8.14931 13.32C4.86931 13.32 2.14931 10.68 2.14931 7.368C2.14931 4.104 4.88531 1.416 8.14931 1.416C11.3973 1.416 14.1493 4.136 14.1493 7.368C14.1493 10.664 11.4133 13.32 8.14931 13.32ZM8.14931 12.472C10.9173 12.472 13.1893 10.136 13.1893 7.368C13.1893 4.552 10.9013 2.264 8.14931 2.264C5.33331 2.264 3.10931 4.6 3.10931 7.368C3.10931 10.136 5.38131 12.472 8.14931 12.472ZM8.22931 10.872C6.30931 10.872 4.74131 9.256 4.74131 7.336C4.74131 5.464 6.24531 3.864 8.21331 3.864C9.60531 3.864 10.9333 4.728 11.4773 6.12L9.78131 6.76C9.52531 6.088 8.88531 5.688 8.24531 5.688C7.31731 5.688 6.56531 6.424 6.56531 7.352C6.56531 8.296 7.28531 9.048 8.19731 9.048C8.90131 9.048 9.55731 8.632 9.81331 7.896L11.5413 8.424C11.1093 9.896 9.71731 10.872 8.22931 10.872ZM26.1472 1.688C27.3312 1.688 28.2752 2.52 28.2752 3.976V13H25.9552V4.056L24.0992 11.24C23.7952 12.44 23.1712 13.112 22.1152 13.112C21.0432 13.112 20.4192 12.456 20.0992 11.24L18.2432 4.168V13H15.9232V3.976C15.9232 2.52 16.8832 1.688 18.0512 1.688C19.1712 1.688 19.9232 2.36 20.2752 3.8L22.0992 10.744L23.8752 3.8C24.2112 2.424 25.0112 1.688 26.1472 1.688ZM36.6483 13H30.4083V1.8H36.6483V4.056H32.8883V6.2H36.3763V8.424H32.8883V10.744H36.6483V13ZM43.6906 13.192C40.3786 13.192 37.7386 10.6 37.7386 7.4C37.7386 4.2 40.3946 1.608 43.6906 1.608C46.9866 1.608 49.6426 4.248 49.6426 7.4C49.6426 10.6 47.0026 13.192 43.6906 13.192ZM43.6906 10.808C45.5946 10.808 46.9546 9.304 46.9546 7.4C46.9546 5.496 45.5786 3.992 43.6906 3.992C41.7866 3.992 40.4266 5.496 40.4266 7.4C40.4266 9.304 41.7866 10.808 43.6906 10.808ZM61.0828 10.312L62.8268 1.8H65.2108L63.2588 10.856C62.9388 12.392 62.2988 13.112 61.0828 13.112C59.8028 13.112 59.2268 12.312 58.9548 10.872L57.7068 4.696L56.4428 10.872C56.1708 12.312 55.5948 13.112 54.3148 13.112C53.0988 13.112 52.4588 12.392 52.1388 10.856L50.1708 1.8H52.6988L54.4588 10.312L55.8028 3.688C56.0428 2.472 56.6508 1.704 57.7548 1.704C58.8588 1.704 59.4828 2.472 59.7228 3.688L61.0828 10.312ZM75.7542 7.864L73.0502 10.744H77.2902V13H71.5462C70.4422 13 69.8502 12.472 69.8502 11.688C69.8502 11.192 69.9302 10.872 70.6822 10.056L73.8342 6.568C74.3782 5.96 74.6822 5.576 74.6822 4.984C74.6822 4.328 74.1862 3.832 73.4662 3.832C72.8262 3.832 72.2662 4.28 72.2662 5.048C72.2662 5.24 72.2982 5.352 72.3462 5.496L70.0582 6.152C69.9462 5.832 69.8662 5.464 69.8662 5.096C69.8662 2.968 71.4022 1.608 73.4982 1.608C75.6742 1.608 77.2102 2.936 77.2102 4.904C77.2102 5.96 76.7942 6.744 75.7542 7.864ZM82.6969 13.192C80.5689 13.192 78.7609 11.672 78.7609 9.304V5.48C78.7609 3.128 80.5689 1.592 82.6969 1.592C84.8409 1.592 86.6329 3.128 86.6329 5.48V9.304C86.6329 11.672 84.8409 13.192 82.6969 13.192ZM82.6969 10.888C83.5289 10.888 84.1529 10.264 84.1529 9.352V5.448C84.1529 4.536 83.5289 3.896 82.6969 3.896C81.8649 3.896 81.2409 4.536 81.2409 5.448V9.352C81.2409 10.248 81.8649 10.888 82.6969 10.888ZM93.9417 7.864L91.2377 10.744H95.4777V13H89.7337C88.6297 13 88.0377 12.472 88.0377 11.688C88.0377 11.192 88.1177 10.872 88.8697 10.056L92.0217 6.568C92.5657 5.96 92.8697 5.576 92.8697 4.984C92.8697 4.328 92.3737 3.832 91.6537 3.832C91.0137 3.832 90.4537 4.28 90.4537 5.048C90.4537 5.24 90.4857 5.352 90.5337 5.496L88.2457 6.152C88.1337 5.832 88.0537 5.464 88.0537 5.096C88.0537 2.968 89.5897 1.608 91.6857 1.608C93.8617 1.608 95.3977 2.936 95.3977 4.904C95.3977 5.96 94.9817 6.744 93.9417 7.864ZM103.606 1.8V8.744H105.206L104.79 10.904H103.606V13H101.254V10.904H97.8456C96.9816 10.904 96.2456 10.36 96.2456 9.4C96.2456 9.048 96.2776 8.6 96.6456 8.104L101.11 1.8H103.606ZM101.318 4.84L98.6936 8.744H101.318V4.84Z" fill="#3D3D3D" fill-opacity="0.3" shape-rendering="crispEdges"/>
</g>
<defs>
<filter id="filter0_di_908_34005" x="0.149292" y="0.415999" width="107.056" height="15.904" filterUnits="userSpaceOnUse" color-interpolation-filters="sRGB">
<feFlood flood-opacity="0" result="BackgroundImageFix"/>
<feColorMatrix in="SourceAlpha" type="matrix" values="0 0 0 0 0 0 0 0 0 0 0 0 0 0 0 0 0 0 127 0" result="hardAlpha"/>
<feOffset dy="1"/>
<feGaussianBlur stdDeviation="1"/>
<feComposite in2="hardAlpha" operator="out"/>
<feColorMatrix type="matrix" values="0 0 0 0 0 0 0 0 0 0 0 0 0 0 0 0 0 0 0.4 0"/>
<feBlend mode="normal" in2="BackgroundImageFix" result="effect1_dropShadow_908_34005"/>
<feBlend mode="normal" in="SourceGraphic" in2="effect1_dropShadow_908_34005" result="shape"/>
<feColorMatrix in="SourceAlpha" type="matrix" values="0 0 0 0 0 0 0 0 0 0 0 0 0 0 0 0 0 0 127 0" result="hardAlpha"/>
<feOffset dy="1"/>
<feGaussianBlur stdDeviation="0.5"/>
<feComposite in2="hardAlpha" operator="arithmetic" k2="-1" k3="1"/>
<feColorMatrix type="matrix" values="0 0 0 0 1 0 0 0 0 1 0 0 0 0 1 0 0 0 0.2 0"/>
<feBlend mode="normal" in2="shape" result="effect2_innerShadow_908_34005"/>
</filter>
</defs>
</svg>
