<svg width="976" height="200" viewBox="0 0 976 200" fill="none" xmlns="http://www.w3.org/2000/svg">
<path d="M12 -451.5H964C970.351 -451.5 975.5 -446.351 975.5 -440V143.661C975.5 150.012 970.351 155.161 964 155.161H798.699C793.946 155.161 789.604 157.857 787.496 162.117L772.163 193.101C770.223 197.02 766.228 199.5 761.856 199.5H214.144C209.772 199.5 205.777 197.02 203.837 193.101L188.504 162.117C186.396 157.857 182.054 155.161 177.301 155.161H12C5.64873 155.161 0.5 150.012 0.5 143.661V-440C0.5 -446.351 5.64872 -451.5 12 -451.5Z" fill="black" stroke="black"/>
</svg>
