<svg width="976" height="657" viewBox="0 0 976 657" fill="none" xmlns="http://www.w3.org/2000/svg">
<path d="M0.5 12C0.5 5.64874 5.64873 0.5 12 0.5H964C970.351 0.5 975.5 5.64872 975.5 12V600.321C975.5 606.672 970.351 611.821 964 611.821H798.725C793.958 611.821 789.606 614.532 787.505 618.811L772.153 650.07C770.219 654.006 766.216 656.5 761.83 656.5H214.17C209.784 656.5 205.78 654.006 203.847 650.07L188.495 618.811C186.394 614.532 182.042 611.821 177.275 611.821H12C5.64873 611.821 0.5 606.672 0.5 600.321V12Z" fill="black" stroke="black"/>
</svg>
