<svg width="1680" height="200" viewBox="0 0 1680 200" fill="none" xmlns="http://www.w3.org/2000/svg">
<path d="M12 -650.5H1668C1674.35 -650.5 1679.5 -645.351 1679.5 -639V130.128C1679.5 136.479 1674.35 141.628 1668 141.628H1505.01C1499.96 141.628 1495.4 144.671 1493.47 149.34L1475.61 192.405C1473.83 196.7 1469.64 199.5 1464.99 199.5H215.015C210.365 199.5 206.173 196.7 204.392 192.405L186.532 149.34C184.596 144.671 180.039 141.628 174.986 141.628H12C5.64872 141.628 0.5 136.479 0.5 130.128V-639C0.5 -645.351 5.64872 -650.5 12 -650.5Z" fill="black" stroke="black"/>
</svg>
