<svg width="1392" height="200" viewBox="0 0 1392 200" fill="none" xmlns="http://www.w3.org/2000/svg">
<path d="M12 -699.5H1380C1386.35 -699.5 1391.5 -694.351 1391.5 -688V126.796C1391.5 133.147 1386.35 138.296 1380 138.296H1217.09C1211.67 138.296 1206.88 141.783 1205.2 146.933L1190.7 191.554C1189.16 196.292 1184.75 199.5 1179.77 199.5H212.233C207.251 199.5 202.835 196.292 201.296 191.554L186.798 146.933C185.125 141.783 180.325 138.296 174.91 138.296H12C5.64873 138.296 0.5 133.147 0.5 126.796V-688C0.5 -694.351 5.64872 -699.5 12 -699.5Z" fill="black" stroke="black"/>
</svg>
