<svg width="36" height="36" viewBox="0 0 36 36" fill="none" xmlns="http://www.w3.org/2000/svg">
<mask id="path-1-inside-1_1797_787" fill="white">
<path d="M24.3276 25.0588H20.4556L19.9379 22.8226H15.7761L15.2377 25.0588H11.5728L14.5337 14.0226C15.1756 11.6621 15.9831 10.399 18.0537 10.399C19.9794 10.399 20.9111 11.6414 21.5116 13.9812L24.3276 25.0588ZM17.9295 14.064L16.5422 19.7374H19.2339L17.9295 14.064Z"/>
</mask>
<path d="M24.3276 25.0588H20.4556L19.9379 22.8226H15.7761L15.2377 25.0588H11.5728L14.5337 14.0226C15.1756 11.6621 15.9831 10.399 18.0537 10.399C19.9794 10.399 20.9111 11.6414 21.5116 13.9812L24.3276 25.0588ZM17.9295 14.064L16.5422 19.7374H19.2339L17.9295 14.064Z" fill="url(#paint0_linear_1797_787)"/>
<path d="M24.3276 25.0588V25.5588C24.4819 25.5588 24.6276 25.4876 24.7223 25.3657C24.817 25.2439 24.8502 25.0852 24.8122 24.9356L24.3276 25.0588ZM20.4556 25.0588L19.9685 25.1716C20.0209 25.3983 20.2229 25.5588 20.4556 25.5588V25.0588ZM19.9379 22.8226L20.4251 22.7098C20.3726 22.4831 20.1706 22.3226 19.9379 22.3226V22.8226ZM15.7761 22.8226V22.3226C15.545 22.3226 15.344 22.4809 15.2899 22.7055L15.7761 22.8226ZM15.2377 25.0588V25.5588C15.4688 25.5588 15.6697 25.4005 15.7238 25.1758L15.2377 25.0588ZM11.5728 25.0588L11.0898 24.9292C11.0496 25.0794 11.0814 25.2398 11.176 25.3631C11.2707 25.4865 11.4173 25.5588 11.5728 25.5588V25.0588ZM14.5337 14.0226L14.0512 13.8914L14.0508 13.893L14.5337 14.0226ZM21.5116 13.9812L21.9962 13.858L21.9959 13.8569L21.5116 13.9812ZM17.9295 14.064L18.4168 13.9519C18.3648 13.7261 18.1646 13.5656 17.9329 13.564C17.7012 13.5624 17.4988 13.7202 17.4438 13.9452L17.9295 14.064ZM16.5422 19.7374L16.0565 19.6186C16.02 19.7678 16.0541 19.9254 16.1489 20.0461C16.2437 20.1669 16.3887 20.2374 16.5422 20.2374V19.7374ZM19.2339 19.7374V20.2374C19.3862 20.2374 19.5302 20.168 19.6251 20.0488C19.72 19.9297 19.7554 19.7738 19.7212 19.6254L19.2339 19.7374ZM24.3276 24.5588H20.4556V25.5588H24.3276V24.5588ZM20.9427 24.946L20.4251 22.7098L19.4508 22.9353L19.9685 25.1716L20.9427 24.946ZM19.9379 22.3226H15.7761V23.3226H19.9379V22.3226ZM15.2899 22.7055L14.7516 24.9418L15.7238 25.1758L16.2622 22.9396L15.2899 22.7055ZM15.2377 24.5588H11.5728V25.5588H15.2377V24.5588ZM12.0557 25.1884L15.0166 14.1521L14.0508 13.893L11.0898 24.9292L12.0557 25.1884ZM15.0162 14.1538C15.3338 12.9856 15.6725 12.1763 16.1323 11.6571C16.5633 11.1704 17.1372 10.899 18.0537 10.899V9.89904C16.8996 9.89904 16.0345 10.2592 15.3836 10.9941C14.7615 11.6966 14.3754 12.6991 14.0512 13.8914L15.0162 14.1538ZM18.0537 10.899C18.892 10.899 19.4662 11.1617 19.9098 11.6492C20.376 12.1616 20.7339 12.9621 21.0273 14.1055L21.9959 13.8569C21.6888 12.6604 21.2805 11.6698 20.6494 10.9762C19.9956 10.2576 19.1411 9.89904 18.0537 9.89904V10.899ZM21.027 14.1043L23.843 25.182L24.8122 24.9356L21.9962 13.858L21.027 14.1043ZM17.4438 13.9452L16.0565 19.6186L17.0279 19.8562L18.4152 14.1827L17.4438 13.9452ZM16.5422 20.2374H19.2339V19.2374H16.5422V20.2374ZM19.7212 19.6254L18.4168 13.9519L17.4422 14.176L18.7467 19.8494L19.7212 19.6254Z" fill="url(#paint1_linear_1797_787)" fill-opacity="0.6" mask="url(#path-1-inside-1_1797_787)"/>
<defs>
<linearGradient id="paint0_linear_1797_787" x1="18" y1="11.0588" x2="18" y2="25.0588" gradientUnits="userSpaceOnUse">
<stop stop-color="#EDEDED"/>
<stop offset="0.484375" stop-color="#AE94D4"/>
<stop offset="0.484475" stop-color="#450F96"/>
<stop offset="1" stop-color="#6600FE"/>
</linearGradient>
<linearGradient id="paint1_linear_1797_787" x1="18" y1="11.0588" x2="18" y2="25.0588" gradientUnits="userSpaceOnUse">
<stop stop-color="#6600FE"/>
<stop offset="0.515525" stop-color="#5613BA"/>
<stop offset="0.515625" stop-color="#AE94D4"/>
<stop offset="1" stop-color="#EDEDED"/>
</linearGradient>
</defs>
</svg>
