<svg width="36" height="36" viewBox="0 0 36 36" fill="none" xmlns="http://www.w3.org/2000/svg">
<mask id="path-1-inside-1_2024_2341" fill="white">
<path d="M24.3276 25.0588H20.4556L19.9379 22.8226H15.7761L15.2377 25.0588H11.5728L14.5337 14.0226C15.1756 11.6621 15.9831 10.399 18.0537 10.399C19.9794 10.399 20.9111 11.6414 21.5116 13.9812L24.3276 25.0588ZM17.9295 14.064L16.5422 19.7374H19.2339L17.9295 14.064Z"/>
</mask>
<path d="M24.3276 25.0588H20.4556L19.9379 22.8226H15.7761L15.2377 25.0588H11.5728L14.5337 14.0226C15.1756 11.6621 15.9831 10.399 18.0537 10.399C19.9794 10.399 20.9111 11.6414 21.5116 13.9812L24.3276 25.0588ZM17.9295 14.064L16.5422 19.7374H19.2339L17.9295 14.064Z" fill="url(#paint0_linear_2024_2341)"/>
<path d="M24.3276 25.0588V25.5294C24.4728 25.5294 24.6099 25.4623 24.6991 25.3477C24.7882 25.233 24.8195 25.0836 24.7837 24.9429L24.3276 25.0588ZM20.4556 25.0588L19.9971 25.1649C20.0465 25.3783 20.2366 25.5294 20.4556 25.5294V25.0588ZM19.9379 22.8226L20.3964 22.7164C20.347 22.5031 20.157 22.352 19.9379 22.352V22.8226ZM15.7761 22.8226V22.352C15.5586 22.352 15.3694 22.501 15.3185 22.7124L15.7761 22.8226ZM15.2377 25.0588V25.5294C15.4552 25.5294 15.6443 25.3804 15.6952 25.169L15.2377 25.0588ZM11.5728 25.0588L11.1183 24.9369C11.0803 25.0782 11.1103 25.2291 11.1994 25.3452C11.2884 25.4613 11.4264 25.5294 11.5728 25.5294V25.0588ZM14.5337 14.0226L14.0796 13.8991L14.0792 13.9006L14.5337 14.0226ZM21.5116 13.9812L21.9677 13.8652L21.9674 13.8642L21.5116 13.9812ZM17.9295 14.064L18.3881 13.9585C18.3392 13.746 18.1508 13.5949 17.9327 13.5934C17.7147 13.5919 17.5241 13.7404 17.4724 13.9522L17.9295 14.064ZM16.5422 19.7374L16.0851 19.6256C16.0507 19.766 16.0828 19.9143 16.172 20.028C16.2612 20.1416 16.3977 20.208 16.5422 20.208V19.7374ZM19.2339 19.7374V20.208C19.3773 20.208 19.5128 20.1426 19.6021 20.0305C19.6914 19.9184 19.7247 19.7716 19.6926 19.6319L19.2339 19.7374ZM24.3276 24.5882H20.4556V25.5294H24.3276V24.5882ZM20.9141 24.9527L20.3964 22.7164L19.4795 22.9287L19.9971 25.1649L20.9141 24.9527ZM19.9379 22.352H15.7761V23.2932H19.9379V22.352ZM15.3185 22.7124L14.7802 24.9487L15.6952 25.169L16.2336 22.9327L15.3185 22.7124ZM15.2377 24.5882H11.5728V25.5294H15.2377V24.5882ZM12.0273 25.1807L14.9882 14.1445L14.0792 13.9006L11.1183 24.9369L12.0273 25.1807ZM14.9878 14.1461C15.3057 12.9772 15.6457 12.1622 16.1102 11.6376C16.5477 11.1436 17.1302 10.8696 18.0537 10.8696V9.92845C16.9066 9.92845 16.0501 10.286 15.4056 11.0136C14.7883 11.7107 14.4036 12.7075 14.0796 13.8991L14.9878 14.1461ZM18.0537 10.8696C18.8993 10.8696 19.4818 11.1351 19.9315 11.6294C20.4026 12.1472 20.762 12.9532 21.0558 14.0981L21.9674 13.8642C21.6608 12.6693 21.2539 11.6843 20.6277 10.996C19.98 10.2842 19.1338 9.92845 18.0537 9.92845V10.8696ZM21.0555 14.0971L23.8715 25.1747L24.7837 24.9429L21.9677 13.8652L21.0555 14.0971ZM17.4724 13.9522L16.0851 19.6256L16.9993 19.8492L18.3866 14.1758L17.4724 13.9522ZM16.5422 20.208H19.2339V19.2668H16.5422V20.208ZM19.6926 19.6319L18.3881 13.9585L17.4708 14.1694L18.7753 19.8428L19.6926 19.6319Z" fill="url(#paint1_linear_2024_2341)" fill-opacity="0.6" mask="url(#path-1-inside-1_2024_2341)"/>
<defs>
<linearGradient id="paint0_linear_2024_2341" x1="18" y1="11.0588" x2="18" y2="25.0588" gradientUnits="userSpaceOnUse">
<stop stop-color="#EDEDED"/>
<stop offset="0.484375" stop-color="#B8C3E0"/>
<stop offset="0.484475" stop-color="#0048FF"/>
<stop offset="1" stop-color="#8FAEFF"/>
</linearGradient>
<linearGradient id="paint1_linear_2024_2341" x1="18" y1="11.0588" x2="18" y2="25.0588" gradientUnits="userSpaceOnUse">
<stop stop-color="#8FAEFF"/>
<stop offset="0.515525" stop-color="#0048FF"/>
<stop offset="0.515625" stop-color="#B8C3E0"/>
<stop offset="1" stop-color="#EDEDED"/>
</linearGradient>
</defs>
</svg>
