<svg width="36" height="36" viewBox="0 0 36 36" fill="none" xmlns="http://www.w3.org/2000/svg">
<path fill-rule="evenodd" clip-rule="evenodd" d="M11.6495 17.2H14.0186C14.1011 15.4368 14.4544 13.8255 15.0062 12.5839C15.0544 12.4754 15.1045 12.369 15.1565 12.2648C13.2759 13.199 11.92 15.031 11.6495 17.2ZM18 10C13.5817 10 10 13.5817 10 18C10 22.4183 13.5817 26 18 26C22.4183 26 26 22.4183 26 18C26 13.5817 22.4183 10 18 10ZM18 11.6C17.8185 11.6 17.5853 11.6794 17.3059 11.9453C17.0224 12.2151 16.7307 12.6434 16.4683 13.2337C16.0191 14.2444 15.7019 15.6268 15.6205 17.2H20.3795C20.2981 15.6268 19.9809 14.2444 19.5317 13.2337C19.2693 12.6434 18.9776 12.2151 18.6941 11.9453C18.4147 11.6794 18.1815 11.6 18 11.6ZM21.9814 17.2C21.8989 15.4368 21.5456 13.8255 20.9938 12.5839C20.9456 12.4754 20.8955 12.369 20.8435 12.2648C22.7241 13.199 24.08 15.031 24.3505 17.2H21.9814ZM20.3795 18.8H15.6205C15.7019 20.3732 16.0191 21.7556 16.4683 22.7663C16.7307 23.3566 17.0224 23.7849 17.3059 24.0547C17.5853 24.3206 17.8185 24.4 18 24.4C18.1815 24.4 18.4147 24.3206 18.6941 24.0547C18.9776 23.7849 19.2693 23.3566 19.5317 22.7663C19.9809 21.7556 20.2981 20.3732 20.3795 18.8ZM20.8435 23.7352C20.8955 23.631 20.9456 23.5246 20.9938 23.4161C21.5456 22.1745 21.8989 20.5632 21.9814 18.8H24.3505C24.08 20.969 22.7241 22.801 20.8435 23.7352ZM15.1565 23.7352C15.1045 23.631 15.0544 23.5246 15.0062 23.4161C14.4544 22.1745 14.1011 20.5632 14.0186 18.8H11.6495C11.92 20.969 13.2759 22.801 15.1565 23.7352Z" fill="url(#paint0_linear_2454_1744)"/>
<path d="M11.416 17.1709C11.4077 17.2378 11.4285 17.3052 11.4731 17.3557C11.5178 17.4063 11.582 17.4353 11.6495 17.4353H14.0186C14.1443 17.4353 14.2478 17.3365 14.2537 17.211C14.3351 15.4701 14.6838 13.8888 15.2212 12.6795C15.2681 12.5741 15.3167 12.4708 15.367 12.3698C15.4122 12.2794 15.3945 12.1701 15.323 12.0986C15.2516 12.027 15.1424 12.0091 15.0518 12.0541C13.1025 13.0224 11.6965 14.9214 11.416 17.1709ZM15.3856 17.1878C15.3822 17.2523 15.4055 17.3152 15.4499 17.362C15.4943 17.4088 15.556 17.4353 15.6205 17.4353H20.3795C20.444 17.4353 20.5057 17.4088 20.5501 17.362C20.5945 17.3152 20.6178 17.2523 20.6144 17.1878C20.532 15.5927 20.2101 14.1808 19.7467 13.1382C19.4763 12.5298 19.169 12.0725 18.8563 11.7749C18.5459 11.4795 18.2575 11.3647 18 11.3647C17.7425 11.3647 17.4541 11.4795 17.1437 11.7749C16.831 12.0725 16.5237 12.5298 16.2533 13.1382C15.7899 14.1808 15.468 15.5927 15.3856 17.1878ZM21.7463 17.211C21.7522 17.3365 21.8557 17.4353 21.9814 17.4353H24.3505C24.418 17.4353 24.4822 17.4063 24.5269 17.3557C24.5715 17.3052 24.5923 17.2378 24.584 17.1709C24.3035 14.9214 22.8975 13.0224 20.9482 12.0541C20.8576 12.0091 20.7484 12.027 20.677 12.0986C20.6055 12.1701 20.5878 12.2794 20.633 12.3698C20.6833 12.4708 20.7319 12.5741 20.7788 12.6795C21.3162 13.8888 21.6649 15.4701 21.7463 17.211ZM20.6144 18.8122C20.6178 18.7477 20.5945 18.6848 20.5501 18.638C20.5057 18.5912 20.444 18.5647 20.3795 18.5647H15.6205C15.556 18.5647 15.4943 18.5912 15.4499 18.638C15.4055 18.6848 15.3822 18.7477 15.3856 18.8122C15.468 20.4073 15.7899 21.8192 16.2533 22.8618C16.5237 23.4702 16.831 23.9275 17.1437 24.2251C17.4541 24.5205 17.7425 24.6353 18 24.6353C18.2575 24.6353 18.5459 24.5205 18.8563 24.2251C19.169 23.9275 19.4763 23.4702 19.7467 22.8618C20.2101 21.8192 20.532 20.4073 20.6144 18.8122ZM20.633 23.6302C20.5878 23.7206 20.6055 23.8299 20.677 23.9014C20.7484 23.973 20.8576 23.9909 20.9482 23.9459C22.8975 22.9776 24.3035 21.0786 24.584 18.8291C24.5923 18.7622 24.5715 18.6948 24.5269 18.6443C24.4822 18.5937 24.418 18.5647 24.3505 18.5647H21.9814C21.8557 18.5647 21.7522 18.6635 21.7463 18.789C21.6649 20.5299 21.3162 22.1112 20.7788 23.3205C20.7319 23.4259 20.6833 23.5292 20.633 23.6302ZM15.0518 23.9459C15.1424 23.9909 15.2516 23.973 15.323 23.9014C15.3945 23.8299 15.4122 23.7206 15.367 23.6302C15.3167 23.5292 15.2681 23.4259 15.2212 23.3205C14.6838 22.1112 14.3351 20.5299 14.2537 18.789C14.2478 18.6635 14.1443 18.5647 14.0186 18.5647H11.6495C11.582 18.5647 11.5178 18.5937 11.4731 18.6443C11.4285 18.6948 11.4077 18.7622 11.416 18.8291C11.6965 21.0786 13.1025 22.9776 15.0518 23.9459ZM10.2353 18C10.2353 13.7117 13.7117 10.2353 18 10.2353C22.2883 10.2353 25.7647 13.7117 25.7647 18C25.7647 22.2883 22.2883 25.7647 18 25.7647C13.7117 25.7647 10.2353 22.2883 10.2353 18Z" stroke="url(#paint1_linear_2454_1744)" stroke-opacity="0.6" stroke-width="0.470588" stroke-linejoin="round"/>
<defs>
<linearGradient id="paint0_linear_2454_1744" x1="18" y1="10" x2="18" y2="26" gradientUnits="userSpaceOnUse">
<stop stop-color="#EDEDED"/>
<stop offset="0.484375" stop-color="#D8B8E0"/>
<stop offset="0.484475" stop-color="#DA47FF"/>
<stop offset="1" stop-color="#F2C2FF"/>
</linearGradient>
<linearGradient id="paint1_linear_2454_1744" x1="18" y1="10" x2="18" y2="26" gradientUnits="userSpaceOnUse">
<stop stop-color="#F2C2FF"/>
<stop offset="0.515525" stop-color="#DA47FF"/>
<stop offset="0.515625" stop-color="#D8B8E0"/>
<stop offset="1" stop-color="#EDEDED"/>
</linearGradient>
</defs>
</svg>
