<svg width="36" height="36" viewBox="0 0 36 36" fill="none" xmlns="http://www.w3.org/2000/svg">
<path fill-rule="evenodd" clip-rule="evenodd" d="M11.6495 17.2H14.0186C14.1011 15.4368 14.4544 13.8255 15.0062 12.5839C15.0544 12.4754 15.1045 12.369 15.1565 12.2648C13.2759 13.199 11.92 15.031 11.6495 17.2ZM18 10C13.5817 10 10 13.5817 10 18C10 22.4183 13.5817 26 18 26C22.4183 26 26 22.4183 26 18C26 13.5817 22.4183 10 18 10ZM18 11.6C17.8185 11.6 17.5853 11.6794 17.3059 11.9453C17.0224 12.2151 16.7307 12.6434 16.4683 13.2337C16.0191 14.2444 15.7019 15.6268 15.6205 17.2H20.3795C20.2981 15.6268 19.9809 14.2444 19.5317 13.2337C19.2693 12.6434 18.9776 12.2151 18.6941 11.9453C18.4147 11.6794 18.1815 11.6 18 11.6ZM21.9814 17.2C21.8989 15.4368 21.5456 13.8255 20.9938 12.5839C20.9456 12.4754 20.8955 12.369 20.8435 12.2648C22.7241 13.199 24.08 15.031 24.3505 17.2H21.9814ZM20.3795 18.8H15.6205C15.7019 20.3732 16.0191 21.7556 16.4683 22.7663C16.7307 23.3566 17.0224 23.7849 17.3059 24.0547C17.5853 24.3206 17.8185 24.4 18 24.4C18.1815 24.4 18.4147 24.3206 18.6941 24.0547C18.9776 23.7849 19.2693 23.3566 19.5317 22.7663C19.9809 21.7556 20.2981 20.3732 20.3795 18.8ZM20.8435 23.7352C20.8955 23.631 20.9456 23.5246 20.9938 23.4161C21.5456 22.1745 21.8989 20.5632 21.9814 18.8H24.3505C24.08 20.969 22.7241 22.801 20.8435 23.7352ZM15.1565 23.7352C15.1045 23.631 15.0544 23.5246 15.0062 23.4161C14.4544 22.1745 14.1011 20.5632 14.0186 18.8H11.6495C11.92 20.969 13.2759 22.801 15.1565 23.7352Z" fill="url(#paint0_linear_2454_713)"/>
<path d="M11.5007 17.1814C11.4953 17.2241 11.5086 17.267 11.5371 17.2993C11.5656 17.3315 11.6065 17.35 11.6495 17.35H14.0186C14.0987 17.35 14.1647 17.287 14.1685 17.207C14.2503 15.458 14.6006 13.8658 15.1433 12.6448C15.1906 12.5383 15.2398 12.4339 15.2907 12.3318C15.3195 12.2741 15.3082 12.2044 15.2626 12.1588C15.2171 12.1132 15.1475 12.1018 15.0898 12.1305C13.1654 13.0864 11.7775 14.9611 11.5007 17.1814ZM15.4707 17.1923C15.4686 17.2333 15.4834 17.2735 15.5118 17.3033C15.5401 17.3331 15.5794 17.35 15.6205 17.35H20.3795C20.4206 17.35 20.4599 17.3331 20.4882 17.3033C20.5166 17.2735 20.5314 17.2333 20.5293 17.1923C20.4472 15.6051 20.127 14.2038 19.6688 13.1728C19.4013 12.571 19.0996 12.1242 18.7975 11.8367C18.4984 11.552 18.23 11.45 18 11.45C17.77 11.45 17.5016 11.552 17.2025 11.8367C16.9004 12.1242 16.5987 12.571 16.3312 13.1728C15.873 14.2038 15.5528 15.6051 15.4707 17.1923ZM21.8315 17.207C21.8353 17.287 21.9013 17.35 21.9814 17.35H24.3505C24.3935 17.35 24.4344 17.3315 24.4629 17.2993C24.4914 17.267 24.5047 17.2241 24.4993 17.1814C24.2225 14.9611 22.8346 13.0864 20.9102 12.1305C20.8525 12.1018 20.7829 12.1132 20.7374 12.1588C20.6918 12.2044 20.6805 12.2741 20.7093 12.3318C20.7602 12.4339 20.8094 12.5383 20.8567 12.6448C21.3994 13.8658 21.7497 15.458 21.8315 17.207ZM20.5293 18.8077C20.5314 18.7667 20.5166 18.7265 20.4882 18.6967C20.4599 18.6669 20.4206 18.65 20.3795 18.65H15.6205C15.5794 18.65 15.5401 18.6669 15.5118 18.6967C15.4834 18.7265 15.4686 18.7667 15.4707 18.8077C15.5528 20.3949 15.873 21.7962 16.3312 22.8272C16.5987 23.429 16.9004 23.8758 17.2025 24.1633C17.5016 24.448 17.77 24.55 18 24.55C18.23 24.55 18.4984 24.448 18.7975 24.1633C19.0996 23.8758 19.4013 23.429 19.6688 22.8272C20.127 21.7962 20.4472 20.3949 20.5293 18.8077ZM20.7093 23.6682C20.6805 23.7259 20.6918 23.7956 20.7374 23.8412C20.7829 23.8868 20.8525 23.8982 20.9102 23.8695C22.8346 22.9136 24.2225 21.0389 24.4993 18.8186C24.5047 18.7759 24.4914 18.733 24.4629 18.7007C24.4344 18.6685 24.3935 18.65 24.3505 18.65H21.9814C21.9013 18.65 21.8353 18.713 21.8315 18.793C21.7497 20.542 21.3994 22.1342 20.8567 23.3552C20.8094 23.4617 20.7602 23.5661 20.7093 23.6682ZM15.0898 23.8695C15.1475 23.8982 15.2171 23.8868 15.2627 23.8412C15.3082 23.7956 15.3195 23.7259 15.2907 23.6682C15.2398 23.5661 15.1906 23.4617 15.1433 23.3552C14.6006 22.1342 14.2503 20.542 14.1685 18.793C14.1647 18.713 14.0987 18.65 14.0186 18.65H11.6495C11.6065 18.65 11.5656 18.6685 11.5371 18.7007C11.5086 18.733 11.4953 18.7759 11.5007 18.8186C11.7775 21.0389 13.1654 22.9136 15.0898 23.8695ZM10.15 18C10.15 13.6646 13.6646 10.15 18 10.15C22.3354 10.15 25.85 13.6646 25.85 18C25.85 22.3354 22.3354 25.85 18 25.85C13.6646 25.85 10.15 22.3354 10.15 18Z" stroke="url(#paint1_linear_2454_713)" stroke-opacity="0.6" stroke-width="0.3" stroke-linejoin="round"/>
<defs>
<linearGradient id="paint0_linear_2454_713" x1="18" y1="10" x2="18" y2="26" gradientUnits="userSpaceOnUse">
<stop stop-color="#EDEDED"/>
<stop offset="0.484375" stop-color="#D3E0B8"/>
<stop offset="0.484475" stop-color="#558A01"/>
<stop offset="1" stop-color="#ACFD5A"/>
</linearGradient>
<linearGradient id="paint1_linear_2454_713" x1="18" y1="10" x2="18" y2="26" gradientUnits="userSpaceOnUse">
<stop stop-color="#ACFD5A"/>
<stop offset="0.515525" stop-color="#558A01"/>
<stop offset="0.515625" stop-color="#D3E0B8"/>
<stop offset="1" stop-color="#EDEDED"/>
</linearGradient>
</defs>
</svg>
