<svg width="36" height="36" viewBox="0 0 36 36" fill="none" xmlns="http://www.w3.org/2000/svg">
<mask id="path-1-inside-1_1797_640" fill="white">
<path d="M17.6602 24.6377C15.3826 24.6377 13.6696 23.3953 13.1238 21.1741L16.192 20.2518C16.3802 21.2682 17.0202 21.6635 17.7167 21.6635C18.4132 21.6635 19.1096 21.2118 19.1096 20.2706C19.1096 19.4047 18.4132 18.9153 17.4908 18.9153H16.2673C14.7614 18.9153 13.632 18.2941 13.632 16.6565C13.632 16.3741 13.6696 16.0729 13.7261 15.7529L14.6108 11.2353H21.4249V14.1906H17.039L16.719 15.8659H17.7355C20.4461 15.8659 22.3473 17.6541 22.3473 20.12C22.3473 23.0377 20.1826 24.6377 17.6602 24.6377Z"/>
</mask>
<path d="M17.6602 24.6377C15.3826 24.6377 13.6696 23.3953 13.1238 21.1741L16.192 20.2518C16.3802 21.2682 17.0202 21.6635 17.7167 21.6635C18.4132 21.6635 19.1096 21.2118 19.1096 20.2706C19.1096 19.4047 18.4132 18.9153 17.4908 18.9153H16.2673C14.7614 18.9153 13.632 18.2941 13.632 16.6565C13.632 16.3741 13.6696 16.0729 13.7261 15.7529L14.6108 11.2353H21.4249V14.1906H17.039L16.719 15.8659H17.7355C20.4461 15.8659 22.3473 17.6541 22.3473 20.12C22.3473 23.0377 20.1826 24.6377 17.6602 24.6377Z" fill="url(#paint0_linear_1797_640)"/>
<path d="M13.1238 21.1741L12.9883 20.7235C12.7483 20.7956 12.607 21.0431 12.6668 21.2864L13.1238 21.1741ZM16.192 20.2518L16.6547 20.1661C16.6304 20.0346 16.5512 19.9197 16.4371 19.8501C16.3229 19.7804 16.1846 19.7626 16.0565 19.8011L16.192 20.2518ZM13.7261 15.7529L13.2642 15.6625L13.2627 15.6712L13.7261 15.7529ZM14.6108 11.2353V10.7647C14.3858 10.7647 14.1922 10.924 14.149 11.1449L14.6108 11.2353ZM21.4249 11.2353H21.8955C21.8955 10.9754 21.6848 10.7647 21.4249 10.7647V11.2353ZM21.4249 14.1906V14.6612C21.6848 14.6612 21.8955 14.4505 21.8955 14.1906H21.4249ZM17.039 14.1906V13.72C16.8132 13.72 16.6192 13.8805 16.5768 14.1023L17.039 14.1906ZM16.719 15.8659L16.2568 15.7776C16.2305 15.9154 16.267 16.0577 16.3564 16.1658C16.4458 16.2739 16.5788 16.3365 16.719 16.3365V15.8659ZM17.6602 24.1671C16.6077 24.1671 15.7135 23.8808 15.0257 23.3629C14.3396 22.8463 13.8305 22.0779 13.5807 21.0618L12.6668 21.2864C12.9629 22.4915 13.5832 23.4549 14.4595 24.1148C15.3341 24.7733 16.4351 25.1082 17.6602 25.1082V24.1671ZM13.2592 21.6248L16.3275 20.7024L16.0565 19.8011L12.9883 20.7235L13.2592 21.6248ZM15.7293 20.3375C15.8391 20.9306 16.0911 21.3903 16.4622 21.7001C16.8321 22.0089 17.279 22.1341 17.7167 22.1341V21.193C17.4579 21.193 17.2366 21.1206 17.0653 20.9776C16.8952 20.8356 16.7331 20.5894 16.6547 20.1661L15.7293 20.3375ZM17.7167 22.1341C18.1621 22.1341 18.6263 21.9902 18.9858 21.6728C19.3546 21.3472 19.5802 20.8674 19.5802 20.2706H18.639C18.639 20.615 18.5165 20.8316 18.3629 20.9672C18.2 21.111 17.9678 21.193 17.7167 21.193V22.1341ZM19.5802 20.2706C19.5802 19.698 19.3437 19.2223 18.9394 18.9002C18.5467 18.5874 18.03 18.4447 17.4908 18.4447V19.3859C17.874 19.3859 18.1667 19.4879 18.3529 19.6363C18.5274 19.7753 18.639 19.9773 18.639 20.2706H19.5802ZM17.4908 18.4447H16.2673V19.3859H17.4908V18.4447ZM16.2673 18.4447C15.5678 18.4447 15.027 18.2987 14.6709 18.0262C14.3366 17.7705 14.1026 17.3558 14.1026 16.6565H13.1614C13.1614 17.5948 13.4921 18.3095 14.099 18.7738C14.6841 19.2213 15.4609 19.3859 16.2673 19.3859V18.4447ZM14.1026 16.6565C14.1026 16.4135 14.1352 16.1428 14.1895 15.8347L13.2627 15.6712C13.2041 16.0031 13.1614 16.3348 13.1614 16.6565H14.1026ZM14.1879 15.8434L15.0726 11.3257L14.149 11.1449L13.2643 15.6625L14.1879 15.8434ZM14.6108 11.7059H21.4249V10.7647H14.6108V11.7059ZM20.9543 11.2353V14.1906H21.8955V11.2353H20.9543ZM21.4249 13.72H17.039V14.6612H21.4249V13.72ZM16.5768 14.1023L16.2568 15.7776L17.1813 15.9542L17.5013 14.2789L16.5768 14.1023ZM16.719 16.3365H17.7355V15.3953H16.719V16.3365ZM17.7355 16.3365C20.2201 16.3365 21.8767 17.9466 21.8767 20.12H22.8179C22.8179 17.3616 20.6721 15.3953 17.7355 15.3953V16.3365ZM21.8767 20.12C21.8767 21.4537 21.3863 22.4522 20.6362 23.1219C19.8791 23.7979 18.8246 24.1671 17.6602 24.1671V25.1082C19.0182 25.1082 20.3073 24.6774 21.2631 23.824C22.226 22.9642 22.8179 21.704 22.8179 20.12H21.8767Z" fill="url(#paint1_linear_1797_640)" fill-opacity="0.6" mask="url(#path-1-inside-1_1797_640)"/>
<defs>
<linearGradient id="paint0_linear_1797_640" x1="17.7363" y1="11.4118" x2="17.7363" y2="24.4118" gradientUnits="userSpaceOnUse">
<stop stop-color="#EDEDED"/>
<stop offset="0.484375" stop-color="#D3E0B8"/>
<stop offset="0.484475" stop-color="#558A01"/>
<stop offset="1" stop-color="#ACFD5A"/>
</linearGradient>
<linearGradient id="paint1_linear_1797_640" x1="17.7363" y1="11.4118" x2="17.7363" y2="24.4118" gradientUnits="userSpaceOnUse">
<stop stop-color="#ACFD5A"/>
<stop offset="0.515525" stop-color="#558A01"/>
<stop offset="0.515625" stop-color="#D3E0B8"/>
<stop offset="1" stop-color="#EDEDED"/>
</linearGradient>
</defs>
</svg>
