<svg width="36" height="36" viewBox="0 0 36 36" fill="none" xmlns="http://www.w3.org/2000/svg">
<path d="M15.67 3.60772C16.9895 2.64906 18.7762 2.64906 20.0957 3.60772L30.8869 11.448C32.2064 12.4067 32.7585 14.1059 32.2545 15.6571L28.1326 28.3429C27.6286 29.8941 26.1831 30.9443 24.5522 30.9443H11.2135C9.5825 30.9443 8.13702 29.8941 7.63302 28.3429L3.51114 15.6571C3.00714 14.1059 3.55926 12.4067 4.87875 11.448L15.67 3.60772Z" fill="url(#paint0_linear_1797_640)"/>
<path d="M31.0252 11.2577L20.234 3.41736C18.832 2.39879 16.9336 2.39879 15.5317 3.41736L4.74044 11.2576C3.33849 12.2762 2.75186 14.0817 3.28736 15.7298L7.40924 28.4156C7.94474 30.0637 9.48056 31.1796 11.2135 31.1796H24.5522C26.2851 31.1796 27.8209 30.0637 28.3564 28.4156L32.4783 15.7298C33.0138 14.0817 32.4271 12.2762 31.0252 11.2577Z" stroke="url(#paint1_linear_1797_640)" stroke-opacity="0.6" stroke-width="0.470588" stroke-linejoin="round"/>
<g filter="url(#filter0_i_1797_640)">
<path d="M15.67 6.60772C16.9895 5.64906 18.7762 5.64906 20.0957 6.60772L28.0337 12.3751C29.3532 13.3337 29.9053 15.033 29.4013 16.5841L26.3693 25.9159C25.8653 27.467 24.4198 28.5172 22.7888 28.5172H12.9768C11.3459 28.5172 9.90037 27.467 9.39638 25.9159L6.36431 16.5841C5.86031 15.033 6.41243 13.3337 7.73192 12.3751L15.67 6.60772Z" fill="url(#paint2_linear_1797_640)"/>
<path d="M15.67 6.60772C16.9895 5.64906 18.7762 5.64906 20.0957 6.60772L28.0337 12.3751C29.3532 13.3337 29.9053 15.033 29.4013 16.5841L26.3693 25.9159C25.8653 27.467 24.4198 28.5172 22.7888 28.5172H12.9768C11.3459 28.5172 9.90037 27.467 9.39638 25.9159L6.36431 16.5841C5.86031 15.033 6.41243 13.3337 7.73192 12.3751L15.67 6.60772Z" fill="#1B3300"/>
</g>
<path d="M28.172 12.1847L20.234 6.41736C18.832 5.39879 16.9336 5.39879 15.5317 6.41737L7.59361 12.1847C6.19166 13.2033 5.60503 15.0087 6.14053 16.6568L9.1726 25.9886C9.70809 27.6367 11.2439 28.7525 12.9768 28.7525H22.7888C24.5217 28.7525 26.0575 27.6367 26.593 25.9886L29.6251 16.6568C30.1606 15.0087 29.574 13.2033 28.172 12.1847Z" stroke="white" stroke-opacity="0.2" stroke-width="0.470588" stroke-linejoin="round"/>
<defs>
<filter id="filter0_i_1797_640" x="5.70898" y="5.41814" width="24.3477" height="23.5697" filterUnits="userSpaceOnUse" color-interpolation-filters="sRGB">
<feFlood flood-opacity="0" result="BackgroundImageFix"/>
<feBlend mode="normal" in="SourceGraphic" in2="BackgroundImageFix" result="shape"/>
<feColorMatrix in="SourceAlpha" type="matrix" values="0 0 0 0 0 0 0 0 0 0 0 0 0 0 0 0 0 0 127 0" result="hardAlpha"/>
<feOffset/>
<feGaussianBlur stdDeviation="0.941176"/>
<feComposite in2="hardAlpha" operator="arithmetic" k2="-1" k3="1"/>
<feColorMatrix type="matrix" values="0 0 0 0 0.217505 0 0 0 0 0.260596 0 0 0 0 0 0 0 0 0.7 0"/>
<feBlend mode="normal" in2="shape" result="effect1_innerShadow_1797_640"/>
</filter>
<linearGradient id="paint0_linear_1797_640" x1="17.8828" y1="2" x2="17.8828" y2="34" gradientUnits="userSpaceOnUse">
<stop stop-color="#EDEDED"/>
<stop offset="0.484375" stop-color="#D3E0B8"/>
<stop offset="0.484475" stop-color="#558A01"/>
<stop offset="1" stop-color="#ACFD5A"/>
</linearGradient>
<linearGradient id="paint1_linear_1797_640" x1="17.8828" y1="34" x2="17.8828" y2="2" gradientUnits="userSpaceOnUse">
<stop stop-color="#EDEDED"/>
<stop offset="0.484375" stop-color="#C9D494"/>
<stop offset="0.484475" stop-color="#9EBA13"/>
<stop offset="1" stop-color="#D4FE00"/>
</linearGradient>
<linearGradient id="paint2_linear_1797_640" x1="17.8828" y1="5" x2="17.8828" y2="31" gradientUnits="userSpaceOnUse">
<stop stop-color="#EDEDED"/>
<stop offset="0.484375" stop-color="#D3E0B8"/>
<stop offset="0.484475" stop-color="#558A01"/>
<stop offset="1" stop-color="#ACFD5A"/>
</linearGradient>
</defs>
</svg>
