<svg width="36" height="36" viewBox="0 0 36 36" fill="none" xmlns="http://www.w3.org/2000/svg">
<mask id="path-1-inside-1_1797_705" fill="white">
<path d="M17.6602 24.6377C15.3826 24.6377 13.6696 23.3953 13.1238 21.1741L16.192 20.2518C16.3802 21.2682 17.0202 21.6635 17.7167 21.6635C18.4132 21.6635 19.1096 21.2118 19.1096 20.2706C19.1096 19.4047 18.4132 18.9153 17.4908 18.9153H16.2673C14.7614 18.9153 13.632 18.2941 13.632 16.6565C13.632 16.3741 13.6696 16.0729 13.7261 15.7529L14.6108 11.2353H21.4249V14.1906H17.039L16.719 15.8659H17.7355C20.4461 15.8659 22.3473 17.6541 22.3473 20.12C22.3473 23.0377 20.1826 24.6377 17.6602 24.6377Z"/>
</mask>
<path d="M17.6602 24.6377C15.3826 24.6377 13.6696 23.3953 13.1238 21.1741L16.192 20.2518C16.3802 21.2682 17.0202 21.6635 17.7167 21.6635C18.4132 21.6635 19.1096 21.2118 19.1096 20.2706C19.1096 19.4047 18.4132 18.9153 17.4908 18.9153H16.2673C14.7614 18.9153 13.632 18.2941 13.632 16.6565C13.632 16.3741 13.6696 16.0729 13.7261 15.7529L14.6108 11.2353H21.4249V14.1906H17.039L16.719 15.8659H17.7355C20.4461 15.8659 22.3473 17.6541 22.3473 20.12C22.3473 23.0377 20.1826 24.6377 17.6602 24.6377Z" fill="url(#paint0_linear_1797_705)"/>
<path d="M13.1238 21.1741L12.9798 20.6953C12.7249 20.7719 12.5747 21.0349 12.6382 21.2935L13.1238 21.1741ZM16.192 20.2518L16.6836 20.1607C16.6578 20.021 16.5737 19.8989 16.4524 19.8249C16.3311 19.751 16.1841 19.732 16.048 19.7729L16.192 20.2518ZM13.7261 15.7529L13.2353 15.6568L13.2337 15.6661L13.7261 15.7529ZM14.6108 11.2353V10.7353C14.3717 10.7353 14.1661 10.9046 14.1201 11.1392L14.6108 11.2353ZM21.4249 11.2353H21.9249C21.9249 10.9592 21.7011 10.7353 21.4249 10.7353V11.2353ZM21.4249 14.1906V14.6906C21.7011 14.6906 21.9249 14.4667 21.9249 14.1906H21.4249ZM17.039 14.1906V13.6906C16.7991 13.6906 16.593 13.8611 16.5479 14.0968L17.039 14.1906ZM16.719 15.8659L16.2279 15.7721C16.2 15.9185 16.2388 16.0697 16.3338 16.1846C16.4287 16.2994 16.57 16.3659 16.719 16.3659V15.8659ZM17.6602 24.1377C16.6131 24.1377 15.7253 23.8529 15.0433 23.3394C14.3632 22.8273 13.8576 22.065 13.6093 21.0548L12.6382 21.2935C12.9358 22.5044 13.5596 23.4739 14.4418 24.1383C15.3222 24.8012 16.4297 25.1377 17.6602 25.1377V24.1377ZM13.2677 21.653L16.3359 20.7306L16.048 19.7729L12.9798 20.6953L13.2677 21.653ZM15.7003 20.3428C15.8112 20.9413 16.066 21.4077 16.4433 21.7227C16.8194 22.0366 17.2734 22.1635 17.7167 22.1635V21.1635C17.4635 21.1635 17.2493 21.0928 17.0842 20.955C16.9203 20.8182 16.761 20.5787 16.6836 20.1607L15.7003 20.3428ZM17.7167 22.1635C18.1681 22.1635 18.6396 22.0176 19.0053 21.6948C19.3807 21.3633 19.6096 20.8753 19.6096 20.2706H18.6096C18.6096 20.6071 18.4903 20.8155 18.3434 20.9452C18.1867 21.0835 17.9617 21.1635 17.7167 21.1635V22.1635ZM19.6096 20.2706C19.6096 19.6893 19.3692 19.205 18.9577 18.8772C18.5586 18.5592 18.0348 18.4153 17.4908 18.4153V19.4153C17.8692 19.4153 18.1548 19.5161 18.3345 19.6593C18.5019 19.7926 18.6096 19.986 18.6096 20.2706H19.6096ZM17.4908 18.4153H16.2673V19.4153H17.4908V18.4153ZM16.2673 18.4153C15.5711 18.4153 15.0377 18.2698 14.6887 18.0029C14.363 17.7537 14.132 17.3483 14.132 16.6565H13.132C13.132 17.6023 13.4657 18.3263 14.0811 18.7971C14.6733 19.2502 15.4576 19.4153 16.2673 19.4153V18.4153ZM14.132 16.6565C14.132 16.4159 14.1643 16.1471 14.2185 15.8398L13.2337 15.6661C13.175 15.9987 13.132 16.3323 13.132 16.6565H14.132ZM14.2168 15.849L15.1015 11.3314L14.1201 11.1392L13.2354 15.6569L14.2168 15.849ZM14.6108 11.7353H21.4249V10.7353H14.6108V11.7353ZM20.9249 11.2353V14.1906H21.9249V11.2353H20.9249ZM21.4249 13.6906H17.039V14.6906H21.4249V13.6906ZM16.5479 14.0968L16.2279 15.7721L17.2102 15.9597L17.5302 14.2844L16.5479 14.0968ZM16.719 16.3659H17.7355V15.3659H16.719V16.3659ZM17.7355 16.3659C20.2059 16.3659 21.8473 17.9649 21.8473 20.12H22.8473C22.8473 17.3433 20.6863 15.3659 17.7355 15.3659V16.3659ZM21.8473 20.12C21.8473 21.4458 21.36 22.4362 20.6166 23.1C19.8657 23.7705 18.8186 24.1377 17.6602 24.1377V25.1377C19.0242 25.1377 20.3206 24.7049 21.2826 23.8459C22.2522 22.9802 22.8473 21.7118 22.8473 20.12H21.8473Z" fill="url(#paint1_linear_1797_705)" fill-opacity="0.5" mask="url(#path-1-inside-1_1797_705)"/>
<defs>
<linearGradient id="paint0_linear_1797_705" x1="17.7363" y1="11.4118" x2="17.7363" y2="24.4118" gradientUnits="userSpaceOnUse">
<stop stop-color="#ECECEC"/>
<stop offset="0.484375" stop-color="#A1A1A1"/>
<stop offset="0.484475" stop-color="#333333"/>
<stop offset="1" stop-color="#969696"/>
</linearGradient>
<linearGradient id="paint1_linear_1797_705" x1="17.7363" y1="11.4118" x2="17.7363" y2="24.4118" gradientUnits="userSpaceOnUse">
<stop offset="0.166667" stop-color="white"/>
<stop offset="0.494792" stop-color="#D2D2D2"/>
<stop offset="0.734375"/>
<stop offset="0.927083" stop-color="#E4E4E4"/>
</linearGradient>
</defs>
</svg>
