<svg width="36" height="36" viewBox="0 0 36 36" fill="none" xmlns="http://www.w3.org/2000/svg">
<path d="M15.5317 3.7082C16.9336 2.68963 18.832 2.68963 20.234 3.7082L30.7486 11.3475C32.1505 12.3661 32.7372 14.1716 32.2017 15.8197L28.1854 28.1803C27.6499 29.8284 26.1141 30.9443 24.3812 30.9443H11.3844C9.65151 30.9443 8.11569 29.8284 7.58019 28.1803L3.56396 15.8197C3.02847 14.1716 3.6151 12.3661 5.01705 11.3475L15.5317 3.7082Z" fill="url(#paint0_linear_1797_777)"/>
<g filter="url(#filter0_i_1797_777)">
<path d="M15.5317 6.7082C16.9336 5.68963 18.832 5.68963 20.234 6.7082L27.8954 12.2746C29.2974 13.2931 29.884 15.0986 29.3485 16.7467L26.4221 25.7533C25.8866 27.4014 24.3508 28.5172 22.6179 28.5172H13.1478C11.4149 28.5172 9.87905 27.4014 9.34355 25.7533L6.41713 16.7467C5.88164 15.0986 6.46827 13.2932 7.87022 12.2746L15.5317 6.7082Z" fill="#18003D"/>
</g>
<path d="M20.3809 6.50595C18.8913 5.42371 16.8743 5.42371 15.3847 6.50595L7.72327 12.0723C6.2337 13.1546 5.6104 15.0729 6.17937 16.824L9.10578 25.8305C9.67475 27.5816 11.3066 28.7672 13.1478 28.7672H22.6179C24.4591 28.7672 26.0909 27.5816 26.6598 25.8305L29.5863 16.824C30.1552 15.0729 29.5319 13.1546 28.0424 12.0723L20.3809 6.50595Z" stroke="white" stroke-opacity="0.2" stroke-width="0.5" stroke-linejoin="round"/>
<defs>
<filter id="filter0_i_1797_777" x="5.7207" y="5.44427" width="24.3242" height="23.5729" filterUnits="userSpaceOnUse" color-interpolation-filters="sRGB">
<feFlood flood-opacity="0" result="BackgroundImageFix"/>
<feBlend mode="normal" in="SourceGraphic" in2="BackgroundImageFix" result="shape"/>
<feColorMatrix in="SourceAlpha" type="matrix" values="0 0 0 0 0 0 0 0 0 0 0 0 0 0 0 0 0 0 127 0" result="hardAlpha"/>
<feOffset/>
<feGaussianBlur stdDeviation="1"/>
<feComposite in2="hardAlpha" operator="arithmetic" k2="-1" k3="1"/>
<feColorMatrix type="matrix" values="0 0 0 0 0.694118 0 0 0 0 0.431373 0 0 0 0 1 0 0 0 0.7 0"/>
<feBlend mode="normal" in2="shape" result="effect1_innerShadow_1797_777"/>
</filter>
<linearGradient id="paint0_linear_1797_777" x1="17.8828" y1="2" x2="17.8828" y2="34" gradientUnits="userSpaceOnUse">
<stop stop-color="#EDEDED"/>
<stop offset="0.484375" stop-color="#AE94D4"/>
<stop offset="0.484475" stop-color="#4A10A1"/>
<stop offset="1" stop-color="#6600FE"/>
</linearGradient>
</defs>
</svg>
