<svg width="16" height="16" fill="none" xmlns="http://www.w3.org/2000/svg"><g clip-path="url(#a)"><path d="M14.8 6.496c1.15-2.913 1.277-4.7 1.278-5.338a.655.655 0 0 0-.773-.647c-1.655.317-4.17 1.656-4.704 1.947-.283-.091-1.085-.3-2.523-.3-1.438 0-2.24.209-2.522.3C5.02 2.168 2.506.828.85.511a.655.655 0 0 0-.773.647c.001.637.128 2.424 1.28 5.339a4.79 4.79 0 0 0-.254 1.206 5.573 5.573 0 0 0 .617 3.037c.564 1.092 1.53 2.265 2.585 3.138 1.604 1.329 2.927 1.617 3.761 1.622h.022c.834-.005 2.157-.293 3.762-1.622 1.054-.873 2.02-2.046 2.584-3.139a5.573 5.573 0 0 0 .617-3.036 4.791 4.791 0 0 0-.253-1.207ZM2.474 7.52c.992.25 4.184 1.829 4.168 3.65-2.384.662-4.36-1.495-4.168-3.65Zm7.039 3.65c-.017-1.82 3.175-3.4 4.167-3.65.193 2.155-1.783 4.312-4.167 3.65Z" fill="#ACFD5A"/></g><defs><clipPath id="a"><path fill="#fff" d="M0 0h16v16H0z"/></clipPath></defs></svg>