<svg width="36" height="36" viewBox="0 0 36 36" fill="none" xmlns="http://www.w3.org/2000/svg">
<path d="M24.4029 11.4117L20.3402 14.6437H15.7772L11.7145 11.4117L10.5293 19.0807L15.5164 24.6747C15.5985 24.7668 15.6986 24.8404 15.8104 24.8908C15.922 24.9412 16.0428 24.9672 16.1649 24.9672H19.9525C20.0746 24.9672 20.1954 24.9412 20.3071 24.8908C20.4187 24.8404 20.5188 24.7668 20.601 24.6747L25.5881 19.0807L24.4029 11.4117ZM13.2285 19.5354C12.8783 18.9422 12.6186 18.1822 12.5145 17.2098H13.793C13.793 17.2098 17.5998 17.2098 17.5998 21.6015C17.5999 21.6015 14.6597 21.9596 13.2285 19.5354ZM22.8889 19.5354C21.4577 21.9596 18.5175 21.6015 18.5175 21.6015C18.5175 17.2098 22.3244 17.2098 22.3244 17.2098H23.603C23.4988 18.1822 23.239 18.9422 22.8889 19.5354Z" fill="url(#paint0_linear_1797_700)"/>
<path d="M20.3402 14.8937C20.3967 14.8937 20.4516 14.8745 20.4958 14.8393L24.2216 11.8754L25.323 19.0024L20.4144 24.5083C20.4144 24.5083 20.4144 24.5083 20.4144 24.5083C20.3554 24.5745 20.2837 24.6271 20.2043 24.6629L20.2042 24.6629C20.1248 24.6988 20.0391 24.7172 19.9525 24.7172H16.1649C16.0783 24.7172 15.9926 24.6988 15.9132 24.6629L15.9131 24.6629C15.8336 24.627 15.762 24.5745 15.7031 24.5083L15.703 24.5083L10.7944 19.0024L11.8958 11.8754L15.6216 14.8393C15.6658 14.8745 15.7207 14.8937 15.7772 14.8937H20.3402ZM13.0132 19.6625L13.0132 19.6625C13.774 20.951 14.9367 21.4973 15.894 21.721C16.3724 21.8327 16.8031 21.865 17.1145 21.8695C17.2705 21.8718 17.3972 21.8671 17.4859 21.8617C17.5303 21.859 17.5652 21.8561 17.5896 21.8539L17.6181 21.851L17.6263 21.8501L17.6287 21.8498L17.6296 21.8497L17.6301 21.8497C17.6302 21.8496 17.7204 21.7412 17.7192 21.6015H17.8498C17.8498 19.3162 16.8504 18.1357 15.8213 17.5422C15.315 17.2501 14.8109 17.1052 14.435 17.0329C14.2466 16.9966 14.0888 16.9784 13.9771 16.9692C13.9212 16.9646 13.8766 16.9622 13.8453 16.961C13.8297 16.9604 13.8174 16.9601 13.8086 16.9599L13.798 16.9598L13.7948 16.9598L13.7937 16.9598L13.7933 16.9598C13.7931 16.9598 13.793 16.9598 13.793 17.2098V16.9598H12.5145C12.4435 16.9598 12.3759 16.9899 12.3285 17.0427C12.2811 17.0954 12.2583 17.1659 12.2659 17.2364C12.3733 18.2393 12.6425 19.0345 13.0132 19.6625ZM23.1042 19.6625L23.1042 19.6624C23.4749 19.0345 23.7441 18.2393 23.8515 17.2364C23.8591 17.1659 23.8363 17.0954 23.7889 17.0427C23.7415 16.9899 23.6739 16.9598 23.603 16.9598H22.3244V17.2098C22.3244 16.9598 22.3242 16.9598 22.3241 16.9598L22.3236 16.9598L22.3226 16.9598L22.3193 16.9598L22.3088 16.9599C22.3 16.9601 22.2877 16.9604 22.272 16.961C22.2407 16.9622 22.1962 16.9646 22.1403 16.9692C22.0285 16.9784 21.8708 16.9966 21.6824 17.0329C21.3064 17.1052 20.8024 17.2501 20.296 17.5422C19.267 18.1357 18.2675 19.3162 18.2675 21.6015C18.2675 21.7279 18.3618 21.8344 18.4873 21.8497L18.5175 21.6015C18.4873 21.8497 18.4874 21.8497 18.4875 21.8497L18.4878 21.8497L18.4886 21.8498L18.4911 21.8501L18.4992 21.851L18.5277 21.8539C18.5521 21.8561 18.5871 21.859 18.6314 21.8617C18.7202 21.8671 18.8469 21.8718 19.0029 21.8695C19.3142 21.8651 19.745 21.8327 20.2234 21.721C21.1807 21.4973 22.3434 20.9511 23.1042 19.6625Z" stroke="url(#paint1_linear_1797_700)" stroke-opacity="0.5" stroke-width="0.5" stroke-linejoin="round"/>
<defs>
<linearGradient id="paint0_linear_1797_700" x1="18.0587" y1="11.4117" x2="18.0587" y2="24.9672" gradientUnits="userSpaceOnUse">
<stop stop-color="#ECECEC"/>
<stop offset="0.484375" stop-color="#A1A1A1"/>
<stop offset="0.484475" stop-color="#333333"/>
<stop offset="1" stop-color="#969696"/>
</linearGradient>
<linearGradient id="paint1_linear_1797_700" x1="18.0587" y1="11.4117" x2="18.0587" y2="24.9672" gradientUnits="userSpaceOnUse">
<stop offset="0.166667" stop-color="white"/>
<stop offset="0.494792" stop-color="#D2D2D2"/>
<stop offset="0.734375"/>
<stop offset="0.927083" stop-color="#E4E4E4"/>
</linearGradient>
</defs>
</svg>
