<svg width="36" height="36" viewBox="0 0 36 36" fill="none" xmlns="http://www.w3.org/2000/svg">
<path d="M24.4029 11.4117L20.3402 14.6437H15.7772L11.7145 11.4117L10.5293 19.0807L15.5164 24.6747C15.5985 24.7668 15.6986 24.8404 15.8104 24.8908C15.922 24.9412 16.0428 24.9672 16.1649 24.9672H19.9525C20.0746 24.9672 20.1954 24.9412 20.3071 24.8908C20.4187 24.8404 20.5188 24.7668 20.601 24.6747L25.5881 19.0807L24.4029 11.4117ZM13.2285 19.5354C12.8783 18.9422 12.6186 18.1822 12.5145 17.2098H13.793C13.793 17.2098 17.5998 17.2098 17.5998 21.6015C17.5999 21.6015 14.6597 21.9596 13.2285 19.5354ZM22.8889 19.5354C21.4577 21.9596 18.5175 21.6015 18.5175 21.6015C18.5175 17.2098 22.3244 17.2098 22.3244 17.2098H23.603C23.4988 18.1822 23.239 18.9422 22.8889 19.5354Z" fill="url(#paint0_linear_1797_635)"/>
<path d="M20.3402 14.879C20.3934 14.879 20.445 14.8609 20.4866 14.8278L24.2323 11.8482L25.3386 19.007L20.4254 24.5181C20.4254 24.5181 20.4254 24.5181 20.4254 24.5181C20.365 24.5858 20.2917 24.6396 20.2103 24.6763L20.2103 24.6763C20.129 24.713 20.0412 24.7319 19.9525 24.7319H16.1649C16.0763 24.7319 15.9884 24.713 15.9072 24.6763L15.9071 24.6763C15.8257 24.6396 15.7524 24.5858 15.6921 24.5181L15.6921 24.5181L10.7788 19.007L11.8851 11.8482L15.6307 14.8278C15.6724 14.8609 15.724 14.879 15.7772 14.879H20.3402ZM13.0259 19.655L13.0259 19.655C13.784 20.9391 14.9426 21.4836 15.8974 21.7066C16.3745 21.8181 16.8041 21.8503 17.1147 21.8548C17.2703 21.8571 17.3966 21.8524 17.485 21.847C17.5292 21.8443 17.564 21.8415 17.5882 21.8392L17.6166 21.8364L17.6246 21.8355L17.627 21.8352L17.6279 21.8351L17.6283 21.8351C17.6284 21.835 17.7133 21.733 17.7122 21.6015H17.8351C17.8351 19.3215 16.8385 18.1459 15.814 17.5549C15.3094 17.2639 14.807 17.1194 14.4322 17.0473C14.2444 17.0112 14.0872 16.993 13.9759 16.9838C13.9202 16.9793 13.8759 16.9769 13.8448 16.9757C13.8292 16.9751 13.817 16.9748 13.8083 16.9746L13.7979 16.9745L13.7948 16.9745L13.7937 16.9745L13.7933 16.9745C13.7931 16.9745 13.793 16.9745 13.793 17.2098V16.9745H12.5145C12.4477 16.9745 12.3841 17.0028 12.3394 17.0525C12.2948 17.1022 12.2734 17.1684 12.2805 17.2348C12.3878 18.2359 12.6564 19.029 13.0259 19.655ZM23.0915 19.655L23.0915 19.655C23.461 19.029 23.7297 18.2359 23.8369 17.2348C23.844 17.1684 23.8226 17.1022 23.778 17.0525C23.7334 17.0028 23.6697 16.9745 23.603 16.9745H22.3244V17.2098C22.3244 16.9745 22.3242 16.9745 22.3241 16.9745L22.3237 16.9745L22.3226 16.9745L22.3195 16.9745L22.3091 16.9746C22.3004 16.9748 22.2881 16.9751 22.2726 16.9757C22.2415 16.9769 22.1972 16.9793 22.1415 16.9838C22.0302 16.993 21.873 17.0112 21.6851 17.0473C21.3103 17.1194 20.8079 17.2639 20.3034 17.5549C19.2789 18.1459 18.2822 19.3215 18.2822 21.6015C18.2822 21.7204 18.371 21.8207 18.489 21.8351L18.5175 21.6015C18.489 21.8351 18.4891 21.8351 18.4893 21.8351L18.4896 21.8351L18.4904 21.8352L18.4928 21.8355L18.5008 21.8364L18.5291 21.8392C18.5533 21.8415 18.5881 21.8443 18.6323 21.847C18.7207 21.8524 18.8471 21.8571 19.0027 21.8548C19.3132 21.8504 19.7429 21.8181 20.22 21.7067C21.1748 21.4836 22.3334 20.9391 23.0915 19.655Z" stroke="url(#paint1_linear_1797_635)" stroke-opacity="0.6" stroke-width="0.470588" stroke-linejoin="round"/>
<defs>
<linearGradient id="paint0_linear_1797_635" x1="18.0587" y1="11.4117" x2="18.0587" y2="24.9672" gradientUnits="userSpaceOnUse">
<stop stop-color="#EDEDED"/>
<stop offset="0.484375" stop-color="#C9D494"/>
<stop offset="0.484475" stop-color="#80960F"/>
<stop offset="1" stop-color="#D4FE00"/>
</linearGradient>
<linearGradient id="paint1_linear_1797_635" x1="18.0587" y1="11.4117" x2="18.0587" y2="24.9672" gradientUnits="userSpaceOnUse">
<stop stop-color="#D4FE00"/>
<stop offset="0.515525" stop-color="#9EBA13"/>
<stop offset="0.515625" stop-color="#C9D494"/>
<stop offset="1" stop-color="#EDEDED"/>
</linearGradient>
</defs>
</svg>
