<svg width="36" height="36" viewBox="0 0 36 36" fill="none" xmlns="http://www.w3.org/2000/svg">
<mask id="path-1-inside-1_1915_734" fill="white">
<path d="M23.7929 16.7432H23.7927C24.7999 14.1935 24.9115 12.6298 24.9121 12.0723C24.9123 11.8949 24.8333 11.7301 24.695 11.6202C24.5651 11.5171 24.3978 11.4754 24.236 11.5064C22.7873 11.7832 20.5867 12.955 20.1194 13.2099C19.872 13.1299 19.1707 12.9478 17.9122 12.9478C16.6537 12.9478 15.9525 13.1299 15.7051 13.2099C15.2376 12.955 13.0369 11.783 11.5882 11.5064C11.4264 11.4754 11.2592 11.5168 11.1292 11.6202C10.991 11.7298 10.9121 11.8946 10.9121 12.0723C10.913 12.6298 11.0243 14.1933 12.0315 16.7434C11.9721 16.906 11.8541 17.2821 11.8099 17.799C11.7559 18.4295 11.8058 19.4022 12.3497 20.4561C12.8428 21.4116 13.6884 22.4382 14.6113 23.2023C16.0153 24.365 17.1728 24.617 17.9025 24.6213H17.922C18.6516 24.617 19.8091 24.3647 21.2132 23.2021C22.1361 22.438 22.9816 21.4114 23.4747 20.4558C24.0187 19.402 24.0685 18.4292 24.0146 17.7988C23.9704 17.2819 23.8523 16.9058 23.7929 16.7432ZM13.0096 17.6392C13.8777 17.8576 16.6704 19.2391 16.6563 20.8328C14.5703 21.4116 12.8413 19.5243 13.0096 17.6392ZM19.1681 20.8328C19.154 19.2394 21.9467 17.8576 22.8148 17.6392C22.9834 19.5243 21.2541 21.4116 19.1681 20.8328Z"/>
</mask>
<path d="M23.7929 16.7432H23.7927C24.7999 14.1935 24.9115 12.6298 24.9121 12.0723C24.9123 11.8949 24.8333 11.7301 24.695 11.6202C24.5651 11.5171 24.3978 11.4754 24.236 11.5064C22.7873 11.7832 20.5867 12.955 20.1194 13.2099C19.872 13.1299 19.1707 12.9478 17.9122 12.9478C16.6537 12.9478 15.9525 13.1299 15.7051 13.2099C15.2376 12.955 13.0369 11.783 11.5882 11.5064C11.4264 11.4754 11.2592 11.5168 11.1292 11.6202C10.991 11.7298 10.9121 11.8946 10.9121 12.0723C10.913 12.6298 11.0243 14.1933 12.0315 16.7434C11.9721 16.906 11.8541 17.2821 11.8099 17.799C11.7559 18.4295 11.8058 19.4022 12.3497 20.4561C12.8428 21.4116 13.6884 22.4382 14.6113 23.2023C16.0153 24.365 17.1728 24.617 17.9025 24.6213H17.922C18.6516 24.617 19.8091 24.3647 21.2132 23.2021C22.1361 22.438 22.9816 21.4114 23.4747 20.4558C24.0187 19.402 24.0685 18.4292 24.0146 17.7988C23.9704 17.2819 23.8523 16.9058 23.7929 16.7432ZM13.0096 17.6392C13.8777 17.8576 16.6704 19.2391 16.6563 20.8328C14.5703 21.4116 12.8413 19.5243 13.0096 17.6392ZM19.1681 20.8328C19.154 19.2394 21.9467 17.8576 22.8148 17.6392C22.9834 19.5243 21.2541 21.4116 19.1681 20.8328Z" fill="url(#paint0_linear_1915_734)" stroke="url(#paint1_linear_1915_734)" stroke-opacity="0.6" stroke-width="0.94" stroke-linejoin="round" mask="url(#path-1-inside-1_1915_734)"/>
<defs>
<linearGradient id="paint0_linear_1915_734" x1="17.9121" y1="11.4963" x2="17.9121" y2="24.6213" gradientUnits="userSpaceOnUse">
<stop stop-color="#EDEDED"/>
<stop offset="0.484375" stop-color="#D3E0B8"/>
<stop offset="0.484475" stop-color="#558A01"/>
<stop offset="1" stop-color="#ACFD5A"/>
</linearGradient>
<linearGradient id="paint1_linear_1915_734" x1="17.9121" y1="11.4963" x2="17.9121" y2="24.6213" gradientUnits="userSpaceOnUse">
<stop stop-color="#ACFD5A"/>
<stop offset="0.515525" stop-color="#558A01"/>
<stop offset="0.515625" stop-color="#D3E0B8"/>
<stop offset="1" stop-color="#EDEDED"/>
</linearGradient>
</defs>
</svg>
