<svg width="36" height="36" viewBox="0 0 36 36" fill="none" xmlns="http://www.w3.org/2000/svg">
<mask id="path-1-inside-1_2454_1844" fill="white">
<path d="M14.6018 16.144L12.0817 20.08H14.9978V22H10.8097C9.99375 22 9.48975 21.508 9.48975 20.752C9.48975 20.2 9.82575 19.708 10.2577 19.036L12.5378 15.52H9.82575V13.6H13.5697C14.6138 13.6 15.0938 14.056 15.0938 14.8C15.0938 15.34 14.8658 15.736 14.6018 16.144ZM18.1841 22H16.0721V13.6H18.1841V22ZM21.6018 22H19.5498V13.6H21.6018C24.9138 13.6 26.4258 15.436 26.4258 17.8C26.4258 20.14 24.9138 22 21.6018 22ZM21.6618 15.52V20.08H21.8058C23.1978 20.08 24.2178 19.372 24.2178 17.8C24.2178 16.24 23.2098 15.52 21.8298 15.52H21.6618Z"/>
</mask>
<path d="M14.6018 16.144L12.0817 20.08H14.9978V22H10.8097C9.99375 22 9.48975 21.508 9.48975 20.752C9.48975 20.2 9.82575 19.708 10.2577 19.036L12.5378 15.52H9.82575V13.6H13.5697C14.6138 13.6 15.0938 14.056 15.0938 14.8C15.0938 15.34 14.8658 15.736 14.6018 16.144ZM18.1841 22H16.0721V13.6H18.1841V22ZM21.6018 22H19.5498V13.6H21.6018C24.9138 13.6 26.4258 15.436 26.4258 17.8C26.4258 20.14 24.9138 22 21.6018 22ZM21.6618 15.52V20.08H21.8058C23.1978 20.08 24.2178 19.372 24.2178 17.8C24.2178 16.24 23.2098 15.52 21.8298 15.52H21.6618Z" fill="url(#paint0_linear_2454_1844)"/>
<path d="M14.6018 16.144L12.0817 20.08H14.9978V22H10.8097C9.99375 22 9.48975 21.508 9.48975 20.752C9.48975 20.2 9.82575 19.708 10.2577 19.036L12.5378 15.52H9.82575V13.6H13.5697C14.6138 13.6 15.0938 14.056 15.0938 14.8C15.0938 15.34 14.8658 15.736 14.6018 16.144ZM18.1841 22H16.0721V13.6H18.1841V22ZM21.6018 22H19.5498V13.6H21.6018C24.9138 13.6 26.4258 15.436 26.4258 17.8C26.4258 20.14 24.9138 22 21.6018 22ZM21.6618 15.52V20.08H21.8058C23.1978 20.08 24.2178 19.372 24.2178 17.8C24.2178 16.24 23.2098 15.52 21.8298 15.52H21.6618Z" fill="url(#paint1_linear_2454_1844)"/>
<path d="M14.6018 16.144L14.2067 15.8883L14.2054 15.8903L14.6018 16.144ZM12.0817 20.08L11.6854 19.8263C11.5927 19.9711 11.5864 20.155 11.6689 20.3059C11.7515 20.4568 11.9098 20.5506 12.0817 20.5506V20.08ZM14.9978 20.08H15.4683C15.4683 19.8201 15.2576 19.6094 14.9978 19.6094V20.08ZM14.9978 22V22.4706C15.2576 22.4706 15.4683 22.2599 15.4683 22H14.9978ZM10.2577 19.036L9.86291 18.78L9.8619 18.7815L10.2577 19.036ZM12.5378 15.52L12.9326 15.776C13.0264 15.6313 13.0336 15.4469 12.9512 15.2953C12.8689 15.1438 12.7102 15.0494 12.5378 15.0494V15.52ZM9.82575 15.52H9.35516C9.35516 15.7799 9.56585 15.9906 9.82575 15.9906V15.52ZM9.82575 13.6V13.1294C9.56585 13.1294 9.35516 13.3401 9.35516 13.6H9.82575ZM14.2054 15.8903L11.6854 19.8263L12.4781 20.3337L14.9981 16.3977L14.2054 15.8903ZM12.0817 20.5506H14.9978V19.6094H12.0817V20.5506ZM14.5272 20.08V22H15.4683V20.08H14.5272ZM14.9978 21.5294H10.8097V22.4706H14.9978V21.5294ZM10.8097 21.5294C10.4962 21.5294 10.2916 21.4363 10.1686 21.319C10.0477 21.2037 9.96034 21.0222 9.96034 20.752H9.01916C9.01916 21.2378 9.18377 21.6803 9.51893 22C9.85191 22.3177 10.3073 22.4706 10.8097 22.4706V21.5294ZM9.96034 20.752C9.96034 20.5757 10.0129 20.389 10.1327 20.1495C10.2564 19.9021 10.4304 19.6377 10.6536 19.2905L9.8619 18.7815C9.65315 19.1063 9.44315 19.4239 9.29084 19.7285C9.13463 20.041 9.01916 20.3763 9.01916 20.752H9.96034ZM10.6526 19.292L12.9326 15.776L12.1429 15.264L9.86291 18.78L10.6526 19.292ZM12.5378 15.0494H9.82575V15.9906H12.5378V15.0494ZM10.2963 15.52V13.6H9.35516V15.52H10.2963ZM9.82575 14.0706H13.5697V13.1294H9.82575V14.0706ZM13.5697 14.0706C14.0328 14.0706 14.2894 14.173 14.4235 14.2838C14.5425 14.3821 14.6232 14.535 14.6232 14.8H15.5643C15.5643 14.321 15.405 13.8739 15.023 13.5582C14.6561 13.255 14.1507 13.1294 13.5697 13.1294V14.0706ZM14.6232 14.8C14.6232 15.1928 14.4653 15.4886 14.2067 15.8884L14.9968 16.3996C15.2662 15.9834 15.5643 15.4872 15.5643 14.8H14.6232ZM18.1841 22V22.4706C18.444 22.4706 18.6547 22.2599 18.6547 22H18.1841ZM16.0721 22H15.6015C15.6015 22.2599 15.8122 22.4706 16.0721 22.4706V22ZM16.0721 13.6V13.1294C15.8122 13.1294 15.6015 13.3401 15.6015 13.6H16.0721ZM18.1841 13.6H18.6547C18.6547 13.3401 18.444 13.1294 18.1841 13.1294V13.6ZM18.1841 21.5294H16.0721V22.4706H18.1841V21.5294ZM16.5427 22V13.6H15.6015V22H16.5427ZM16.0721 14.0706H18.1841V13.1294H16.0721V14.0706ZM17.7135 13.6V22H18.6547V13.6H17.7135ZM19.5498 22H19.0792C19.0792 22.2599 19.2899 22.4706 19.5498 22.4706V22ZM19.5498 13.6V13.1294C19.2899 13.1294 19.0792 13.3401 19.0792 13.6H19.5498ZM21.6618 15.52V15.0494C21.4019 15.0494 21.1912 15.2601 21.1912 15.52H21.6618ZM21.6618 20.08H21.1912C21.1912 20.3399 21.4019 20.5506 21.6618 20.5506V20.08ZM21.6018 21.5294H19.5498V22.4706H21.6018V21.5294ZM20.0204 22V13.6H19.0792V22H20.0204ZM19.5498 14.0706H21.6018V13.1294H19.5498V14.0706ZM21.6018 14.0706C23.1722 14.0706 24.2493 14.5046 24.9312 15.1542C25.6117 15.8025 25.9552 16.7192 25.9552 17.8H26.8964C26.8964 16.5168 26.4838 15.3335 25.5804 14.4728C24.6783 13.6134 23.3434 13.1294 21.6018 13.1294V14.0706ZM25.9552 17.8C25.9552 18.8678 25.6123 19.7853 24.9305 20.4374C24.2479 21.0903 23.1705 21.5294 21.6018 21.5294V22.4706C23.3451 22.4706 24.6797 21.9797 25.581 21.1176C26.4833 20.2547 26.8964 19.0722 26.8964 17.8H25.9552ZM21.1912 15.52V20.08H22.1324V15.52H21.1912ZM21.6618 20.5506H21.8058V19.6094H21.6618V20.5506ZM21.8058 20.5506C22.5753 20.5506 23.3021 20.3552 23.8428 19.8844C24.3941 19.4044 24.6884 18.6937 24.6884 17.8H23.7472C23.7472 18.4783 23.5315 18.9076 23.2248 19.1746C22.9075 19.4508 22.4282 19.6094 21.8058 19.6094V20.5506ZM24.6884 17.8C24.6884 16.9132 24.3978 16.2037 23.8528 15.7223C23.3173 15.2493 22.5961 15.0494 21.8298 15.0494V15.9906C22.4435 15.9906 22.9162 16.1507 23.2297 16.4277C23.5338 16.6963 23.7472 17.1268 23.7472 17.8H24.6884ZM21.8298 15.0494H21.6618V15.9906H21.8298V15.0494Z" fill="url(#paint2_linear_2454_1844)" fill-opacity="0.6" mask="url(#path-1-inside-1_2454_1844)"/>
<path d="M14.6018 16.144L14.2067 15.8883L14.2054 15.8903L14.6018 16.144ZM12.0817 20.08L11.6854 19.8263C11.5927 19.9711 11.5864 20.155 11.6689 20.3059C11.7515 20.4568 11.9098 20.5506 12.0817 20.5506V20.08ZM14.9978 20.08H15.4683C15.4683 19.8201 15.2576 19.6094 14.9978 19.6094V20.08ZM14.9978 22V22.4706C15.2576 22.4706 15.4683 22.2599 15.4683 22H14.9978ZM10.2577 19.036L9.86291 18.78L9.8619 18.7815L10.2577 19.036ZM12.5378 15.52L12.9326 15.776C13.0264 15.6313 13.0336 15.4469 12.9512 15.2953C12.8689 15.1438 12.7102 15.0494 12.5378 15.0494V15.52ZM9.82575 15.52H9.35516C9.35516 15.7799 9.56585 15.9906 9.82575 15.9906V15.52ZM9.82575 13.6V13.1294C9.56585 13.1294 9.35516 13.3401 9.35516 13.6H9.82575ZM14.2054 15.8903L11.6854 19.8263L12.4781 20.3337L14.9981 16.3977L14.2054 15.8903ZM12.0817 20.5506H14.9978V19.6094H12.0817V20.5506ZM14.5272 20.08V22H15.4683V20.08H14.5272ZM14.9978 21.5294H10.8097V22.4706H14.9978V21.5294ZM10.8097 21.5294C10.4962 21.5294 10.2916 21.4363 10.1686 21.319C10.0477 21.2037 9.96034 21.0222 9.96034 20.752H9.01916C9.01916 21.2378 9.18377 21.6803 9.51893 22C9.85191 22.3177 10.3073 22.4706 10.8097 22.4706V21.5294ZM9.96034 20.752C9.96034 20.5757 10.0129 20.389 10.1327 20.1495C10.2564 19.9021 10.4304 19.6377 10.6536 19.2905L9.8619 18.7815C9.65315 19.1063 9.44315 19.4239 9.29084 19.7285C9.13463 20.041 9.01916 20.3763 9.01916 20.752H9.96034ZM10.6526 19.292L12.9326 15.776L12.1429 15.264L9.86291 18.78L10.6526 19.292ZM12.5378 15.0494H9.82575V15.9906H12.5378V15.0494ZM10.2963 15.52V13.6H9.35516V15.52H10.2963ZM9.82575 14.0706H13.5697V13.1294H9.82575V14.0706ZM13.5697 14.0706C14.0328 14.0706 14.2894 14.173 14.4235 14.2838C14.5425 14.3821 14.6232 14.535 14.6232 14.8H15.5643C15.5643 14.321 15.405 13.8739 15.023 13.5582C14.6561 13.255 14.1507 13.1294 13.5697 13.1294V14.0706ZM14.6232 14.8C14.6232 15.1928 14.4653 15.4886 14.2067 15.8884L14.9968 16.3996C15.2662 15.9834 15.5643 15.4872 15.5643 14.8H14.6232ZM18.1841 22V22.4706C18.444 22.4706 18.6547 22.2599 18.6547 22H18.1841ZM16.0721 22H15.6015C15.6015 22.2599 15.8122 22.4706 16.0721 22.4706V22ZM16.0721 13.6V13.1294C15.8122 13.1294 15.6015 13.3401 15.6015 13.6H16.0721ZM18.1841 13.6H18.6547C18.6547 13.3401 18.444 13.1294 18.1841 13.1294V13.6ZM18.1841 21.5294H16.0721V22.4706H18.1841V21.5294ZM16.5427 22V13.6H15.6015V22H16.5427ZM16.0721 14.0706H18.1841V13.1294H16.0721V14.0706ZM17.7135 13.6V22H18.6547V13.6H17.7135ZM19.5498 22H19.0792C19.0792 22.2599 19.2899 22.4706 19.5498 22.4706V22ZM19.5498 13.6V13.1294C19.2899 13.1294 19.0792 13.3401 19.0792 13.6H19.5498ZM21.6618 15.52V15.0494C21.4019 15.0494 21.1912 15.2601 21.1912 15.52H21.6618ZM21.6618 20.08H21.1912C21.1912 20.3399 21.4019 20.5506 21.6618 20.5506V20.08ZM21.6018 21.5294H19.5498V22.4706H21.6018V21.5294ZM20.0204 22V13.6H19.0792V22H20.0204ZM19.5498 14.0706H21.6018V13.1294H19.5498V14.0706ZM21.6018 14.0706C23.1722 14.0706 24.2493 14.5046 24.9312 15.1542C25.6117 15.8025 25.9552 16.7192 25.9552 17.8H26.8964C26.8964 16.5168 26.4838 15.3335 25.5804 14.4728C24.6783 13.6134 23.3434 13.1294 21.6018 13.1294V14.0706ZM25.9552 17.8C25.9552 18.8678 25.6123 19.7853 24.9305 20.4374C24.2479 21.0903 23.1705 21.5294 21.6018 21.5294V22.4706C23.3451 22.4706 24.6797 21.9797 25.581 21.1176C26.4833 20.2547 26.8964 19.0722 26.8964 17.8H25.9552ZM21.1912 15.52V20.08H22.1324V15.52H21.1912ZM21.6618 20.5506H21.8058V19.6094H21.6618V20.5506ZM21.8058 20.5506C22.5753 20.5506 23.3021 20.3552 23.8428 19.8844C24.3941 19.4044 24.6884 18.6937 24.6884 17.8H23.7472C23.7472 18.4783 23.5315 18.9076 23.2248 19.1746C22.9075 19.4508 22.4282 19.6094 21.8058 19.6094V20.5506ZM24.6884 17.8C24.6884 16.9132 24.3978 16.2037 23.8528 15.7223C23.3173 15.2493 22.5961 15.0494 21.8298 15.0494V15.9906C22.4435 15.9906 22.9162 16.1507 23.2297 16.4277C23.5338 16.6963 23.7472 17.1268 23.7472 17.8H24.6884ZM21.8298 15.0494H21.6618V15.9906H21.8298V15.0494Z" fill="url(#paint3_linear_2454_1844)" fill-opacity="0.6" mask="url(#path-1-inside-1_2454_1844)"/>
<defs>
<linearGradient id="paint0_linear_2454_1844" x1="18" y1="14" x2="18" y2="22" gradientUnits="userSpaceOnUse">
<stop stop-color="#EDEDED"/>
<stop offset="0.484375" stop-color="#D3E0B8"/>
<stop offset="0.484475" stop-color="#558A01"/>
<stop offset="1" stop-color="#ACFD5A"/>
</linearGradient>
<linearGradient id="paint1_linear_2454_1844" x1="18" y1="14" x2="18" y2="22" gradientUnits="userSpaceOnUse">
<stop stop-color="#EDEDED"/>
<stop offset="0.484375" stop-color="#B8DCE0"/>
<stop offset="0.484475" stop-color="#01B3CB"/>
<stop offset="1" stop-color="#87F1FF"/>
</linearGradient>
<linearGradient id="paint2_linear_2454_1844" x1="18" y1="14" x2="18" y2="22" gradientUnits="userSpaceOnUse">
<stop stop-color="#ACFD5A"/>
<stop offset="0.515525" stop-color="#558A01"/>
<stop offset="0.515625" stop-color="#D3E0B8"/>
<stop offset="1" stop-color="#EDEDED"/>
</linearGradient>
<linearGradient id="paint3_linear_2454_1844" x1="18" y1="14" x2="18" y2="22" gradientUnits="userSpaceOnUse">
<stop stop-color="#87F1FF"/>
<stop offset="0.515525" stop-color="#01B3CB"/>
<stop offset="0.515625" stop-color="#B8DCE0"/>
<stop offset="1" stop-color="#EDEDED"/>
</linearGradient>
</defs>
</svg>
