<svg width="36" height="36" viewBox="0 0 36 36" fill="none" xmlns="http://www.w3.org/2000/svg">
<mask id="path-1-inside-1_2024_2325" fill="white">
<path d="M15.4049 24.9412H12.0919V14.7765H9.83311L11.1508 11.7647H15.4049V24.9412ZM21.7927 25.1671C19.2515 25.1671 17.068 23.3412 17.068 20.5177V16.1883C17.068 13.3647 19.2515 11.52 21.7927 11.52C24.3527 11.52 26.5174 13.3647 26.5174 16.1883V20.5177C26.5174 23.3412 24.3527 25.1671 21.7927 25.1671ZM21.7927 22.0988C22.6021 22.0988 23.2044 21.4777 23.2044 20.5741V16.1318C23.2044 15.2283 22.6021 14.5883 21.7927 14.5883C20.9833 14.5883 20.3809 15.2283 20.3809 16.1318V20.5741C20.3809 21.4777 20.9833 22.0988 21.7927 22.0988Z"/>
</mask>
<path d="M15.4049 24.9412H12.0919V14.7765H9.83311L11.1508 11.7647H15.4049V24.9412ZM21.7927 25.1671C19.2515 25.1671 17.068 23.3412 17.068 20.5177V16.1883C17.068 13.3647 19.2515 11.52 21.7927 11.52C24.3527 11.52 26.5174 13.3647 26.5174 16.1883V20.5177C26.5174 23.3412 24.3527 25.1671 21.7927 25.1671ZM21.7927 22.0988C22.6021 22.0988 23.2044 21.4777 23.2044 20.5741V16.1318C23.2044 15.2283 22.6021 14.5883 21.7927 14.5883C20.9833 14.5883 20.3809 15.2283 20.3809 16.1318V20.5741C20.3809 21.4777 20.9833 22.0988 21.7927 22.0988Z" fill="url(#paint0_linear_2024_2325)"/>
<path d="M15.4049 24.9412V25.4118C15.6648 25.4118 15.8755 25.2011 15.8755 24.9412H15.4049ZM12.0919 24.9412H11.6213C11.6213 25.2011 11.832 25.4118 12.0919 25.4118V24.9412ZM12.0919 14.7765H12.5625C12.5625 14.5166 12.3518 14.3059 12.0919 14.3059V14.7765ZM9.83311 14.7765L9.40198 14.5879C9.33832 14.7334 9.35235 14.9012 9.43927 15.0341C9.5262 15.167 9.6743 15.2471 9.83311 15.2471V14.7765ZM11.1508 11.7647V11.2941C10.9638 11.2941 10.7946 11.4048 10.7196 11.5761L11.1508 11.7647ZM15.4049 11.7647H15.8755C15.8755 11.5048 15.6648 11.2941 15.4049 11.2941V11.7647ZM15.4049 24.4706H12.0919V25.4118H15.4049V24.4706ZM12.5625 24.9412V14.7765H11.6213V24.9412H12.5625ZM12.0919 14.3059H9.83311V15.2471H12.0919V14.3059ZM10.2642 14.9651L11.5819 11.9533L10.7196 11.5761L9.40198 14.5879L10.2642 14.9651ZM11.1508 12.2353H15.4049V11.2941H11.1508V12.2353ZM14.9343 11.7647V24.9412H15.8755V11.7647H14.9343ZM21.7927 24.6965C19.4822 24.6965 17.5386 23.0531 17.5386 20.5177H16.5974C16.5974 23.6293 19.0207 25.6377 21.7927 25.6377V24.6965ZM17.5386 20.5177V16.1883H16.5974V20.5177H17.5386ZM17.5386 16.1883C17.5386 13.6504 19.4849 11.9906 21.7927 11.9906V11.0494C19.0181 11.0494 16.5974 13.0791 16.5974 16.1883H17.5386ZM21.7927 11.9906C24.118 11.9906 26.0468 13.6492 26.0468 16.1883H26.988C26.988 13.0803 24.5873 11.0494 21.7927 11.0494V11.9906ZM26.0468 16.1883V20.5177H26.988V16.1883H26.0468ZM26.0468 20.5177C26.0468 23.0542 24.1207 24.6965 21.7927 24.6965V25.6377C24.5847 25.6377 26.988 23.6281 26.988 20.5177H26.0468ZM21.7927 22.5694C22.8896 22.5694 23.675 21.709 23.675 20.5741H22.7338C22.7338 21.2463 22.3145 21.6283 21.7927 21.6283V22.5694ZM23.675 20.5741V16.1318H22.7338V20.5741H23.675ZM23.675 16.1318C23.675 15.0049 22.897 14.1177 21.7927 14.1177V15.0588C22.3071 15.0588 22.7338 15.4516 22.7338 16.1318H23.675ZM21.7927 14.1177C20.6883 14.1177 19.9103 15.0049 19.9103 16.1318H20.8515C20.8515 15.4516 21.2782 15.0588 21.7927 15.0588V14.1177ZM19.9103 16.1318V20.5741H20.8515V16.1318H19.9103ZM19.9103 20.5741C19.9103 21.709 20.6957 22.5694 21.7927 22.5694V21.6283C21.2708 21.6283 20.8515 21.2463 20.8515 20.5741H19.9103Z" fill="url(#paint1_linear_2024_2325)" fill-opacity="0.6" mask="url(#path-1-inside-1_2024_2325)"/>
<defs>
<linearGradient id="paint0_linear_2024_2325" x1="18.5879" y1="11.9412" x2="18.5879" y2="24.9412" gradientUnits="userSpaceOnUse">
<stop stop-color="#EDEDED"/>
<stop offset="0.484375" stop-color="#B8DCE0"/>
<stop offset="0.484475" stop-color="#01B3CB"/>
<stop offset="1" stop-color="#87F1FF"/>
</linearGradient>
<linearGradient id="paint1_linear_2024_2325" x1="18.5879" y1="11.9412" x2="18.5879" y2="24.9412" gradientUnits="userSpaceOnUse">
<stop stop-color="#87F1FF"/>
<stop offset="0.515525" stop-color="#01B3CB"/>
<stop offset="0.515625" stop-color="#B8DCE0"/>
<stop offset="1" stop-color="#EDEDED"/>
</linearGradient>
</defs>
</svg>
