<svg width="36" height="36" viewBox="0 0 36 36" fill="none" xmlns="http://www.w3.org/2000/svg">
<path d="M16.6181 3.59675C17.5406 3.21466 18.5771 3.21466 19.4995 3.59675L27.2663 6.81387C28.1888 7.19597 28.9217 7.92886 29.3038 8.85132L32.5209 16.6181C32.903 17.5406 32.903 18.5771 32.5209 19.4995L29.3038 27.2663C28.9217 28.1888 28.1888 28.9217 27.2663 29.3038L19.4995 32.5209C18.5771 32.903 17.5406 32.903 16.6181 32.5209L8.85132 29.3038C7.92886 28.9217 7.19597 28.1888 6.81387 27.2663L3.59675 19.4995C3.21466 18.5771 3.21466 17.5406 3.59675 16.6181L6.81387 8.85132C7.19597 7.92886 7.92886 7.19597 8.85132 6.81387L16.6181 3.59675Z" fill="url(#paint0_linear_2024_2318)"/>
<g filter="url(#filter0_i_2024_2318)">
<path d="M16.5593 6.59675C17.4818 6.21466 18.5182 6.21466 19.4407 6.59675L25.0446 8.91796C25.967 9.30006 26.6999 10.033 27.082 10.9554L29.4032 16.5593C29.7853 17.4818 29.7853 18.5182 29.4032 19.4407L27.082 25.0446C26.6999 25.967 25.967 26.6999 25.0446 27.082L19.4407 29.4032C18.5182 29.7853 17.4818 29.7853 16.5593 29.4032L10.9554 27.082C10.033 26.6999 9.30006 25.967 8.91797 25.0446L6.59675 19.4407C6.21466 18.5182 6.21466 17.4818 6.59675 16.5593L8.91796 10.9554C9.30006 10.033 10.033 9.30006 10.9554 8.91797L16.5593 6.59675Z" fill="url(#paint1_linear_2024_2318)"/>
<path d="M16.5593 6.59675C17.4818 6.21466 18.5182 6.21466 19.4407 6.59675L25.0446 8.91796C25.967 9.30006 26.6999 10.033 27.082 10.9554L29.4032 16.5593C29.7853 17.4818 29.7853 18.5182 29.4032 19.4407L27.082 25.0446C26.6999 25.967 25.967 26.6999 25.0446 27.082L19.4407 29.4032C18.5182 29.7853 17.4818 29.7853 16.5593 29.4032L10.9554 27.082C10.033 26.6999 9.30006 25.967 8.91797 25.0446L6.59675 19.4407C6.21466 18.5182 6.21466 17.4818 6.59675 16.5593L8.91796 10.9554C9.30006 10.033 10.033 9.30006 10.9554 8.91797L16.5593 6.59675Z" fill="#1B3300"/>
</g>
<path d="M19.5307 6.37937C18.5506 5.97339 17.4494 5.9734 16.4693 6.37937L10.8654 8.70058C9.88525 9.10656 9.10656 9.88526 8.70058 10.8654L6.37937 16.4693C5.97339 17.4494 5.9734 18.5506 6.37937 19.5307L8.70058 25.1346C9.10656 26.1147 9.88526 26.8934 10.8654 27.2994L16.4693 29.6206C17.4494 30.0266 18.5506 30.0266 19.5307 29.6206L25.1346 27.2994C26.1147 26.8934 26.8934 26.1147 27.2994 25.1346L29.6206 19.5307C30.0266 18.5506 30.0266 17.4494 29.6206 16.4693L27.2994 10.8654C26.8934 9.88525 26.1147 9.10656 25.1346 8.70058L19.5307 6.37937Z" stroke="white" stroke-opacity="0.2" stroke-width="0.470588" stroke-linejoin="round"/>
<defs>
<filter id="filter0_i_2024_2318" x="5.83984" y="5.83959" width="24.3203" height="24.3208" filterUnits="userSpaceOnUse" color-interpolation-filters="sRGB">
<feFlood flood-opacity="0" result="BackgroundImageFix"/>
<feBlend mode="normal" in="SourceGraphic" in2="BackgroundImageFix" result="shape"/>
<feColorMatrix in="SourceAlpha" type="matrix" values="0 0 0 0 0 0 0 0 0 0 0 0 0 0 0 0 0 0 127 0" result="hardAlpha"/>
<feOffset/>
<feGaussianBlur stdDeviation="0.941176"/>
<feComposite in2="hardAlpha" operator="arithmetic" k2="-1" k3="1"/>
<feColorMatrix type="matrix" values="0 0 0 0 0.217505 0 0 0 0 0.260596 0 0 0 0 0 0 0 0 0.7 0"/>
<feBlend mode="normal" in2="shape" result="effect1_innerShadow_2024_2318"/>
</filter>
<linearGradient id="paint0_linear_2024_2318" x1="18.0588" y1="3" x2="18.0588" y2="33.1176" gradientUnits="userSpaceOnUse">
<stop stop-color="#EDEDED"/>
<stop offset="0.484375" stop-color="#D3E0B8"/>
<stop offset="0.484475" stop-color="#558A01"/>
<stop offset="1" stop-color="#ACFD5A"/>
</linearGradient>
<linearGradient id="paint1_linear_2024_2318" x1="18" y1="6" x2="18" y2="30" gradientUnits="userSpaceOnUse">
<stop stop-color="#EDEDED"/>
<stop offset="0.484375" stop-color="#D3E0B8"/>
<stop offset="0.484475" stop-color="#558A01"/>
<stop offset="1" stop-color="#ACFD5A"/>
</linearGradient>
</defs>
</svg>
