<svg width="36" height="36" viewBox="0 0 36 36" fill="none" xmlns="http://www.w3.org/2000/svg">
<mask id="path-1-inside-1_1797_746" fill="white">
<path d="M15.4049 24.9412H12.0919V14.7765H9.83311L11.1508 11.7647H15.4049V24.9412ZM21.7927 25.1671C19.2515 25.1671 17.068 23.3412 17.068 20.5177V16.1883C17.068 13.3647 19.2515 11.52 21.7927 11.52C24.3527 11.52 26.5174 13.3647 26.5174 16.1883V20.5177C26.5174 23.3412 24.3527 25.1671 21.7927 25.1671ZM21.7927 22.0988C22.6021 22.0988 23.2044 21.4777 23.2044 20.5741V16.1318C23.2044 15.2283 22.6021 14.5883 21.7927 14.5883C20.9833 14.5883 20.3809 15.2283 20.3809 16.1318V20.5741C20.3809 21.4777 20.9833 22.0988 21.7927 22.0988Z"/>
</mask>
<path d="M15.4049 24.9412H12.0919V14.7765H9.83311L11.1508 11.7647H15.4049V24.9412ZM21.7927 25.1671C19.2515 25.1671 17.068 23.3412 17.068 20.5177V16.1883C17.068 13.3647 19.2515 11.52 21.7927 11.52C24.3527 11.52 26.5174 13.3647 26.5174 16.1883V20.5177C26.5174 23.3412 24.3527 25.1671 21.7927 25.1671ZM21.7927 22.0988C22.6021 22.0988 23.2044 21.4777 23.2044 20.5741V16.1318C23.2044 15.2283 22.6021 14.5883 21.7927 14.5883C20.9833 14.5883 20.3809 15.2283 20.3809 16.1318V20.5741C20.3809 21.4777 20.9833 22.0988 21.7927 22.0988Z" fill="url(#paint0_linear_1797_746)"/>
<path d="M15.4049 24.9412V25.4412C15.681 25.4412 15.9049 25.2173 15.9049 24.9412H15.4049ZM12.0919 24.9412H11.5919C11.5919 25.2173 11.8158 25.4412 12.0919 25.4412V24.9412ZM12.0919 14.7765H12.5919C12.5919 14.5003 12.3681 14.2765 12.0919 14.2765V14.7765ZM9.83311 14.7765L9.37503 14.5761C9.3074 14.7307 9.3223 14.9089 9.41466 15.0502C9.50702 15.1914 9.66437 15.2765 9.83311 15.2765V14.7765ZM11.1508 11.7647V11.2647C10.9521 11.2647 10.7723 11.3823 10.6927 11.5643L11.1508 11.7647ZM15.4049 11.7647H15.9049C15.9049 11.4886 15.681 11.2647 15.4049 11.2647V11.7647ZM15.4049 24.4412H12.0919V25.4412H15.4049V24.4412ZM12.5919 24.9412V14.7765H11.5919V24.9412H12.5919ZM12.0919 14.2765H9.83311V15.2765H12.0919V14.2765ZM10.2912 14.9769L11.6088 11.9651L10.6927 11.5643L9.37503 14.5761L10.2912 14.9769ZM11.1508 12.2647H15.4049V11.2647H11.1508V12.2647ZM14.9049 11.7647V24.9412H15.9049V11.7647H14.9049ZM21.7927 24.6671C19.4967 24.6671 17.568 23.0351 17.568 20.5177H16.568C16.568 23.6473 19.0063 25.6671 21.7927 25.6671V24.6671ZM17.568 20.5177V16.1883H16.568V20.5177H17.568ZM17.568 16.1883C17.568 13.6682 19.4995 12.02 21.7927 12.02V11.02C19.0035 11.02 16.568 13.0612 16.568 16.1883H17.568ZM21.7927 12.02C24.1034 12.02 26.0174 13.667 26.0174 16.1883H27.0174C27.0174 13.0625 24.602 11.02 21.7927 11.02V12.02ZM26.0174 16.1883V20.5177H27.0174V16.1883H26.0174ZM26.0174 20.5177C26.0174 23.0363 24.1062 24.6671 21.7927 24.6671V25.6671C24.5992 25.6671 27.0174 23.6461 27.0174 20.5177H26.0174ZM21.7927 22.5988C22.9076 22.5988 23.7044 21.7235 23.7044 20.5741H22.7044C22.7044 21.2318 22.2966 21.5988 21.7927 21.5988V22.5988ZM23.7044 20.5741V16.1318H22.7044V20.5741H23.7044ZM23.7044 16.1318C23.7044 14.9909 22.9155 14.0883 21.7927 14.0883V15.0883C22.2887 15.0883 22.7044 15.4656 22.7044 16.1318H23.7044ZM21.7927 14.0883C20.6699 14.0883 19.8809 14.9909 19.8809 16.1318H20.8809C20.8809 15.4656 21.2967 15.0883 21.7927 15.0883V14.0883ZM19.8809 16.1318V20.5741H20.8809V16.1318H19.8809ZM19.8809 20.5741C19.8809 21.7235 20.6777 22.5988 21.7927 22.5988V21.5988C21.2888 21.5988 20.8809 21.2318 20.8809 20.5741H19.8809Z" fill="url(#paint1_linear_1797_746)" fill-opacity="0.6" mask="url(#path-1-inside-1_1797_746)"/>
<defs>
<linearGradient id="paint0_linear_1797_746" x1="18.5879" y1="11.9412" x2="18.5879" y2="24.9412" gradientUnits="userSpaceOnUse">
<stop stop-color="#EDEDED"/>
<stop offset="0.484375" stop-color="#94C9D4"/>
<stop offset="0.484475" stop-color="#0F8096"/>
<stop offset="1" stop-color="#00D4FE"/>
</linearGradient>
<linearGradient id="paint1_linear_1797_746" x1="18.5879" y1="11.9412" x2="18.5879" y2="24.9412" gradientUnits="userSpaceOnUse">
<stop stop-color="#00D4FE"/>
<stop offset="0.515525" stop-color="#139EBA"/>
<stop offset="0.515625" stop-color="#94C9D4"/>
<stop offset="1" stop-color="#EDEDED"/>
</linearGradient>
</defs>
</svg>
