<svg width="36" height="36" viewBox="0 0 36 36" fill="none" xmlns="http://www.w3.org/2000/svg">
<path d="M16.5281 3.63405C17.5082 3.22808 18.6094 3.22807 19.5896 3.63405L27.1763 6.77658C28.1564 7.18255 28.9351 7.96125 29.3411 8.94136L32.4836 16.5281C32.8896 17.5082 32.8896 18.6094 32.4836 19.5896L29.3411 27.1763C28.9351 28.1564 28.1564 28.9351 27.1763 29.3411L19.5896 32.4836C18.6094 32.8896 17.5082 32.8896 16.5281 32.4836L8.94136 29.3411C7.96125 28.9351 7.18255 28.1564 6.77658 27.1763L3.63405 19.5896C3.22808 18.6094 3.22807 17.5082 3.63405 16.5281L6.77658 8.94136C7.18255 7.96125 7.96125 7.18255 8.94136 6.77658L16.5281 3.63405Z" fill="url(#paint0_linear_1797_782)"/>
<g filter="url(#filter0_i_1797_782)">
<path d="M16.4693 6.63405C17.4494 6.22808 18.5506 6.22807 19.5307 6.63405L24.9545 8.88067C25.9347 9.28664 26.7134 10.0653 27.1193 11.0455L29.3659 16.4693C29.7719 17.4494 29.7719 18.5506 29.3659 19.5307L27.1193 24.9545C26.7134 25.9347 25.9347 26.7134 24.9545 27.1193L19.5307 29.3659C18.5506 29.7719 17.4494 29.7719 16.4693 29.3659L11.0455 27.1193C10.0653 26.7134 9.28664 25.9347 8.88067 24.9545L6.63405 19.5307C6.22808 18.5506 6.22807 17.4494 6.63405 16.4693L8.88067 11.0455C9.28664 10.0653 10.0653 9.28664 11.0455 8.88067L16.4693 6.63405Z" fill="#18003D"/>
</g>
<path d="M19.6264 6.40308C18.585 5.97173 17.415 5.97173 16.3736 6.40308L10.9498 8.6497C9.90841 9.08105 9.08105 9.90841 8.6497 10.9498L6.40308 16.3736C5.97173 17.415 5.97173 18.585 6.40308 19.6264L8.6497 25.0502C9.08105 26.0916 9.90841 26.919 10.9498 27.3503L16.3736 29.5969C17.415 30.0283 18.585 30.0283 19.6264 29.5969L25.0502 27.3503C26.0916 26.919 26.919 26.0916 27.3503 25.0502L29.5969 19.6264C30.0283 18.585 30.0283 17.415 29.5969 16.3736L27.3503 10.9498C26.919 9.90841 26.0916 9.08105 25.0502 8.6497L19.6264 6.40308Z" stroke="white" stroke-opacity="0.2" stroke-width="0.5" stroke-linejoin="round"/>
<defs>
<filter id="filter0_i_1797_782" x="5.8291" y="5.82956" width="24.3418" height="24.3409" filterUnits="userSpaceOnUse" color-interpolation-filters="sRGB">
<feFlood flood-opacity="0" result="BackgroundImageFix"/>
<feBlend mode="normal" in="SourceGraphic" in2="BackgroundImageFix" result="shape"/>
<feColorMatrix in="SourceAlpha" type="matrix" values="0 0 0 0 0 0 0 0 0 0 0 0 0 0 0 0 0 0 127 0" result="hardAlpha"/>
<feOffset/>
<feGaussianBlur stdDeviation="1"/>
<feComposite in2="hardAlpha" operator="arithmetic" k2="-1" k3="1"/>
<feColorMatrix type="matrix" values="0 0 0 0 0.694118 0 0 0 0 0.431373 0 0 0 0 1 0 0 0 0.7 0"/>
<feBlend mode="normal" in2="shape" result="effect1_innerShadow_1797_782"/>
</filter>
<linearGradient id="paint0_linear_1797_782" x1="18.0588" y1="3" x2="18.0588" y2="33.1176" gradientUnits="userSpaceOnUse">
<stop stop-color="#EDEDED"/>
<stop offset="0.484375" stop-color="#AE94D4"/>
<stop offset="0.484475" stop-color="#4A10A1"/>
<stop offset="1" stop-color="#6600FE"/>
</linearGradient>
</defs>
</svg>
