<svg width="38" height="36" viewBox="0 0 38 36" fill="none" xmlns="http://www.w3.org/2000/svg">
<mask id="path-1-inside-1_2024_2334" fill="white">
<path fill-rule="evenodd" clip-rule="evenodd" d="M17.8622 13.1061L16.6561 20.7472L15.7641 15.1225C15.5631 13.849 15.0229 13 14.0429 13C13.063 13 12.5353 13.849 12.3343 15.1225L11.4549 20.7472L10.2363 13.1061H8L9.39452 21.4143C9.67092 23.0669 10.2488 23.8401 11.3293 23.8401C12.46 23.8401 12.9625 22.9911 13.2012 21.4295L13.9927 16.3202L14.7842 21.4295C15.0229 22.9911 15.5254 23.8401 16.6561 23.8401C17.7365 23.8401 18.3144 23.0669 18.5908 21.4143L18.9924 19.0002L19.3976 21.4143C19.674 23.0669 20.2519 23.8401 21.3324 23.8401C22.4631 23.8401 22.9656 22.9911 23.2043 21.4295L23.9958 16.3202L24.7873 21.4295C25.026 22.9911 25.5285 23.8401 26.6592 23.8401C27.7396 23.8401 28.3175 23.0669 28.5939 21.4143L29.9759 13.1061H27.8653L26.6592 20.7472L25.7672 15.1225C25.5662 13.849 25.026 13 24.046 13C23.0661 13 22.5384 13.849 22.3374 15.1225L21.458 20.7472L20.2394 13.1061H19.9728H18.0031H17.8622Z"/>
</mask>
<path fill-rule="evenodd" clip-rule="evenodd" d="M17.8622 13.1061L16.6561 20.7472L15.7641 15.1225C15.5631 13.849 15.0229 13 14.0429 13C13.063 13 12.5353 13.849 12.3343 15.1225L11.4549 20.7472L10.2363 13.1061H8L9.39452 21.4143C9.67092 23.0669 10.2488 23.8401 11.3293 23.8401C12.46 23.8401 12.9625 22.9911 13.2012 21.4295L13.9927 16.3202L14.7842 21.4295C15.0229 22.9911 15.5254 23.8401 16.6561 23.8401C17.7365 23.8401 18.3144 23.0669 18.5908 21.4143L18.9924 19.0002L19.3976 21.4143C19.674 23.0669 20.2519 23.8401 21.3324 23.8401C22.4631 23.8401 22.9656 22.9911 23.2043 21.4295L23.9958 16.3202L24.7873 21.4295C25.026 22.9911 25.5285 23.8401 26.6592 23.8401C27.7396 23.8401 28.3175 23.0669 28.5939 21.4143L29.9759 13.1061H27.8653L26.6592 20.7472L25.7672 15.1225C25.5662 13.849 25.026 13 24.046 13C23.0661 13 22.5384 13.849 22.3374 15.1225L21.458 20.7472L20.2394 13.1061H19.9728H18.0031H17.8622Z" fill="url(#paint0_linear_2024_2334)"/>
<path fill-rule="evenodd" clip-rule="evenodd" d="M17.8622 13.1061L16.6561 20.7472L15.7641 15.1225C15.5631 13.849 15.0229 13 14.0429 13C13.063 13 12.5353 13.849 12.3343 15.1225L11.4549 20.7472L10.2363 13.1061H8L9.39452 21.4143C9.67092 23.0669 10.2488 23.8401 11.3293 23.8401C12.46 23.8401 12.9625 22.9911 13.2012 21.4295L13.9927 16.3202L14.7842 21.4295C15.0229 22.9911 15.5254 23.8401 16.6561 23.8401C17.7365 23.8401 18.3144 23.0669 18.5908 21.4143L18.9924 19.0002L19.3976 21.4143C19.674 23.0669 20.2519 23.8401 21.3324 23.8401C22.4631 23.8401 22.9656 22.9911 23.2043 21.4295L23.9958 16.3202L24.7873 21.4295C25.026 22.9911 25.5285 23.8401 26.6592 23.8401C27.7396 23.8401 28.3175 23.0669 28.5939 21.4143L29.9759 13.1061H27.8653L26.6592 20.7472L25.7672 15.1225C25.5662 13.849 25.026 13 24.046 13C23.0661 13 22.5384 13.849 22.3374 15.1225L21.458 20.7472L20.2394 13.1061H19.9728H18.0031H17.8622Z" fill="url(#paint1_linear_2024_2334)"/>
<path d="M16.6561 20.7472L16.1913 20.821C16.2276 21.0496 16.4248 21.2179 16.6563 21.2178C16.8878 21.2177 17.0848 21.0493 17.1209 20.8206L16.6561 20.7472ZM17.8622 13.1061V12.6355C17.6306 12.6355 17.4334 12.804 17.3973 13.0328L17.8622 13.1061ZM15.7641 15.1225L15.2993 15.1959L15.2993 15.1962L15.7641 15.1225ZM12.3343 15.1225L11.8695 15.0492L11.8694 15.0498L12.3343 15.1225ZM11.4549 20.7472L10.9902 20.8214C11.0267 21.05 11.2241 21.2182 11.4556 21.2178C11.6872 21.2175 11.8841 21.0487 11.9198 20.8199L11.4549 20.7472ZM10.2363 13.1061L10.701 13.032C10.6646 12.8036 10.4676 12.6355 10.2363 12.6355V13.1061ZM8 13.1061V12.6355C7.86157 12.6355 7.73017 12.6965 7.64076 12.8022C7.55134 12.9078 7.51299 13.0475 7.5359 13.184L8 13.1061ZM9.39452 21.4143L9.85866 21.3367L9.85862 21.3364L9.39452 21.4143ZM13.2012 21.4295L12.7362 21.3574L12.736 21.3584L13.2012 21.4295ZM13.9927 16.3202L14.4577 16.2482C14.4222 16.0189 14.2248 15.8497 13.9927 15.8497C13.7606 15.8497 13.5632 16.0189 13.5276 16.2482L13.9927 16.3202ZM14.7842 21.4295L15.2494 21.3584L15.2492 21.3574L14.7842 21.4295ZM18.5908 21.4143L19.055 21.492L19.055 21.4915L18.5908 21.4143ZM18.9924 19.0002L19.4565 18.9223C19.4184 18.6955 19.222 18.5294 18.9921 18.5296C18.7621 18.5298 18.5659 18.6961 18.5282 18.923L18.9924 19.0002ZM19.3976 21.4143L19.8618 21.3367L19.8617 21.3364L19.3976 21.4143ZM23.2043 21.4295L22.7392 21.3574L22.7391 21.3584L23.2043 21.4295ZM23.9958 16.3202L24.4608 16.2482C24.4253 16.0189 24.2279 15.8497 23.9958 15.8497C23.7637 15.8497 23.5663 16.0189 23.5307 16.2482L23.9958 16.3202ZM24.7873 21.4295L25.2524 21.3584L25.2523 21.3574L24.7873 21.4295ZM28.5939 21.4143L29.0581 21.492L29.0581 21.4915L28.5939 21.4143ZM29.9759 13.1061L30.4401 13.1833C30.4628 13.0469 30.4243 12.9074 30.3349 12.8019C30.2455 12.6964 30.1142 12.6355 29.9759 12.6355V13.1061ZM27.8653 13.1061V12.6355C27.6337 12.6355 27.4365 12.804 27.4004 13.0328L27.8653 13.1061ZM26.6592 20.7472L26.1944 20.821C26.2307 21.0496 26.4278 21.2179 26.6594 21.2178C26.8909 21.2177 27.0879 21.0493 27.124 20.8206L26.6592 20.7472ZM25.7672 15.1225L25.3024 15.1959L25.3024 15.1962L25.7672 15.1225ZM22.3374 15.1225L21.8726 15.0492L21.8725 15.0498L22.3374 15.1225ZM21.458 20.7472L20.9933 20.8214C21.0297 21.05 21.2272 21.2182 21.4587 21.2178C21.6903 21.2175 21.8872 21.0487 21.9229 20.8199L21.458 20.7472ZM20.2394 13.1061L20.7041 13.032C20.6676 12.8036 20.4706 12.6355 20.2394 12.6355V13.1061ZM17.1209 20.8206L18.327 13.1795L17.3973 13.0328L16.1913 20.6739L17.1209 20.8206ZM15.2993 15.1962L16.1913 20.821L17.1209 20.6735L16.2289 15.0488L15.2993 15.1962ZM14.0429 13.4706C14.373 13.4706 14.6193 13.6035 14.8211 13.8687C15.0377 14.1532 15.2048 14.5977 15.2993 15.1959L16.2289 15.0492C16.1223 14.3738 15.9189 13.757 15.5701 13.2987C15.2066 12.821 14.6928 12.5294 14.0429 12.5294V13.4706ZM12.7992 15.1959C12.8939 14.5958 13.0585 14.1511 13.2725 13.8667C13.4712 13.6027 13.7137 13.4706 14.0429 13.4706V12.5294C13.3923 12.5294 12.8809 12.8218 12.5205 13.3007C12.1755 13.7592 11.9758 14.3757 11.8695 15.0492L12.7992 15.1959ZM11.9198 20.8199L12.7993 15.1952L11.8694 15.0498L10.99 20.6746L11.9198 20.8199ZM9.77155 13.1802L10.9902 20.8214L11.9196 20.6731L10.701 13.032L9.77155 13.1802ZM8 13.5767H10.2363V12.6355H8V13.5767ZM9.85862 21.3364L8.4641 13.0282L7.5359 13.184L8.93043 21.4922L9.85862 21.3364ZM11.3293 23.3695C10.9225 23.3695 10.6488 23.2342 10.4305 22.9562C10.1891 22.649 9.99231 22.1358 9.85866 21.3367L8.93038 21.492C9.07313 22.3454 9.30345 23.0451 9.6903 23.5376C10.1001 24.0594 10.6556 24.3107 11.3293 24.3107V23.3695ZM12.736 21.3584C12.6198 22.1183 12.4482 22.6291 12.2194 22.9433C12.0154 23.2232 11.7517 23.3695 11.3293 23.3695V24.3107C12.0376 24.3107 12.5904 24.0324 12.9801 23.4975C13.3448 22.9967 13.5438 22.3023 13.6664 21.5006L12.736 21.3584ZM13.5276 16.2482L12.7362 21.3574L13.6662 21.5015L14.4577 16.3923L13.5276 16.2482ZM15.2492 21.3574L14.4577 16.2482L13.5276 16.3923L14.3191 21.5015L15.2492 21.3574ZM16.6561 23.3695C16.2337 23.3695 15.9699 23.2232 15.766 22.9433C15.5371 22.6291 15.3655 22.1183 15.2494 21.3584L14.319 21.5006C14.4415 22.3023 14.6405 22.9967 15.0053 23.4975C15.395 24.0324 15.9478 24.3107 16.6561 24.3107V23.3695ZM18.1267 21.3367C17.9931 22.1358 17.7962 22.649 17.5549 22.9562C17.3366 23.2342 17.0628 23.3695 16.6561 23.3695V24.3107C17.3298 24.3107 17.8852 24.0594 18.2951 23.5376C18.6819 23.0451 18.9122 22.3454 19.055 21.492L18.1267 21.3367ZM18.5282 18.923L18.1266 21.3371L19.055 21.4915L19.4566 19.0774L18.5282 18.923ZM19.8617 21.3364L19.4565 18.9223L18.5283 19.0781L18.9335 21.4922L19.8617 21.3364ZM21.3324 23.3695C20.9256 23.3695 20.6519 23.2342 20.4335 22.9562C20.1922 22.649 19.9954 22.1358 19.8618 21.3367L18.9335 21.492C19.0762 22.3454 19.3065 23.0451 19.6934 23.5376C20.1032 24.0594 20.6587 24.3107 21.3324 24.3107V23.3695ZM22.7391 21.3584C22.6229 22.1183 22.4513 22.6291 22.2225 22.9433C22.0185 23.2232 21.7548 23.3695 21.3324 23.3695V24.3107C22.0407 24.3107 22.5935 24.0324 22.9832 23.4975C23.3479 22.9967 23.5469 22.3023 23.6695 21.5006L22.7391 21.3584ZM23.5307 16.2482L22.7392 21.3574L23.6693 21.5015L24.4608 16.3923L23.5307 16.2482ZM25.2523 21.3574L24.4608 16.2482L23.5307 16.3923L24.3222 21.5015L25.2523 21.3574ZM26.6592 23.3695C26.2368 23.3695 25.973 23.2232 25.7691 22.9433C25.5402 22.6291 25.3686 22.1183 25.2524 21.3584L24.3221 21.5006C24.4446 22.3023 24.6436 22.9967 25.0084 23.4975C25.3981 24.0324 25.9509 24.3107 26.6592 24.3107V23.3695ZM28.1298 21.3367C27.9961 22.1358 27.7993 22.649 27.558 22.9562C27.3397 23.2342 27.0659 23.3695 26.6592 23.3695V24.3107C27.3329 24.3107 27.8883 24.0594 28.2982 23.5376C28.685 23.0451 28.9153 22.3454 29.0581 21.492L28.1298 21.3367ZM29.5117 13.0289L28.1297 21.3371L29.0581 21.4915L30.4401 13.1833L29.5117 13.0289ZM27.8653 13.5767H29.9759V12.6355H27.8653V13.5767ZM27.124 20.8206L28.3301 13.1795L27.4004 13.0328L26.1944 20.6739L27.124 20.8206ZM25.3024 15.1962L26.1944 20.821L27.124 20.6735L26.232 15.0488L25.3024 15.1962ZM24.046 13.4706C24.3761 13.4706 24.6224 13.6035 24.8242 13.8687C25.0408 14.1532 25.2079 14.5977 25.3024 15.1959L26.232 15.0492C26.1254 14.3738 25.922 13.757 25.5732 13.2987C25.2097 12.821 24.6959 12.5294 24.046 12.5294V13.4706ZM22.8023 15.1959C22.897 14.5958 23.0616 14.1511 23.2756 13.8667C23.4743 13.6027 23.7168 13.4706 24.046 13.4706V12.5294C23.3954 12.5294 22.884 12.8218 22.5236 13.3007C22.1786 13.7592 21.9789 14.3757 21.8726 15.0492L22.8023 15.1959ZM21.9229 20.8199L22.8024 15.1952L21.8725 15.0498L20.9931 20.6746L21.9229 20.8199ZM19.7746 13.1802L20.9933 20.8214L21.9227 20.6731L20.7041 13.032L19.7746 13.1802ZM19.9728 13.5767H20.2394V12.6355H19.9728V13.5767ZM18.0031 13.5767H19.9728V12.6355H18.0031V13.5767ZM17.8622 13.5767H18.0031V12.6355H17.8622V13.5767Z" fill="url(#paint2_linear_2024_2334)" fill-opacity="0.6" mask="url(#path-1-inside-1_2024_2334)"/>
<defs>
<linearGradient id="paint0_linear_2024_2334" x1="18.9879" y1="13" x2="18.9879" y2="23.8401" gradientUnits="userSpaceOnUse">
<stop stop-color="#EDEDED"/>
<stop offset="0.484375" stop-color="#D4B694"/>
<stop offset="0.484475" stop-color="#F58700"/>
<stop offset="1" stop-color="#FFCB8F"/>
</linearGradient>
<linearGradient id="paint1_linear_2024_2334" x1="18.9879" y1="13" x2="18.9879" y2="23.8401" gradientUnits="userSpaceOnUse">
<stop stop-color="#EDEDED"/>
<stop offset="0.484375" stop-color="#E0CDB8"/>
<stop offset="0.484475" stop-color="#F58700"/>
<stop offset="1" stop-color="#FFCB8F"/>
</linearGradient>
<linearGradient id="paint2_linear_2024_2334" x1="18.9879" y1="13" x2="18.9879" y2="23.8401" gradientUnits="userSpaceOnUse">
<stop stop-color="#FFCB8F"/>
<stop offset="0.515525" stop-color="#F58700"/>
<stop offset="0.515625" stop-color="#E0CDB8"/>
<stop offset="1" stop-color="#EDEDED"/>
</linearGradient>
</defs>
</svg>
