<svg width="38" height="36" viewBox="0 0 38 36" fill="none" xmlns="http://www.w3.org/2000/svg">
<mask id="path-1-inside-1_1797_797" fill="white">
<path fill-rule="evenodd" clip-rule="evenodd" d="M17.8622 13.1061L16.6561 20.7472L15.7641 15.1225C15.5631 13.849 15.0229 13 14.0429 13C13.063 13 12.5353 13.849 12.3343 15.1225L11.4549 20.7472L10.2363 13.1061H8L9.39452 21.4143C9.67092 23.0669 10.2488 23.8401 11.3293 23.8401C12.46 23.8401 12.9625 22.9911 13.2012 21.4295L13.9927 16.3202L14.7842 21.4295C15.0229 22.9911 15.5254 23.8401 16.6561 23.8401C17.7365 23.8401 18.3144 23.0669 18.5908 21.4143L18.9924 19.0002L19.3976 21.4143C19.674 23.0669 20.2519 23.8401 21.3324 23.8401C22.4631 23.8401 22.9656 22.9911 23.2043 21.4295L23.9958 16.3202L24.7873 21.4295C25.026 22.9911 25.5285 23.8401 26.6592 23.8401C27.7396 23.8401 28.3175 23.0669 28.5939 21.4143L29.9759 13.1061H27.8653L26.6592 20.7472L25.7672 15.1225C25.5662 13.849 25.026 13 24.046 13C23.0661 13 22.5384 13.849 22.3374 15.1225L21.458 20.7472L20.2394 13.1061H19.9728H18.0031H17.8622Z"/>
</mask>
<path fill-rule="evenodd" clip-rule="evenodd" d="M17.8622 13.1061L16.6561 20.7472L15.7641 15.1225C15.5631 13.849 15.0229 13 14.0429 13C13.063 13 12.5353 13.849 12.3343 15.1225L11.4549 20.7472L10.2363 13.1061H8L9.39452 21.4143C9.67092 23.0669 10.2488 23.8401 11.3293 23.8401C12.46 23.8401 12.9625 22.9911 13.2012 21.4295L13.9927 16.3202L14.7842 21.4295C15.0229 22.9911 15.5254 23.8401 16.6561 23.8401C17.7365 23.8401 18.3144 23.0669 18.5908 21.4143L18.9924 19.0002L19.3976 21.4143C19.674 23.0669 20.2519 23.8401 21.3324 23.8401C22.4631 23.8401 22.9656 22.9911 23.2043 21.4295L23.9958 16.3202L24.7873 21.4295C25.026 22.9911 25.5285 23.8401 26.6592 23.8401C27.7396 23.8401 28.3175 23.0669 28.5939 21.4143L29.9759 13.1061H27.8653L26.6592 20.7472L25.7672 15.1225C25.5662 13.849 25.026 13 24.046 13C23.0661 13 22.5384 13.849 22.3374 15.1225L21.458 20.7472L20.2394 13.1061H19.9728H18.0031H17.8622Z" fill="url(#paint0_linear_1797_797)"/>
<path d="M16.6561 20.7472L16.1623 20.8256C16.2008 21.0685 16.4103 21.2473 16.6563 21.2472C16.9023 21.2472 17.1116 21.0682 17.15 20.8252L16.6561 20.7472ZM17.8622 13.1061V12.6061C17.6161 12.6061 17.4066 12.7851 17.3683 13.0282L17.8622 13.1061ZM15.7641 15.1225L15.2702 15.2005L15.2703 15.2008L15.7641 15.1225ZM12.3343 15.1225L11.8404 15.0446L11.8403 15.0453L12.3343 15.1225ZM11.4549 20.7472L10.9611 20.826C10.9999 21.069 11.2096 21.2476 11.4557 21.2472C11.7017 21.2469 11.9109 21.0676 11.9489 20.8245L11.4549 20.7472ZM10.2363 13.1061L10.73 13.0274C10.6913 12.7847 10.482 12.6061 10.2363 12.6061V13.1061ZM8 13.1061V12.6061C7.85292 12.6061 7.71331 12.6709 7.6183 12.7832C7.5233 12.8954 7.48255 13.0438 7.5069 13.1889L8 13.1061ZM9.39452 21.4143L9.88767 21.3318L9.88763 21.3316L9.39452 21.4143ZM13.2012 21.4295L12.7071 21.3529L12.7069 21.3539L13.2012 21.4295ZM13.9927 16.3202L14.4868 16.2437C14.449 16 14.2393 15.8202 13.9927 15.8202C13.7461 15.8202 13.5363 16 13.4986 16.2437L13.9927 16.3202ZM14.7842 21.4295L15.2784 21.3539L15.2783 21.3529L14.7842 21.4295ZM18.5908 21.4143L19.084 21.4968L19.0841 21.4964L18.5908 21.4143ZM18.9924 19.0002L19.4855 18.9174C19.4451 18.6764 19.2364 18.5 18.992 18.5002C18.7477 18.5004 18.5393 18.6771 18.4992 18.9181L18.9924 19.0002ZM19.3976 21.4143L19.8908 21.3318L19.8907 21.3316L19.3976 21.4143ZM23.2043 21.4295L22.7102 21.3529L22.71 21.3539L23.2043 21.4295ZM23.9958 16.3202L24.4899 16.2437C24.4521 16 24.2424 15.8202 23.9958 15.8202C23.7492 15.8202 23.5394 16 23.5017 16.2437L23.9958 16.3202ZM24.7873 21.4295L25.2815 21.3539L25.2814 21.3529L24.7873 21.4295ZM28.5939 21.4143L29.0871 21.4968L29.0872 21.4964L28.5939 21.4143ZM29.9759 13.1061L30.4691 13.1882C30.4932 13.0432 30.4523 12.895 30.3573 12.7829C30.2623 12.6708 30.1228 12.6061 29.9759 12.6061V13.1061ZM27.8653 13.1061V12.6061C27.6192 12.6061 27.4097 12.7851 27.3714 13.0282L27.8653 13.1061ZM26.6592 20.7472L26.1654 20.8256C26.2039 21.0685 26.4134 21.2473 26.6594 21.2472C26.9053 21.2472 27.1147 21.0682 27.1531 20.8252L26.6592 20.7472ZM25.7672 15.1225L25.2733 15.2005L25.2734 15.2008L25.7672 15.1225ZM22.3374 15.1225L21.8435 15.0446L21.8434 15.0453L22.3374 15.1225ZM21.458 20.7472L20.9642 20.826C21.003 21.069 21.2127 21.2476 21.4588 21.2472C21.7048 21.2469 21.914 21.0676 21.952 20.8245L21.458 20.7472ZM20.2394 13.1061L20.7331 13.0274C20.6944 12.7847 20.4851 12.6061 20.2394 12.6061V13.1061ZM17.15 20.8252L18.3561 13.1841L17.3683 13.0282L16.1622 20.6693L17.15 20.8252ZM15.2703 15.2008L16.1623 20.8256L17.1499 20.6689L16.2579 15.0442L15.2703 15.2008ZM14.0429 13.5C14.363 13.5 14.601 13.6279 14.7977 13.8865C15.0102 14.1656 15.1762 14.6047 15.2702 15.2005L16.258 15.0446C16.151 14.3668 15.9464 13.7447 15.5935 13.2809C15.2249 12.7966 14.7028 12.5 14.0429 12.5V13.5ZM12.8282 15.2005C12.9226 14.6027 13.0861 14.1633 13.296 13.8844C13.4896 13.6271 13.7237 13.5 14.0429 13.5V12.5C13.3822 12.5 12.8625 12.7974 12.497 13.283C12.1479 13.747 11.9471 14.3689 11.8404 15.0446L12.8282 15.2005ZM11.9489 20.8245L12.8283 15.1998L11.8403 15.0453L10.9609 20.67L11.9489 20.8245ZM9.7425 13.1849L10.9611 20.826L11.9487 20.6685L10.73 13.0274L9.7425 13.1849ZM8 13.6061H10.2363V12.6061H8V13.6061ZM9.88763 21.3316L8.4931 13.0234L7.5069 13.1889L8.90142 21.4971L9.88763 21.3316ZM11.3293 23.3401C10.9309 23.3401 10.6659 23.2084 10.4536 22.9381C10.2168 22.6366 10.021 22.1292 9.88767 21.3318L8.90137 21.4968C9.04441 22.352 9.27577 23.0575 9.66717 23.5558C10.083 24.0852 10.6472 24.3401 11.3293 24.3401V23.3401ZM12.7069 21.3539C12.591 22.1125 12.4202 22.6176 12.1956 22.926C11.9975 23.1979 11.7427 23.3401 11.3293 23.3401V24.3401C12.0465 24.3401 12.6084 24.0577 13.0039 23.5148C13.3729 23.0082 13.5727 22.308 13.6955 21.505L12.7069 21.3539ZM13.4986 16.2437L12.7071 21.3529L13.6953 21.506L14.4868 16.3968L13.4986 16.2437ZM15.2783 21.3529L14.4868 16.2437L13.4986 16.3968L14.2901 21.506L15.2783 21.3529ZM16.6561 23.3401C16.2426 23.3401 15.9879 23.1979 15.7898 22.926C15.5651 22.6176 15.3944 22.1125 15.2784 21.3539L14.2899 21.505C14.4127 22.308 14.6125 23.0082 14.9815 23.5148C15.377 24.0577 15.9389 24.3401 16.6561 24.3401V23.3401ZM18.0977 21.3318C17.9643 22.1292 17.7685 22.6366 17.5318 22.9381C17.3194 23.2084 17.0545 23.3401 16.6561 23.3401V24.3401C17.3381 24.3401 17.9024 24.0852 18.3182 23.5558C18.7096 23.0575 18.941 22.352 19.084 21.4968L18.0977 21.3318ZM18.4992 18.9181L18.0976 21.3323L19.0841 21.4964L19.4856 19.0822L18.4992 18.9181ZM19.8907 21.3316L19.4855 18.9174L18.4993 19.0829L18.9045 21.4971L19.8907 21.3316ZM21.3324 23.3401C20.934 23.3401 20.669 23.2084 20.4567 22.9381C20.2199 22.6366 20.0241 22.1292 19.8908 21.3318L18.9045 21.4968C19.0475 22.352 19.2789 23.0575 19.6703 23.5558C20.0861 24.0852 20.6503 24.3401 21.3324 24.3401V23.3401ZM22.71 21.3539C22.5941 22.1125 22.4233 22.6176 22.1987 22.926C22.0006 23.1979 21.7458 23.3401 21.3324 23.3401V24.3401C22.0496 24.3401 22.6115 24.0577 23.007 23.5148C23.3759 23.0082 23.5758 22.308 23.6985 21.505L22.71 21.3539ZM23.5017 16.2437L22.7102 21.3529L23.6984 21.506L24.4899 16.3968L23.5017 16.2437ZM25.2814 21.3529L24.4899 16.2437L23.5017 16.3968L24.2932 21.506L25.2814 21.3529ZM26.6592 23.3401C26.2457 23.3401 25.991 23.1979 25.7929 22.926C25.5682 22.6176 25.3975 22.1125 25.2815 21.3539L24.293 21.505C24.4157 22.308 24.6156 23.0082 24.9846 23.5148C25.3801 24.0577 25.942 24.3401 26.6592 24.3401V23.3401ZM28.1008 21.3318C27.9674 22.1292 27.7716 22.6366 27.5349 22.9381C27.3225 23.2084 27.0576 23.3401 26.6592 23.3401V24.3401C27.3412 24.3401 27.9055 24.0852 28.3213 23.5558C28.7127 23.0575 28.944 22.352 29.0871 21.4968L28.1008 21.3318ZM29.4827 13.0241L28.1007 21.3323L29.0872 21.4964L30.4691 13.1882L29.4827 13.0241ZM27.8653 13.6061H29.9759V12.6061H27.8653V13.6061ZM27.1531 20.8252L28.3591 13.1841L27.3714 13.0282L26.1653 20.6693L27.1531 20.8252ZM25.2734 15.2008L26.1654 20.8256L27.153 20.6689L26.261 15.0442L25.2734 15.2008ZM24.046 13.5C24.3661 13.5 24.6041 13.6279 24.8008 13.8865C25.0132 14.1656 25.1793 14.6047 25.2733 15.2005L26.2611 15.0446C26.1541 14.3668 25.9495 13.7447 25.5966 13.2809C25.228 12.7966 24.7059 12.5 24.046 12.5V13.5ZM22.8313 15.2005C22.9257 14.6027 23.0892 14.1633 23.2991 13.8844C23.4927 13.6271 23.7268 13.5 24.046 13.5V12.5C23.3853 12.5 22.8656 12.7974 22.5001 13.283C22.151 13.747 21.9502 14.3689 21.8435 15.0446L22.8313 15.2005ZM21.952 20.8245L22.8314 15.1998L21.8434 15.0453L20.964 20.67L21.952 20.8245ZM19.7456 13.1849L20.9642 20.826L21.9518 20.6685L20.7331 13.0274L19.7456 13.1849ZM19.9728 13.6061H20.2394V12.6061H19.9728V13.6061ZM18.0031 13.6061H19.9728V12.6061H18.0031V13.6061ZM17.8622 13.6061H18.0031V12.6061H17.8622V13.6061Z" fill="url(#paint1_linear_1797_797)" fill-opacity="0.6" mask="url(#path-1-inside-1_1797_797)"/>
<defs>
<linearGradient id="paint0_linear_1797_797" x1="18.9879" y1="13" x2="18.9879" y2="23.8401" gradientUnits="userSpaceOnUse">
<stop stop-color="#EDEDED"/>
<stop offset="0.484375" stop-color="#AE94D4"/>
<stop offset="0.484475" stop-color="#450F96"/>
<stop offset="1" stop-color="#6600FE"/>
</linearGradient>
<linearGradient id="paint1_linear_1797_797" x1="18.9879" y1="13" x2="18.9879" y2="23.8401" gradientUnits="userSpaceOnUse">
<stop stop-color="#6600FE"/>
<stop offset="0.515525" stop-color="#5613BA"/>
<stop offset="0.515625" stop-color="#AE94D4"/>
<stop offset="1" stop-color="#EDEDED"/>
</linearGradient>
</defs>
</svg>
