<svg width="36" height="36" viewBox="0 0 36 36" fill="none" xmlns="http://www.w3.org/2000/svg">
<path fill-rule="evenodd" clip-rule="evenodd" d="M11 11.4412H15.6324L18.9272 16.0387L22.9118 11.4412H24.6765L19.726 17.1533L25.1176 24.6765H20.4853L17.1904 20.0789L13.2059 24.6765H11.4412L16.3916 18.9644L11 11.4412ZM21.1651 23.3529L13.5769 12.7647H14.9526L22.5408 23.3529H21.1651Z" fill="url(#paint0_linear_1797_756)"/>
<path d="M19.1162 16.2024L23.0259 11.6912H24.129L19.5371 16.9895C19.4613 17.0769 19.4554 17.2049 19.5228 17.2989L24.6309 24.4265H20.6137L17.3936 19.9333C17.349 19.8711 17.2784 19.8327 17.2019 19.8292C17.1255 19.8257 17.0516 19.8574 17.0015 19.9152L13.0917 24.4265H11.9887L16.5806 19.1281C16.6563 19.0407 16.6622 18.9128 16.5948 18.8188L11.4867 11.6912H15.5039L18.724 16.1843C18.7686 16.2465 18.8393 16.2849 18.9157 16.2884C18.9922 16.292 19.066 16.2603 19.1162 16.2024ZM20.9619 23.4986C21.0088 23.5641 21.0845 23.6029 21.1651 23.6029H22.5408C22.6345 23.6029 22.7204 23.5505 22.7632 23.4672C22.806 23.3838 22.7986 23.2835 22.744 23.2073L15.1558 12.6191C15.1088 12.5536 15.0332 12.5147 14.9526 12.5147H13.5769C13.4831 12.5147 13.3973 12.5671 13.3545 12.6505C13.3117 12.7339 13.3191 12.8342 13.3736 12.9103L20.9619 23.4986Z" stroke="url(#paint1_linear_1797_756)" stroke-opacity="0.6" stroke-width="0.5" stroke-linejoin="round"/>
<defs>
<linearGradient id="paint0_linear_1797_756" x1="18.0588" y1="11.4412" x2="18.0588" y2="24.6765" gradientUnits="userSpaceOnUse">
<stop stop-color="#EDEDED"/>
<stop offset="0.484375" stop-color="#94C9D4"/>
<stop offset="0.484475" stop-color="#0F8096"/>
<stop offset="1" stop-color="#00D4FE"/>
</linearGradient>
<linearGradient id="paint1_linear_1797_756" x1="18.0588" y1="11.4412" x2="18.0588" y2="24.6765" gradientUnits="userSpaceOnUse">
<stop stop-color="#00D4FE"/>
<stop offset="0.515525" stop-color="#139EBA"/>
<stop offset="0.515625" stop-color="#94C9D4"/>
<stop offset="1" stop-color="#EDEDED"/>
</linearGradient>
</defs>
</svg>
