<svg width="36" height="36" viewBox="0 0 36 36" fill="none" xmlns="http://www.w3.org/2000/svg">
<path fill-rule="evenodd" clip-rule="evenodd" d="M11 11.4412H15.6324L18.9272 16.0387L22.9118 11.4412H24.6765L19.726 17.1533L25.1176 24.6765H20.4853L17.1904 20.0789L13.2059 24.6765H11.4412L16.3916 18.9644L11 11.4412ZM21.1651 23.3529L13.5769 12.7647H14.9526L22.5408 23.3529H21.1651Z" fill="url(#paint0_linear_2024_2324)"/>
<path d="M19.0964 16.1853L23.014 11.665H24.1863L19.5568 17.0066C19.489 17.0849 19.4837 17.1995 19.5441 17.2836L24.6818 24.4526H20.6003L17.3723 19.9486C17.3324 19.8928 17.2692 19.8585 17.2007 19.8553C17.1323 19.8522 17.0661 19.8806 17.0212 19.9323L13.1037 24.4526H11.9314L16.5608 19.111C16.6286 19.0327 16.6339 18.9182 16.5736 18.834L11.4358 11.665H15.5174L18.7453 16.1691C18.7852 16.2248 18.8485 16.2591 18.9169 16.2623C18.9854 16.2655 19.0515 16.2371 19.0964 16.1853ZM20.9831 23.4833C21.0252 23.542 21.0929 23.5768 21.1651 23.5768H22.5408C22.6247 23.5768 22.7016 23.5299 22.7399 23.4552C22.7782 23.3806 22.7716 23.2908 22.7227 23.2225L15.1345 12.6343C15.0925 12.5757 15.0247 12.5409 14.9526 12.5409H13.5769C13.4929 12.5409 13.4161 12.5878 13.3777 12.6624C13.3394 12.7371 13.346 12.8269 13.3949 12.8951L20.9831 23.4833Z" stroke="url(#paint1_linear_2024_2324)" stroke-opacity="0.6" stroke-width="0.44769" stroke-linejoin="round"/>
<defs>
<linearGradient id="paint0_linear_2024_2324" x1="18.0588" y1="11.4412" x2="18.0588" y2="24.6765" gradientUnits="userSpaceOnUse">
<stop stop-color="#EDEDED"/>
<stop offset="0.484375" stop-color="#B8DCE0"/>
<stop offset="0.484475" stop-color="#01B3CB"/>
<stop offset="1" stop-color="#87F1FF"/>
</linearGradient>
<linearGradient id="paint1_linear_2024_2324" x1="18.0588" y1="11.4412" x2="18.0588" y2="24.6765" gradientUnits="userSpaceOnUse">
<stop stop-color="#87F1FF"/>
<stop offset="0.515525" stop-color="#01B3CB"/>
<stop offset="0.515625" stop-color="#B8DCE0"/>
<stop offset="1" stop-color="#EDEDED"/>
</linearGradient>
</defs>
</svg>
