<svg width="36" height="36" viewBox="0 0 36 36" fill="none" xmlns="http://www.w3.org/2000/svg">
<path fill-rule="evenodd" clip-rule="evenodd" d="M11 11.4412H15.6324L18.9272 16.0387L22.9118 11.4412H24.6765L19.726 17.1533L25.1176 24.6765H20.4853L17.1904 20.0789L13.2059 24.6765H11.4412L16.3916 18.9644L11 11.4412ZM21.1651 23.3529L13.5769 12.7647H14.9526L22.5408 23.3529H21.1651Z" fill="url(#paint0_linear_1797_655)"/>
<path d="M19.1051 16.1928L23.0192 11.6765H24.1612L19.5482 16.9992C19.4769 17.0814 19.4713 17.2018 19.5348 17.2903L24.6595 24.4412H20.6061L17.3817 19.9419C17.3397 19.8833 17.2732 19.8472 17.2013 19.8439C17.1293 19.8406 17.0598 19.8704 17.0126 19.9248L13.0984 24.4412H11.9565L16.5694 19.1185C16.6407 19.0362 16.6463 18.9158 16.5829 18.8273L11.4581 11.6765H15.5115L18.736 16.1758C18.778 16.2343 18.8444 16.2704 18.9164 16.2737C18.9884 16.2771 19.0579 16.2472 19.1051 16.1928ZM20.9738 23.49C21.018 23.5517 21.0892 23.5882 21.1651 23.5882H22.5408C22.629 23.5882 22.7098 23.5389 22.7501 23.4604C22.7904 23.382 22.7834 23.2876 22.732 23.2159L15.1438 12.6276C15.0996 12.566 15.0284 12.5294 14.9526 12.5294H13.5769C13.4886 12.5294 13.4079 12.5787 13.3676 12.6572C13.3273 12.7357 13.3342 12.8301 13.3856 12.9018L20.9738 23.49Z" stroke="url(#paint1_linear_1797_655)" stroke-opacity="0.6" stroke-width="0.470588" stroke-linejoin="round"/>
<defs>
<linearGradient id="paint0_linear_1797_655" x1="18.0588" y1="11.4412" x2="18.0588" y2="24.6765" gradientUnits="userSpaceOnUse">
<stop stop-color="#EDEDED"/>
<stop offset="0.484375" stop-color="#C9D494"/>
<stop offset="0.484475" stop-color="#80960F"/>
<stop offset="1" stop-color="#D4FE00"/>
</linearGradient>
<linearGradient id="paint1_linear_1797_655" x1="18.0588" y1="11.4412" x2="18.0588" y2="24.6765" gradientUnits="userSpaceOnUse">
<stop stop-color="#D4FE00"/>
<stop offset="0.515525" stop-color="#9EBA13"/>
<stop offset="0.515625" stop-color="#C9D494"/>
<stop offset="1" stop-color="#EDEDED"/>
</linearGradient>
</defs>
</svg>
